<svg width="136" height="58" viewBox="0 0 136 58" fill="none" xmlns="http://www.w3.org/2000/svg">
<g clip-path="url(#clip0_38_410)">
<path d="M58.0327 29.0002C58.0327 25.4328 57.3564 22.03 56.1774 18.8738C55.8655 29.2624 45.3008 37.3057 39.0982 42.6284H54.6237C56.7938 38.5642 58.0329 33.9278 58.0329 29.0002H58.0327ZM46.809 6.12542C41.8932 2.30032 35.7299 0 29.0172 0C12.9919 0 0.000488281 12.9845 0.000488281 29.0002C0.000488281 45.0159 12.9919 58 29.0172 58C36.3555 58 43.0373 55.2559 48.1472 50.7652H27.14L27.0759 44.5994C39.7335 33.6018 47.4927 26.1641 47.4927 18.98C47.4927 16.3102 46.4751 12.9409 41.8962 12.9409C38.2703 12.9409 34.7723 15.0401 35.4082 23.8118H28.0307C26.1858 13.6415 31.7194 5.56725 42.2767 5.56725C43.9135 5.56725 45.4277 5.76258 46.809 6.12542Z" fill="#A3C626"/>
<path d="M84.9451 20.044H91.8083C92.0429 14.8265 90.2839 6.55853 78.9627 6.55853C70.6322 6.55853 64.5898 11.543 64.5898 21.9202C64.5898 23.3273 64.648 30.5973 64.648 35.1116C64.648 46.3698 72.4511 48.8315 79.0209 48.8315C82.9514 48.8315 88.6412 47.9517 91.2807 45.0791V27.138H78.3752V33.6461H84.1246V41.5615C79.7831 43.0269 71.8636 43.6137 71.8636 33.6461V21.9202C71.8636 14.943 75.0905 12.5394 78.6681 12.5394C82.3643 12.5394 84.9451 14.4156 84.9451 20.0438V20.044ZM135.996 37.4564C136.289 21.3929 117.871 26.7271 118.046 17.7572C118.104 14.592 120.157 12.5394 123.502 12.5394C127.08 12.5394 129.19 14.6501 129.132 20.162H135.878C136.055 15.1775 134.881 6.67662 123.737 6.67662C116.814 6.67662 111.124 10.0778 111.006 17.6405C110.713 33.0591 129.25 28.0176 128.957 37.3401C128.839 41.1509 126.081 42.8507 122.973 42.8507C119.337 42.8507 116.403 40.7399 116.99 34.4081H110.184C109.422 42.7925 113.118 48.7734 122.915 48.7734C131.186 48.7734 135.878 44.1992 135.996 37.4566L135.996 37.4564ZM105.006 48.2444H98.0853V7.20387H105.006V48.2444ZM105.006 48.2444H98.0853V7.20387H105.006V48.2444Z" fill="#434242"/>
</g>
<defs>
<clipPath id="clip0_38_410">
<rect width="136" height="58" fill="white"/>
</clipPath>
</defs>
</svg>
