<svg width="40" height="24" viewBox="0 0 40 24" fill="none" xmlns="http://www.w3.org/2000/svg">
<path d="M0.790516 0.831407C1.31752 0.277135 1.94151 -1.66359e-06 2.66245 -1.63208e-06C3.382 -1.60062e-06 4.00527 0.277135 4.53228 0.831407L19.9736 17.0716L35.4677 0.775981C35.9596 0.25866 36.5744 -1.49736e-07 37.3123 -1.17485e-07C38.0501 -8.52343e-08 38.6825 0.277136 39.2095 0.831409C39.7365 1.38568 40 2.04194 40 2.80018C40 3.55695 39.7365 4.21247 39.2095 4.76674L21.4493 23.3903C21.2385 23.612 21.0101 23.7694 20.7642 23.8625C20.5182 23.9542 20.2547 24 19.9736 24C19.6926 24 19.4291 23.9542 19.1831 23.8625C18.9372 23.7694 18.7088 23.612 18.498 23.3903L0.737816 4.71131C0.245941 4.19399 -1.55479e-07 3.55695 -1.224e-07 2.80018C-8.9256e-08 2.04194 0.263508 1.38568 0.790516 0.831407Z" fill="#005340"/>
</svg>
