<svg width="260" height="97" viewBox="0 0 260 97" fill="none" xmlns="http://www.w3.org/2000/svg">
<g clip-path="url(#clip0_50_571)">
<path fill-rule="evenodd" clip-rule="evenodd" d="M249.843 36.3731L53.827 36.3724C48.3039 36.3584 44.6869 35.9991 44.6869 40.9197C44.6869 42.3057 46.2763 43.7102 47.5393 44.1443C50.3114 45.0974 241.648 44.4558 244.257 44.4558C243.616 46.8428 237.093 52.1854 234.964 53.9027L223.441 61.1306C215.04 65.2753 212.401 66.3723 203.321 69.4063C199.29 70.7534 199.664 71.0131 196.079 69.6647C186.195 65.9484 177.56 63.8975 164.091 65.2368C148.805 66.7568 151.499 72.7457 126.445 72.7457C118.971 72.7457 113.341 70.1634 107.72 68.1348C104.955 67.1368 101.852 66.2335 98.5271 65.6613C96.7816 65.3609 95.6174 65.1731 93.4369 65.168C90.6728 65.1617 89.9174 64.6579 87.8508 64.6579C85.7748 64.6579 85.4101 65.1356 82.7756 65.1709C69.5733 65.3472 61.5248 72.7457 49.2573 72.7457H39.6089C38.0522 72.7457 34.5248 67.2895 33.582 66.1123L22.0551 51.8152C20.0642 49.294 17.9259 46.9462 16.2495 44.4558C20.1423 44.4558 24.0405 44.4367 27.9326 44.4593C32.2441 44.4845 36.054 44.6614 36.054 40.4146C36.054 34.8626 28.1114 36.3731 21.3276 36.3731C21.7447 36.0122 21.8685 35.8934 22.4492 35.4683L33.1408 28.9284C37.9629 26.9291 43.2604 26.5831 49.1085 25.6166L82.7731 20.7129C84.2693 20.7129 85.3548 21.9866 86.207 22.8538C87.328 23.9941 88.1851 24.6851 89.5051 25.6351C91.979 27.4154 94.4331 28.2906 98.5152 28.2906H251.875C251.793 31.9579 250.07 33.659 249.844 36.3737L249.843 36.3731ZM125.937 8.08317H143.711C146.596 8.08317 161.835 19.9949 161.992 20.2075H125.937V8.08317ZM109.687 8.08317H117.812V20.2075H109.687V8.08317ZM101.562 8.08317V20.2075C89.2981 20.2075 94.7034 17.3476 87.5405 13.949C82.146 11.3895 78.6141 13.2421 72.0814 14.118L37.7886 19.4068C29.734 20.8084 25.3029 24.1377 19.8041 27.7849C15.2168 30.8274 7.61657 34.762 7.61657 41.9298C7.61657 47.7352 11.9742 51.8003 15.5819 56.2336L25.3899 68.7045C17.3897 66.8503 20.2459 65.7877 8.12683 65.1623C5.93636 65.0493 6.28635 64.6881 4.54025 64.6868C2.08936 64.6855 -0.000976562 66.0833 -0.000976562 68.7042C-0.000976562 73.8469 5.27349 72.2387 9.95868 72.9411C14.5217 73.6257 18.0334 74.4564 21.7617 75.8494C56.8723 88.966 65.3389 72.7454 85.8193 72.7454C96.5871 72.7454 99.8806 73.4242 109.325 77.1469C136.574 87.8881 154.322 72.7454 169.1 72.7454C181.212 72.7454 182.462 73.0808 193.548 77.2192C218.832 86.6571 232.884 75.7494 249.607 73.0166C254.287 72.2518 259.998 73.936 259.998 68.7039C259.998 66.5143 258.956 65.5493 257.126 64.9596C254.555 64.1308 242.487 66.2103 239.568 67.0715C232.772 69.0762 226.413 72.7454 217.85 72.7454C221.267 69.7904 240.822 65.1111 254.319 44.3623C259.106 37.0026 265.365 20.1101 250.371 20.1859L195.506 20.2069C188.16 20.2069 177.658 21.6416 174.014 18.8549L155.385 5.56035C152.136 3.27812 148.137 -0.000244141 142.694 -0.000244141H109.685C105.264 -0.000244141 101.561 3.68358 101.561 8.08285L101.562 8.08317Z" fill="white"/>
<path fill-rule="evenodd" clip-rule="evenodd" d="M44.6876 92.4474C44.6876 97.7229 48.4485 96.7818 53.3212 96.4912C68.3403 95.595 80.2355 81.9255 109.327 93.3109C121.852 98.2127 138.16 98.2455 150.674 93.3128C159.014 90.0255 163.399 88.9113 173.672 88.9113C187.477 88.9113 194.427 95.5148 206.183 96.4785C211.21 96.8906 215.312 97.7964 215.312 92.4474C215.312 87.5832 206.684 90.0987 196.374 86.0288C187.977 82.7145 185.002 81.8119 175.702 81.3314C172.933 81.1881 173.526 80.6433 170.427 81.1032C164.986 81.9109 163.299 80.6293 153.795 83.7883C139.132 88.6618 142.92 88.9113 126.445 88.9113C115.231 88.9113 108.817 83.1298 95.849 81.4599C84.7492 80.0306 73.6487 82.0723 63.6254 86.0288C60.4844 87.2684 57.3832 88.0405 53.5544 88.6392C51.7302 88.9243 44.6873 88.4581 44.6873 92.4471L44.6876 92.4474Z" fill="white"/>
<path fill-rule="evenodd" clip-rule="evenodd" d="M223.945 91.4373C223.945 98.2544 231.898 94.258 234.553 93.4025C243.206 90.6143 239.349 84.8698 235.625 84.8698C234.54 84.8698 230.23 86.5683 228.698 87.0721C226.219 87.8878 223.945 88.3394 223.945 91.4373Z" fill="white"/>
<path fill-rule="evenodd" clip-rule="evenodd" d="M20.8201 88.9114C20.8201 93.6318 36.0545 98.4413 36.0545 92.4475C36.0545 87.5884 33.5147 87.8481 28.628 86.1928C26.7273 85.549 25.2903 84.7651 23.7735 85.2527C22.3809 85.7005 20.8201 87.3583 20.8201 88.9114Z" fill="white"/>
</g>
<defs>
<clipPath id="clip0_50_571">
<rect width="260" height="97" fill="white"/>
</clipPath>
</defs>
</svg>
