<svg width="115" height="59" viewBox="0 0 115 59" fill="none" xmlns="http://www.w3.org/2000/svg">
<path fill-rule="evenodd" clip-rule="evenodd" d="M55.9848 3.47799H31.5694V24.5666H55.9848V3.47799ZM93.8429 49.3538C93.8429 43.3841 84.6587 44.0978 84.6587 48.9385C84.6587 51.4432 86.4047 53.1562 88.9882 53.3638C91.4581 53.5585 93.8429 51.5989 93.8429 49.3538ZM99.8899 48.5362C99.8899 51.4042 99.1376 54.3631 96.6961 56.2578C88.1365 62.9024 78.6116 56.154 78.6116 49.9637C78.6116 46.6544 79.2362 44.5391 82.0184 42.0214C88.5339 36.1426 99.8899 41.0741 99.8899 48.5232V48.5362ZM26.8708 45.0582C21.1786 45.0582 20.8238 51.6248 24.8693 53.0264C31.9385 55.4792 33.5993 45.0582 26.8708 45.0582ZM37.4035 49.1591C37.4035 52.2088 36.0692 54.3631 34.3942 56.0242C29.7524 60.5794 20.5967 60.1122 16.9202 53.1562C12.4913 44.7857 23.8899 34.8318 33.4857 41.697C34.3374 42.3069 34.8342 42.8001 35.4446 43.6047C36.495 44.9933 37.4319 46.901 37.4319 49.1591H37.4035ZM84.4458 4.10092C84.4458 3.63372 84.2896 3.49097 83.7786 3.49097H60.0304V24.5795H84.4458V4.10092ZM9.18388 24.5795H27.7793V4.10092C27.7793 3.63372 27.6232 3.49097 27.1122 3.49097H9.86523C6.75652 3.49097 4.04528 4.82766 4.04528 7.59189V20.4916C4.04528 22.9703 6.43004 24.5925 9.19807 24.5925L9.18388 24.5795ZM107.073 24.3719C108.932 23.9696 109.983 22.3344 109.983 21.1016L107.073 10.2523C106.107 6.72239 105.582 3.49097 99.4499 3.49097H88.25V24.5795H103.027C102.502 23.6841 102.218 22.8665 101.749 21.8543C100.997 20.258 100.571 19.9206 100.571 18.4282C100.571 17.8312 101.693 17.0006 102.36 17.0006C104.305 17.0006 105.185 19.9855 106.136 22.1527C106.491 22.9703 106.831 23.4765 107.073 24.3719ZM114.695 29.0828V43.6177C114.695 47.2254 111.317 49.3538 107.073 49.3538C98.9673 49.3538 103.041 50.0026 100.94 45.136C99.9609 42.8779 98.8821 41.8008 97.1645 40.3992C96.6535 39.9839 95.9721 39.5297 95.3333 39.2053C91.8556 37.4144 86.8731 37.4403 83.3386 39.1274C80.2015 40.6198 77.5612 43.9032 76.9508 47.2125C76.7663 48.2247 77.1637 49.3538 76.1559 49.3538H39.1921C39.1921 42.9299 33.4289 37.8816 27.538 37.8816C23.4215 37.8816 20.3695 38.5694 17.5163 41.4115C14.1237 44.7727 14.6773 47.1216 14.1095 49.3538C11.228 49.3538 6.5294 49.5744 4.44274 48.9774C2.17154 48.3285 -0.000289917 46.2911 -0.000289917 43.6177V5.32081C-0.000289917 2.7772 3.08002 0 5.81966 0H102.133C105.156 0 107.825 2.03748 108.861 3.8803C109.557 5.12615 110.976 10.0187 111.445 11.7577C113.29 18.519 114.667 21.1405 114.667 29.0828H114.695Z" fill="#E7B96E"/>
</svg>
