<svg width="60" height="49" viewBox="0 0 60 49" fill="none" xmlns="http://www.w3.org/2000/svg">
<path fill-rule="evenodd" clip-rule="evenodd" d="M14.459 29.8089C14.3785 29.9489 14.4557 29.8368 14.363 29.9474L13.7996 30.526C13.6337 30.6644 13.7326 30.6229 13.5421 30.7324C12.7627 31.0512 12.1993 31.5111 10.8086 31.3021C8.70146 30.9855 7.10594 28.4836 8.17698 26.2799L8.30718 26.0305C8.36419 25.9247 8.41605 25.8329 8.48042 25.7407C9.69159 24.0013 11.9322 23.6659 13.74 24.9821C14.1931 25.312 14.7853 26.0356 14.9835 27.0656C15.2314 28.355 14.8408 28.8931 14.459 29.8093V29.8089ZM43.5455 1.13938C43.3491 1.00971 43.2678 1.02771 42.9364 0.991347C41.8102 0.875269 40.6505 0.642377 39.453 0.510503C38.4857 0.404343 36.7658 0.184676 35.7566 0.223981C35.4039 0.0788828 34.0971 0.0652914 33.6075 0.0851275L28.786 0.0307617C24.7089 0.0465572 18.9495 0.335284 15.149 1.24554C13.5524 1.62794 12.9338 1.90014 11.8999 2.92574C10.8391 3.97779 10.7424 4.49758 10.1296 6.08704L7.41158 13.3067C5.99702 13.3857 4.08997 13.1686 2.75485 13.4279C1.67682 13.6376 0.509052 14.736 0.19311 15.7418C-0.571182 18.1743 1.01441 20.3504 3.51693 20.4855C3.92004 20.5072 4.23415 20.4914 4.62622 20.5759C4.67661 21.103 3.4853 23.9073 3.30765 24.9843C2.92404 27.3099 3.07484 39.2304 3.08366 42.0038C3.08587 42.7425 2.95714 44.311 3.13994 44.8194C3.33266 45.3561 3.94211 46.3222 4.21134 46.6182C4.64241 47.0921 5.22353 47.5557 5.86939 47.8374C6.61603 48.1629 7.45131 48.33 8.3686 48.2301C9.134 48.1471 9.84128 47.8878 10.4802 47.4492C10.8833 47.1725 11.1279 47.0087 11.2934 46.8206L11.7608 46.2189C11.8841 46.047 11.8028 46.1624 11.9069 45.9908C12.7944 44.5307 12.7002 42.9129 12.6995 41.0101L46.4872 40.9987C46.4846 42.8192 46.3974 44.5997 47.2662 45.9894C48.4825 47.9348 50.8887 48.8979 53.396 47.779C54.6336 47.2265 55.4744 46.1837 56.0055 44.9285C56.2052 44.4561 56.1059 42.727 56.1048 42.0794C56.1004 39.3002 56.2762 27.2581 55.8875 25.0324C55.6182 23.4926 54.4619 21.0593 54.5678 20.584C55.0684 20.4444 56.1578 20.4859 56.6709 20.3393C59.205 19.6146 60.1286 16.1884 58.027 14.3176C57.554 13.8966 57.3057 13.6185 56.477 13.4452C55.079 13.1524 53.2187 13.4202 51.753 13.3023C51.515 12.8402 51.2649 12.0515 51.0718 11.4887L48.9916 5.90117C48.3869 4.2746 48.1011 3.5796 47.1044 2.71012C46.2477 1.96295 45.1877 1.35317 43.5459 1.13865L43.5455 1.13938ZM44.1443 28.0552C44.0836 27.5424 44.1866 26.9727 44.3473 26.5367C44.4286 26.3166 44.5206 26.1381 44.6405 25.9302C44.8972 25.4861 45.0476 25.2929 45.4515 24.981L46.1304 24.534C46.1826 24.5104 46.247 24.4818 46.2886 24.4638C46.396 24.4175 46.4931 24.3764 46.6167 24.3356C46.8546 24.2574 47.1158 24.2034 47.3824 24.1802C47.8712 24.1376 48.456 24.1934 48.95 24.3712C49.416 24.5387 49.7533 24.7518 50.1086 25.0622C51.5062 26.2832 51.8291 28.4321 50.4466 30.127C48.9695 31.9376 45.9347 31.6772 44.7423 29.7979C44.7342 29.785 44.7225 29.7659 44.7144 29.7531C44.3558 29.1833 44.2204 28.6988 44.1443 28.0552ZM15.7298 6.00623C18.5788 6.01357 42.9736 5.86333 43.4444 6.06023C43.5904 6.17484 47.0418 16.515 47.0131 16.8926C44.1638 17.0021 41.2401 16.9485 38.3518 16.9562L20.893 16.9554C17.9829 16.9477 15.056 17.0069 12.1654 16.8897C12.1665 16.4863 13.801 11.6974 13.8963 11.4318L15.7298 6.00623Z" fill="#D6A350"/>
</svg>
