<svg width="76" height="74" viewBox="0 0 76 74" fill="none" xmlns="http://www.w3.org/2000/svg">
<path d="M54.1308 4.44C56.693 1.48 59.9409 0 63.8744 0C67.1583 0 69.9009 1.19122 72.1744 3.60976C74.4479 6.02829 75.6388 8.77171 75.7831 11.9122C75.7831 14.439 74.5923 17.3629 72.1744 20.7922C69.7566 24.2215 67.4109 27.0732 65.0652 29.4195C62.7196 31.7298 59.0748 35.159 54.1308 39.7073C49.1147 35.159 45.4338 31.7298 43.0881 29.4195C40.7425 27.1093 38.3607 24.2215 35.9789 20.7922C33.5972 17.3629 32.4785 14.439 32.4785 11.9122C32.4785 8.62732 33.6333 5.8839 35.9789 3.60976C38.3246 1.33561 41.1394 0.14439 44.4234 0C48.2847 0 51.4964 1.48 54.1308 4.44ZM75.7831 61.3659V64.9756L46.9134 74L21.6523 66.9971V72.1951H0V32.4878H28.7615L50.9912 40.7902C52.9721 41.5377 54.6786 42.8704 55.884 44.6113C57.0894 46.3522 57.7366 48.4189 57.7395 50.5366H64.957C70.9474 50.5366 75.7831 55.3737 75.7831 61.3659ZM14.4349 64.9756V39.7073H7.21744V64.9756H14.4349ZM68.2048 59.8137C67.6274 58.6224 66.3644 57.7561 64.957 57.7561H45.6503C43.7016 57.7561 41.789 57.4673 39.9485 56.8537L31.3598 54.0019L33.6333 47.1434L42.222 49.9951C43.3046 50.3561 50.5221 50.5366 50.5221 50.5366C50.5221 49.201 49.6921 48.0098 48.4651 47.5405L27.4624 39.7073H21.6523V59.561L46.8051 66.4556L68.2048 59.8137Z" fill="#502F0A"/>
</svg>
