<svg width="126" height="59" viewBox="0 0 126 59" fill="none" xmlns="http://www.w3.org/2000/svg">
<path fill-rule="evenodd" clip-rule="evenodd" d="M17.7028 18.0693L17.8946 17.7568L18.005 17.4526L18.1113 17.1414L18.2146 16.8264L18.4224 16.5125L19.576 13.8227C20.6939 11.1345 21.754 8.40959 25.256 7.65863C27.1933 7.24321 37.5005 7.46301 40.299 7.46301V19.4867C38.7256 19.0907 36.8348 19.4039 35.0725 19.1901C34.3164 19.0984 33.3443 19.1527 32.5138 19.0519C30.7285 18.8354 25.9784 18.8241 24.5982 18.6198L19.19 18.4168L17.6918 18.3362L17.7028 18.0693L17.7028 18.0693ZM94.0311 47.6803V49.3388C94.0311 52.8817 96.5387 56.1037 99.4043 57.4928C99.8983 57.7323 100.483 57.896 101.063 58.0507C102.787 58.5108 104.888 58.2682 106.48 57.5352C109.347 56.2151 111.942 52.9472 111.942 49.3388C111.942 45.9865 111.628 44.1037 109.287 41.5647C105.036 36.9522 97.5377 38.2996 94.8804 44.1753C94.4792 45.0624 94.0311 46.4346 94.0311 47.6803L94.0311 47.6803ZM8.95535 47.6803V49.3388C8.95535 52.8817 11.463 56.1037 14.3285 57.4928C14.8225 57.7323 15.4072 57.896 15.987 58.0507C21.1865 59.438 26.866 54.8665 26.866 49.3388C26.866 47.1959 26.9208 46.1742 26.0167 44.1753C24.6929 41.2479 21.6449 38.8353 18.4224 38.8353C15.5091 38.8353 13.6599 39.3501 11.5459 41.6338C10.1544 43.137 8.95535 45.3449 8.95535 47.6803H8.95535ZM27.4456 0H27.8286C28.8438 0.0222689 29.5667 0.138946 30.704 0.138222L63.9667 0.138204C67.3515 0.138204 73.0735 -0.437255 75.8118 1.71544C76.5027 2.2586 77.0005 2.78076 77.6377 3.33625L85.4934 11.0198C85.8249 11.381 85.9981 11.5912 86.3551 11.8855L91.6003 16.9991C91.9749 17.3079 92.1141 17.5269 92.4649 17.8617L94.2549 19.5214C97.5097 22.8703 97.3371 21.5926 100.319 21.9542L103.505 22.1052C106.784 22.3889 112.215 22.631 114.99 24.0712C119.127 26.2178 123.146 30.2526 124.811 35.0215C125.602 37.2855 125.375 38.9089 125.375 41.323C125.375 43.3792 125.688 46.6653 125.038 48.146C124.41 49.5781 123.031 50.9972 121.153 50.9972H116.164C116.164 50.2965 116.292 50.2442 116.292 49.477V47.5421C116.292 41.0932 110.316 34.1364 103.626 34.1364H102.347C97.3668 34.1364 93.0554 37.7926 91.0031 42.198C89.7081 44.9777 89.6814 46.5137 89.6814 49.477C89.6814 50.2442 89.8093 50.2965 89.8093 50.9972H31.0878C31.0878 50.2965 31.2158 50.2442 31.2158 49.477V47.5421C31.2158 41.0932 25.2398 34.1364 18.5504 34.1364H17.271C12.291 34.1364 7.97962 37.7926 5.92733 42.198C4.63236 44.9777 4.6056 46.5137 4.6056 49.477C4.6056 50.2443 4.73354 50.2965 4.73354 50.9972C1.98094 50.9972 0 48.9623 0 46.5747V38.5589C0 36.0165 2.35079 26.4971 3.23458 24.0866C3.87594 22.3374 3.91556 22.7366 4.41138 21.7646L6.77314 17.1294C7.87348 15.1581 9.36324 12.2062 10.4905 10.3653C13.1856 5.96436 13.5042 3.21798 18.7565 1.32834C20.5967 0.666297 22.2165 0.530287 24.3605 0.195632L27.4456 1.71464e-05V0ZM69.212 18.2429V21.1452C67.395 21.1452 64.5157 20.736 63.2034 20.726C62.3514 20.7195 61.0129 20.6796 60.1637 20.5546L50.9142 19.905C48.9571 19.8533 47.3398 19.4867 44.7767 19.4867V7.60121L68.4444 7.463C69.9101 7.463 71.8706 9.44436 72.6988 10.3301L82.9009 22.1126L77.0014 21.7137C76.3586 21.564 76.6541 21.7248 76.037 20.4061C75.1982 18.6135 73.575 16.0316 71.3869 16.0316C70.0608 16.0316 69.212 17.5066 69.212 18.2429V18.2429Z" fill="#E7B96E"/>
</svg>
