<svg width="328" height="389" viewBox="0 0 328 389" fill="none" xmlns="http://www.w3.org/2000/svg">
<path fill-rule="evenodd" clip-rule="evenodd" d="M139.298 62.9048C141.352 59.8395 152.765 45.5972 155.213 43.9558C164.695 46.164 163.924 46.164 173.405 43.9558C175.731 45.5111 179.667 50.6485 181.644 53.1469C184.378 56.602 186.886 59.2637 189.321 62.9002C182.841 62.9002 177.758 61.3858 170.372 61.3858H157.485C150.407 61.3858 145.211 62.9002 139.293 62.9002L139.298 62.9048ZM170.394 388.048H156.56C145.097 387.572 133.625 385.912 122.308 383.056C92.4447 375.52 67.7371 360.048 46.2625 338.592C0.406862 292.773 -13.0102 220.26 13.4612 159.894C19.4102 146.323 26.4067 134.216 35.6341 122.953C38.1552 119.879 41.0027 114.442 46.0721 114.442C48.5796 114.442 51.3773 117.97 51.3773 120.504C51.3773 123.193 46.0449 128.598 44.3354 130.897C36.1011 141.979 30.5012 149.86 24.6293 163.485C14.8668 186.125 11.9649 202.725 11.9649 229.646C11.9649 270.822 35.7021 318.061 68.0364 342.591C88.8943 358.416 104.642 366.546 130.941 372.912C142.817 375.787 145.991 375.17 155.93 375.968C171.528 377.22 163.738 375.969 173.382 375.91C189.035 375.81 212.827 369.298 225.7 363.046C227.935 361.962 230.397 361.196 232.497 359.99C263.149 342.433 285.335 322.817 301.241 288.519C322.621 242.419 319.411 180.811 288.826 139.236C279.626 126.73 275.509 120.958 263.062 110.429C240.259 91.1446 220.154 81.101 189.756 75.3515C153.894 68.5727 112.051 76.8387 81.6847 97.0029L65.7783 107.622C62.178 107.622 58.9587 107.377 58.9587 102.317C58.9587 96.3545 73.9673 87.7801 80.134 84.0801C88.0419 79.3417 96.4077 75.4331 105.721 71.7694C122.231 65.2762 117.107 71.6832 128.783 56.9376C131.667 53.2965 134.251 50.186 137.262 46.4678C140.06 43.0127 143.03 39.8568 145.36 36.3789C143.587 29.7361 141.57 33.7898 141.57 20.4634C141.57 10.6965 152.266 0 162.033 0H166.581C176.348 0 187.044 10.6965 187.044 20.4634C187.044 33.7898 185.027 29.7407 183.254 36.3789L197.478 53.9857C210.296 69.7153 204.366 65.6526 221.433 71.7195L235.816 77.8C238.718 79.1785 239.965 80.1851 242.622 81.6043C264.328 93.1759 283.027 110.846 297.378 130.679C343.166 193.97 334.832 284.615 280.456 338.977C271.963 347.47 262.895 355.541 252.547 361.853C250.194 363.286 248.929 364.179 246.489 365.648L226.357 375.832C208.419 383.169 189.507 387.259 170.39 388.057L170.394 388.048ZM152.942 23.4924C152.692 21.8691 153.853 17.693 156.111 15.2943C163.584 7.35015 174.883 13.0589 175.495 22.123C176.121 31.4229 164.445 38.0657 156.868 30.9332C154.896 29.0741 153.363 26.213 152.942 23.4924Z" fill="#7889F1"/>
<path fill-rule="evenodd" clip-rule="evenodd" d="M46.0769 228.888C46.0769 199.275 52.2708 178.489 68.0594 156.131C74.8019 146.581 87.3303 134.162 97.1562 127.628C114.432 116.142 128.901 110.851 149.455 107.926C163.974 105.863 175.496 107.146 189.271 109.948C197.061 111.535 204.03 114.134 210.991 117.031C223.542 122.259 235.857 131.038 245.22 140.401C256.987 152.172 261.811 158.638 269.411 173.814C291.937 218.795 281.821 272.436 245.601 308.661C238.804 315.458 237.716 316.12 229.935 321.792C212.228 334.697 185.544 342.578 163.557 342.578C118.789 342.578 76.7109 315.861 57.5896 275.742C51.8809 263.757 46.0815 246.25 46.0815 228.893L46.0769 228.888ZM33.9521 224.34C33.9521 274.59 64.8491 321.72 107.717 341.566C150.149 361.209 201.89 357.731 238.809 329.909C242.069 327.451 244.694 325.479 247.796 322.98C257.635 315.059 269.882 299.361 276.448 287.971C278.321 284.72 280.112 280.802 281.799 277.406C288.559 263.789 293.157 240.338 293.157 225.098C293.157 174.798 262.269 127.718 219.393 107.872C183.018 91.0312 144.658 91.4257 108.238 107.631C84.7593 118.078 63.4162 139.34 50.6612 161.467C48.7885 164.719 46.9974 168.636 45.3106 172.032C43.7554 175.161 42.0051 180.104 40.8625 183.5C36.904 195.239 33.9567 211.3 33.9567 224.34H33.9521Z" fill="#7889F1"/>
<path fill-rule="evenodd" clip-rule="evenodd" d="M146.88 225.859C146.88 201.846 180.23 201.846 180.23 225.859C180.23 234.166 171.732 241.775 163.557 241.775C155.382 241.775 146.884 234.166 146.884 225.859H146.88ZM158.247 164.469C158.247 162.329 161.408 159.921 163.552 159.921C165.697 159.921 168.858 162.329 168.858 164.469V196.3H158.247V164.469ZM134.75 224.345C134.75 230.358 137.203 236.302 139.298 240.261C134.388 247.597 87.0039 290.524 87.0039 294.074C87.0039 299.202 88.6952 300.894 93.8235 300.894C96.5759 300.894 146 251.039 147.637 248.599C157.127 253.623 166.427 255.296 176.462 250.141C181.137 247.738 181.413 246.668 184.9 243.421C187.802 240.719 190.641 241.725 197.664 241.784C203.817 241.834 208.27 242.587 208.27 234.955C208.27 228.249 195.492 230.407 191.597 230.407C192.522 219.262 192.522 230.181 191.597 219.04L253.6 219.185C258.315 220.133 258.293 223.23 258.293 225.859C258.293 237.599 223.428 222.314 223.428 236.47C223.428 238.356 223.564 238.692 224.548 239.898C225.038 240.496 226.906 241.775 227.976 241.775H254.502C268.849 241.775 277.328 220.387 262.541 210.239C257.309 206.648 250.625 207.668 242.373 207.668C236.578 207.668 189.035 208.579 186.152 207.047C185.753 206.833 183.88 204.983 183.395 204.498C178.647 199.728 180.982 190.981 180.982 178.108C180.982 169.344 181.803 163.585 178.752 157.6C172.367 145.08 153.065 144.994 147.401 159.685C145.089 165.689 146.073 188.057 146.159 197.094C146.222 203.786 145.646 202.403 142.128 205.945C138.514 209.581 134.75 217.466 134.75 224.34V224.345Z" fill="#7889F1"/>
<path fill-rule="evenodd" clip-rule="evenodd" d="M249.196 194.786C263.847 194.786 267.338 180.385 256.778 180.385C254.51 180.385 246.793 183.867 245.601 185.146C242.39 188.592 244.957 194.786 249.201 194.786H249.196Z" fill="#7889F1"/>
<path fill-rule="evenodd" clip-rule="evenodd" d="M193.869 309.985C193.869 324.635 208.27 328.127 208.27 317.566C208.27 315.299 204.788 307.582 203.509 306.389C200.063 303.179 193.869 305.745 193.869 309.989V309.985Z" fill="#7889F1"/>
<path fill-rule="evenodd" clip-rule="evenodd" d="M119.592 131.876C119.592 134.144 123.074 141.861 124.353 143.054C127.799 146.264 133.993 143.697 133.993 139.453C133.993 124.803 119.592 121.311 119.592 131.872V131.876Z" fill="#7889F1"/>
<path fill-rule="evenodd" clip-rule="evenodd" d="M65.0211 262.238C65.0211 275.66 81.4037 265.222 82.2607 264.301C85.471 260.855 82.9045 254.661 78.6604 254.661C74.4208 254.661 65.0166 258.452 65.0166 262.243L65.0211 262.238Z" fill="#7889F1"/>
<path fill-rule="evenodd" clip-rule="evenodd" d="M193.869 138.696C193.869 143.643 199.387 146.205 203.087 143.407C204.561 142.292 214.627 125.81 201.446 125.81C197.115 125.81 193.864 136.565 193.864 138.696H193.869Z" fill="#7889F1"/>
<path fill-rule="evenodd" clip-rule="evenodd" d="M65.0215 186.447C65.0215 189.394 67.0075 190.95 69.8596 192.219C85.9701 199.393 84.2652 187.739 82.6192 185.563C80.869 183.25 65.0215 175.084 65.0215 186.447Z" fill="#7889F1"/>
<path fill-rule="evenodd" clip-rule="evenodd" d="M256.773 269.058C262.736 269.058 266.432 260.978 257.998 257.223C241.887 250.05 243.592 261.703 245.238 263.88C246.417 265.44 254.257 269.058 256.773 269.058Z" fill="#7889F1"/>
<path fill-rule="evenodd" clip-rule="evenodd" d="M119.592 317.566C119.592 323.529 127.672 327.224 131.426 318.791C138.6 302.68 126.946 304.385 124.77 306.031C123.21 307.21 119.592 315.05 119.592 317.566Z" fill="#7889F1"/>
<path fill-rule="evenodd" clip-rule="evenodd" d="M158.247 122.781C158.247 131.831 156.651 137.182 165.066 137.182C171.129 137.182 169.614 126.426 169.614 122.781C169.614 116.741 158.247 116.741 158.247 122.781Z" fill="#7889F1"/>
<path fill-rule="evenodd" clip-rule="evenodd" d="M57.4443 223.583C57.4443 231.999 62.7948 230.403 71.8454 230.403C77.8851 230.403 77.8851 219.035 71.8454 219.035C68.1998 219.035 57.4443 217.521 57.4443 223.583Z" fill="#7889F1"/>
<path fill-rule="evenodd" clip-rule="evenodd" d="M158.247 316.809C158.247 325.86 156.651 331.21 165.066 331.21C171.129 331.21 169.614 320.455 169.614 316.809C169.614 310.769 158.247 310.769 158.247 316.809Z" fill="#7889F1"/>
<path fill-rule="evenodd" clip-rule="evenodd" d="M224.186 157.645C224.186 171.534 240.858 161.499 240.858 152.34C240.858 148.794 236.972 147.792 234.039 147.792C232.139 147.792 224.186 155.745 224.186 157.645Z" fill="#7889F1"/>
<path fill-rule="evenodd" clip-rule="evenodd" d="M87.0039 152.34C87.0039 157.255 87.3576 156.108 91.3614 160.112C95.3652 164.116 94.218 164.469 99.1332 164.469C102.679 164.469 103.681 160.583 103.681 157.65C103.681 157.273 98.766 147.797 91.5564 147.797C89.729 147.797 87.0084 150.517 87.0084 152.344L87.0039 152.34Z" fill="#7889F1"/>
<path fill-rule="evenodd" clip-rule="evenodd" d="M224.186 289.521C224.186 294.437 224.539 293.289 228.543 297.293C232.547 301.297 231.4 301.651 236.315 301.651C239.861 301.651 240.863 297.765 240.863 294.831C240.863 294.455 235.948 284.978 228.738 284.978C226.915 284.978 224.19 287.699 224.19 289.526L224.186 289.521Z" fill="#7889F1"/>
</svg>
