<svg width="452" height="75" viewBox="0 0 452 75" fill="none" xmlns="http://www.w3.org/2000/svg">
<rect width="452" height="75" rx="26" fill="#FA5F29"/>
<path d="M21.1062 23.0047V32.3358H30.4748V23.0047H36.9953V48H30.4748V37.882H21.1062V48H14.6232V23.0047H21.1062ZM59.0415 48L57.5051 43.8029H48.4363L46.75 48H39.8922L49.4856 23.0047H56.5682L65.9742 48H59.0415ZM50.2351 38.8563H55.7812L52.9707 30.7619L50.2351 38.8563ZM90.8181 48H84.2976V28.5509H75.3413V48H68.8583V23.0047H90.8181V48ZM96.049 23.0047H102.57V38.7439L111.938 23.0047H118.571V48H112.05V32.2608L102.682 48H96.049V23.0047ZM123.825 48V23.0047H130.346V42.5288H136.641V23.0047H143.162V42.5288H149.458V23.0047H155.978V48H123.825ZM161.226 23.0047H167.747V38.7439L177.115 23.0047H183.748V48H177.228V32.2608L167.859 48H161.226V23.0047ZM203.767 28.5134H198.446V48H191.963V28.5134H186.642V23.0047H203.767V28.5134ZM220.844 23.0047V28.5134H213.125V32.6731H220.432V38.1818H213.125V42.4913H220.844V48H206.642V23.0047H220.844ZM240.206 23.0047V32.3358H249.574V23.0047H256.095V48H249.574V37.882H240.206V48H233.723V23.0047H240.206ZM278.141 48L276.605 43.8029H267.536L265.849 48H258.992L268.585 23.0047H275.668L285.074 48H278.141ZM269.335 38.8563H274.881L272.07 30.7619L269.335 38.8563ZM293.279 48H286.834L291.068 23.0047H297.476L302.535 36.3455L307.894 23.0047H314.377L318.124 48H311.641L309.805 33.6099L303.772 48H301.186L295.415 33.6099L293.279 48ZM328.057 37.3199C327.282 38.0943 326.37 38.4816 325.321 38.4816C324.272 38.4816 323.36 38.0943 322.585 37.3199C321.811 36.5454 321.424 35.6335 321.424 34.5842C321.424 33.535 321.811 32.6231 322.585 31.8486C323.36 31.0742 324.272 30.6869 325.321 30.6869C326.37 30.6869 327.295 31.0867 328.094 31.8861C328.819 32.6106 329.181 33.51 329.181 34.5842C329.181 35.6585 328.806 36.5704 328.057 37.3199ZM328.057 47.4004C327.282 48.1749 326.37 48.5621 325.321 48.5621C324.272 48.5621 323.36 48.1749 322.585 47.4004C321.811 46.6259 321.424 45.7141 321.424 44.6648C321.424 43.6155 321.811 42.7037 322.585 41.9292C323.36 41.1547 324.272 40.7675 325.321 40.7675C326.37 40.7675 327.295 41.1672 328.094 41.9667C328.819 42.6912 329.181 43.5905 329.181 44.6648C329.181 45.7391 328.806 46.6509 328.057 47.4004Z" fill="white"/>
<g clip-path="url(#clip0_14_456)">
<path fill-rule="evenodd" clip-rule="evenodd" d="M380.93 40.9472C383.843 42.9038 386.989 47.4743 390.589 47.4743C394.293 47.4743 395.635 45.5462 398.728 42.7931L400.878 40.9504C401.921 41.6521 402.923 42.5403 403.869 43.4221L415.848 53.7264C416.213 54.0361 416.198 53.9634 416.563 54.2732L421.843 58.8721C422.587 59.4727 424.378 60.9267 424.813 61.5778H356.998L375.622 45.5146C375.946 45.2396 376.054 45.0752 376.378 44.7971L380.933 40.9441L380.93 40.9472ZM404.446 38.0013L412.572 30.9907C412.897 30.7157 413.004 30.5513 413.329 30.2732C413.695 29.9634 413.679 30.0361 414.045 29.7264C414.369 29.4514 414.476 29.287 414.801 29.0089L417.856 26.3885C418.442 25.9144 418.782 25.5636 419.325 25.1242L428.384 17.3644C428.406 18.3158 428.595 18.2021 428.595 19.2578V56.7291C428.595 57.788 428.406 57.671 428.384 58.6224C427.817 58.24 427.489 57.8006 426.915 57.3581L411.217 43.8362C410.823 43.4853 410.779 43.5201 410.391 43.1914C410.101 42.9448 410.019 42.8184 409.748 42.575L408.279 41.3107C407.431 40.5521 404.928 38.643 404.452 37.9919L404.446 38.0013ZM356.998 14.4217H424.813C424.141 15.4237 414.076 23.7746 412.475 25.2064L404.08 32.3688C401.18 35.0713 396.811 38.5197 393.684 41.3139C390.576 44.0954 390.087 42.8563 387.165 40.3783C386.702 39.9863 386.592 39.9832 386.125 39.528C385.438 38.8579 384.842 38.3775 384.13 37.739C380.851 34.8089 374.663 29.916 371.536 26.9986C370.868 26.3759 370.234 25.8164 369.532 25.219L361.143 18.0503C360.182 17.1527 357.547 15.2435 356.998 14.4186V14.4217ZM349.02 17.9998C349.02 20.2597 348.408 24.1033 351.119 24.1033C354.243 24.1033 353.43 19.5391 353.43 17.5762C354.316 17.8133 361.285 23.9263 362.404 24.9978L372.145 33.336C372.482 33.6078 372.583 33.7595 372.904 34.0472L375.842 36.5727C376.542 37.1953 376.807 37.1701 377.362 37.9982L373.841 41.2064C373.447 41.5573 373.403 41.5225 373.015 41.8512C372.725 42.0977 372.643 42.2242 372.372 42.4676C371.978 42.8184 371.934 42.7836 371.546 43.1124L355.16 57.2064C354.596 57.7343 354.237 58.1989 353.427 58.417C353.427 57.1495 353.528 55.4142 353.427 54.2068C353.159 50.9891 349.017 51.4411 349.017 53.9982C349.017 57.769 348.601 60.4684 351.371 63.4269C352.282 64.4004 354.807 65.9998 356.576 65.9998H425.021C427.688 65.9998 429.377 64.5237 430.745 63.1108C432.098 61.7137 432.996 59.4316 432.996 56.7386V19.2673C432.996 14.1752 429.301 10.0029 425.018 10.0029H356.784C352.907 10.0029 349.017 14.1246 349.017 18.0029L349.02 17.9998Z" fill="white"/>
<path fill-rule="evenodd" clip-rule="evenodd" d="M336.001 43.4726C336.001 44.3671 337.019 45.5777 338.1 45.5777H357.837C360.551 45.5777 360.406 41.1558 357.625 41.1558H338.308C336.931 41.1558 335.998 42.4643 335.998 43.4726H336.001Z" fill="white"/>
<path fill-rule="evenodd" clip-rule="evenodd" d="M342.51 32.3149C342.51 33.9428 343.406 34.8404 345.029 34.8404H357.625C360.302 34.8404 360.85 30.4185 357.414 30.4185H344.607C343.651 30.4185 342.507 31.4173 342.507 32.3118L342.51 32.3149Z" fill="white"/>
</g>
<defs>
<clipPath id="clip0_14_456">
<rect width="97" height="56" fill="white" transform="translate(336 10)"/>
</clipPath>
</defs>
</svg>
