<svg width="61" height="82" viewBox="0 0 61 82" fill="none" xmlns="http://www.w3.org/2000/svg">
<path fill-rule="evenodd" clip-rule="evenodd" d="M36.0094 0.602209C33.7512 1.62288 31.679 4.4787 30.6224 8.02588C30.0924 9.80581 29.659 11.5682 29.659 11.9429C29.659 13.4385 28.8644 12.4105 27.0682 8.59117C24.507 3.14533 22.6671 1.63118 18.6098 1.63118C16.0194 1.63118 15.3646 1.83737 13.2854 3.30949C10.2442 5.46174 8.45981 8.2687 8.46594 10.89C8.47253 13.6838 10.3313 17.4884 12.7545 19.6661L13.5642 20.3939C13.9028 20.6983 13.6163 21.2541 13.1719 21.1548C5.24293 19.3851 -0.00564819 22.9948 4.56152e-06 30.2138C0.00659944 37.7586 4.63856 41.531 11.7822 39.8083C13.4531 39.4052 15.237 38.9088 15.7462 38.705C16.3916 38.447 16.0152 39.2146 14.5054 41.2364C13.3136 42.8326 12.1303 44.5784 11.875 45.1158C11.0276 46.9031 10.7704 49.7198 11.2772 51.6717C12.3211 55.6919 18.6654 59.5742 22.8583 58.7583C24.7609 58.3879 27.4545 56.1883 28.7937 53.9105L28.9062 53.7191C29.1144 53.3651 29.6568 53.5125 29.6572 53.9232C29.6647 60.2436 27.576 69.3402 24.6997 75.514C22.9813 79.2034 22.6689 80.2617 23.0712 81.041C23.6054 82.0758 25.387 82.3186 26.779 81.5457C27.234 81.2931 28.0004 80.1786 28.4833 79.069C29.1941 77.4342 29.545 77.1024 30.3341 77.3218C30.8697 77.4708 33.053 77.8485 35.1865 78.1612C44.5879 79.5405 52.9535 75.6934 57.9718 67.6824C60.4175 63.7781 61.4996 60.3096 60.7817 58.6752C60.453 57.9272 59.6948 57.4615 58.879 57.5065L54.9574 57.7225C47.6758 58.1231 39.7883 60.6203 35.275 63.954C34.4879 64.5349 33.7497 64.9121 33.6339 64.7919C33.518 64.6717 33.6362 63.4082 33.8962 61.9844C34.1567 60.5607 34.3697 58.1065 34.3697 56.5313C34.3697 54.9556 34.5449 53.6662 34.7588 53.6662C34.9726 53.6662 35.6406 54.2105 36.2426 54.8754C36.8451 55.5404 38.254 56.4472 39.3742 56.8909C41.9005 57.892 44.775 57.2871 47.8199 55.1144C53.4505 51.0957 53.3898 43.9193 47.6838 39.0407C47.1352 38.5717 47.5116 37.6751 48.2305 37.7381L49.5567 37.8544C52.4132 38.1045 53.6432 37.9931 55.3074 37.334C59.1 35.8316 61.1284 31.9224 60.5866 27.1606C59.8047 20.2905 54.8877 17.2358 47.7271 19.1711C46.1349 19.6011 44.6991 19.9534 44.5361 19.9534C44.3736 19.9534 45.1231 18.7988 46.2027 17.3883C47.2824 15.9777 48.453 14.1157 48.8044 13.2509C49.6344 11.2095 49.6217 7.55487 48.779 5.88193C46.5132 1.38347 40.1251 -1.25786 36.0094 0.602209ZM43.7772 7.51187C44.9007 8.66788 44.9172 8.77781 44.2483 10.6638C43.8672 11.7387 42.081 14.4699 40.2791 16.7331L38.342 19.166C37.5646 20.1425 36.2037 20.4303 35.0975 19.8522C34.0493 19.3045 33.1506 18.8218 33.1001 18.7803C33.0493 18.7382 33.6244 16.3207 34.3781 13.4072C35.8643 7.66041 36.6896 5.95277 38.2832 5.32493C39.5678 4.81875 42.1648 5.85261 43.7772 7.51187ZM21.1328 7.9306C21.9666 8.8511 25.8905 17.9799 25.8905 18.9991C25.8905 19.1912 25.1458 19.9377 24.2357 20.6579C23.2866 21.4088 21.9297 21.3471 21.0527 20.513L18.3714 17.9628C13.7093 13.5279 12.7988 11.8584 13.8704 9.70955C14.6453 8.15534 17.9593 6.25717 19.2749 6.61433C19.7601 6.74576 20.5958 7.33842 21.1328 7.9306ZM33.3253 24.6248C35.6392 26.3055 36.4023 29.7086 35.0122 32.1486C33.4638 34.8681 30.4401 35.7964 27.78 34.3698C25.8194 33.3183 24.9484 31.7656 24.9484 29.3231C24.9484 27.5427 25.2164 26.9065 26.55 25.5233C27.8836 24.1401 28.4969 23.8621 30.2135 23.8621C31.3478 23.8621 32.7483 24.2051 33.3253 24.6248ZM54.6253 24.8393C55.3324 25.5727 55.5675 26.4678 55.5675 28.428C55.5675 33.0833 53.8646 33.6603 45.0863 31.9801L42.7383 31.5304C41.4355 31.281 40.4935 30.1414 40.4935 28.8149C40.4935 27.4633 41.3927 26.2768 42.694 25.9113L45.0863 25.2394C50.8371 23.6242 53.3521 23.5186 54.6253 24.8393ZM15.0561 26.7306L17.2609 27.1461C18.6102 27.4004 19.6355 28.5053 19.7884 29.8698C19.9905 31.6771 19.8901 32.2126 19.3173 32.387C9.61297 35.3401 7.54595 35.6161 6.13229 34.1499C4.15383 32.0978 4.43553 27.5871 6.61419 26.4345C8.09333 25.6518 9.61062 25.7051 15.0561 26.7306ZM42.1511 40.7981C47.7587 46.1209 48.3847 48.4763 44.8536 50.9652C41.2999 53.4698 39.5857 52.3572 36.903 45.8038C34.1087 38.9781 34.1784 39.6671 36.1423 38.2829C37.1014 37.6072 37.9582 37.0541 38.0463 37.0541C38.1349 37.0541 39.9819 38.7387 42.1511 40.7981ZM25.7728 39.0314C26.6146 39.4052 27.3023 40.0477 27.3009 40.4591C27.299 40.8705 26.6866 43.4756 25.94 46.2479C23.9648 53.5812 22.3208 54.9429 18.2852 52.5903C16.3383 51.4558 15.7005 50.0765 16.189 48.0581C16.5169 46.7028 23.4222 37.8666 23.9224 38.1622C24.0981 38.2663 24.931 38.6571 25.7728 39.0314ZM54.6253 63.3647C54.6253 64.1088 52.0039 67.5519 50.162 69.2273C49.1723 70.1268 47.3875 71.2999 46.1947 71.8335C43.6896 72.9548 38.3553 73.5025 35.023 72.9802C34.092 72.8342 33.7408 71.6779 34.4333 71.0387L34.7263 70.7683C37.4353 68.2687 43.2798 65.1837 47.5702 63.9891C51.2704 62.9592 54.6253 62.6621 54.6253 63.3647Z" fill="#502F0A"/>
</svg>
