<svg width="205" height="184" viewBox="0 0 205 184" fill="none" xmlns="http://www.w3.org/2000/svg">
<path fill-rule="evenodd" clip-rule="evenodd" d="M83.8628 171.319C91.1025 173.005 89.8524 173.271 89.8524 177.309H81.4664C81.9261 175.337 83.4031 173.29 83.8628 171.319ZM188.488 177.309H179.703C180.298 176.183 181.984 172.704 182.1 171.319C184.263 171.823 186.752 173.137 188.889 173.315C188.85 175.076 188.49 175.182 188.49 177.309H188.488ZM21.5663 70.686L18.7769 64.6935C20.7774 64.6964 21.676 64.4977 23.5015 64.2352C24.9162 64.0321 26.3725 63.5338 27.9562 63.4982C26.2657 66.0222 24.065 69.0133 21.5663 70.686ZM191.682 61.5007C191.077 59.2333 189.738 60.3129 189.442 57.3915C188.927 52.3362 192.149 51.1854 194.193 49.2354C195.507 47.9808 196.198 46.3155 197.275 45.5281C198.304 49.9487 199.638 54.1943 195.189 59.0168C194.085 60.215 193.41 61.0988 191.684 61.5007H191.682ZM48.7203 16.3751C48.1137 15.9688 45.0856 13.3173 44.7267 12.7804C49.8769 10.0548 57.7335 6.39049 65.4922 6.39049C64.9762 6.83982 65.3602 6.57586 64.558 7.05336C64.2258 7.2506 63.7705 7.46414 63.5036 7.59612L52.8784 13.7444C51.483 14.7587 50.4197 15.9791 48.7203 16.3751ZM39.1361 9.1873C36.3096 8.52888 31.4248 4.97578 28.6073 5.83143C24.1184 7.19721 27.4965 14.1536 27.5544 16.774C25.6696 17.2767 16.2351 28.0087 14.7166 29.8935C13.9277 30.8737 13.7631 31.0991 12.8793 32.0497C12.0726 32.9172 12.0295 33.1915 11.2747 34.0383C8.87683 36.7298 0 46.8879 0 49.1197C0 50.8577 2.57585 58.173 3.31584 59.7805C4.75132 62.9006 7.57927 65.0939 11.9806 65.0939L15.5752 72.2816C18.6998 78.6701 17.8501 81.6745 26.0166 75.1378C27.8302 73.686 29.2568 72.0562 30.6982 70.2352C34.8015 65.0449 35.7238 60.6985 39.1361 59.9036C39.7011 62.3312 42.2917 67.5125 43.2809 70.5347C47.6674 83.9301 53.3737 99.1079 65.5649 107.353C68.5174 109.351 74.16 111.784 74.6879 113.006C75.0571 113.86 75.8238 117.475 76.1071 118.775L79.0759 130.981C79.4867 132.673 80.2697 135.483 80.2697 137.375V162.932C80.2697 167.619 72.2173 178.316 73.8293 181.75C74.1881 182.514 73.9153 182.136 74.4966 182.68C76.5015 184.56 88.9759 183.696 92.2488 183.696C96.5611 183.696 95.8983 177.602 96.2216 173.692C96.57 169.472 96.3595 164.605 96.9319 160.426C97.1469 158.851 96.9823 157.319 97.0283 155.729C97.1499 151.466 97.838 146.984 97.8276 142.552L99.438 115.41L104.63 115.809C108.291 115.809 108.334 109.419 103.033 109.419H99.8384C99.8384 107.178 100.263 103.029 97.0431 103.029C92.6002 103.029 93.5463 109.521 93.4618 112.625C93.4069 114.6 93.094 114.616 93.0362 116.593C92.8672 122.489 92.3244 127.576 92.2666 133.393L90.2542 166.922C89.32 166.475 87.5256 165.829 86.2607 165.724C87.4218 163.306 86.67 142.994 86.6744 137.756C86.6789 133.438 82.5904 119.095 81.4693 114.609C80.9414 112.496 80.4105 108.705 78.9899 107.504C74.7709 103.935 64.0419 106.445 52.3742 77.4141C51.4073 75.0058 50.789 72.8066 49.8636 70.3405C48.1004 65.6381 46.6101 61.0128 44.3308 56.7049C50.955 52.2695 51.4385 46.7218 47.1261 46.7218C44.6022 46.7218 44.1039 48.7208 42.8286 50.011C38.7045 54.181 32.1396 56.0969 26.5949 57.3381C22.3834 58.2813 17.2065 58.7291 12.7117 59.0583C9.84222 59.2674 9.06665 57.6629 8.33408 55.566C7.7246 53.8206 6.83484 51.4064 6.39589 49.5186C8.20655 48.3071 15.8333 38.0318 17.8797 35.8445L29.9567 22.7636C30.5232 25.1911 33.231 27.1026 35.3561 25.3676C37.662 23.4843 35.4525 20.5273 34.6902 18.4289C34.2483 17.2115 33.5884 15.2644 33.5513 13.5783L41.0639 18.0463C44.3634 20.2737 45.5438 22.7636 49.9244 22.7636C51.8344 22.7636 52.3179 21.5935 53.9179 21.1664C54.7172 22.3602 55.6322 23.3108 56.5472 24.5268C63.6163 33.9019 65.639 41.4011 77.9281 45.4762C89.2681 49.2354 103.234 50.2883 115.428 50.3046C117.952 50.3075 118.747 50.7376 121.396 50.7272C123.399 50.7183 125.401 50.7168 127.405 50.7079L144.587 51.4954C148.499 51.8187 152.208 51.5176 156.039 52.0248C159.607 52.4978 163.438 52.9056 166.938 53.5047C169.733 53.9837 173.685 55.2813 175.986 56.4365C180.299 58.6046 183.403 60.7682 186.376 64.4147C193.434 73.0661 191.55 85.7229 188.722 95.6749C185.528 106.917 184.637 114.407 189.821 124.862C193.64 132.563 195.378 130.031 194.313 136.806C193.257 143.519 191.223 162.026 189.497 166.962C189.339 167.413 185.166 165.789 184.898 165.727C184.985 161.823 186.001 157.767 186.566 153.818L189.084 135.549C189.904 130.49 186.442 130.462 179.303 125C171.764 119.233 164.14 111.737 159.356 103.416C158.021 101.094 156.102 95.0461 153.749 95.0461C151.786 95.0461 150.108 96.6269 150.292 98.488C150.527 100.856 151.962 101.556 152.152 103.833C149.752 103.886 145.56 105.315 143.047 105.909C133.276 108.212 127.062 108.295 117.841 109.456C116.151 109.668 115.013 110.675 115.013 112.617C115.013 116.504 119.803 115.807 123.69 115.304C127.276 114.84 131.302 114.287 134.959 113.795C140.395 113.062 145.574 111.765 150.796 110.464C152.195 110.116 154.751 109.502 155.746 109.024C156.068 110.231 157.487 111.741 158.313 112.847C162.126 117.947 166.63 121.993 171.224 126.293L178.747 132.346C180.015 133.218 181.569 134.626 182.9 134.982L178.96 162.988C177.325 170.548 166.435 183.7 176.112 183.7C197.589 183.7 192.829 186.533 196.137 166.986L200.494 137.4C202.041 126.234 200.506 132.441 195.139 121.947C190.502 112.881 192.82 103.924 195.364 94.7332C197.082 88.5316 198.307 79.8831 196.994 72.9697C196.533 70.5407 195.783 69.2446 195.281 67.0958C201.049 63.2343 204.467 57.6466 204.467 50.3239C204.467 43.5454 196.755 30.3577 192.886 30.3577C190.459 30.3577 189.324 32.4693 190.002 34.4001C190.684 36.3413 192.087 36.9656 192.087 39.9418C192.087 43.5973 189.759 44.6116 187.79 46.4252C186.018 48.0579 183.772 50.3654 183.701 53.5181C181.489 52.3466 179.51 51.1884 177.028 50.2082C174.442 49.1864 172.486 48.4479 169.55 47.7035C160.821 45.488 150.719 45.2582 141.755 45.1484L132.187 44.7332C128.499 44.7332 125.794 44.312 122.612 44.3239L94.0224 42.5637C79.7788 40.5973 74.7739 39.8588 67.2569 28.9963L58.7078 17.1788L76.0477 8.56299C78.152 7.68954 81.0704 6.83834 81.0704 4.4004C81.0704 1.39153 78.4545 1.26993 75.9261 0.759799C65.4477 -1.35635 54.0084 1.16909 45.1301 5.59861L39.1405 9.19324L39.1361 9.1873Z" fill="white"/>
<path fill-rule="evenodd" clip-rule="evenodd" d="M27.9561 33.1485C27.9561 38.054 33.9456 37.7085 33.9456 33.5474C33.9456 29.0615 27.9561 30.408 27.9561 33.1485Z" fill="white"/>
</svg>
