<svg width="200" height="200" viewBox="0 0 175 175" fill="none" xmlns="http://www.w3.org/2000/svg">
    <g clip-path="url(#clip0_124_1051)">
        <path d="M0 170.52C1.0659 168.612 2.71398 168.06 4.84149 168.098C10.3636 168.193 15.89 168.128 21.8359 168.128C21.258 167.516 20.9156 167.136 20.5517 166.772C15.9628 162.179 11.3724 157.587 6.78066 152.994C4.40914 150.615 4.4177 148.998 6.82346 146.576C14.8755 138.54 22.9361 130.505 30.8212 122.614C29.9308 119.619 28.9419 116.864 28.2913 114.014C27.5647 110.657 27.6528 107.176 28.5481 103.86C28.8435 102.679 28.5995 102.149 27.4865 101.665C24.7468 100.501 22.1313 99.0979 20.2778 96.6547C16.5921 91.8068 16.0398 86.561 18.6725 81.1012C22.5251 73.1083 26.3778 65.1197 30.4573 57.2381C35.1661 48.09 45.4741 44.7182 54.8189 49.0313C54.8702 49.0558 54.9202 49.083 54.9687 49.1126C58.3419 51.4745 62.019 51.8553 65.9958 50.5503C61.7151 44.4615 60.5636 37.8208 63.8555 30.7778C66.0515 26.0711 69.7115 22.8748 74.6086 21.1205C79.2346 19.5001 84.3117 19.7576 88.7498 21.8377C93.1879 23.9178 96.633 27.6545 98.3452 32.2454C100.43 37.8079 99.9034 43.2592 96.9326 48.351C93.9617 53.4428 89.4499 56.331 83.2557 57.4991C86.4833 59.0395 89.3942 60.2033 92.0697 61.778C96.3995 64.315 101.409 65.4495 106.41 65.0256C110.601 64.7389 114.83 64.9657 119.295 64.9657V63.1001C119.295 57.9142 119.295 52.7311 119.295 47.5508C119.276 46.9255 119.335 46.3003 119.471 45.6895C119.66 44.908 120.124 44.2207 120.779 43.7539C121.434 43.287 122.236 43.0719 123.036 43.1479C124.851 43.3576 126.093 44.761 126.106 46.8491C126.148 52.2019 126.106 57.5462 126.106 62.9118V64.8929C129.573 65.0941 132.488 66.275 134.586 69.0477C136.033 70.9115 136.77 73.2288 136.666 75.5857C136.452 81.0455 132.814 84.5371 126.196 85.5897V129.876L126.654 130.248C126.867 129.793 127.128 129.363 127.433 128.964C134.136 121.9 140.891 114.883 147.552 107.775C150.253 104.9 153.4 103.437 157.398 103.539C161.837 103.651 166.284 103.539 170.728 103.569C173.763 103.569 175.009 104.793 175.009 107.818C175.009 128.776 175.009 149.734 175.009 170.691C175.018 171.034 175.008 171.377 174.979 171.718C174.756 173.614 173.369 174.953 171.627 174.974C170.76 174.968 169.926 174.637 169.292 174.046C168.658 173.455 168.269 172.647 168.202 171.782C168.153 171.158 168.14 170.53 168.164 169.904C168.164 150.829 168.164 131.751 168.164 112.67V110.394C165.424 110.394 162.749 110.625 160.129 110.338C156.109 109.911 153.31 111.412 150.634 114.373C143.948 121.763 136.936 128.857 130.087 136.088C123.995 142.507 116.538 145.656 107.686 145.626C96.5773 145.583 85.4688 145.656 74.3603 145.579C73.3158 145.544 72.2758 145.733 71.3106 146.134C70.3455 146.535 69.4775 147.138 68.7654 147.902C61.2271 155.429 53.5732 162.835 46.052 170.379C42.8885 173.554 39.2585 175.086 34.7551 175.039C24.7854 174.927 14.8156 174.962 4.85005 175.039C2.70969 175.039 1.07446 174.525 0.00856143 172.613L0 170.52ZM78.7652 78.0974C76.3166 83.0609 73.9194 87.9387 71.6378 92.5556C73.8723 93.1161 76.0898 93.3258 77.9947 94.2115C82.7334 96.4108 84.6769 100.471 84.6812 105.559C84.6812 111.977 84.7111 118.425 84.6812 124.861C84.6341 125.326 84.7323 125.795 84.9622 126.202C85.1922 126.61 85.5425 126.936 85.9654 127.137C87.5963 128.13 89.3899 129.178 90.5029 130.65C92.3394 133.072 93.7477 135.827 95.46 138.681C99.9976 138.681 105.019 138.895 110.014 138.592C112.621 138.433 115.173 137.376 117.745 136.713C118.97 136.397 119.329 135.635 119.325 134.347C119.274 118.631 119.291 102.915 119.286 87.2028C119.286 86.6508 119.239 86.1031 119.205 85.4313H117.24C110.464 85.4313 103.683 85.5084 96.9112 85.38C95.1711 85.3227 93.458 84.9335 91.8642 84.2333C87.5407 82.3463 83.3156 80.2368 78.7652 78.076V78.0974ZM26.9685 168.128C29.858 168.128 32.8631 168.128 35.8681 168.128C36.723 168.143 37.5718 167.981 38.3608 167.652C39.1499 167.323 39.8622 166.834 40.4528 166.216C48.0682 158.689 55.7093 151.193 63.2904 143.632C63.8285 143.022 64.132 142.241 64.1466 141.428C64.215 135.738 64.1851 130.042 64.1851 124.347C64.1851 121.446 64.1551 118.541 64.1851 115.64C64.2065 114.048 63.5473 113.351 61.9249 113.428C60.2126 113.509 58.5003 113.394 56.788 113.462C54.2196 113.565 52.6956 115.084 52.5629 117.651C52.5116 118.729 52.5158 119.816 52.5629 120.894C52.7513 126.927 50.6709 131.959 46.296 136.17C41.1591 141.103 36.2234 146.229 31.1508 151.227C30.8059 151.506 30.5549 151.884 30.4317 152.31C30.3085 152.737 30.3189 153.19 30.4616 153.61C31.26 156.247 31.1713 159.073 30.209 161.654C29.3486 163.879 28.0986 165.891 26.9685 168.128ZM92.6262 77.1219C93.0542 75.1878 93.3881 73.5191 93.8547 71.8974C94.1972 70.7122 93.9575 70.1046 92.7717 69.544C85.6272 66.1595 78.5298 62.6979 71.4238 59.2363C64.5361 55.8903 58.1535 58.0682 54.729 64.9657C50.394 73.7287 46.0691 82.4975 41.7541 91.2719C41.5101 91.764 41.326 92.2818 41.0178 92.9493C47.0108 92.9493 52.8112 92.6198 58.5688 93.0605C62.6825 93.3771 64.7544 92.0336 66.2227 88.2468C67.9564 83.7712 70.3836 79.5608 72.5624 75.1365C70.9358 74.3021 69.3862 73.6047 67.9393 72.736C67.2057 72.3341 66.6527 71.6681 66.3927 70.8734C66.1327 70.0786 66.1852 69.2147 66.5395 68.4572C67.2672 66.8441 69.018 66.1039 70.8202 66.6943C71.4073 66.9115 71.9793 67.1674 72.5325 67.4602L92.6262 77.1219ZM80.7215 26.9311C74.1377 26.9568 68.6841 32.4551 68.8125 38.9375C68.8256 42.1014 70.0955 45.1305 72.3429 47.3585C74.5903 49.5864 77.6311 50.8308 80.7964 50.8177C83.9617 50.8047 86.9921 49.5353 89.221 47.2889C91.45 45.0425 92.6949 42.003 92.6818 38.8391C92.6847 37.2706 92.3769 35.717 91.7763 34.2679C91.1756 32.8188 90.294 31.5028 89.1822 30.3959C88.0704 29.2889 86.7504 28.4129 85.2983 27.8182C83.8462 27.2236 82.2907 26.9221 80.7215 26.9311ZM35.774 115.845H45.7052C45.8465 115.469 45.9449 115.263 46.0049 115.045C47.5459 109.671 51.42 106.697 57.002 106.62C57.9095 106.62 58.8256 106.663 59.7288 106.599C60.127 106.569 60.7091 106.423 60.859 106.141C61.9548 104.117 62.9608 102.042 64.0909 99.7868C55.2512 99.7868 46.724 99.7654 38.2011 99.8339C37.7217 99.8339 37.0453 100.467 36.8013 100.968C35.6526 103.256 34.9696 105.749 34.7917 108.303C34.6139 110.857 34.9449 113.42 35.7654 115.845H35.774ZM32.5805 68.5128C32.4526 68.6733 32.3354 68.842 32.2295 69.0177C29.6611 74.2208 26.9814 79.3682 24.6569 84.6783C23.9849 86.2015 23.9635 88.2896 24.3616 89.9455C25.2391 93.5996 28.5438 94.7079 31.7586 96.0771C35.5171 88.4608 39.2285 80.9343 42.9998 73.2966L32.5805 68.5128ZM99.3597 78.4782C99.8263 78.5296 100.156 78.5938 100.486 78.5938C108.91 78.5938 117.329 78.5938 125.742 78.5938C128.22 78.5938 129.821 77.2074 129.817 75.1707C129.813 73.134 128.225 71.7733 125.738 71.7476C117.707 71.7305 109.678 71.7305 101.65 71.7476C101.362 71.7663 101.076 71.8034 100.794 71.8589C100.349 74.0924 99.8691 76.249 99.3769 78.4782H99.3597ZM52.4688 55.5822C46.2403 51.7997 37.7902 55.0944 35.714 62.4283L45.8037 67.0452L52.4688 55.5822ZM26.1124 145.964L37.5804 134.552L33.3425 130.107L21.8616 141.63L26.1124 145.964ZM71.0599 138.651H87.6177C86.3078 135.425 84.1931 133.089 80.9826 132.451C77.7721 131.814 74.3946 131.938 71.0599 131.724V138.651ZM67.5711 108.036C68.1428 108.763 68.7575 109.454 69.4118 110.107C69.5895 110.253 69.7951 110.361 70.0159 110.424C70.2368 110.487 70.4682 110.505 70.696 110.475C72.7422 110 74.7799 109.474 76.7875 108.862C77.0235 108.775 77.2356 108.634 77.4067 108.449C77.5777 108.265 77.7029 108.043 77.7721 107.801C77.8703 106.386 77.8158 104.964 77.6094 103.561C77.3889 102.401 76.7353 101.369 75.7813 100.674C74.8273 99.9786 73.6443 99.6721 72.4725 99.8168C72.2416 99.8597 72.0221 99.9504 71.8282 100.083C71.6344 100.216 71.4704 100.387 71.3467 100.587C70.0711 103.043 68.8511 105.542 67.6011 108.036H67.5711ZM23.5439 159.815C25.4745 154.479 22.187 151.398 16.622 146.606L13.4329 149.687L23.5439 159.815ZM77.7293 115.743C75.5889 116.303 73.5984 116.817 71.6078 117.386C71.4667 117.452 71.3435 117.551 71.2482 117.675C71.1529 117.798 71.0884 117.943 71.0599 118.096C71.0171 120.389 71.0342 122.683 71.0342 124.998H77.755L77.7293 115.743ZM42.6274 129.829H43.3851C44.2412 127.565 45.0974 125.306 46.0776 122.777H38.5864C38.6549 123.834 38.3766 125.036 38.8518 125.708C39.9177 127.21 41.3603 128.459 42.6531 129.816L42.6274 129.829Z"
              fill="#005340"/>
        <path d="M156.883 0C160.398 0.774469 163.771 1.84846 166.729 4.06061C170.341 6.75188 172.967 10.5549 174.205 14.8844C175.442 19.2139 175.222 23.8299 173.578 28.0221C170.282 36.43 161.331 41.9326 152.53 40.927C143.014 39.8488 135.698 32.8871 134.264 23.5807C133.44 18.2614 134.751 12.8322 137.911 8.47392C141.071 4.11564 145.825 1.18089 151.139 0.308076C151.465 0.228722 151.786 0.125759 152.098 0L156.883 0ZM154.533 6.84613C147.136 6.8119 140.946 12.9306 140.835 20.3801C140.724 27.8295 146.974 34.1237 154.456 34.1579C161.853 34.1964 168.047 28.0777 168.155 20.6283C168.262 13.1788 162.016 6.88036 154.533 6.84613Z"
              fill="#005340"/>
        <path d="M122.659 28.4453C123.547 28.467 124.394 28.8243 125.03 29.4451C125.665 30.0659 126.041 30.9042 126.083 31.7914C126.096 32.6901 125.752 33.5573 125.125 34.202C124.499 34.8468 123.641 35.2164 122.742 35.2294C121.843 35.2425 120.976 34.8979 120.331 34.2716C119.686 33.6453 119.316 32.7885 119.303 31.8898C119.321 30.9974 119.678 30.1454 120.301 29.5059C120.924 28.8665 121.767 28.4874 122.659 28.4453Z"
              fill="#005340"/>
    </g>
    <defs>
        <clipPath id="clip0_124_1051">
            <rect width="175" height="175" fill="white"/>
        </clipPath>
    </defs>
</svg>
