<svg width="60" height="57" viewBox="0 0 60 57" fill="none" xmlns="http://www.w3.org/2000/svg">
<path d="M59.1833 29.8909C59.1833 31.4249 57.9392 32.6629 56.4113 32.6629C55.6806 32.6629 55.0223 32.373 54.5271 31.914L54.5211 31.9201L29.6641 7.06312L29.5916 6.99669L4.72258 31.8657C4.22134 32.3609 3.53288 32.6629 2.77195 32.6629C1.24406 32.6629 0 31.4188 0 29.8909C0 29.1059 0.326112 28.3932 0.851514 27.892L27.5927 1.15083C28.1 0.625428 28.8065 0.299316 29.5916 0.299316C29.6399 0.299316 29.6883 0.299316 29.7366 0.305355C29.7426 0.305355 29.7547 0.305355 29.7607 0.305355C29.803 0.305355 29.8453 0.311395 29.8875 0.317434H29.8936C30.57 0.389903 31.1739 0.709976 31.6208 1.18707L42.5334 12.1058V9.55727C42.5334 8.02333 43.7775 6.78532 45.3054 6.78532C46.8393 6.78532 48.0773 8.02937 48.0773 9.55727V17.6557L58.4284 28.0067L58.4223 28.0128C58.8934 28.4959 59.1833 29.1602 59.1833 29.8909ZM53.6333 34.5109V42.8327V46.5347V53.9326C53.6333 55.4666 52.3893 56.7046 50.8614 56.7046H45.3114V34.5109H34.2176V56.7046H8.32189C6.78796 56.7046 5.54994 55.4605 5.54994 53.9326V46.5347V42.8327V34.5109L29.5916 10.4692L53.6333 34.5109ZM24.9657 34.5109H13.8718V45.6107H24.9717V34.5109H24.9657Z" fill="#D6A350"/>
</svg>
