<svg width="189" height="187" viewBox="0 0 189 187" fill="none" xmlns="http://www.w3.org/2000/svg">
<path fill-rule="evenodd" clip-rule="evenodd" d="M32.1991 151.233C34.2794 151.233 35.7829 150.757 37.5052 150.549C54.3889 148.518 66.4688 151.006 81.9981 159.091C88.5662 162.509 100.393 169.578 108.201 169.578C107.334 170.761 97.0689 175.446 95.0501 176.269C92.568 177.282 90.4084 177.956 87.5861 178.539C78.8728 180.339 71.0021 179.873 62.9498 177.016C56.918 174.876 50.4308 170.78 45.9559 166.305C44.945 165.294 44.7262 164.988 43.8627 163.906L34.9161 154.133C34.017 153.226 33.5309 152.336 32.2008 151.982V151.233H32.1991ZM53.5399 123.528C55.651 123.528 55.9199 123.156 58.0197 123.141C60.1097 123.126 61.4998 122.838 62.9207 122.798C64.3205 122.757 65.359 123.17 67.3923 123.154C74.1192 123.099 82.8033 125.656 88.4658 127.914C99.747 132.41 108.02 141.237 115.689 141.875C115.615 141.927 115.49 141.903 115.453 142.013L114.207 142.638C113.672 142.867 113.295 143.003 112.541 143.22C98.5691 147.251 84.4607 145.566 72.8474 136.794C68.9655 133.862 62.7587 128.839 58.7666 126.54L53.5399 123.53V123.528ZM8.61279 111.173C8.61279 105.267 9.84735 98.8985 11.2326 94.3232C13.1752 87.9057 16.8384 82.5041 17.224 80.8467C18.6011 81.856 17.5561 80.6474 18.3419 85.3442C20.8207 100.156 30.6891 110.458 24.8436 132.271C24.2652 134.429 23.7224 136.271 22.9512 138.241C22.2481 140.038 20.9455 142.225 20.5923 143.745L15.7042 137.027C13.159 132.807 10.6412 126.218 9.77931 121.237C9.29164 118.413 8.61117 114.25 8.61117 111.173H8.61279ZM51.2312 102.625C51.2053 102.474 51.774 101.421 51.8274 101.223L52.8497 95.8818C53.5399 91.8006 53.5399 86.7165 53.5399 82.3453C53.5399 67.2146 46.1423 59.4621 44.5837 37.7633C44.3876 35.0446 44.6485 32.9255 41.5588 32.9255C39.1399 32.9255 38.6717 34.7238 38.1808 36.6615C35.0636 48.9991 29.5777 67.0218 29.5777 78.977C29.5777 91.3712 30.7167 100.31 34.7719 111.597C37.4938 119.176 39.5936 117.308 35.1932 123.156C34.3556 124.269 33.2458 126.198 32.1975 126.9C32.1975 125.001 32.5718 124.86 32.5718 122.781C32.5718 113.373 31.8557 105.825 28.4582 97.3189C27.7259 95.4881 26.8364 93.5163 26.2483 91.6677C24.0983 84.9149 23.5313 77.8818 23.5977 70.732C23.6252 67.8513 23.3968 65.8747 20.5923 65.8747C17.8817 65.8747 16.4382 69.7534 15.3494 71.8628L8.73592 83.9703C1.2216 98.9018 0.413142 118.669 7.35878 134.145C10.0774 140.2 13.6078 145.093 17.2223 150.489C15.2814 152.724 13.8702 155.881 12.4785 158.475L3.86733 175.323C2.74942 177.737 0.209001 182.053 0 184.56C1.05473 185.119 4.31774 186.698 5.61549 186.805C6.27975 183.954 8.18831 180.845 9.36455 178.199L17.9871 161.362C19.2573 159.173 21.8981 155.538 22.4636 153.109C28.0515 153.574 39.7215 169.543 44.7667 173.486C55.8114 182.117 64.9718 185.681 80.1203 185.681C93.869 185.681 106.458 177.711 118.309 171.829C121.149 170.419 122.428 170.137 122.428 166.962C122.428 163.843 115.77 164.484 113.462 164.321C107.232 163.88 100.222 161.669 94.8428 158.979C76.5446 149.832 70.273 143.75 44.5529 143.75C38.3558 143.75 32.9963 145.493 26.9563 145.995C28.0839 144.31 29.0706 142.852 30.2031 141.005C33.4418 135.73 37.3853 130.889 40.8087 125.777C43.3799 126.376 46.0661 127.284 48.4024 128.293C51.2474 129.523 52.9388 130.438 55.4112 131.767C59.8343 134.142 63.5266 137.583 67.5511 140.593C81.5931 151.092 99.0341 154.874 116.009 148.563C118.577 147.609 120.435 146.522 122.923 145.37C125.067 144.378 128.416 143.589 128.416 140.754C128.416 137.437 124.539 137.394 121.52 136.791C112.164 134.921 110.012 133.27 102.658 128.322C87.4856 118.112 65.4384 114.233 46.4225 118.665C48.37 115.756 50.9039 113.148 53.2499 110.515C54.013 109.658 54.0843 109.334 54.9365 108.457C56.5486 106.802 59.2753 104.083 60.2766 102.191C70.9146 104.67 79.61 109.724 87.8955 116.503C91.5976 119.531 95.9202 122.742 100.601 124.763C111.151 129.319 124.806 130.273 135.851 126.098C138.527 125.087 146.387 123.185 146.387 119.786C146.387 115.928 139.02 116.116 130.765 112.569C114.307 105.497 103.227 89.8353 84.9857 89.8353C76.6224 89.8353 74.2521 90.8981 71.5075 90.9581C73.0321 88.6801 78.7205 84.2134 80.9466 82.0472C82.6251 80.4125 83.1371 80.8807 85.3113 81.6405C88.307 82.6872 91.4226 83.6738 94.0456 85.2665C100.826 89.3849 102.686 91.8816 108.363 95.6598C110.894 97.3448 113.479 98.7122 116.305 100.073C128.416 105.906 141.959 104.81 155.372 104.81C159.435 104.81 158.633 100.924 156.817 98.4967C151.804 91.8006 145.941 85.7865 138.739 81.3813C125.966 73.564 112.995 70.9021 97.3281 72.2274C95.2867 72.4007 93.8512 72.8414 92.0982 72.9872C93.6179 70.719 105.499 62.1921 108.946 59.8834C110.171 60.2106 109.852 60.2981 110.829 60.9948C111.446 61.4355 111.916 61.7336 112.585 62.2342C121.584 68.9676 130.89 74.8585 143.391 74.8585C154.868 74.8585 162.156 73.1622 171.849 68.1251C175.112 66.4288 178.09 64.0828 180.885 61.8114C182.225 60.7226 183.534 59.4799 184.861 58.2988C186.202 57.1048 188.318 56.2396 188.318 53.8936C188.318 50.2628 184.752 50.8898 181.196 50.9076C171.464 50.953 162.784 47.9039 153.125 47.9039C146.983 47.9039 140.497 48.0059 134.613 48.8614C130.948 49.3944 125.793 50.65 122.799 50.8996C123.371 50.4022 122.953 50.7489 123.674 50.2758L131.314 45.5627C132.789 44.6862 135.574 44.8434 137.469 44.6052C153.932 42.5363 168.171 33.5168 176.083 19.1962C179.524 12.9667 180.444 12.1533 185.416 7.18915C186.516 6.09068 188.318 4.90796 188.318 2.97673C188.318 -2.61932 179.255 1.19455 174.122 2.25899C170.556 2.99779 166.718 4.04117 163.56 5.17529C157.245 7.44514 150.591 10.9366 145.69 14.6354C144.19 15.7679 143.368 16.3431 141.991 17.6749C137.519 22.0039 136.753 22.686 132.977 28.8767C131.24 31.7233 130.12 34.9102 129.108 38.4859C128.696 39.9408 129.017 39.6637 127.764 40.5111L121.405 43.5116C124.349 38.7807 126.455 33.4342 128.09 28.1071C130.512 20.2039 131.411 11.9913 131.411 2.97511C131.411 -2.80888 124.484 1.5202 122.426 2.97673C116.799 6.96071 112.687 12.1906 109.957 18.587C106.255 27.2549 107.451 43.3172 107.451 53.5194C103.319 56.2866 98.8964 59.2013 95.0955 62.5048C94.5366 62.1046 94.6791 62.2877 95.1133 61.7741C97.2519 59.2418 98.9321 53.4529 99.8118 50.373C100.496 47.9784 100.807 45.8074 101.204 43.1535C101.583 40.6277 101.241 37.7066 101.481 34.8194C102.117 27.1317 102.973 19.9026 105.346 12.8516C106.241 10.1913 109.973 2.97673 104.457 2.97673C102.321 2.97673 100.865 5.18987 99.8053 6.56215L95.9364 10.9301C90.7081 16.8631 84.6001 22.3701 80.5157 29.2056C78.2571 32.9854 76.7682 36.2727 75.6276 41.1656C75.4235 40.8724 75.4526 40.9809 75.2291 40.4414L74.3671 37.5591C73.0564 33.5201 71.8251 29.9087 71.514 25.4079C71.0247 18.3343 78.3219 5.97403 71.5092 5.97403C68.6739 5.97403 65.858 12.3202 64.0418 15.3548C55.0872 30.317 50.5426 38.2542 50.5426 58.0153C50.5426 64.577 52.4641 71.7997 54.3905 76.631C56.5129 81.9532 59.3806 86.2661 62.5237 90.9613C61.3167 92.763 56.1889 97.8243 54.3727 99.6584C53.5869 100.452 52.2373 102.087 51.6654 102.942L51.228 102.63L51.2312 102.625ZM81.9949 95.8234C84.5515 95.8234 88.2941 96.4359 90.3322 96.8458C98.736 98.5388 102.879 102.247 109.102 106.529C112.895 109.14 116.137 111.994 120.182 114.169C122.224 115.265 124.006 116.353 126.297 117.414C128.273 118.331 131.222 119.677 133.288 120.158L128.46 121.696C117.277 123.907 106.325 121.612 96.9895 115.648C92.3542 112.686 83.1193 104.081 75.741 100.955C73.6737 100.078 71.4119 98.9439 69.2669 98.4433C71.4427 96.9316 79.8352 95.8218 81.9965 95.8218L81.9949 95.8234ZM35.5691 81.9711C35.5691 77.062 36.3467 71.6376 37.0596 67.3637C37.4323 65.1278 38.0301 62.7494 38.5631 60.6303C39.0022 58.8853 40.0197 55.7244 40.0618 53.892H40.8103C40.8767 56.8439 44.1203 65.0306 45.1491 68.6468C51.8938 92.3628 42.1421 109.031 41.9331 111.549H41.1846C40.9999 109.329 35.5691 98.4773 35.5691 81.9711ZM95.0987 78.6011C104.535 78.6011 105.116 76.2665 119.361 79.7984C129.125 82.2206 138.177 87.4213 145.175 94.4188C146.369 95.6128 148.575 97.1828 149.013 98.8175C130.247 98.8175 119.299 97.5684 106.249 86.1721C103.268 83.5685 100.133 81.5482 96.7076 79.6137L95.1004 78.6011H95.0987ZM73.3837 80.4724C74.2067 76.9421 76.7536 72.1464 76.7536 66.62H77.5022C77.648 68.3682 79.4366 71.9098 80.1236 74.8569L75.2048 78.9235C74.4238 79.5538 74.2165 79.9167 73.3853 80.474L73.3837 80.4724ZM56.5356 55.7617C56.5356 49.6812 57.835 43.7012 59.1554 38.912C59.9898 35.8887 63.6611 26.798 65.521 25.4354C65.521 33.9251 68.6042 38.3643 70.3653 46.7989C72.5687 57.3543 71.0345 71.1273 66.5207 80.7235C65.9552 81.9273 65.4498 82.5381 65.1468 83.8423L63.3905 81.1059C59.1554 73.4717 56.5356 65.1651 56.5356 55.7617ZM146.016 68.8655C138.343 68.8655 129.594 66.296 123.622 62.4319C122.582 61.7595 121.759 61.2281 120.715 60.4715C120.116 60.0357 119.95 59.8898 119.427 59.514L117.937 58.3831C119.218 58.2762 120.318 57.8825 121.65 57.6038C129.584 55.9415 132.568 55.261 141.204 54.3197C142.667 54.1593 144.156 54.3667 145.622 54.2452C161.187 52.9685 166.744 56.8861 176.716 56.8861C173.879 61.1228 162.165 66.4045 155.727 67.7201C153.212 68.2337 148.865 68.8672 146.016 68.8672V68.8655ZM84.2404 67.3685C78.1875 54.7555 79.8514 38.9395 88.4431 28.5154L94.2627 21.9796C95.439 20.7969 95.9882 19.6045 97.3443 18.6972C96.5391 22.1497 95.507 28.1087 95.4568 32.1607C95.2915 45.5838 94.2757 51.6238 87.4516 62.7186C86.7598 63.843 85.0521 66.7739 84.2404 67.3701V67.3685ZM113.444 44.5307C113.444 36.3537 112.974 28.8848 115.07 22.571C116.678 17.7299 121.039 11.0856 125.049 8.96323C125.049 15.2041 123.382 23.2547 121.355 28.8572C119.994 32.6176 116.307 41.2353 113.442 44.5307H113.444ZM135.533 38.5409C138.325 26.5566 151.002 17.0397 161.896 12.4887C164.129 11.5555 165.821 10.9366 168.236 10.2172C169.642 9.79923 170.174 9.56107 171.695 9.18357L174.691 8.43506C174.767 8.40913 174.898 8.35081 174.958 8.32813C175.018 8.30706 175.14 8.26656 175.219 8.21471C176.06 8.81579 175.655 7.85828 173.714 10.828C173.059 11.8293 172.74 12.5308 172.065 13.6714C166.401 23.2272 160.759 30.3559 149.606 35.0171C146.132 36.4671 140.134 38.5409 135.533 38.5409Z" fill="white"/>
</svg>
