<svg width="152" height="66" viewBox="0 0 152 66" fill="none" xmlns="http://www.w3.org/2000/svg">
<g clip-path="url(#clip0_26_1013)">
<path fill-rule="evenodd" clip-rule="evenodd" d="M81.273 41.0822L81.4693 40.9006C81.6622 40.3222 82.1369 39.8732 82.7298 39.7168C92.4773 30.4138 100.436 19.335 107.026 6.89929C115.195 24.277 130.593 40.8065 141.075 47.3333L151.999 45.8241C138.104 38.4271 117.692 19.694 106.864 -0.000854492C97.4362 15.2086 85.8973 28.6263 71.5439 39.6571H73.2707C73.5424 39.6571 73.7999 39.7168 74.0314 39.8245C74.2628 39.7168 74.5203 39.6571 74.792 39.6571H79.501C80.3682 39.6571 81.0927 40.2667 81.2722 41.0814L81.273 41.0822Z" fill="#FEFEFE"/>
<path fill-rule="evenodd" clip-rule="evenodd" d="M61.4121 39.8177C68.6663 32.9941 75.1046 25.1758 80.877 16.5454C81.9077 19.4847 83.1304 22.4206 84.4966 25.3103L87.8185 22.165C85.3721 18.0638 83.1975 13.8642 81.4196 9.66455C72.6172 21.0746 62.5702 31.1881 50.9458 39.658H59.5612C59.9914 39.658 60.3864 39.8085 60.6976 40.059L60.8544 39.9934C60.9131 39.9665 60.9743 39.943 61.0372 39.922C61.1446 39.8867 61.2695 39.8522 61.4138 39.8169L61.4121 39.8177Z" fill="#FEFEFE"/>
<path fill-rule="evenodd" clip-rule="evenodd" d="M41.7107 39.9834C47.7423 34.2284 53.2471 27.7831 58.3083 20.7576C59.1931 23.5927 60.2523 26.432 61.4449 29.2342L64.7625 26.0923C62.5787 22.076 60.6515 17.9806 59.0883 13.8995C50.9316 23.744 41.8315 32.5342 31.5631 40.0195C31.725 39.9733 31.8869 39.9321 32.0479 39.8951C32.3599 39.8237 32.6903 39.764 33.04 39.716C33.4132 39.6647 33.7277 39.6278 33.9801 39.6059C34.225 39.5849 34.5445 39.5664 34.9471 39.5529C35.218 39.5437 35.5165 39.5361 35.8419 39.5311C36.127 39.5269 36.4139 39.5252 36.7024 39.5269C36.9917 39.5252 37.2802 39.5269 37.5678 39.5311C37.8949 39.5361 38.1951 39.5437 38.4677 39.5529C38.8703 39.5664 39.1898 39.584 39.4347 39.6059C39.6863 39.6278 40.0007 39.6647 40.3748 39.716C40.7237 39.764 41.0524 39.8237 41.3619 39.8951C41.4784 39.922 41.595 39.9514 41.7116 39.9826L41.7107 39.9834ZM24.9278 44.5681C24.5689 44.7993 24.2082 45.0288 23.8459 45.2567V46.3606L25.0184 46.5817C24.9588 46.4026 24.927 46.2101 24.927 46.0108V44.5672L24.9278 44.5681ZM30.0989 47.541L31.7091 47.8445C31.7066 47.7352 31.7057 47.6167 31.7074 47.4881C31.7057 47.2964 31.7074 47.124 31.7116 46.9685C31.7183 46.7389 31.725 46.5817 31.7317 46.4817L31.7334 46.4606H31.7317C31.7477 46.2505 31.7753 46.0512 31.8122 45.8629C31.8508 45.6661 31.9036 45.4702 31.9699 45.2743C32.0437 45.0566 32.141 44.8422 32.2609 44.6311C32.3716 44.4361 32.5008 44.2486 32.6467 44.0687C32.8186 43.8518 33.0132 43.6542 33.2304 43.4726C33.2916 43.4221 33.3537 43.3734 33.4166 43.3271C33.2312 43.3549 33.0442 43.391 32.8572 43.4339C32.6358 43.4843 32.4328 43.5415 32.2483 43.6029C32.0739 43.6609 31.9187 43.7256 31.782 43.7954C31.6613 43.8576 31.5413 43.9316 31.4231 44.0182C31.3543 44.072 31.2898 44.1309 31.2285 44.1931C31.164 44.2604 31.1086 44.3251 31.0642 44.3873L31.0608 44.3915L31.0642 44.394C30.9929 44.4924 30.9384 44.5756 30.9006 44.6438C30.8646 44.7076 30.8251 44.7934 30.7832 44.8985L30.7547 44.9649C30.7178 45.0557 30.6893 45.1364 30.6675 45.2079C30.6373 45.3063 30.6138 45.3971 30.5954 45.4828L30.5979 45.4837C30.5777 45.5879 30.5618 45.6922 30.5492 45.7964L30.5434 45.841C30.5341 45.9293 30.5291 45.994 30.5283 46.0344C30.5224 46.5607 30.2926 47.0315 29.9311 47.3586C29.9915 47.4158 30.0469 47.4771 30.0989 47.5419V47.541Z" fill="#FEFEFE"/>
<path d="M20.3271 53.4995V48.7442H13.8939C13.2699 48.7484 12.6728 48.74 12.1034 48.7215C11.5339 48.703 11.0039 48.6483 10.5175 48.5575C10.0252 48.4667 9.58911 48.3162 9.20752 48.1111C8.82594 47.9017 8.50558 47.615 8.2565 47.2409C8.18438 47.1358 8.10722 46.9718 8.0242 46.749C7.93614 46.5212 7.85815 46.1933 7.79189 45.7653C7.73151 45.3416 7.69796 44.7766 7.69209 44.0712C7.69209 43.8341 7.69713 43.5701 7.71977 43.2741C7.73654 42.9824 7.76925 42.673 7.8246 42.3586C7.87995 42.0441 7.95207 41.7347 8.0569 41.4388C8.1567 41.1378 8.28921 40.8696 8.45442 40.6283C8.7144 40.2499 9.01799 39.954 9.3719 39.7488C9.72581 39.5395 10.1292 39.389 10.5712 39.3024C11.019 39.2116 11.5054 39.1611 12.0413 39.1426C12.5722 39.1241 13.1466 39.1199 13.7597 39.1241H19.9606V34.3688H10.1451C9.48763 34.3646 8.79072 34.3873 8.06697 34.4419C7.34322 34.4966 6.61947 34.6059 5.89488 34.7698C5.17113 34.938 4.48009 35.1885 3.81672 35.5215C3.15335 35.8544 2.55624 36.3 2.02035 36.8558C1.47355 37.43 1.05339 38.0808 0.759864 38.8097C0.467177 39.5386 0.262548 40.3491 0.151847 41.242C0.0411459 42.1349 -0.00833409 43.1144 -0.00246359 44.1805C-0.00246359 45.0919 0.0419845 45.9024 0.135913 46.6128C0.22397 47.3233 0.357315 47.9564 0.5393 48.5079C0.716254 49.0544 0.937656 49.5463 1.20267 49.975C1.46852 50.408 1.77211 50.7998 2.12014 51.1504C2.7441 51.7877 3.44101 52.2804 4.20921 52.6218C4.9774 52.9631 5.8454 53.196 6.80649 53.323C7.76254 53.4457 8.84607 53.5054 10.0453 53.5004H20.3246L20.3271 53.4995ZM26.741 46.0108V41.4766H22.0321V42.9202V53.4995H26.741V48.6735H28.6792C28.6792 49.0115 28.7144 49.3546 28.7831 49.701C28.8528 50.0499 28.9567 50.3904 29.096 50.7225C29.2352 51.0546 29.4054 51.364 29.6101 51.6498C29.8189 51.9357 30.0545 52.1879 30.3254 52.3998C30.7145 52.6915 31.1624 52.9236 31.6698 53.0926C32.1729 53.2616 32.7114 53.3843 33.2808 53.4617C33.8502 53.539 34.4239 53.5878 35.0067 53.6105C35.5904 53.6307 36.1565 53.6391 36.7016 53.6366C37.2467 53.6391 37.8128 53.6307 38.3965 53.6105C38.9802 53.5878 39.5564 53.539 40.1258 53.4617C40.6952 53.3843 41.2303 53.2616 41.7377 53.0926C42.2409 52.9236 42.6895 52.6915 43.0778 52.3998C43.4703 52.0904 43.7798 51.739 44.0054 51.3404C44.2276 50.9428 44.3912 50.5215 44.4951 50.0776C44.5991 49.6371 44.662 49.1931 44.6897 48.7492C44.7174 48.3053 44.7274 47.8849 44.7241 47.4864C44.7274 47.0803 44.7174 46.6532 44.6897 46.2067C44.662 45.7603 44.5991 45.3164 44.4951 44.8758C44.3912 44.4352 44.2276 44.0174 44.0054 43.6222C43.7798 43.2271 43.4703 42.8781 43.0778 42.5746C42.6853 42.2795 42.2375 42.0508 41.7335 41.8818C41.2303 41.7129 40.6986 41.5901 40.1325 41.5127C39.5664 41.4354 38.9936 41.3841 38.4099 41.3639C37.8262 41.3438 37.2568 41.3353 36.7016 41.3379C36.149 41.3353 35.5829 41.3438 35.0034 41.3639C34.4197 41.3841 33.8469 41.4354 33.2808 41.5127C32.7114 41.5901 32.1763 41.7129 31.6731 41.8818C31.1699 42.0508 30.7213 42.2795 30.3254 42.5746C30.0403 42.7949 29.7979 43.0471 29.5958 43.3271C29.3912 43.6105 29.2276 43.9056 29.1027 44.2141C28.9744 44.5235 28.8804 44.8321 28.8184 45.139C28.7597 45.445 28.7244 45.7376 28.7211 46.0092H26.7419L26.741 46.0108ZM33.5131 47.4881C33.5097 47.1593 33.5206 46.8608 33.5374 46.5952C33.5584 46.3286 33.607 46.0831 33.6833 45.857C33.7597 45.6308 33.8846 45.4131 34.0549 45.2045C34.2637 44.9439 34.4926 44.7522 34.7493 44.6261C35.0059 44.5 35.2944 44.4167 35.6173 44.3798C35.9368 44.3428 36.2982 44.3251 36.7008 44.3285C37.1109 44.3259 37.4715 44.3428 37.791 44.3798C38.1072 44.4167 38.3957 44.5 38.649 44.6261C38.9022 44.7522 39.1354 44.9439 39.3467 45.2045C39.5304 45.4248 39.6629 45.6426 39.7392 45.8629C39.8155 46.0806 39.8608 46.3177 39.8742 46.5784C39.8885 46.839 39.8918 47.1425 39.8885 47.4889C39.8918 47.8067 39.8851 48.0985 39.8675 48.3625C39.8541 48.629 39.8046 48.8745 39.7283 49.104C39.652 49.3361 39.5237 49.5589 39.3459 49.7741C39.1337 50.0347 38.9014 50.2264 38.6481 50.3525C38.3948 50.4787 38.1063 50.5611 37.7902 50.5989C37.4707 50.6359 37.1092 50.6535 36.6999 50.6502C36.3041 50.6527 35.946 50.6359 35.6265 50.5989C35.3036 50.5619 35.0118 50.4787 34.7543 50.3525C34.4935 50.2264 34.2612 50.0347 34.0532 49.7741C33.8972 49.574 33.7789 49.3562 33.6993 49.1242C33.623 48.8921 33.571 48.6407 33.5466 48.3683C33.5223 48.0968 33.5081 47.8042 33.5114 47.4897L33.5131 47.4881ZM51.1003 53.4995V45.2382C51.0969 45.1322 51.1037 45.0238 51.1146 44.912C51.128 44.8001 51.1666 44.7085 51.2253 44.637C51.3259 44.5454 51.4542 44.4941 51.6144 44.4798C51.7737 44.4655 51.9272 44.4596 52.0798 44.4655H59.5605V41.4766H48.7043C48.3462 41.4791 48.0166 41.5371 47.7147 41.6456C47.4128 41.754 47.1662 41.8945 46.975 42.0609C46.7913 42.2274 46.6555 42.4014 46.5758 42.5822C46.4928 42.763 46.44 42.9454 46.4198 43.1321C46.3989 43.3153 46.3888 43.4986 46.3922 43.676V53.5004H51.1011L51.1003 53.4995ZM73.3336 53.4995V50.5795H66.2068C66.0575 50.5854 65.8973 50.5795 65.7346 50.5678C65.5711 50.5535 65.4285 50.5072 65.3111 50.4248C65.2558 50.3904 65.2105 50.3391 65.1685 50.2676C65.1266 50.1928 65.1057 50.0986 65.1023 49.9784V48.6727H73.0627V46.0621H65.1023V45.1516C65.1023 45.0969 65.1023 45.0372 65.109 44.9658C65.1157 44.8943 65.1367 44.8254 65.1719 44.7539C65.2029 44.6824 65.2549 44.6194 65.3312 44.5681C65.4185 44.5076 65.5258 44.4647 65.6575 44.4361C65.7858 44.4075 65.9217 44.3957 66.06 44.3957H73.2699V41.4758H62.7885C62.6115 41.4732 62.4237 41.4842 62.219 41.5069C62.0144 41.5329 61.8089 41.5783 61.601 41.6473C61.3963 41.7187 61.2018 41.8221 61.0173 41.9567C60.8403 42.0937 60.7045 42.24 60.6147 42.3922C60.5241 42.5469 60.4654 42.7016 60.4344 42.8588C60.4034 43.0194 60.3891 43.1766 60.3925 43.3313V51.575C60.3891 51.7642 60.3958 51.9441 60.4168 52.1165C60.4378 52.288 60.4965 52.4545 60.5904 52.6142C60.6843 52.7748 60.8403 52.932 61.0592 53.0867C61.2471 53.2095 61.4374 53.3011 61.6353 53.3616C61.8299 53.4213 62.0278 53.4592 62.2257 53.476C62.427 53.4928 62.6283 53.502 62.8304 53.4987H73.3327L73.3336 53.4995ZM83.1902 41.4766V50.5106H80.3564C80.249 50.5131 80.1308 50.5081 80.0058 50.4879C79.8775 50.4677 79.766 50.4131 79.6687 50.3214C79.6058 50.2525 79.5647 50.1642 79.537 50.0524C79.5127 49.9439 79.5026 49.8145 79.5026 49.669V41.4766H74.7937V51.6961C74.7903 51.839 74.8037 51.9878 74.8356 52.1425C74.8633 52.2947 74.9228 52.446 75.0092 52.5949C75.0964 52.7437 75.2281 52.8866 75.3983 53.0186C75.5023 53.0985 75.6306 53.1758 75.7841 53.2507C75.9401 53.3221 76.1246 53.3827 76.3393 53.4281C76.5515 53.4735 76.8014 53.497 77.0865 53.4995H94.0062C94.3844 53.497 94.7182 53.4508 95.01 53.3625C95.3019 53.2734 95.5375 53.159 95.7153 53.0186C95.8822 52.8841 96.0038 52.7412 96.0902 52.589C96.1732 52.4343 96.2294 52.2796 96.2604 52.1249C96.2881 51.9727 96.3024 51.8298 96.299 51.6952V41.4758H91.59V49.6682C91.59 49.8145 91.5791 49.9431 91.5556 50.0515C91.528 50.1634 91.486 50.2517 91.4231 50.3206C91.3258 50.4122 91.2151 50.4669 91.086 50.4871C90.961 50.5072 90.8428 50.5131 90.7354 50.5098H87.9017V41.4758H83.1927L83.1902 41.4766Z" fill="#FEFEFE"/>
<path fill-rule="evenodd" clip-rule="evenodd" d="M117.324 44.1586C119.821 47.9152 114.674 50.0919 121.755 51.3447C123.615 51.6734 125.804 50.0289 127.774 50.3576C130.68 50.8436 132.484 51.6061 134.285 52.0585C135.599 52.3872 137.679 52.1678 138.225 51.839C138.772 51.5086 138.882 50.3029 140.304 51.4001C141.727 52.4973 140.522 51.4001 142.821 53.7038C143.909 54.7943 144.487 56.0025 144.883 57.1989H148.822C148.463 55.6132 148.157 53.698 146.554 52.0896C144.255 49.7859 142.613 51.1025 141.191 50.0053C139.768 48.9081 139.659 50.1146 139.112 50.4442C136.758 51.86 130.59 48.2515 127.95 47.8101C125.979 47.4813 126.089 47.8101 124.229 47.4813C122.369 47.1526 121.603 46.2748 120.728 45.2869C119.852 44.3007 119.468 44.5193 120.398 43.2027C121.328 41.8852 119.572 40.6535 118.866 41.0075C117.623 41.633 112.62 39.4487 111.193 39.632L105.325 39.4907L104.52 39.7917C104.933 42.8882 109.113 41.9937 112.347 42.1047C115.027 42.1963 116.835 43.4255 117.322 44.1578L117.324 44.1586Z" fill="#FEFEFE"/>
<path fill-rule="evenodd" clip-rule="evenodd" d="M17.1033 57.1997H147.611C150.025 57.1997 152 59.1797 152 61.6003C152 64.0208 150.025 66.0008 147.611 66.0008H17.1033C14.6897 66.0008 12.7139 64.0208 12.7139 61.6003C12.7139 59.1797 14.6889 57.1997 17.1033 57.1997ZM17.9042 62.6991V60.9974C17.9051 60.9487 17.9118 60.9117 17.9235 60.8848C17.9361 60.8579 17.9495 60.8385 17.9655 60.8268C17.9847 60.8091 18.0107 60.7948 18.0409 60.7847C18.0728 60.7738 18.1022 60.7688 18.1307 60.7688H19.8969V60.1155H17.2048C17.1235 60.1163 17.0547 60.1264 16.9985 60.1449C16.9431 60.1634 16.8987 60.1853 16.866 60.2096C16.8324 60.2332 16.809 60.2542 16.7947 60.271C16.7654 60.3055 16.7436 60.3425 16.7301 60.382C16.7167 60.4207 16.7083 60.4602 16.7058 60.4989C16.7041 60.5375 16.7025 60.5737 16.7025 60.6073V62.6991H17.9042ZM21.762 60.086C21.632 60.0852 21.5012 60.0877 21.3687 60.0928C21.2362 60.097 21.1062 60.1079 20.9795 60.1247C20.8521 60.1415 20.7321 60.1676 20.6189 60.2038C20.5065 60.2399 20.4051 60.2887 20.3153 60.35C20.2155 60.4232 20.135 60.5073 20.0772 60.6006C20.0185 60.6939 19.9757 60.7906 19.9497 60.8898C19.922 60.9899 19.9052 61.084 19.8969 61.174C19.8885 61.264 19.8859 61.3422 19.8868 61.4077C19.8859 61.4733 19.8885 61.5515 19.8969 61.6415C19.9052 61.7314 19.9228 61.8256 19.9497 61.9248C19.9765 62.0249 20.0193 62.1215 20.0772 62.2149C20.135 62.3082 20.2155 62.3923 20.3153 62.4654C20.4051 62.5268 20.5065 62.5756 20.6189 62.6117C20.7321 62.6479 20.8521 62.6739 20.9795 62.6907C21.1062 62.7067 21.2362 62.7185 21.3687 62.7227C21.5012 62.7277 21.632 62.7302 21.762 62.7294C21.892 62.7302 22.0228 62.7277 22.1553 62.7227C22.2878 62.7185 22.4178 62.7076 22.5453 62.6907C22.6719 62.6739 22.7927 62.6479 22.9051 62.6117C23.0174 62.5756 23.1189 62.5268 23.2087 62.4654C23.3085 62.3923 23.3881 62.3082 23.4468 62.2149C23.5055 62.1215 23.5483 62.0249 23.576 61.9248C23.6028 61.8256 23.6213 61.7314 23.628 61.6415C23.6364 61.5515 23.6389 61.4733 23.638 61.4077C23.6389 61.3422 23.6355 61.264 23.628 61.174C23.6204 61.084 23.602 60.9899 23.576 60.8898C23.5483 60.7906 23.5055 60.6939 23.4468 60.6006C23.389 60.5073 23.3085 60.4232 23.2087 60.35C23.1189 60.2887 23.0174 60.2399 22.9051 60.2038C22.7927 60.1676 22.6719 60.1415 22.5453 60.1247C22.4178 60.1087 22.2878 60.097 22.1553 60.0928C22.0228 60.0877 21.892 60.0852 21.762 60.086ZM21.112 61.4069C21.1129 61.3068 21.1196 61.2261 21.1322 61.1631C21.1456 61.1008 21.1607 61.0521 21.1791 61.0185C21.1967 60.984 21.2127 60.9588 21.2278 60.9436C21.2471 60.9218 21.2781 60.8982 21.32 60.8722C21.362 60.8469 21.4181 60.8251 21.4894 60.8066C21.5616 60.7889 21.6521 60.7788 21.7612 60.778C21.8702 60.7788 21.9616 60.7889 22.0329 60.8066C22.1042 60.8251 22.1603 60.8469 22.2023 60.8722C22.2442 60.8982 22.2752 60.9218 22.2945 60.9436C22.3147 60.9655 22.3348 60.9958 22.3516 61.0327C22.37 61.0706 22.3834 61.1193 22.3943 61.1799C22.4044 61.2413 22.4103 61.3161 22.4103 61.4069C22.4111 61.5002 22.4027 61.586 22.3859 61.6633C22.3683 61.7407 22.3356 61.8063 22.2878 61.8609C22.2702 61.8828 22.2409 61.9071 22.1989 61.9349C22.157 61.9618 22.1008 61.9853 22.0295 62.0047C21.9582 62.0248 21.8693 62.0358 21.7603 62.0366C21.6681 62.0358 21.5909 62.0282 21.5255 62.0131C21.4601 61.9988 21.4072 61.9803 21.3653 61.9601C21.3234 61.9391 21.2915 61.9198 21.2697 61.9004C21.2471 61.8819 21.2336 61.8685 21.2278 61.8609C21.2102 61.8441 21.1942 61.818 21.1758 61.7819C21.1582 61.7466 21.1431 61.6986 21.1305 61.6389C21.1179 61.5776 21.1112 61.5011 21.1112 61.4069H21.112ZM25.135 62.6991H26.024C26.1095 62.7 26.2018 62.6966 26.2999 62.6899C26.3989 62.6832 26.4995 62.668 26.6018 62.6453C26.7033 62.6226 26.8014 62.5865 26.8945 62.5386C26.9884 62.4898 27.0723 62.4251 27.1469 62.3427C27.209 62.2695 27.2585 62.1863 27.2937 62.0938C27.3298 62.0021 27.3558 61.908 27.3725 61.8121C27.3893 61.7163 27.4002 61.6255 27.4044 61.5414C27.4094 61.4565 27.4119 61.3859 27.4103 61.3287C27.4111 61.2656 27.4086 61.1942 27.401 61.1135C27.3952 61.0336 27.3792 60.9504 27.3574 60.8629C27.3348 60.7763 27.3004 60.6914 27.2534 60.6082C27.2056 60.5258 27.1419 60.4509 27.0614 60.382C26.9859 60.3206 26.9037 60.271 26.8182 60.2349C26.7326 60.1987 26.6463 60.1726 26.5607 60.1541C26.4752 60.1373 26.3938 60.1256 26.3183 60.1197C26.2429 60.1146 26.1775 60.1121 26.1229 60.113H24.6142C24.5371 60.1113 24.4599 60.1172 24.3819 60.1281C24.3039 60.1399 24.2276 60.1659 24.1538 60.2054C24.0917 60.2416 24.0448 60.2811 24.0121 60.324C23.9802 60.3669 23.9592 60.4123 23.9483 60.4602C23.9366 60.5073 23.9324 60.556 23.9332 60.6048V63.5256H25.135V62.6966V62.6991ZM25.135 62.0064V60.9285C25.135 60.9134 25.1392 60.8974 25.1476 60.8806C25.156 60.8646 25.1661 60.8511 25.1786 60.8411C25.1887 60.8326 25.2055 60.8259 25.2256 60.8184C25.2457 60.8108 25.2633 60.8066 25.2768 60.8066H25.7003C25.7196 60.8057 25.7472 60.8074 25.7841 60.8116C25.8202 60.815 25.8596 60.8242 25.9041 60.8377C25.9468 60.8511 25.9888 60.873 26.0299 60.9033C26.0701 60.9335 26.1037 60.9739 26.1297 61.026C26.1531 61.0773 26.1682 61.1336 26.1758 61.1975C26.1833 61.2598 26.1858 61.3287 26.185 61.4018C26.1858 61.4851 26.1833 61.5599 26.1733 61.628C26.164 61.6961 26.1439 61.7558 26.1112 61.8071C26.0928 61.8357 26.0659 61.8659 26.029 61.8954C25.9921 61.9265 25.9443 61.9525 25.8839 61.9736C25.8244 61.9946 25.7506 62.0064 25.6634 62.0072H25.1359L25.135 62.0064ZM31.1758 62.6991V60.1146H29.974V61.0218H28.9064V60.1146H27.7046V62.6991H28.9064V61.7146H29.974V62.6991H31.1758ZM33.347 60.086C33.217 60.0852 33.0862 60.0877 32.9537 60.0928C32.8212 60.097 32.6912 60.1079 32.5646 60.1247C32.4371 60.1415 32.3172 60.1676 32.2039 60.2038C32.0916 60.2399 31.9901 60.2887 31.9004 60.35C31.7997 60.4232 31.7201 60.5073 31.6622 60.6006C31.6035 60.6939 31.5607 60.7906 31.5347 60.8898C31.507 60.9899 31.4903 61.084 31.4819 61.174C31.4735 61.264 31.471 61.3422 31.4718 61.4077C31.471 61.4733 31.4735 61.5515 31.4819 61.6415C31.4903 61.7314 31.5079 61.8256 31.5347 61.9248C31.5615 62.0249 31.6043 62.1215 31.6622 62.2149C31.7209 62.3082 31.8006 62.3923 31.9004 62.4654C31.9901 62.5268 32.0916 62.5756 32.2039 62.6117C32.3172 62.6479 32.4371 62.6739 32.5646 62.6907C32.6912 62.7067 32.8212 62.7185 32.9537 62.7227C33.0862 62.7277 33.217 62.7302 33.347 62.7294C33.477 62.7302 33.6078 62.7277 33.7403 62.7227C33.8729 62.7185 34.0028 62.7076 34.1312 62.6907C34.2578 62.6739 34.3786 62.6479 34.4909 62.6117C34.6033 62.5756 34.7048 62.5268 34.7945 62.4654C34.8943 62.3923 34.974 62.3082 35.0327 62.2149C35.0906 62.1215 35.1342 62.0249 35.1618 61.9248C35.1887 61.8256 35.2071 61.7314 35.2138 61.6415C35.2222 61.5515 35.2247 61.4733 35.2239 61.4077C35.2247 61.3422 35.2214 61.264 35.2138 61.174C35.2063 61.084 35.1887 60.9899 35.1618 60.8898C35.1342 60.7906 35.0914 60.6939 35.0327 60.6006C34.974 60.5073 34.8943 60.4232 34.7945 60.35C34.7048 60.2887 34.6033 60.2399 34.4909 60.2038C34.3786 60.1676 34.2578 60.1415 34.1312 60.1247C34.0037 60.1087 33.8737 60.097 33.7403 60.0928C33.6078 60.0877 33.477 60.0852 33.347 60.086ZM32.6971 61.4069C32.6979 61.3068 32.7046 61.2261 32.7172 61.1631C32.7306 61.1008 32.7457 61.0521 32.7642 61.0185C32.7818 60.984 32.7977 60.9588 32.8128 60.9436C32.8321 60.9218 32.8631 60.8982 32.9051 60.8722C32.947 60.8469 33.0032 60.8251 33.0745 60.8066C33.1466 60.7889 33.2372 60.7788 33.3462 60.778C33.4552 60.7788 33.5466 60.7889 33.6179 60.8066C33.6892 60.8251 33.7454 60.8469 33.7873 60.8722C33.8292 60.8982 33.8603 60.9218 33.8796 60.9436C33.8997 60.9655 33.9198 60.9958 33.9366 61.0327C33.955 61.0706 33.9685 61.1193 33.9794 61.1799C33.9894 61.2413 33.9953 61.3161 33.9953 61.4069C33.9961 61.5002 33.9877 61.586 33.971 61.6633C33.9534 61.7407 33.9207 61.8063 33.8729 61.8609C33.8552 61.8828 33.8259 61.9071 33.784 61.9349C33.742 61.9618 33.6858 61.9853 33.6145 62.0047C33.5433 62.0248 33.4544 62.0358 33.3453 62.0366C33.2531 62.0358 33.1759 62.0282 33.1105 62.0131C33.0451 61.9988 32.9914 61.9803 32.9503 61.9601C32.9084 61.9391 32.8765 61.9198 32.8539 61.9004C32.8313 61.8819 32.8178 61.8685 32.812 61.8609C32.7944 61.8441 32.7784 61.818 32.76 61.7819C32.7424 61.7466 32.7273 61.6986 32.7147 61.6389C32.7021 61.5776 32.6954 61.5011 32.6954 61.4069H32.6971ZM35.0277 62.6991H36.2294L37.0823 61.0319C37.084 61.026 37.0882 61.0185 37.0949 61.0075C37.1 60.9966 37.1075 60.9873 37.115 60.9781C37.1243 60.9689 37.1335 60.9646 37.1436 60.9638C37.1536 60.9646 37.1628 60.9697 37.1721 60.9781C37.1805 60.9873 37.1872 60.9966 37.1922 61.0075C37.1981 61.0185 37.2023 61.026 37.2048 61.0319L38.0568 62.6991H39.2586L37.817 60.3147C37.812 60.3021 37.7977 60.2845 37.7742 60.2601C37.7516 60.2357 37.7164 60.2105 37.666 60.1836C37.6166 60.1567 37.5495 60.134 37.4648 60.1146C37.3801 60.0961 37.2727 60.0861 37.1427 60.0852C37.0127 60.0861 36.9054 60.0961 36.8207 60.1146C36.736 60.134 36.6689 60.1567 36.6194 60.1836C36.5691 60.2105 36.5339 60.2357 36.5112 60.2601C36.4877 60.2845 36.4735 60.3021 36.4685 60.3147L35.0268 62.6991H35.0277ZM39.3819 60.1146V62.1871C39.3827 62.2619 39.3936 62.325 39.4138 62.3763C39.4339 62.4284 39.4574 62.4696 39.4834 62.5016C39.5085 62.5327 39.5303 62.5545 39.548 62.5671C39.5983 62.6067 39.6511 62.6361 39.7073 62.6554C39.7635 62.6739 39.8197 62.6865 39.875 62.6916C39.9304 62.6975 39.9807 62.7 40.026 62.6991H42.0438C42.1176 62.7 42.1872 62.6966 42.2534 62.6899C42.3197 62.6832 42.3842 62.6697 42.4455 62.6479C42.5067 62.626 42.5671 62.5924 42.6266 62.5478C42.7054 62.4856 42.7625 62.4158 42.7985 62.341C42.8346 62.2661 42.8572 62.1905 42.8665 62.1148C42.8757 62.0383 42.8799 61.9685 42.879 61.9046C42.879 61.7768 42.8698 61.6675 42.8522 61.5767C42.8346 61.4859 42.8111 61.4094 42.7809 61.3472C42.7499 61.2867 42.7155 61.2362 42.6769 61.1975C42.6484 61.1673 42.6073 61.1353 42.5528 61.1017C42.4991 61.0681 42.4304 61.0395 42.3465 61.0159C42.2635 60.9924 42.1654 60.9789 42.0513 60.9781H40.5854V60.1155H39.3836L39.3819 60.1146ZM40.5837 61.6112H41.3317C41.3946 61.6112 41.4441 61.6146 41.4794 61.6204C41.5163 61.6263 41.5431 61.6322 41.559 61.6381C41.575 61.644 41.5859 61.6482 41.5884 61.6499C41.6177 61.67 41.6353 61.6936 41.6429 61.7213C41.6488 61.7491 41.6513 61.776 41.6504 61.8012C41.6521 61.8273 41.6496 61.8559 41.6404 61.8878C41.632 61.9206 41.6093 61.9483 41.5708 61.9719C41.5464 61.9862 41.5146 61.9954 41.4743 62.0005C41.4349 62.0047 41.3863 62.0072 41.3317 62.0064H40.8411C40.7984 62.0064 40.7606 62.0013 40.7279 61.9937C40.6952 61.9845 40.6701 61.9727 40.6516 61.9576C40.6273 61.9399 40.6097 61.9164 40.5996 61.8853C40.5895 61.855 40.5845 61.8247 40.5845 61.792V61.6112H40.5837ZM43.2942 62.6983H44.496V60.1138H43.2942V62.6983ZM48.1273 62.6983V60.1138H46.9867V62.6983H48.1273ZM50.556 62.6983L49.6301 61.6112C49.5865 61.5582 49.553 61.5153 49.5312 61.4826C49.5085 61.4498 49.4943 61.4245 49.4876 61.406C49.48 61.3875 49.4758 61.3724 49.4775 61.3623C49.4783 61.3346 49.4918 61.3018 49.5194 61.2665C49.5471 61.2303 49.584 61.1824 49.631 61.1236L50.4101 60.1146H49.0917L48.4476 61.0361C48.3973 61.1067 48.3545 61.1698 48.3193 61.2278C48.2849 61.2858 48.2665 61.3379 48.264 61.3867C48.2631 61.4052 48.2724 61.4363 48.2925 61.4809C48.3126 61.5246 48.3546 61.5877 48.4175 61.6692L49.2267 62.6983H50.5577H50.556ZM44.558 62.6983H45.8889L46.6982 61.6692C46.7603 61.5868 46.8022 61.5246 46.8232 61.4809C46.8433 61.4363 46.8542 61.4052 46.8517 61.3867C46.8509 61.3379 46.8324 61.285 46.7964 61.2278C46.7611 61.1698 46.7184 61.1067 46.6672 61.0361L46.0231 60.1146H44.7048L45.4839 61.1236C45.5308 61.1832 45.5677 61.2312 45.5954 61.2665C45.6231 61.3026 45.6365 61.3346 45.6373 61.3623C45.6382 61.3733 45.634 61.3875 45.6281 61.406C45.6206 61.4245 45.6055 61.4498 45.5845 61.4826C45.5619 61.5153 45.5283 61.5582 45.4847 61.6112L44.5589 62.6983H44.558ZM54.0884 62.6983V60.1138H52.8866V61.021H51.8198V60.1138H50.6181V62.6983H51.8198V61.7138H52.8866V62.6983H54.0884ZM54.4565 60.1138V62.1863C54.4574 62.2611 54.4683 62.3242 54.4884 62.3754C54.5085 62.4276 54.532 62.4688 54.558 62.5007C54.5832 62.5318 54.605 62.5537 54.6226 62.5663C54.6729 62.6058 54.7257 62.6352 54.7819 62.6546C54.8381 62.6731 54.8943 62.6857 54.9496 62.6907C55.005 62.6966 55.0553 62.6991 55.1006 62.6983H57.1184C57.1922 62.6991 57.2618 62.6958 57.328 62.6891C57.3943 62.6823 57.4589 62.6689 57.5201 62.647C57.5813 62.6252 57.6417 62.5915 57.7012 62.547C57.7801 62.4847 57.8371 62.415 57.8732 62.3401C57.9092 62.2653 57.9319 62.1896 57.9411 62.114C57.9503 62.0375 57.9545 61.9677 57.9528 61.9038C57.9528 61.776 57.9436 61.6667 57.926 61.5759C57.9084 61.4851 57.8849 61.4086 57.8547 61.3464C57.8237 61.2858 57.7893 61.2354 57.7507 61.1967C57.7222 61.1664 57.6811 61.1345 57.6266 61.1008C57.5729 61.0672 57.5042 61.0386 57.4203 61.0151C57.3373 60.9916 57.2391 60.9781 57.1251 60.9773H55.6591V60.1146H54.4574L54.4565 60.1138ZM55.6583 61.6104H56.4064C56.4693 61.6104 56.5187 61.6137 56.554 61.6196C56.5909 61.6255 56.6177 61.6314 56.6336 61.6373C56.6496 61.6431 56.6605 61.6473 56.663 61.649C56.6924 61.6692 56.71 61.6927 56.7175 61.7205C56.7234 61.7482 56.7259 61.7751 56.7251 61.8004C56.7267 61.8264 56.7242 61.855 56.715 61.887C56.7066 61.9198 56.684 61.9475 56.6454 61.971C56.6211 61.9853 56.5892 61.9946 56.5489 61.9996C56.5095 62.0038 56.4609 62.0064 56.4064 62.0055H55.9158C55.873 62.0055 55.8353 62.0005 55.8026 61.9929C55.7698 61.9837 55.7447 61.9719 55.7262 61.9567C55.7019 61.9391 55.6843 61.9155 55.6742 61.8844C55.6642 61.8542 55.6591 61.8239 55.6591 61.7911V61.6104H55.6583ZM58.3688 62.6975H59.5706V60.113H58.3688V62.6975ZM63.6858 62.6975V60.6006C63.6866 60.5737 63.685 60.5384 63.6782 60.4963C63.6732 60.4543 63.6598 60.4089 63.6372 60.3618C63.6145 60.3147 63.5785 60.2702 63.529 60.2281C63.4787 60.1861 63.4107 60.1516 63.3227 60.1256C63.2346 60.0987 63.1231 60.0852 62.9864 60.0844C62.8656 60.0852 62.77 60.0953 62.6979 60.1138C62.6274 60.1314 62.5712 60.1558 62.5302 60.1853C62.4891 60.2155 62.4538 60.2466 62.422 60.2794L61.2445 61.4548C61.2361 61.4641 61.2269 61.4733 61.216 61.4851C61.2051 61.4968 61.1925 61.5061 61.1791 61.5145C61.1657 61.5238 61.1506 61.5271 61.1338 61.528C61.1103 61.528 61.0952 61.5204 61.0877 61.5078C61.0801 61.4952 61.0776 61.4767 61.0785 61.4548L61.1397 60.1138H59.9379V62.2392C59.9396 62.3502 59.9622 62.4393 60.0083 62.5049C60.0536 62.5705 60.1115 62.6193 60.1819 62.6512C60.2541 62.6832 60.3279 62.7042 60.4059 62.7134C60.4847 62.7235 60.5568 62.7269 60.6248 62.726C60.712 62.7269 60.7883 62.7218 60.8545 62.7126C60.9208 62.7025 60.9837 62.6815 61.0424 62.6495C61.1028 62.6167 61.1648 62.568 61.2311 62.5024L62.3842 61.3564C62.406 61.3363 62.4253 61.3186 62.4412 61.3026C62.4589 61.2875 62.4773 61.2791 62.4949 61.2783C62.5184 61.2791 62.5327 61.2875 62.5377 61.3026C62.5427 61.3178 62.5444 61.3363 62.5436 61.3564L62.4823 62.6975H63.6841H63.6858ZM61.8089 59.5328C61.7469 59.5337 61.689 59.5303 61.6378 59.5227C61.5867 59.516 61.5397 59.5034 61.4944 59.4832C61.4491 59.4639 61.4055 59.4345 61.3602 59.3966C61.3267 59.3672 61.2965 59.3352 61.2722 59.3008C61.2479 59.2663 61.2286 59.2285 61.2126 59.1873H60.4218C60.4419 59.2646 60.4729 59.3411 60.5115 59.4176C60.5509 59.4933 60.5979 59.5648 60.6524 59.6304C60.7069 59.6968 60.7673 59.7539 60.8327 59.8019C60.93 59.8708 61.034 59.9221 61.1455 59.9557C61.2571 59.9902 61.3695 60.0121 61.4827 60.0222C61.5959 60.0322 61.7041 60.0364 61.8081 60.0356C61.9112 60.0364 62.0194 60.0314 62.1326 60.0222C62.2458 60.0112 62.3591 59.9894 62.4698 59.9557C62.5813 59.9221 62.6853 59.8708 62.7826 59.8019C62.848 59.7539 62.9084 59.6968 62.9629 59.6304C63.0174 59.5648 63.0644 59.4933 63.1038 59.4176C63.1424 59.3411 63.1734 59.2646 63.1935 59.1873H62.4027C62.3876 59.2285 62.3683 59.2671 62.3431 59.3008C62.3188 59.3361 62.2886 59.3672 62.2551 59.3966C62.2115 59.4345 62.1662 59.4639 62.1209 59.4832C62.0764 59.5034 62.0286 59.5169 61.9775 59.5227C61.9263 59.5303 61.8701 59.5337 61.8072 59.5328H61.8089ZM67.7146 62.6975V60.7957H68.929V60.113H65.2985V60.7957H66.5129V62.6975H67.7146ZM73.0501 60.113H71.8483L70.977 61.6978L70.1492 60.113H68.8678L70.4134 62.6975L69.9043 63.5315H71.1061L73.0501 60.1138V60.113ZM74.3752 62.6975H75.2641C75.3497 62.6983 75.4419 62.6949 75.54 62.6882C75.639 62.6815 75.7396 62.6664 75.8419 62.6437C75.9434 62.621 76.0415 62.5848 76.1346 62.5369C76.2286 62.4881 76.3124 62.4234 76.3871 62.341C76.4491 62.2678 76.4986 62.1846 76.5338 62.0921C76.5699 62.0005 76.5959 61.9063 76.6127 61.8105C76.6303 61.7146 76.6403 61.6238 76.6445 61.5397C76.6496 61.4548 76.6521 61.3842 76.6504 61.327C76.6512 61.264 76.6487 61.1925 76.6412 61.1118C76.6353 61.0319 76.6194 60.9487 76.5976 60.8612C76.5749 60.7746 76.5405 60.6897 76.4936 60.6065C76.4458 60.5241 76.382 60.4493 76.3015 60.3803C76.226 60.3189 76.1439 60.2693 76.0583 60.2332C75.9728 60.197 75.8864 60.171 75.8008 60.1525C75.7153 60.1357 75.634 60.1239 75.5585 60.118C75.483 60.113 75.4176 60.1104 75.3631 60.1113H73.8544C73.7772 60.1096 73.7 60.1155 73.6221 60.1264C73.5449 60.1382 73.4677 60.1642 73.3939 60.2038C73.3319 60.2399 73.2849 60.2794 73.2522 60.3223C73.2203 60.3652 73.1994 60.4106 73.1885 60.4585C73.1767 60.5056 73.1725 60.5544 73.1734 60.6031V63.5239H74.3752V62.6949V62.6975ZM74.3752 62.0047V60.9268C74.3752 60.9117 74.3793 60.8957 74.3877 60.8789C74.3961 60.8629 74.4062 60.8495 74.4188 60.8394C74.4288 60.831 74.4456 60.8242 74.4657 60.8167C74.4859 60.8091 74.5035 60.8049 74.5169 60.8049H74.9404C74.9597 60.8041 74.9874 60.8057 75.0243 60.8099C75.0603 60.8133 75.0997 60.8226 75.1442 60.836C75.187 60.8495 75.2289 60.8713 75.27 60.9016C75.3102 60.9319 75.3438 60.9722 75.3698 61.0243C75.3933 61.0756 75.4084 61.132 75.4159 61.1959C75.4235 61.2581 75.426 61.327 75.4251 61.4002C75.426 61.4834 75.4235 61.5582 75.4134 61.6263C75.4042 61.6944 75.384 61.7541 75.3513 61.8054C75.3329 61.834 75.3061 61.8643 75.2692 61.8937C75.2323 61.9248 75.1845 61.9509 75.1241 61.9719C75.0645 61.9929 74.9907 62.0047 74.9035 62.0055H74.376L74.3752 62.0047ZM80.6918 62.6975V60.6006C80.6927 60.5737 80.691 60.5384 80.6843 60.4963C80.6792 60.4543 80.6658 60.4089 80.6432 60.3618C80.6205 60.3147 80.5845 60.2702 80.535 60.2281C80.4847 60.1861 80.4167 60.1516 80.3287 60.1256C80.2406 60.0987 80.1291 60.0852 79.9924 60.0844C79.8716 60.0852 79.776 60.0953 79.7039 60.1138C79.6335 60.1314 79.5773 60.1558 79.5362 60.1853C79.4951 60.2155 79.4599 60.2466 79.428 60.2794L78.2505 61.4548C78.2421 61.4641 78.2329 61.4733 78.222 61.4851C78.2103 61.4968 78.1985 61.5061 78.1851 61.5145C78.1717 61.5238 78.1566 61.5271 78.1398 61.528C78.1163 61.528 78.1012 61.5204 78.0937 61.5078C78.0862 61.4952 78.0836 61.4767 78.0845 61.4548L78.1457 60.1138H76.9439V62.2392C76.9456 62.3502 76.9682 62.4393 77.0144 62.5049C77.0597 62.5705 77.1175 62.6193 77.188 62.6512C77.2593 62.6832 77.3339 62.7042 77.4119 62.7134C77.4907 62.7235 77.5628 62.7269 77.6308 62.726C77.718 62.7269 77.7943 62.7218 77.8605 62.7126C77.9268 62.7025 77.9897 62.6815 78.0484 62.6495C78.1088 62.6167 78.1709 62.568 78.2379 62.5024L79.3911 61.3564C79.4129 61.3363 79.4322 61.3186 79.4481 61.3026C79.4657 61.2875 79.4842 61.2791 79.5009 61.2783C79.5244 61.2791 79.5387 61.2875 79.5437 61.3026C79.5488 61.3178 79.5504 61.3363 79.5496 61.3564L79.4884 62.6975H80.6901H80.6918ZM84.1445 62.6975V62.0442H82.9545C82.9075 62.045 82.8555 62.0442 82.7968 62.0433C82.7381 62.0425 82.6794 62.0366 82.6182 62.0282C82.5578 62.0181 82.5008 62.0013 82.4479 61.9761C82.3934 61.9517 82.349 61.9155 82.3112 61.8685C82.2995 61.855 82.2878 61.8315 82.2727 61.7987C82.2576 61.7659 82.2442 61.7197 82.2316 61.6591C82.2207 61.5977 82.214 61.5187 82.2131 61.4203C82.2131 61.3548 82.2165 61.2942 82.2249 61.2387C82.2332 61.1832 82.2475 61.1303 82.2685 61.0798C82.2903 61.0235 82.323 60.9722 82.3674 60.9251C82.4127 60.878 82.4764 60.8402 82.5595 60.8116C82.6417 60.783 82.7515 60.7688 82.8874 60.7679H84.0774V60.1146H82.3297C82.2014 60.1138 82.0773 60.1222 81.9598 60.1373C81.8424 60.1533 81.7317 60.1811 81.6286 60.2197C81.5263 60.2584 81.4323 60.3131 81.3485 60.382C81.2646 60.4518 81.1984 60.5283 81.1497 60.6124C81.1011 60.6956 81.0642 60.783 81.0407 60.8747C81.0172 60.9663 81.003 61.0597 80.9954 61.1555C80.9879 61.2505 80.9853 61.3455 80.9862 61.4397C80.9853 61.5717 80.9912 61.6953 81.0055 61.8096C81.0189 61.9248 81.0466 62.0307 81.0885 62.1283C81.1296 62.225 81.1917 62.3124 81.2747 62.3906C81.3745 62.4814 81.4827 62.5495 81.6018 62.594C81.72 62.6378 81.8366 62.6672 81.9531 62.6806C82.0697 62.6933 82.1737 62.7 82.2676 62.6983H84.1445V62.6975ZM86.6713 62.6975V60.7957H87.8857V60.113H84.2552V60.7957H85.4696V62.6975H86.6713ZM91.8164 62.6975V60.6006C91.8173 60.5737 91.8156 60.5384 91.8089 60.4963C91.8038 60.4543 91.7904 60.4089 91.7678 60.3618C91.7451 60.3147 91.7091 60.2702 91.6596 60.2281C91.6093 60.1861 91.5414 60.1516 91.4533 60.1256C91.3652 60.0987 91.2537 60.0852 91.117 60.0844C90.9962 60.0852 90.9006 60.0953 90.8285 60.1138C90.7581 60.1314 90.7019 60.1558 90.6608 60.1853C90.6197 60.2155 90.5845 60.2466 90.5526 60.2794L89.3751 61.4548C89.3668 61.4641 89.3575 61.4733 89.3466 61.4851C89.3349 61.4968 89.3232 61.5061 89.3097 61.5145C89.2963 61.5238 89.2812 61.5271 89.2644 61.528C89.241 61.528 89.2259 61.5204 89.2183 61.5078C89.2108 61.4952 89.2083 61.4767 89.2091 61.4548L89.2703 60.1138H88.0685V62.2392C88.0702 62.3502 88.0928 62.4393 88.139 62.5049C88.1843 62.5705 88.2421 62.6193 88.3126 62.6512C88.3847 62.6832 88.4585 62.7042 88.5365 62.7134C88.6153 62.7235 88.6874 62.7269 88.7554 62.726C88.8426 62.7269 88.9189 62.7218 88.9852 62.7126C89.0514 62.7025 89.1143 62.6815 89.173 62.6495C89.2334 62.6167 89.2955 62.568 89.3626 62.5024L90.5157 61.3564C90.5375 61.3363 90.5568 61.3186 90.5727 61.3026C90.5903 61.2875 90.6088 61.2791 90.6256 61.2783C90.649 61.2791 90.6633 61.2875 90.6683 61.3026C90.6734 61.3178 90.675 61.3363 90.6742 61.3564L90.613 62.6975H91.8148H91.8164ZM95.6557 62.6975V60.113H94.454V61.0395H93.804C93.7638 61.0403 93.7193 61.0378 93.6682 61.0327C93.6178 61.0285 93.5692 61.0193 93.5231 61.0033C93.4761 60.9882 93.4392 60.9638 93.4115 60.9319C93.3931 60.9092 93.3805 60.8755 93.373 60.8326C93.3654 60.7898 93.3629 60.7276 93.3629 60.6494V60.113H92.1611V60.9958C92.1603 61.0546 92.1645 61.1126 92.1737 61.1706C92.1821 61.2295 92.198 61.2858 92.224 61.343C92.2483 61.3993 92.2852 61.4548 92.333 61.5078C92.3716 61.5523 92.4211 61.5944 92.479 61.6347C92.5385 61.6743 92.6089 61.707 92.6911 61.7323C92.7733 61.7575 92.8681 61.7701 92.9763 61.7709H94.454V62.6975H95.6557ZM99.3231 62.6975V62.0047H97.7473C97.6752 62.0055 97.6039 62.0047 97.5351 62.0022C97.4664 61.9996 97.4035 61.9904 97.3473 61.9727C97.2903 61.9559 97.2441 61.9256 97.2081 61.8828C97.1863 61.855 97.1712 61.8214 97.162 61.7835C97.1527 61.7457 97.1494 61.7079 97.1527 61.6726H98.9248C98.9801 61.6734 99.0338 61.67 99.0866 61.6616C99.1403 61.6532 99.1923 61.6322 99.2443 61.5994C99.3047 61.5599 99.3483 61.5137 99.3768 61.4615C99.4045 61.4094 99.4229 61.3539 99.4296 61.2976C99.438 61.2396 99.4414 61.1832 99.4397 61.1269C99.4405 61.0554 99.4363 60.9798 99.4296 60.8999C99.4212 60.82 99.4062 60.741 99.3827 60.662C99.3592 60.5821 99.3231 60.5081 99.2778 60.4392C99.2309 60.3694 99.168 60.3089 99.0908 60.2584C99.0053 60.2038 98.8996 60.1642 98.7738 60.139C98.648 60.1138 98.4996 60.0987 98.3302 60.0919C98.1608 60.0844 97.9662 60.0818 97.7473 60.0827C97.593 60.0818 97.4404 60.0835 97.2911 60.0886C97.141 60.0928 96.9984 60.102 96.8634 60.118C96.7284 60.134 96.6051 60.1592 96.4944 60.1945C96.3837 60.229 96.2898 60.2769 96.2143 60.3366C96.1413 60.3971 96.0868 60.4652 96.0482 60.5426C96.0105 60.6199 95.9853 60.7049 95.9719 60.7973C95.9585 60.8898 95.9518 60.9899 95.9501 61.0966C95.9493 61.2034 95.9493 61.3152 95.9501 61.4338C95.9501 61.5893 95.9535 61.7247 95.9619 61.8407C95.9711 61.9568 95.9862 62.0568 96.0105 62.1417C96.034 62.2266 96.07 62.2989 96.1162 62.3603C96.1807 62.4436 96.2545 62.5083 96.3367 62.5545C96.4197 62.6008 96.5095 62.6344 96.6076 62.6546C96.7057 62.6748 96.8097 62.6874 96.9204 62.6916C97.032 62.6966 97.1477 62.6983 97.2693 62.6975H99.324H99.3231ZM97.1519 61.0689C97.1435 61.0025 97.1485 60.9445 97.1653 60.8957C97.1829 60.8461 97.2206 60.8083 97.281 60.7814C97.3104 60.7679 97.3481 60.7587 97.3959 60.7528C97.4437 60.7461 97.4941 60.7418 97.5469 60.7402C97.5997 60.7385 97.65 60.7376 97.6978 60.7376C97.7196 60.7376 97.749 60.7385 97.7859 60.7393C97.8236 60.741 97.8622 60.7427 97.9042 60.746C97.9452 60.7486 97.983 60.7528 98.0165 60.7578C98.0761 60.7679 98.1205 60.7822 98.1524 60.8007C98.1851 60.8192 98.2077 60.8402 98.2195 60.8638C98.2321 60.8865 98.2379 60.9092 98.2371 60.9327C98.2379 60.9495 98.2337 60.9688 98.2245 60.9899C98.2153 61.0109 98.196 61.0294 98.1683 61.0454C98.1398 61.0605 98.097 61.0689 98.0408 61.0697H97.1511L97.1519 61.0689ZM102.819 62.6975V62.0442H101.629C101.582 62.045 101.53 62.0442 101.471 62.0433C101.412 62.0425 101.353 62.0366 101.292 62.0282C101.232 62.0181 101.175 62.0013 101.122 61.9761C101.068 61.9517 101.023 61.9155 100.985 61.8685C100.974 61.855 100.962 61.8315 100.947 61.7987C100.932 61.7659 100.918 61.7197 100.906 61.6591C100.895 61.5977 100.888 61.5187 100.887 61.4203C100.887 61.3548 100.891 61.2942 100.898 61.2387C100.906 61.1832 100.921 61.1303 100.942 61.0798C100.964 61.0235 100.996 60.9722 101.041 60.9251C101.086 60.878 101.15 60.8402 101.233 60.8116C101.316 60.783 101.425 60.7688 101.561 60.7679H102.751V60.1146H101.003C100.875 60.1138 100.751 60.1222 100.633 60.1373C100.516 60.1533 100.405 60.1811 100.302 60.2197C100.2 60.2584 100.106 60.3131 100.022 60.382C99.9379 60.4518 99.8716 60.5283 99.823 60.6124C99.7743 60.6956 99.7374 60.783 99.7139 60.8747C99.6905 60.9663 99.6762 61.0597 99.6686 61.1555C99.6611 61.2505 99.6586 61.3455 99.6594 61.4397C99.6586 61.5717 99.6645 61.6953 99.6787 61.8096C99.6921 61.9248 99.7198 62.0307 99.7617 62.1283C99.8028 62.225 99.8649 62.3124 99.9479 62.3906C100.048 62.4814 100.157 62.5495 100.275 62.594C100.393 62.6378 100.51 62.6672 100.626 62.6806C100.743 62.6933 100.847 62.7 100.941 62.6983H102.818L102.819 62.6975ZM104.315 62.6975V60.113H103.113V62.6975H104.315ZM106.897 62.6975L105.756 61.591C105.735 61.57 105.714 61.5473 105.693 61.5221C105.671 61.4977 105.653 61.4716 105.637 61.4456C105.623 61.4187 105.615 61.3926 105.615 61.3665C105.615 61.3354 105.629 61.2993 105.657 61.2556C105.686 61.2135 105.731 61.1605 105.792 61.0983L106.755 60.1138H105.431L104.633 61.0302C104.572 61.1009 104.524 61.1631 104.489 61.2194C104.456 61.2749 104.438 61.3262 104.437 61.3716C104.438 61.406 104.446 61.4397 104.462 61.4733C104.477 61.5069 104.498 61.5389 104.523 61.5708C104.546 61.6028 104.572 61.6322 104.597 61.6591L105.548 62.6975H106.897ZM110.644 62.6975V60.6006C110.645 60.5737 110.643 60.5384 110.636 60.4963C110.631 60.4543 110.618 60.4089 110.595 60.3618C110.573 60.3147 110.537 60.2702 110.487 60.2281C110.437 60.1861 110.369 60.1516 110.281 60.1256C110.193 60.0987 110.081 60.0852 109.945 60.0844C109.824 60.0852 109.728 60.0953 109.656 60.1138C109.586 60.1314 109.529 60.1558 109.488 60.1853C109.447 60.2155 109.412 60.2466 109.38 60.2794L108.203 61.4548C108.194 61.4641 108.185 61.4733 108.174 61.4851C108.162 61.4968 108.151 61.5061 108.137 61.5145C108.124 61.5238 108.109 61.5271 108.092 61.528C108.069 61.528 108.053 61.5204 108.046 61.5078C108.038 61.4952 108.036 61.4767 108.037 61.4548L108.098 60.1138H106.896V62.2392C106.898 62.3502 106.92 62.4393 106.967 62.5049C107.012 62.5705 107.07 62.6193 107.14 62.6512C107.212 62.6832 107.286 62.7042 107.364 62.7134C107.443 62.7235 107.515 62.7269 107.583 62.726C107.67 62.7269 107.746 62.7218 107.813 62.7126C107.879 62.7025 107.942 62.6815 108.001 62.6495C108.061 62.6167 108.123 62.568 108.19 62.5024L109.343 61.3564C109.365 61.3363 109.384 61.3186 109.4 61.3026C109.418 61.2875 109.436 61.2791 109.453 61.2783C109.477 61.2791 109.491 61.2875 109.496 61.3026C109.501 61.3178 109.503 61.3363 109.502 61.3564L109.441 62.6975H110.642H110.644ZM114.759 62.6975V60.6006C114.76 60.5737 114.758 60.5384 114.752 60.4963C114.747 60.4543 114.733 60.4089 114.711 60.3618C114.688 60.3147 114.653 60.2702 114.602 60.2281C114.552 60.1861 114.484 60.1516 114.396 60.1256C114.308 60.0987 114.196 60.0852 114.06 60.0844C113.939 60.0852 113.843 60.0953 113.771 60.1138C113.701 60.1314 113.645 60.1558 113.604 60.1853C113.562 60.2155 113.527 60.2466 113.495 60.2794L112.318 61.4548C112.31 61.4641 112.3 61.4733 112.289 61.4851C112.278 61.4968 112.266 61.5061 112.253 61.5145C112.239 61.5238 112.224 61.5271 112.207 61.528C112.184 61.528 112.169 61.5204 112.161 61.5078C112.154 61.4952 112.151 61.4767 112.152 61.4548L112.213 60.1138H111.011V62.2392C111.013 62.3502 111.036 62.4393 111.082 62.5049C111.127 62.5705 111.185 62.6193 111.255 62.6512C111.327 62.6832 111.401 62.7042 111.479 62.7134C111.558 62.7235 111.63 62.7269 111.698 62.726C111.785 62.7269 111.862 62.7218 111.928 62.7126C111.994 62.7025 112.057 62.6815 112.116 62.6495C112.176 62.6167 112.238 62.568 112.305 62.5024L113.458 61.3564C113.48 61.3363 113.5 61.3186 113.516 61.3026C113.533 61.2875 113.552 61.2791 113.568 61.2783C113.592 61.2791 113.606 61.2875 113.611 61.3026C113.616 61.3178 113.618 61.3363 113.617 61.3564L113.556 62.6975H114.758H114.759ZM112.882 59.5328C112.82 59.5337 112.762 59.5303 112.711 59.5227C112.66 59.516 112.613 59.5034 112.569 59.4832C112.523 59.4639 112.48 59.4345 112.434 59.3966C112.401 59.3672 112.371 59.3352 112.346 59.3008C112.322 59.2663 112.303 59.2285 112.287 59.1873H111.496C111.516 59.2646 111.547 59.3411 111.586 59.4176C111.625 59.4933 111.672 59.5648 111.727 59.6304C111.781 59.6968 111.842 59.7539 111.907 59.8019C112.004 59.8708 112.108 59.9221 112.22 59.9557C112.331 59.9902 112.444 60.0121 112.557 60.0222C112.67 60.0322 112.779 60.0364 112.882 60.0356C112.985 60.0364 113.094 60.0314 113.207 60.0222C113.32 60.0112 113.433 59.9894 113.544 59.9557C113.656 59.9221 113.76 59.8708 113.857 59.8019C113.922 59.7539 113.983 59.6968 114.037 59.6304C114.091 59.5648 114.139 59.4933 114.178 59.4176C114.217 59.3411 114.248 59.2646 114.268 59.1873H113.477C113.462 59.2285 113.442 59.2671 113.417 59.3008C113.393 59.3361 113.364 59.3672 113.329 59.3966C113.286 59.4345 113.24 59.4639 113.195 59.4832C113.151 59.5034 113.103 59.5169 113.052 59.5227C113.001 59.5303 112.944 59.5337 112.881 59.5328H112.882ZM117.758 62.6975V60.113H116.556V62.6975H117.758ZM120.34 62.6975L119.2 61.591C119.178 61.57 119.158 61.5473 119.136 61.5221C119.114 61.4977 119.097 61.4716 119.081 61.4456C119.066 61.4187 119.059 61.3926 119.058 61.3665C119.058 61.3354 119.072 61.2993 119.101 61.2556C119.129 61.2135 119.175 61.1605 119.236 61.0983L120.199 60.1138H118.874L118.077 61.0302C118.016 61.1009 117.968 61.1631 117.933 61.2194C117.899 61.2749 117.881 61.3262 117.881 61.3716C117.881 61.406 117.89 61.4397 117.906 61.4733C117.921 61.5069 117.942 61.5389 117.966 61.5708C117.99 61.6028 118.016 61.6322 118.04 61.6591L118.991 62.6975H120.34ZM122.143 60.0844C122.013 60.0835 121.883 60.086 121.75 60.0911C121.618 60.0953 121.488 60.1062 121.361 60.123C121.234 60.1399 121.114 60.1659 121 60.2021C120.888 60.2382 120.787 60.287 120.697 60.3484C120.596 60.4215 120.517 60.5056 120.459 60.5989C120.4 60.6922 120.357 60.7889 120.331 60.8881C120.303 60.9882 120.287 61.0824 120.278 61.1723C120.27 61.2623 120.267 61.3405 120.268 61.406C120.267 61.4716 120.27 61.5498 120.278 61.6398C120.287 61.7297 120.304 61.8239 120.331 61.9231C120.358 62.0232 120.401 62.1199 120.459 62.2132C120.517 62.3065 120.597 62.3906 120.697 62.4637C120.787 62.5251 120.888 62.5739 121 62.61C121.114 62.6462 121.234 62.6722 121.361 62.6891C121.488 62.705 121.618 62.7168 121.75 62.721C121.883 62.726 122.013 62.7286 122.143 62.7277C122.273 62.7286 122.404 62.726 122.537 62.721C122.669 62.7168 122.799 62.7059 122.928 62.6891C123.054 62.6722 123.175 62.6462 123.287 62.61C123.4 62.5739 123.501 62.5251 123.591 62.4637C123.691 62.3906 123.77 62.3065 123.829 62.2132C123.887 62.1199 123.931 62.0232 123.958 61.9231C123.985 61.8239 124.004 61.7297 124.01 61.6398C124.019 61.5498 124.021 61.4716 124.02 61.406C124.021 61.3405 124.018 61.2623 124.01 61.1723C124.003 61.0824 123.985 60.9882 123.958 60.8881C123.931 60.7889 123.888 60.6922 123.829 60.5989C123.77 60.5056 123.691 60.4215 123.591 60.3484C123.501 60.287 123.4 60.2382 123.287 60.2021C123.175 60.1659 123.054 60.1399 122.928 60.123C122.8 60.1071 122.67 60.0953 122.537 60.0911C122.404 60.086 122.273 60.0835 122.143 60.0844ZM121.494 61.4052C121.494 61.3052 121.501 61.2244 121.514 61.1614C121.527 61.0992 121.542 61.0504 121.561 61.0168C121.578 60.9823 121.594 60.9571 121.609 60.9419C121.629 60.9201 121.66 60.8965 121.702 60.8705C121.743 60.8453 121.8 60.8234 121.871 60.8049C121.943 60.7872 122.034 60.7772 122.143 60.7763C122.252 60.7772 122.343 60.7872 122.414 60.8049C122.486 60.8234 122.542 60.8453 122.584 60.8705C122.626 60.8965 122.657 60.9201 122.676 60.9419C122.696 60.9638 122.716 60.9941 122.733 61.0311C122.751 61.0689 122.765 61.1177 122.776 61.1782C122.786 61.2396 122.792 61.3144 122.792 61.4052C122.793 61.4985 122.784 61.5843 122.767 61.6616C122.75 61.739 122.717 61.8046 122.669 61.8592C122.652 61.8811 122.622 61.9055 122.58 61.9332C122.538 61.9601 122.482 61.9837 122.411 62.003C122.34 62.0232 122.251 62.0341 122.142 62.0349C122.05 62.0341 121.972 62.0265 121.907 62.0114C121.842 61.9971 121.789 61.9786 121.747 61.9584C121.705 61.9374 121.673 61.9181 121.65 61.8987C121.628 61.8802 121.614 61.8668 121.608 61.8592C121.591 61.8424 121.575 61.8163 121.556 61.7802C121.539 61.7449 121.524 61.697 121.511 61.6373C121.499 61.5759 121.492 61.4994 121.492 61.4052H121.494ZM127.725 61.3127C127.734 61.2909 127.745 61.274 127.757 61.2623C127.768 61.2497 127.78 61.2446 127.793 61.2446C127.799 61.2438 127.809 61.248 127.819 61.2564C127.829 61.264 127.835 61.2799 127.835 61.3035L127.774 62.6983H128.976V60.5771C128.975 60.4913 128.951 60.4181 128.902 60.3559C128.854 60.2946 128.789 60.2433 128.707 60.2021C128.625 60.1626 128.531 60.1323 128.43 60.1138C128.328 60.0945 128.221 60.0844 128.111 60.0844C127.888 60.0827 127.709 60.1138 127.572 60.176C127.435 60.2382 127.335 60.3416 127.272 60.4837L126.763 61.6053C126.747 61.6406 126.727 61.6675 126.707 61.6877C126.685 61.707 126.665 61.718 126.646 61.718C126.627 61.718 126.608 61.707 126.586 61.6877C126.564 61.6675 126.546 61.6406 126.53 61.6053L126.021 60.4837C125.957 60.3416 125.857 60.2382 125.72 60.176C125.584 60.1138 125.403 60.0827 125.18 60.0844C125.07 60.0844 124.964 60.0945 124.862 60.1138C124.759 60.1323 124.666 60.1626 124.585 60.2021C124.503 60.2424 124.438 60.2937 124.389 60.3559C124.342 60.4181 124.316 60.4921 124.316 60.5771V62.6983H125.517L125.456 61.3085C125.457 61.2867 125.461 61.2724 125.47 61.2631C125.48 61.2539 125.489 61.2505 125.499 61.2505C125.511 61.2505 125.523 61.2564 125.535 61.2682C125.548 61.2799 125.558 61.2967 125.567 61.3186L126.082 62.4738C126.115 62.5478 126.161 62.6033 126.218 62.6395C126.275 62.6756 126.341 62.7 126.415 62.7109C126.488 62.7235 126.565 62.7277 126.646 62.7269C126.727 62.7277 126.804 62.7227 126.877 62.7109C126.951 62.6991 127.016 62.6748 127.073 62.6395C127.132 62.6033 127.176 62.5478 127.21 62.4738L127.725 61.3136V61.3127ZM130.08 60.113C130.014 60.1121 129.946 60.1146 129.879 60.1197C129.811 60.1247 129.745 60.1365 129.68 60.1567C129.615 60.1769 129.554 60.2096 129.497 60.2542C129.453 60.292 129.419 60.329 129.398 60.3669C129.375 60.4047 129.361 60.4442 129.354 60.4837C129.347 60.5232 129.342 60.5661 129.344 60.6098V62.6966H130.546V60.9268C130.545 60.9024 130.548 60.8789 130.556 60.8579C130.563 60.8369 130.58 60.8175 130.607 60.8007C130.633 60.7847 130.662 60.7738 130.691 60.7704C130.72 60.7671 130.744 60.7654 130.761 60.7662H131.423C131.439 60.7654 131.463 60.7671 131.493 60.7704C131.522 60.7738 131.551 60.7839 131.577 60.8007C131.603 60.8175 131.62 60.8369 131.628 60.8579C131.636 60.8789 131.639 60.9024 131.638 60.9268V62.6966H132.84V60.6098C132.84 60.5661 132.836 60.5241 132.829 60.4837C132.824 60.4442 132.808 60.4047 132.787 60.3669C132.764 60.329 132.731 60.2912 132.687 60.2542C132.63 60.2096 132.569 60.1769 132.503 60.1567C132.439 60.1365 132.372 60.1239 132.305 60.1197C132.238 60.1146 132.17 60.1121 132.105 60.113H130.081H130.08ZM132.962 62.6975H134.164L135.017 61.0302C135.018 61.0243 135.023 61.0168 135.029 61.0058C135.034 60.9949 135.041 60.9857 135.049 60.9764C135.059 60.9672 135.068 60.963 135.078 60.9621C135.088 60.963 135.097 60.968 135.106 60.9764C135.115 60.9857 135.121 60.9949 135.127 61.0058C135.132 61.0168 135.137 61.0243 135.139 61.0302L135.991 62.6975H137.193L135.751 60.3131C135.746 60.3004 135.732 60.2828 135.709 60.2584C135.686 60.234 135.65 60.2088 135.6 60.1819C135.551 60.155 135.484 60.1323 135.399 60.113C135.314 60.0945 135.207 60.0844 135.077 60.0835C134.947 60.0844 134.84 60.0945 134.755 60.113C134.67 60.1323 134.603 60.155 134.554 60.1819C134.503 60.2088 134.468 60.234 134.446 60.2584C134.422 60.2828 134.408 60.3004 134.403 60.3131L132.961 62.6975H132.962ZM140.615 62.6975V62.0047H139.04C138.968 62.0055 138.896 62.0047 138.827 62.0022C138.759 61.9996 138.696 61.9904 138.64 61.9727C138.583 61.9559 138.536 61.9256 138.5 61.8828C138.479 61.855 138.463 61.8214 138.454 61.7835C138.445 61.7457 138.442 61.7079 138.445 61.6726H140.217C140.272 61.6734 140.326 61.67 140.379 61.6616C140.432 61.6532 140.485 61.6322 140.537 61.5994C140.597 61.5599 140.641 61.5137 140.67 61.4615C140.698 61.4094 140.716 61.3539 140.723 61.2976C140.731 61.2396 140.734 61.1832 140.733 61.1269C140.734 61.0554 140.729 60.9798 140.723 60.8999C140.714 60.82 140.699 60.741 140.676 60.662C140.652 60.5821 140.616 60.5081 140.571 60.4392C140.524 60.3694 140.462 60.3089 140.384 60.2584C140.298 60.2038 140.193 60.1642 140.067 60.139C139.941 60.1138 139.793 60.0987 139.623 60.0919C139.454 60.0844 139.259 60.0818 139.04 60.0827C138.886 60.0818 138.734 60.0835 138.585 60.0886C138.435 60.0928 138.292 60.102 138.157 60.118C138.022 60.134 137.898 60.1592 137.788 60.1945C137.677 60.229 137.583 60.2769 137.507 60.3366C137.434 60.3971 137.38 60.4652 137.342 60.5426C137.304 60.6199 137.278 60.7049 137.266 60.7973C137.252 60.8898 137.246 60.9899 137.244 61.0966C137.243 61.2034 137.243 61.3152 137.244 61.4338C137.244 61.5893 137.247 61.7247 137.255 61.8407C137.264 61.9568 137.279 62.0568 137.304 62.1417C137.327 62.2266 137.363 62.2989 137.409 62.3603C137.474 62.4436 137.548 62.5083 137.63 62.5545C137.713 62.6008 137.803 62.6344 137.901 62.6546C137.999 62.6748 138.103 62.6874 138.214 62.6916C138.325 62.6966 138.441 62.6983 138.562 62.6975H140.617H140.615ZM138.444 61.0689C138.436 61.0025 138.441 60.9445 138.458 60.8957C138.475 60.8461 138.513 60.8083 138.573 60.7814C138.603 60.7679 138.64 60.7587 138.688 60.7528C138.736 60.7461 138.786 60.7418 138.839 60.7402C138.892 60.7385 138.942 60.7376 138.99 60.7376C139.012 60.7376 139.041 60.7385 139.078 60.7393C139.116 60.741 139.155 60.7427 139.196 60.746C139.238 60.7486 139.275 60.7528 139.309 60.7578C139.368 60.7679 139.413 60.7822 139.445 60.8007C139.477 60.8192 139.5 60.8402 139.512 60.8638C139.524 60.8865 139.53 60.9092 139.529 60.9327C139.53 60.9495 139.526 60.9688 139.517 60.9899C139.508 61.0109 139.488 61.0294 139.461 61.0454C139.432 61.0605 139.389 61.0689 139.333 61.0697H138.444V61.0689ZM142.228 62.6975V60.113H141.026V62.6975H142.228ZM144.81 62.6975L143.67 61.591C143.648 61.57 143.628 61.5473 143.606 61.5221C143.584 61.4977 143.567 61.4716 143.551 61.4456C143.536 61.4187 143.529 61.3926 143.528 61.3665C143.528 61.3354 143.542 61.2993 143.571 61.2556C143.599 61.2135 143.645 61.1605 143.706 61.0983L144.669 60.1138H143.344L142.547 61.0302C142.486 61.1009 142.438 61.1631 142.403 61.2194C142.369 61.2749 142.351 61.3262 142.351 61.3716C142.351 61.406 142.36 61.4397 142.377 61.4733C142.392 61.5069 142.413 61.5389 142.437 61.5708C142.46 61.6028 142.486 61.6322 142.511 61.6591L143.462 62.6975H144.811H144.81ZM147.895 62.6975V62.0442H146.705C146.658 62.045 146.606 62.0442 146.547 62.0433C146.488 62.0425 146.43 62.0366 146.369 62.0282C146.308 62.0181 146.251 62.0013 146.198 61.9761C146.145 61.9517 146.099 61.9155 146.062 61.8685C146.051 61.855 146.038 61.8315 146.023 61.7987C146.008 61.7659 145.994 61.7197 145.982 61.6591C145.97 61.5977 145.964 61.5187 145.963 61.4203C145.963 61.3548 145.967 61.2942 145.974 61.2387C145.983 61.1832 145.997 61.1303 146.018 61.0798C146.04 61.0235 146.072 60.9722 146.117 60.9251C146.162 60.878 146.226 60.8402 146.309 60.8116C146.392 60.783 146.501 60.7688 146.637 60.7679H147.827V60.1146H146.079C145.951 60.1138 145.827 60.1222 145.709 60.1373C145.592 60.1533 145.481 60.1811 145.378 60.2197C145.276 60.2584 145.182 60.3131 145.098 60.382C145.014 60.4518 144.948 60.5283 144.9 60.6124C144.851 60.6956 144.815 60.783 144.791 60.8747C144.768 60.9663 144.753 61.0597 144.746 61.1555C144.738 61.2505 144.736 61.3455 144.737 61.4397C144.736 61.5717 144.742 61.6953 144.756 61.8096C144.769 61.9248 144.797 62.0307 144.839 62.1283C144.88 62.225 144.942 62.3124 145.025 62.3906C145.125 62.4814 145.234 62.5495 145.352 62.594C145.47 62.6378 145.587 62.6672 145.703 62.6806C145.82 62.6933 145.924 62.7 146.018 62.6983H147.895V62.6975Z" fill="#FEFEFE"/>
<path fill-rule="evenodd" clip-rule="evenodd" d="M95.9626 28.0689C99.1931 28.1244 102.538 26.9582 105.967 25.2229L107.33 24.3477L108.484 25.1111C111.692 26.7203 115.035 27.7107 118.574 27.7956C117.419 29.045 115.048 28.2042 113.471 28.1487C111.31 28.0722 109.432 27.6006 108.037 26.4538C105.758 27.8654 101.853 28.7306 97.9058 28.6129C97.0864 28.5885 96.3635 28.39 95.9635 28.0697L95.9626 28.0689ZM100.971 29.0131C103.285 28.3009 105.822 28.5574 107.912 26.8758L107.715 31.822L100.847 32.4181L100.971 29.0131ZM113.59 28.5902C112.061 28.1513 109.565 28.5817 108.086 26.8254L107.888 31.7716L113.467 32.2937L113.591 28.5902H113.59ZM111.9 30.9519V30.9527C111.899 30.9695 111.898 30.9872 111.898 31.0048C111.898 31.0225 111.899 31.0393 111.9 31.057V31.8725L113.016 31.9776V31.0578C113.017 31.0401 113.018 31.0225 113.018 31.0048C113.018 30.6946 112.767 30.4432 112.458 30.4432C112.166 30.4432 111.926 30.6668 111.9 30.9527V30.9519ZM108.212 30.4928V30.4936C108.21 30.5105 108.209 30.5281 108.209 30.5458C108.209 30.5634 108.21 30.5802 108.212 30.5979V31.4134L109.327 31.5185V30.5996C109.329 30.5819 109.33 30.5643 109.33 30.5466C109.33 30.2364 109.079 29.985 108.77 29.985C108.478 29.985 108.238 30.2086 108.212 30.4945V30.4928ZM107.075 30.5054V30.5063C107.076 30.5231 107.077 30.5407 107.077 30.5584C107.077 30.576 107.076 30.5929 107.075 30.6105V31.426L105.959 31.5311V30.6122C105.958 30.5945 105.957 30.5769 105.957 30.5592C105.957 30.249 106.208 29.9976 106.517 29.9976C106.809 29.9976 107.049 30.2212 107.075 30.5071V30.5054ZM102.706 31.0267V31.0275C102.708 31.0443 102.709 31.062 102.709 31.0797C102.709 31.0973 102.708 31.1141 102.706 31.1318V31.9473L101.591 32.0524V31.1326C101.589 31.115 101.588 31.0973 101.588 31.0797C101.588 30.7694 101.839 30.518 102.148 30.518C102.44 30.518 102.68 30.7417 102.706 31.0275V31.0267ZM98.7394 33.1395C96.0784 33.5784 93.591 34.4158 90.7563 34.457C92.9653 35.4264 96.8709 34.7202 100.012 34.4595C103.461 34.1737 107.742 34.2577 110.541 32.7418C112.533 33.7213 115.326 33.9046 117.335 34.0887C120 34.3326 122.83 34.6302 124.474 33.9349C119.061 33.6448 113.4 32.8083 107.863 32.245L98.7394 33.1395ZM95.9853 35.0497C99.8942 34.7294 105.987 34.8311 110.119 33.3674L110.094 38.5414L95.9853 39.2544V35.0497ZM118.353 34.7042C115.75 34.5907 113.146 34.4082 110.349 33.417L110.374 38.591L118.353 38.9408V34.7042ZM98.05 37.1559V37.1567C98.0517 37.1735 98.0525 37.1912 98.0525 37.2088C98.0525 37.2265 98.0517 37.2433 98.05 37.261V38.0765L96.9346 38.1816V37.2618C96.933 37.2441 96.9321 37.2265 96.9321 37.2088C96.9321 36.8986 97.1829 36.6472 97.4923 36.6472C97.7842 36.6472 98.024 36.8708 98.05 37.1567V37.1559ZM102.896 36.6775V36.6783C102.897 36.6951 102.898 36.7128 102.898 36.7304C102.898 36.7481 102.897 36.7649 102.896 36.7826V37.5981L101.78 37.7032V36.7842C101.779 36.7666 101.778 36.7489 101.778 36.7313C101.778 36.421 102.029 36.1696 102.338 36.1696C102.63 36.1696 102.87 36.3933 102.896 36.6791V36.6775ZM108.793 36.2386V36.2394C108.795 36.2562 108.796 36.2739 108.796 36.2915C108.796 36.3092 108.795 36.326 108.793 36.3437V37.1592L107.678 37.2643V36.3454C107.676 36.3277 107.675 36.31 107.675 36.2924C107.675 35.9821 107.926 35.7308 108.235 35.7308C108.527 35.7308 108.767 35.9544 108.793 36.2403V36.2386ZM111.953 36.152V36.1528C111.951 36.1696 111.951 36.1873 111.951 36.205C111.951 36.2226 111.951 36.2394 111.953 36.2571V37.0726L113.068 37.1777V36.2588C113.07 36.2411 113.071 36.2234 113.071 36.2058C113.071 35.8955 112.82 35.6442 112.511 35.6442C112.219 35.6442 111.979 35.8678 111.953 36.1537V36.152ZM115.369 36.437V36.4378C115.367 36.4547 115.366 36.4723 115.366 36.49C115.366 36.5076 115.367 36.5244 115.369 36.5421V37.3576L116.484 37.4627V36.5438C116.486 36.5261 116.487 36.5085 116.487 36.4908C116.487 36.1806 116.236 35.9292 115.927 35.9292C115.635 35.9292 115.395 36.1528 115.369 36.4387V36.437ZM95.9853 39.2552H118.353V39.9859H95.9853V39.2552Z" fill="#FEFEFE"/>
</g>
<defs>
<clipPath id="clip0_26_1013">
<rect width="152" height="66" fill="white"/>
</clipPath>
</defs>
</svg>
