<svg width="96" height="55" viewBox="0 0 96 55" fill="none" xmlns="http://www.w3.org/2000/svg">
<path fill-rule="evenodd" clip-rule="evenodd" d="M44.467 30.3948C47.3496 32.3164 50.4631 36.8053 54.0259 36.8053C57.6916 36.8053 59.0206 34.9117 62.0811 32.2078L64.2088 30.3979C65.2414 31.0871 66.2335 31.9594 67.1694 32.8255L79.0245 42.9458C79.3864 43.25 79.3708 43.1786 79.7327 43.4828L84.9583 47.9997C85.6946 48.5895 87.4666 50.0175 87.8971 50.657H20.7818L39.2133 34.8806C39.5346 34.6105 39.6407 34.4491 39.962 34.1759L44.4701 30.3917L44.467 30.3948ZM67.7404 27.5016L75.7831 20.6161C76.1044 20.346 76.2105 20.1846 76.5318 19.9114C76.8937 19.6072 76.8781 19.6786 77.24 19.3743C77.5614 19.1043 77.6674 18.9428 77.9888 18.6696L81.0118 16.0961C81.5921 15.6305 81.929 15.2859 82.4656 14.8544L91.4318 7.23317C91.4537 8.16758 91.6408 8.05582 91.6408 9.09268V45.8949C91.6408 46.9349 91.4537 46.82 91.4318 47.7544C90.8703 47.3788 90.5458 46.9473 89.978 46.5127L74.4416 33.2322C74.0516 32.8876 74.008 32.9218 73.6242 32.5989C73.3372 32.3568 73.2561 32.2326 72.9878 31.9936L71.534 30.7518C70.6948 30.0068 68.2177 28.1317 67.7466 27.4922L67.7404 27.5016ZM20.7818 4.343H87.8971C87.2326 5.32709 77.2712 13.5288 75.6864 14.9351L67.3785 21.9696C64.5083 24.6238 60.1843 28.0107 57.0895 30.7549C54.0134 33.4868 53.5299 32.2699 50.6378 29.836C50.1792 29.4511 50.07 29.448 49.6083 29.001C48.9282 28.3428 48.3386 27.871 47.6335 27.2439C44.389 24.3661 38.2649 19.5606 35.1701 16.6953C34.5087 16.0837 33.8816 15.5342 33.1859 14.9475L24.8842 7.90681C23.9327 7.02517 21.3246 5.15014 20.7818 4.3399V4.343ZM12.8856 7.85714C12.8856 10.0768 12.2804 13.8517 14.9634 13.8517C18.0551 13.8517 17.2502 9.36897 17.2502 7.44116C18.1268 7.67399 25.0246 13.6778 26.1321 14.7302L35.7722 22.9195C36.106 23.1865 36.2058 23.3355 36.5241 23.618L39.4317 26.0984C40.1243 26.7099 40.3863 26.6851 40.9354 27.4984L37.4506 30.6494C37.0607 30.994 37.017 30.9598 36.6332 31.2827C36.3462 31.5248 36.2651 31.649 35.9968 31.888C35.6068 32.2326 35.5632 32.1985 35.1794 32.5213L18.9629 46.3637C18.4045 46.8821 18.0488 47.3384 17.2471 47.5526C17.2471 46.3078 17.3469 44.6035 17.2471 43.4176C16.9819 40.2574 12.8825 40.7013 12.8825 43.2127C12.8825 46.9162 12.4707 49.5674 15.213 52.4731C16.1146 53.4292 18.6135 55 20.3637 55H88.103C90.7423 55 92.4145 53.5503 93.7685 52.1626C95.1069 50.7905 95.996 48.5491 95.996 45.9042V9.10199C95.996 4.10086 92.3397 0.00310516 88.0999 0.00310516H20.5696C16.7323 0.00310516 12.8825 4.05119 12.8825 7.86025L12.8856 7.85714Z" fill="#FA5F29"/>
<path fill-rule="evenodd" clip-rule="evenodd" d="M0.00116663 32.8752C0.00116663 33.7537 1.00885 34.9427 2.07893 34.9427H21.6117C24.2978 34.9427 24.1543 30.5997 21.4027 30.5997H2.28483C0.921496 30.5997 -0.00195312 31.8849 -0.00195312 32.8752H0.00116663Z" fill="#FA5F29"/>
<path fill-rule="evenodd" clip-rule="evenodd" d="M6.44355 21.9168C6.44355 23.5155 7.32956 24.3972 8.93624 24.3972H21.4028C24.0515 24.3972 24.5943 20.0542 21.1938 20.0542H8.51819C7.5729 20.0542 6.44043 21.0352 6.44043 21.9137L6.44355 21.9168Z" fill="#FA5F29"/>
</svg>
