<svg width="62" height="67" viewBox="0 0 62 67" fill="none" xmlns="http://www.w3.org/2000/svg">
<path fill-rule="evenodd" clip-rule="evenodd" d="M4.24734 15.2289C4.24734 15.8065 4.67121 16.4569 5.03728 16.7275C5.87539 17.3467 20.9758 23.6012 22.9073 24.4441C24.0585 24.9436 25.0363 25.3651 26.1875 25.8595C26.7896 26.1196 27.2376 26.2913 27.8445 26.5463C28.3647 26.7648 29.0053 27.1135 29.5014 27.2384C29.0872 27.9044 16.9972 40.8036 15.5763 42.349C14.7285 43.2701 15.1331 43.1764 13.5533 43.166H2.43625C1.60777 43.166 0.138672 42.9526 0.138672 43.8164C0.138672 44.6229 0.822647 44.7166 1.38139 44.956C1.96903 45.2057 2.48923 45.4087 3.03834 45.6428L9.69987 48.4943C12.9608 49.8992 12.0023 49.1603 12.5803 50.4716C11.0148 51.6007 11.0004 54.5198 13.6689 54.5198C14.4251 54.5198 14.7671 53.8174 15.2391 53.4739C16.2362 53.7237 16.1206 53.807 16.4674 54.7592L20.5327 66.0298C20.8843 67.0132 21.2263 66.8727 21.8862 66.394L21.8814 51.6423C21.9392 51.0439 22.4835 50.6745 23.1241 49.9824L35.5079 36.6045C35.9029 36.1778 36.4471 35.3557 36.9866 35.1996C37.2419 36.3755 37.8295 37.5723 38.2101 38.7067L41.9767 49.1239C42.8341 51.4966 43.6193 53.7653 44.4766 56.0808L46.4033 61.3051C47.0873 62.7516 49.9388 63.2876 49.9147 59.4735C49.8425 47.157 49.9725 34.7261 49.9147 22.4044C49.9051 20.6925 49.6546 21.3169 51.4561 19.3708C52.771 17.9503 57.8671 12.6792 58.8112 11.1286C60.367 8.57373 61.9999 5.68063 61.9999 2.17353C61.9999 1.40863 61.7157 0.950733 61.3111 0.570884C59.1436 -1.47926 52.4339 2.51176 50.7336 4.35897L43.1231 12.5856C42.4921 13.2984 42.6607 13.1475 41.4614 13.1371C29.9205 13.0383 18.2158 13.2152 6.66052 13.1319C5.21068 13.1215 4.24734 13.7199 4.24734 15.2237V15.2289Z" fill="#E7B96E"/>
</svg>
