<svg width="263" height="284" viewBox="0 0 263 284" fill="none" xmlns="http://www.w3.org/2000/svg">
<g clip-path="url(#clip0_58_1024)">
<path fill-rule="evenodd" clip-rule="evenodd" d="M179.98 183.895H252.935V273.926H179.98V183.895ZM146.018 183.895H169.288V273.926H146.018V183.895ZM62.9984 183.895H135.326V273.926H62.9984V183.895ZM94.4456 148.009C94.4456 158.049 95.3986 161.861 101.992 161.861C111.222 161.861 97.4162 144.006 113.773 127.694C127.399 114.104 148.887 119.445 159.593 133.163C168.837 145.009 166.07 139.079 180.242 133.16C194.678 127.133 212.198 127.312 219.631 141.688C223.261 148.711 222.718 157.404 219.609 164.385C218.891 165.997 217.979 167.441 217.13 168.83C215.612 171.316 215.079 171.301 214.572 173.195H66.7717C59.0433 173.19 52.3066 172.153 52.3066 180.12V278.337C52.3066 281.381 54.0939 284.002 57.3385 284.002H257.97C261.013 284.002 263.001 282.012 263.001 278.965V177.603C263.001 171.983 250.641 173.195 247.278 173.195C240.57 173.195 233.86 173.195 227.153 173.195C227.711 170.801 228.142 171.007 229.127 168.874C241.201 142.746 221.59 119.049 200.109 119.049C176.927 119.049 177.831 124.948 168.034 127.235C161.79 117.901 148.925 109.606 136.587 109.606C122.925 109.606 115.439 111.616 105.61 121.411C102.312 124.698 99.7321 128.007 97.8454 132.524C95.92 137.137 94.448 141.756 94.448 148.012L94.4456 148.009Z" fill="#7889F1"/>
<path fill-rule="evenodd" clip-rule="evenodd" d="M23.3742 121.567C24.4824 122.467 24.269 121.411 22.5206 124.489C18.7764 131.087 1.36019 159.156 1.36019 163.118C1.36019 167.092 8.51147 170.257 13.9386 173.192L28.6025 181.807C39.1245 188.126 38.8917 187.296 46.6128 173.789C48.0945 171.194 49.3506 168.767 50.9269 166.145L126.788 34.3199C133.01 23.7943 134.196 24.7435 110.991 11.8219C104.718 8.32873 99.5139 3.83301 93.8152 3.83301C90.7864 3.83301 82.1219 21.1799 80.8003 23.5443L68.656 44.127C68.4814 36.2522 62.6323 28.3871 54.819 28.3871C50.0684 28.3871 49.3991 28.0473 44.8499 30.9991C42.8517 32.2954 41.9908 33.5358 40.7662 35.7254C36.7068 42.9837 40.3976 55.0119 42.0587 66.3459L44.1272 82.5324C41.5955 82.7436 34.3618 85.8241 31.4737 86.8655L12.8667 94.0533C10.2041 95.0874 9.01345 95.1724 6.73396 96.7284C-6.55011 105.805 2.28169 124.086 12.0495 124.086C15.9926 124.086 18.6576 124.509 21.9095 122.625C23.1414 121.911 22.6807 122.169 23.3694 121.569L23.3742 121.567ZM15.8277 114.012C12.9249 114.012 10.1677 112.427 10.1677 109.606C10.1677 104.39 17.7725 103.169 24.9019 100.43C26.8638 99.6754 29.216 98.6728 30.9232 98.2747C29.57 100.297 17.2657 114.015 15.8301 114.015L15.8277 114.012ZM57.9666 42.8696C57.9666 48.579 52.7893 55.9441 52.3067 61.7579H51.0481C51.0481 55.5241 49.3967 50.4676 48.759 44.4839C47.7914 35.3929 57.9642 38.7501 57.9642 42.8696H57.9666ZM35.3245 173.195C33.2172 172.631 26.7304 168.568 24.366 167.167C22.4309 166.021 21.0729 165.254 19.1669 164.186C17.2026 163.084 15.3136 161.7 13.3129 161.232L55.1852 88.5623C58.7838 82.4717 62.2613 76.5948 65.5156 70.5721C74.8591 53.2762 87.6727 33.3732 96.9628 15.7981C100.154 17.9368 103.738 19.721 107.293 21.8256L118.346 27.7608C117.818 30.0281 114.915 34.5894 113.584 36.8421C111.678 40.0682 109.939 42.957 108.285 46.018C106.702 48.948 104.948 51.9217 103.217 54.7959C93.6139 70.7348 84.0546 88.7784 74.4371 104.683C73.4865 106.254 72.873 107.523 71.9273 109.097C61.4125 126.604 50.8978 146.351 40.3952 163.786C39.1584 165.837 35.8362 171.012 35.327 173.192L35.3245 173.195Z" fill="#7889F1"/>
<path fill-rule="evenodd" clip-rule="evenodd" d="M235.953 105.827C227.892 101.955 205.204 93.5897 199.457 89.4751C184.226 78.5756 196.55 60.015 211.218 65.103C221.859 68.7928 219.502 70.9775 226.071 60.0465C228.009 56.8204 230.533 54.3298 234.054 52.9267C242.648 49.4966 251.049 55.8033 251.049 63.6441C251.049 75.0654 249.138 75.3616 243.951 87.3874L235.956 105.827H235.953ZM216.456 54.8298C212.896 54.7497 214.414 53.57 204.506 53.57C188.101 53.57 172.494 75.6602 188.613 92.7765C196.566 101.222 200.349 100.952 211.42 106.463L237.212 117.789C243.444 117.789 242.973 116.148 246.916 106.727L257.877 81.1852C261.583 72.2059 261.74 72.5773 261.74 62.3866C261.74 47.4066 243.701 33.0358 225.123 44.6174C222.043 46.5375 217.341 51.0381 216.459 54.8323L216.456 54.8298Z" fill="#7889F1"/>
<path fill-rule="evenodd" clip-rule="evenodd" d="M185.64 13.9047C188.021 13.9047 190.672 15.3879 190.672 18.3106C190.672 23.8064 181.939 28.1711 176.379 32.3342C174.339 33.8611 173.115 35.3395 170.547 35.9391C169.936 33.6451 164.407 26.7267 162.903 24.7022C153.582 12.1448 162.425 9.16379 167.13 10.9796C170.307 12.2079 170.139 13.7785 171.992 15.6112C176.733 20.2987 180.247 13.9023 185.64 13.9023V13.9047ZM148.533 14.5334C148.533 24.7556 149.954 25.3236 157.425 35.2205C170.2 52.1402 165.544 52.9218 185.904 38.0923C193.148 32.8173 202.598 27.8118 200.677 15.2617C200.066 11.2684 198.468 9.13223 195.866 6.81397C187.606 -0.551052 179.944 4.21655 176.204 5.09045C169.734 -4.58069 148.53 0.0533946 148.53 14.5334H148.533Z" fill="#7889F1"/>
</g>
<defs>
<clipPath id="clip0_58_1024">
<rect width="263" height="284" fill="white"/>
</clipPath>
</defs>
</svg>
