<svg width="61" height="91" viewBox="0 0 61 91" fill="none" xmlns="http://www.w3.org/2000/svg">
<path d="M30.7168 0L46.7008 24.7708H32.1654V89.9859C32.1654 90.5265 31.7597 90.9647 31.2603 90.9647H30.4247C29.9248 90.9647 29.5185 90.5265 29.5185 89.9859V24.7708H14.7324L30.7168 0V0ZM35.2772 82.7892V90.0876C48.7235 84.4284 61 75.7353 61 61.3192C61 60.3945 60.957 59.4419 60.8655 58.4754L35.2772 82.7897V82.7892ZM35.2772 66.1801V78.5159L60.3236 54.7197C59.7312 51.6099 58.7599 48.3524 57.4707 45.0885L35.2772 66.1795V66.1801ZM35.2772 49.5645V61.9074L56.1825 42.0493C54.9212 39.2681 53.4495 36.5153 51.8014 33.8673L35.2766 49.5645H35.2772ZM35.2772 28.4168V45.2924L50.0827 31.2258C49.4343 30.2722 48.759 29.334 48.0616 28.4162H35.2772V28.4168ZM25.7223 82.7892V90.0876C12.2771 84.4284 0 75.7353 0 61.3192C0 60.3945 0.041971 59.4419 0.133446 58.4754L25.7218 82.7897L25.7223 82.7892ZM25.7223 66.1801V78.5159L0.676379 54.7197C1.26774 51.6099 2.24007 48.3524 3.52879 45.0885L25.7218 66.1795L25.7223 66.1801ZM25.7223 49.5645V61.9074L4.81806 42.0493C6.07826 39.2681 7.55101 36.5153 9.19864 33.8673L25.7223 49.5645ZM25.7223 28.4168V45.2924L10.9168 31.2258C11.5652 30.2722 12.2415 29.334 12.9389 28.4162H25.7223V28.4168Z" fill="white"/>
</svg>
