<svg width="200" height="200" viewBox="0 0 200 200" fill="none" xmlns="http://www.w3.org/2000/svg">
<path d="M199.687 155.967C197.307 140.72 188.866 130.253 174.658 124.388C172.805 123.626 170.826 123.167 168.775 122.531V120.245C168.775 87.1119 168.766 53.9786 168.749 20.8453C168.792 18.8322 168.594 16.8213 168.159 14.8552C167.112 10.6189 164.672 6.85678 161.231 4.17244C157.789 1.4881 153.545 0.0370926 149.18 0.0521784C121.174 0.0313071 93.1712 0.0208714 65.1721 0.0208714C50.0033 0.0208714 34.8293 -0.0260892 19.6553 0.0208714C10.3327 0.0991391 2.3881 6.28229 0.587258 15.1787C-0.148736 18.8051 0.0861556 22.682 0.00263847 26.444C-0.070439 29.9035 1.37023 31.2758 4.85707 31.281C12.9339 31.281 21.0089 31.281 29.0822 31.281H31.2328V34.083C31.2328 79.7808 31.2328 125.477 31.2328 171.171C31.1952 173.25 31.4037 175.325 31.854 177.355C34.0828 186.428 41.7716 192.184 51.5797 192.194C79.2551 192.194 106.931 192.185 134.606 192.168C136.473 192.088 138.312 192.639 139.826 193.733C141.662 195.079 143.682 196.154 145.824 196.927C149.357 198.153 153.022 199.014 156.629 200H164.056C166.703 199.41 169.433 199.066 171.98 198.195C187.572 192.846 197.26 182.379 199.692 165.761C199.767 165.448 199.87 165.142 200 164.847V157.021C199.87 156.678 199.765 156.325 199.687 155.967ZM31.1232 23.3916H7.94198C7.35736 18.2833 8.02028 13.5873 12.4362 10.2896C16.3929 7.33107 20.7358 6.93973 25.0839 9.31385C30.6117 12.3245 31.7391 17.4119 31.1232 23.3916ZM62.4839 170.837C62.5279 172.137 62.4404 173.438 62.2229 174.72C61.0745 180.798 56.0583 184.733 50.1129 184.3C43.8178 183.851 39.3966 179.327 39.0886 173.008C39.0521 172.231 39.0886 171.443 39.0886 170.665C39.0886 121.27 39.0991 71.8636 39.12 22.4472C39.12 17.3232 38.5353 12.4654 35.2625 7.99896C35.9933 7.93112 36.4631 7.85286 36.9381 7.85286C74.2494 7.85286 111.562 7.85286 148.877 7.85286C155.919 7.85286 160.971 12.8776 160.977 19.9009C161.001 53.4273 161.001 86.9502 160.977 120.47V121.758C139.675 122.113 122.319 138.743 121.828 160.95H119.536C103.846 160.95 88.1497 161.007 72.4589 160.924C62.3638 160.877 62.3221 160.694 62.4839 170.837ZM66.5031 184.326C69.8543 179.603 70.679 174.412 70.2562 168.855H122.037C124.396 174.14 126.662 179.202 128.953 184.326H66.5031ZM160.94 192.189C143.85 192.189 129.684 178.142 129.705 161.231C129.705 143.355 143.135 129.924 160.961 129.924C178.787 129.924 192.191 143.371 192.207 161.231C192.222 178.148 178.03 192.194 160.94 192.189Z" fill="#005340"/>
<path d="M55.1864 62.5202C61.3632 62.5446 67.5382 62.5446 73.7116 62.5202C76.6347 62.5202 78.0962 60.9966 78.1223 58.0277C78.1484 55.0587 78.1223 52.048 78.1223 49.0582C78.1223 45.8753 78.1484 42.6924 78.1223 39.5095C78.091 36.7806 76.6033 35.2205 73.9203 35.2048C67.6148 35.1631 61.3093 35.1631 55.0037 35.2048C52.326 35.2048 50.8279 36.7702 50.7913 39.4991C50.76 45.7362 50.76 51.9732 50.7913 58.2103C50.8018 61.0018 52.3521 62.5046 55.1864 62.5202ZM58.6941 43.1516H70.2404V54.5943H58.6941V43.1516Z" fill="#005340"/>
<path d="M50.7805 96.7858C50.7805 100.141 52.1847 101.571 55.4784 101.581C61.4533 101.581 67.4335 101.581 73.4189 101.581C76.6448 101.581 78.1167 100.146 78.1167 96.9737C78.1167 90.9314 78.1167 84.8874 78.1167 78.8416C78.1167 75.7475 76.6552 74.2656 73.6068 74.2499C67.4996 74.2291 61.389 74.2291 55.2748 74.2499C52.2369 74.2499 50.7962 75.7527 50.7753 78.8521C50.7753 81.8419 50.7753 84.8317 50.7753 87.8216C50.7753 90.8114 50.7649 93.796 50.7805 96.7858ZM58.7199 82.2176H70.2713V93.6238H58.7199V82.2176Z" fill="#005340"/>
<path d="M73.5497 140.637C76.6294 140.637 78.1066 139.149 78.1223 136.097C78.1432 129.989 78.1432 123.88 78.1223 117.772C78.1223 114.819 76.6242 113.321 73.6854 113.311C67.5087 113.283 61.3336 113.283 55.1603 113.311C52.3364 113.311 50.807 114.834 50.7913 117.642C50.76 123.816 50.76 129.989 50.7913 136.16C50.7913 139.108 52.2946 140.605 55.2282 140.637C58.2818 140.668 61.3354 140.637 64.3942 140.637C67.453 140.637 70.4961 140.663 73.5497 140.637ZM58.6889 132.721V121.242H70.2352V132.721H58.6889Z" fill="#005340"/>
<path d="M93.2336 44.8943C93.8803 44.9623 94.531 44.9833 95.1806 44.957H143.756C144.341 44.957 144.931 44.957 145.51 44.957C146.498 44.9207 147.433 44.505 148.122 43.7963C148.81 43.0877 149.198 42.1409 149.206 41.1531C149.248 39.0086 147.734 37.3963 145.463 37.198C144.941 37.1511 144.419 37.198 143.897 37.198H95.1337C94.4837 37.1725 93.8328 37.197 93.1867 37.2711C92.2971 37.4418 91.4955 37.9184 90.9207 38.6182C90.3459 39.318 90.0343 40.1968 90.0399 41.1022C90.0455 42.0076 90.3679 42.8825 90.9513 43.5752C91.5346 44.2678 92.3421 44.7345 93.2336 44.8943Z" fill="#005340"/>
<path d="M94.2879 60.5479C99.9409 60.5792 105.594 60.5479 111.252 60.5479C117.881 60.5479 124.511 60.5479 131.145 60.5479C133.781 60.5479 135.415 59.1078 135.53 56.838C135.65 54.4274 133.911 52.7733 131.124 52.7576C125.012 52.7263 118.905 52.7576 112.792 52.7576C106.68 52.7576 100.442 52.7576 94.267 52.7576C91.4222 52.7576 89.6266 54.5839 89.8876 57.0519C90.1224 59.2382 91.7197 60.5479 94.2879 60.5479Z" fill="#005340"/>
<path d="M131.229 115.252C125.052 115.252 118.875 115.252 112.698 115.252C106.523 115.252 100.348 115.252 94.1731 115.252C91.5632 115.252 89.9294 116.775 89.872 119.05C89.8146 121.325 91.511 123 94.1836 123.042C96.8561 123.084 99.6435 123.042 102.373 123.042C111.863 123.042 121.353 123.042 130.842 123.042C132.487 123.042 134.199 122.828 134.825 121.211C135.285 119.916 135.32 118.508 134.924 117.193C134.423 115.674 132.831 115.252 131.229 115.252Z" fill="#005340"/>
<path d="M145.009 76.2014C139.482 76.1493 133.959 76.2014 128.431 76.2014C122.903 76.2014 117.381 76.2014 111.858 76.2014C109.139 76.2014 107.458 77.7668 107.458 80.0939C107.458 82.4211 109.133 83.9656 111.853 83.9969C114.573 84.0282 117.443 83.9969 120.236 83.9969C128.358 83.9969 136.482 83.9969 144.607 83.9969C147.217 83.9969 148.7 82.922 149.133 80.8662C149.665 78.3773 147.838 76.238 145.009 76.2014Z" fill="#005340"/>
<path d="M94.4815 99.6295C97.8639 99.6295 101.267 99.6295 104.639 99.6295C108.152 99.6295 111.67 99.6295 115.188 99.6295C118.091 99.6295 119.714 98.1476 119.672 95.6483C119.631 93.2429 118.039 91.8393 115.225 91.8341C108.324 91.8132 101.422 91.8132 94.518 91.8341C91.621 91.8341 89.9037 93.3055 89.888 95.7109C89.8724 98.1163 91.5897 99.6086 94.4815 99.6295Z" fill="#005340"/>
<path d="M115.136 130.884C108.232 130.884 101.33 130.884 94.4289 130.884C91.5737 130.884 89.8407 132.424 89.872 134.834C89.9034 137.245 91.5946 138.659 94.3402 138.68C97.8584 138.711 101.371 138.68 104.889 138.68C108.277 138.68 111.675 138.68 115.047 138.68C118.002 138.68 119.63 137.276 119.656 134.819C119.682 132.361 118.059 130.89 115.136 130.884Z" fill="#005340"/>
<path d="M93.8134 83.9916C94.5867 83.9817 95.3396 83.7415 95.9757 83.3017C96.6118 82.8618 97.1022 82.2424 97.3843 81.5225C97.6664 80.8026 97.7274 80.015 97.5594 79.2603C97.3914 78.5057 97.0021 77.8182 96.4412 77.2858C95.8804 76.7534 95.1735 76.4003 94.4108 76.2716C93.6482 76.1429 92.8645 76.2444 92.1599 76.5632C91.4553 76.8821 90.8617 77.4037 90.4552 78.0614C90.0487 78.7191 89.8476 79.4831 89.8776 80.2556C89.913 81.2697 90.3453 82.2293 91.0814 82.928C91.8174 83.6267 92.7985 84.0086 93.8134 83.9916Z" fill="#005340"/>
<path d="M172.888 148.589C170.452 146.849 167.167 145.98 163.033 145.98H149.587V169.366H145.28V173.05H149.587V177.041H156.821V173.05H166.41V169.366H156.821V166.882H163.033C167.177 166.882 170.462 166.013 172.888 164.273C175.313 162.534 176.531 159.925 176.542 156.447C176.535 152.954 175.317 150.335 172.888 148.589ZM167.605 160.016C166.53 160.84 164.992 161.252 162.991 161.252H156.821V151.86H162.991C164.975 151.86 166.513 152.258 167.605 153.055C168.146 153.45 168.579 153.974 168.866 154.579C169.153 155.184 169.285 155.851 169.25 156.52C169.282 157.192 169.149 157.863 168.863 158.472C168.576 159.082 168.144 159.612 167.605 160.016Z" fill="#005340"/>
</svg>
