<svg width="100" height="100" viewBox="0 0 100 100" fill="none" xmlns="http://www.w3.org/2000/svg">
    <path fill-rule="evenodd" clip-rule="evenodd"
          d="M47.1178 0.228208C42.7164 1.35881 41.5897 3.34936 41.5897 9.99736C41.5897 12.7819 41.4118 15.0647 41.1949 15.0705C40.978 15.0763 39.7028 13.8381 38.3619 12.3192C36.0954 9.75204 35.8301 9.60062 34.5934 10.1651C33.861 10.4996 32.5643 11.7969 31.7109 13.0484C27.329 19.4748 28.3588 24.6229 35.0114 29.5531C39.4528 32.8446 40.9822 35.0573 41.4286 38.8369C41.5965 40.2558 40.4217 41.4724 38.9977 41.3542L38.8099 41.3386C35.0982 41.03 33.1724 39.7327 29.744 35.2325C26.1107 30.4632 24.8909 29.6612 20.8765 29.4054C17.2522 29.1743 14.8736 30.0379 11.651 32.7555C9.25656 34.7745 9.49715 36.1003 12.7566 38.85C13.7396 39.6795 13.1955 41.284 11.9107 41.3444L9.90255 41.4389C4.83677 41.6773 4.15655 41.8303 2.88511 43.0216C0.822362 44.9541 -0.00210189 46.8692 4.0232e-06 49.7219C0.00210994 52.7459 1.35779 55.2429 3.81013 56.7413C5.21372 57.5991 6.48359 57.7927 10.7907 57.8064C12.691 57.8125 13.6178 60.1337 12.2385 61.4409C10.1389 63.4309 8.42156 65.2706 8.42156 65.5296C8.42156 66.8159 10.3127 68.358 13.4157 69.6031C17.2311 71.1336 20.7054 71.3652 23.3357 70.2636C25.5079 69.3541 30.7632 64.5004 33.6857 60.7044C35.9232 57.7985 35.9311 57.7938 38.831 57.7938C40.3913 57.7938 41.6149 59.1332 41.4743 60.6871L41.4465 60.9946C41.0748 65.1012 39.4385 67.6204 35.3241 70.4198C31.6688 72.9078 30.2852 74.6747 29.4023 77.9837C28.8895 79.9035 28.8974 80.8468 29.4407 82.6638C30.232 85.3107 32.7649 89.1963 34.2006 89.966C35.6005 90.7167 36.5224 90.2235 38.7041 87.555C39.7507 86.2751 40.8285 85.2278 41.0985 85.2278C41.3702 85.2278 41.5897 87.6141 41.5897 90.5658V93.0096C41.5897 94.8627 42.3247 96.6401 43.6335 97.9519C45.5994 99.9214 45.8121 100 49.1879 100C55.8083 100 57.8785 97.465 57.899 89.3329C57.9127 83.8567 58.207 83.7896 61.846 88.4313C65.5198 93.1172 67.0808 92.7194 69.7037 86.4307C71.3295 82.5335 71.4153 79.9689 70.0238 76.8958C68.8482 74.3006 64.0988 69.1145 60.4182 66.407C58.8416 65.2474 57.9106 63.4069 57.9106 61.4497V61.1782V61.0844C57.9106 59.2711 59.3879 57.8052 61.2011 57.8191C63.2684 57.835 65.2033 58.8392 66.4063 60.5206L66.5975 60.7878C69.1367 64.3368 73.6297 68.5437 76.3858 69.9529C79.3393 71.4628 83.0315 71.3019 87.0101 69.4897C88.8133 68.6677 90.6118 67.6025 91.0061 67.1224C92.0622 65.8351 91.3383 63.8446 89.3688 62.6206C88.4269 62.035 86.8401 60.7097 85.8424 59.6751C85.1624 58.9699 85.6621 57.7938 86.6417 57.7938H89.2724C95.3527 57.7938 97.5128 56.9723 99.067 54.068C100.295 51.7736 100.314 47.5535 99.1065 45.1319C97.7087 42.3273 95.4264 41.4447 89.4993 41.4167L88.2131 41.4106C86.9017 41.4044 86.2862 39.7865 87.2618 38.9102C89.8836 36.5546 90.5491 35.1011 89.623 33.7542C89.4103 33.445 88.052 32.3841 86.6047 31.397C84.4867 29.9519 83.349 29.562 80.7703 29.3974C76.2463 29.1089 73.9245 30.403 70.4976 35.1248C67.1834 39.6905 64.451 41.4389 60.6283 41.4389C59.1273 41.4389 57.9106 40.2221 57.9106 38.7212V38.582C57.9106 35.7827 57.9611 35.6883 60.4182 33.8808C64.0988 31.1733 68.8482 25.9872 70.0238 23.392C71.4153 20.3189 71.3295 17.7543 69.7037 13.8571C67.0397 7.46921 65.7404 7.22442 61.2948 12.2728C60.1542 13.5679 58.0172 12.8242 57.927 11.1009L57.8848 10.2944C57.5689 4.25416 56.8434 2.43559 54.2021 1.06705C52.3283 0.0963118 49.1152 -0.28407 47.1178 0.228208ZM52.1193 13.9167C52.3546 21.1409 52.4921 22.0863 53.4044 22.7537C53.9667 23.1652 54.6427 23.5012 54.9075 23.5012C56.05 23.5012 60.9605 20.6423 62.671 18.9815C63.6966 17.9854 64.7037 17.1703 64.9085 17.1703C65.1133 17.1703 65.2813 18.101 65.2813 19.2379C65.2813 20.9953 64.8664 21.7613 62.5173 24.3406C60.9973 26.0099 58.0359 28.6499 55.9363 30.2073C53.5351 31.9889 52.1193 34.8022 52.1193 37.7922V38.9846C52.1193 46.2404 52.4062 46.7843 56.4148 47.1172C64.43 47.7835 69.8248 45.3292 74.6779 38.8094C77.5135 35.0003 78.886 34.1799 81.3763 34.8067C81.995 34.9622 82.2305 35.7169 81.8101 36.1968L81.1162 36.9888C78.8887 39.5312 77.2966 42.8301 77.4909 44.5004C77.7515 46.7426 79.4731 47.2259 87.2265 47.2343C93.7812 47.2417 94.186 47.3029 94.513 48.3354C94.7036 48.9368 94.7146 50.0051 94.5383 50.7095C94.2182 51.9873 94.2002 51.9904 86.9885 51.9984C79.2051 52.0068 77.2482 52.4927 76.9617 54.4885C76.7101 56.2416 78.6202 60.0756 81.0757 62.7446C83.2432 65.1007 83.2568 65.1408 82.0233 65.451C79.2356 66.1522 75.0727 62.9519 70.1828 56.3487C68.4891 54.0622 66.846 52.4019 66.0873 52.211C65.3903 52.0358 62.2983 51.9741 59.2163 52.0733C51.9961 52.3065 52.1193 52.1545 52.1193 60.8073V64.2886C52.1193 66.1796 53.0558 67.948 54.6201 69.0106C55.9958 69.9444 58.9572 72.5079 61.2011 74.7069C65.0038 78.4332 65.2813 78.8552 65.2813 80.9112C65.2813 82.1246 65.1881 83.1175 65.0738 83.1175C64.9596 83.1175 64.092 82.3926 63.1454 81.5068C61.1226 79.6128 57.6652 77.5199 55.8047 77.063C55.0118 76.8678 54.0699 77.0462 53.4355 77.5104C52.4842 78.2068 52.3573 79.061 52.1193 86.3711L51.9131 92.708C51.8805 93.7102 51.1089 94.5323 50.1108 94.6282C47.072 94.9205 46.8545 94.3612 46.8545 86.2561C46.8545 80.3377 46.6992 78.8167 46.0274 78.143C44.4554 76.5682 41.7256 77.4229 37.5769 80.7888C35.1978 82.7192 34.7455 82.6506 34.7455 80.3572C34.7455 78.0718 35.4494 77.129 39.1053 74.5143C45.0034 70.2974 46.8545 66.5737 46.8545 58.9307C46.8545 54.7148 46.686 53.5621 45.9853 52.9781C44.8934 52.0685 35.6074 51.6776 33.5804 52.4563C32.7949 52.7575 31.5129 54.0227 30.7316 55.2672C28.7647 58.401 22.8729 64.426 21.026 65.1925C20.1857 65.5418 18.8801 65.6716 18.1246 65.4816C17.5051 65.3257 17.2776 64.5642 17.7101 64.094L18.8669 62.8364C21.514 59.9584 23.2746 56.5577 23.0624 54.7322C22.7992 52.471 21.096 52.0068 13.0283 51.9984L8.10154 51.993C6.82404 51.9916 5.78917 50.9556 5.78917 49.6781C5.78917 46.7848 5.95396 46.7315 14.8588 46.722C21.3161 46.7147 21.5888 46.6693 22.3738 45.469C23.1182 44.3305 23.1009 44.0193 22.1748 41.8536C21.6172 40.5499 20.3853 38.5984 19.4371 37.5163C17.5802 35.3971 17.8545 34.6052 20.4516 34.5883C21.7088 34.5804 22.6755 35.4699 27.5822 41.1524C31.415 45.5904 34.0084 46.7147 40.4141 46.7147C43.7388 46.7147 45.8168 46.4883 46.2228 46.0816C47.0456 45.257 47.0614 36.9286 46.2443 34.5271C45.2293 31.542 42.8886 28.5639 39.6555 26.1428C37.9686 24.8798 36.1738 23.3862 35.6668 22.8238C34.7929 21.8547 34.3917 18.7557 35.054 18.092C35.2235 17.9221 36.5492 18.6829 37.9991 19.7829C39.4496 20.8823 41.5602 22.0884 42.6901 22.4619C44.517 23.066 44.8613 23.0354 45.7995 22.1844C46.7571 21.316 46.8545 20.5621 46.8545 14.0286C46.8545 5.99728 47.0714 5.42275 50.0113 5.67124C51.0632 5.76028 51.882 6.62265 51.9163 7.67779L52.1193 13.9167Z"
          fill="white"/>
</svg>
