<svg width="547" height="64" viewBox="0 0 547 64" fill="none" xmlns="http://www.w3.org/2000/svg">
<path d="M24.1259 40.3929V48.0871C22.0683 49.1304 19.9382 49.6521 17.7358 49.6521C13.012 49.6521 9.21564 48.2465 6.34662 45.4355C3.3327 42.5085 1.82574 38.8425 1.82574 34.4375C1.82574 30.0905 3.3327 26.4536 6.34662 23.5266C9.21564 20.7445 12.8237 19.3535 17.1707 19.3535C19.3152 19.3535 21.6336 19.8896 24.1259 20.9618V28.6995C22.1842 26.6419 19.9238 25.6131 17.3445 25.6131C14.9682 25.6131 12.9975 26.3666 11.4326 27.8736C9.60687 29.6414 8.694 31.8728 8.694 34.568C8.694 37.2051 9.53442 39.3352 11.2153 40.958C12.8381 42.5809 14.9247 43.3924 17.4749 43.3924C19.8803 43.3924 22.0973 42.3926 24.1259 40.3929ZM36.1874 31.0904H40.0562C40.6358 28.0475 41.9979 25.4827 44.1424 23.3962C46.8665 20.701 50.489 19.3535 55.0099 19.3535C59.5888 19.3535 63.2837 20.7445 66.0948 23.5266C69.0218 26.3956 70.4852 29.9891 70.4852 34.3071C70.4852 38.857 69.0218 42.5664 66.0948 45.4355C63.2837 48.2465 59.5743 49.6521 54.9665 49.6521C50.4746 49.6521 46.8086 48.2175 43.9685 45.3485C41.5922 42.9432 40.2591 40.0742 39.9693 36.7415H36.1874V49H29.493V20.0055H36.1874V31.0904ZM55.0969 25.5262C52.6625 25.5262 50.6774 26.2942 49.1415 27.8301C47.3737 29.5979 46.4898 31.8293 46.4898 34.5245C46.4898 37.1037 47.2723 39.2192 48.8372 40.8711C50.4601 42.6099 52.5756 43.4793 55.1838 43.4793C57.4442 43.4793 59.3424 42.7548 60.8784 41.3058C62.7041 39.596 63.617 37.2921 63.617 34.3941C63.617 31.7569 62.8055 29.5979 61.1827 27.917C59.6467 26.3231 57.6181 25.5262 55.0969 25.5262ZM91.7254 20.0055V25.6566H82.162V49H75.4677V20.0055H91.7254ZM111.808 20.0055V25.6566H102.114V31.2642H111.33V36.9153H102.114V43.3489H111.808V49H95.4197V20.0055H111.808ZM117.24 49V20.0055H123.934V43.3489H132.15V20.0055H138.844V43.3489H147.06V20.0055H153.754V49H117.24Z" fill="black"/>
<path d="M291.244 39.7074C291.244 44.5653 286.726 48.0903 280.358 48.0903H265.443V17.9355H279.854C286.06 17.9355 290.414 21.2828 290.414 25.9778C290.414 29.1621 288.741 31.1764 286.223 32.3464C288.904 33.3536 291.244 36.0343 291.244 39.7222V39.7074ZM271.975 23.46V29.9915H279.677C282.017 29.9915 283.527 28.6437 283.527 26.8072C283.527 24.9707 281.854 23.46 279.677 23.46H271.975ZM280.358 42.5659C282.876 42.5659 284.712 41.0552 284.712 38.878C284.712 36.7008 283.039 35.1901 280.358 35.1901H271.975V42.5659H280.358Z" fill="black"/>
<path d="M315.874 47.9127L305.477 36.0197H303.803V47.9127H297.109V17.9209H303.803V29.4881H305.477L315.533 17.9209H323.413L310.838 32.3318L324.583 47.9127H315.874Z" fill="black"/>
<path d="M324.583 32.9984C324.583 23.949 331.277 17.4175 340.667 17.4175C350.042 17.4175 356.752 23.949 356.752 32.9984C356.752 42.0478 350.057 48.5793 340.667 48.5793C331.292 48.5793 324.583 42.0478 324.583 32.9984ZM349.717 32.9984C349.717 27.2963 346.029 23.4455 340.667 23.4455C335.306 23.4455 331.618 27.2963 331.618 32.9984C331.618 38.7006 335.306 42.5514 340.667 42.5514C346.029 42.5514 349.717 38.7006 349.717 32.9984Z" fill="black"/>
<path d="M382.389 17.9209H389.084V47.9127H382.389V35.8567H368.985V47.9127H362.276V17.9209H368.985V29.8139H382.389V17.9209Z" fill="black"/>
<path d="M403.495 47.9127V23.9637H393.112V17.9209H420.408V23.9637H410.026V47.9127H403.495Z" fill="black"/>
<path d="M449.23 31.1622V47.9132H444.372L443.024 43.2182C441.514 45.736 438.329 48.5797 433.472 48.5797C427.444 48.5797 423.089 44.566 423.089 39.0267C423.089 33.5023 427.444 29.6515 436.33 29.6515H442.862C442.521 25.8007 440.521 23.12 436.834 23.12C433.812 23.12 431.813 24.7936 430.806 26.6449L424.778 25.6378C426.288 20.4392 431.472 17.4326 437.174 17.4326C444.55 17.4326 449.23 22.4535 449.23 31.177V31.1622ZM442.699 34.8501H436.493C431.472 34.8501 429.798 36.5237 429.798 38.7009C429.798 41.2187 431.813 42.8923 435.16 42.8923C439.514 42.8923 442.699 39.708 442.699 34.8501Z" fill="black"/>
<path d="M475.031 47.9127L464.648 36.0197H462.975V47.9127H456.265V17.9209H462.975V29.4881H464.648L474.69 17.9209H482.569L470.01 32.3318L483.739 47.9127H475.031Z" fill="black"/>
<path d="M495.81 47.9127V23.9637H485.413V17.9209H512.724V23.9637H502.342V47.9127H495.81Z" fill="black"/>
<path d="M546.226 34.8498H522.099C522.766 39.5448 526.113 42.5514 531.149 42.5514C534.674 42.5514 537.354 41.0407 538.85 38.8635L545.056 39.8706C542.879 45.5728 537.014 48.5793 530.645 48.5793C521.596 48.5793 515.064 42.0478 515.064 32.9984C515.064 23.949 521.596 17.4175 530.645 17.4175C539.694 17.4175 546.226 23.949 546.226 32.6578C546.389 33.502 546.226 34.1685 546.226 34.8349V34.8498ZM522.603 29.6512H539.191C538.021 25.9633 534.999 23.2825 530.808 23.2825C526.794 23.1196 523.61 25.8004 522.603 29.6512Z" fill="black"/>
<path d="M180 30.7175C180 16.2326 180 8.99014 184.502 4.50247C189.005 0 196.247 0 210.718 0H213.28C227.765 0 235.007 0 239.495 4.50247C243.997 9.00495 243.997 16.2474 243.997 30.7175V33.2798C243.997 47.7647 243.997 55.0072 239.495 59.4949C234.992 63.9973 227.75 63.9973 213.28 63.9973H210.718C196.233 63.9973 188.99 63.9973 184.502 59.4949C180 54.9924 180 47.7499 180 33.2798V30.7175V30.7175Z" fill="#0077FF"/>
<path d="M214.05 46.106C199.461 46.106 191.138 36.1087 190.797 19.4614H198.099C198.336 31.6803 203.727 36.8493 207.992 37.9156V19.4614H214.879V29.9919C219.086 29.5328 223.514 24.7341 225.01 19.4614H231.897C230.757 25.9634 225.943 30.762 222.537 32.7467C225.943 34.3463 231.423 38.5377 233.497 46.106H225.928C224.299 41.0407 220.256 37.1159 214.894 36.5827V46.106H214.065H214.05Z" fill="white"/>
</svg>
