<svg width="35" height="21" viewBox="0 0 35 21" fill="none" xmlns="http://www.w3.org/2000/svg">
<path d="M34.9508 1.45423C35.2302 2.23295 34.3191 4.02159 32.2174 6.82013C31.9259 7.20949 31.5311 7.72661 31.033 8.37149C30.547 8.99203 30.213 9.43007 30.0307 9.68559C29.8485 9.94111 29.6632 10.2423 29.4749 10.589C29.2866 10.9358 29.2138 11.1913 29.2563 11.3556C29.2988 11.5198 29.3778 11.7297 29.4932 11.9853C29.6086 12.2408 29.806 12.5024 30.0854 12.7701C30.3648 13.0378 30.711 13.3602 31.1241 13.7374C31.1727 13.7617 31.2031 13.7861 31.2152 13.8104C32.9281 15.4043 34.0883 16.7489 34.6957 17.8439C34.7321 17.9048 34.7716 17.9808 34.8141 18.0721C34.8567 18.1633 34.8992 18.3246 34.9417 18.5557C34.9842 18.7869 34.9812 18.9938 34.9326 19.1763C34.884 19.3588 34.7321 19.5261 34.477 19.6782C34.2219 19.8303 33.8635 19.9063 33.4019 19.9063L28.7369 19.9793C28.4454 20.0402 28.1052 20.0098 27.7165 19.8881C27.3277 19.7664 27.0119 19.6326 26.7689 19.4866L26.4045 19.2675C26.04 19.012 25.6148 18.6227 25.1289 18.0995C24.6429 17.5763 24.2269 17.1048 23.8806 16.685C23.5344 16.2652 23.1639 15.9123 22.7691 15.6264C22.3742 15.3405 22.031 15.2462 21.7395 15.3435C21.703 15.3557 21.6544 15.377 21.5937 15.4074C21.533 15.4378 21.4297 15.526 21.2839 15.672C21.1381 15.818 21.0075 15.9975 20.8921 16.2104C20.7767 16.4234 20.6735 16.7397 20.5824 17.1595C20.4912 17.5793 20.4518 18.0508 20.4639 18.574C20.4639 18.7565 20.4426 18.9238 20.4001 19.0759C20.3576 19.228 20.312 19.3405 20.2635 19.4136L20.1906 19.5048C19.9719 19.736 19.65 19.8698 19.2248 19.9063H17.1292C16.2666 19.955 15.3798 19.8546 14.4687 19.6052C13.5576 19.3558 12.7588 19.0333 12.0724 18.6379C11.386 18.2424 10.7604 17.8409 10.1955 17.4333C9.63061 17.0257 9.20238 16.6759 8.91082 16.3838L8.45526 15.9458C8.33377 15.8241 8.16673 15.6416 7.95414 15.3983C7.74154 15.1549 7.30724 14.6013 6.65122 13.7374C5.99521 12.8735 5.35135 11.9548 4.71964 10.9814C4.08792 10.008 3.34383 8.72435 2.48738 7.1304C1.63092 5.53645 0.838237 3.88166 0.109335 2.16603C0.0364451 1.97135 0 1.80709 0 1.67325C0 1.5394 0.0182225 1.44206 0.0546676 1.38122L0.127558 1.27172C0.309783 1.04053 0.656011 0.92494 1.16624 0.92494L6.15922 0.888438C6.305 0.912773 6.4447 0.952317 6.57833 1.00707C6.71197 1.06183 6.80915 1.11354 6.86989 1.16221L6.96101 1.21696C7.15538 1.35081 7.30116 1.54549 7.39835 1.80101C7.64132 2.40938 7.92073 3.03905 8.23658 3.69002C8.55244 4.34098 8.80148 4.83681 8.98371 5.1775L9.27527 5.70679C9.62757 6.43685 9.96773 7.06956 10.2957 7.60493C10.6237 8.14031 10.9183 8.55704 11.1795 8.85515C11.4407 9.15326 11.6928 9.38748 11.9358 9.55783C12.1787 9.72817 12.3852 9.81335 12.5553 9.81335C12.7254 9.81335 12.8894 9.78293 13.0473 9.72209C13.0716 9.70992 13.102 9.6795 13.1384 9.63083C13.1749 9.58216 13.2478 9.44832 13.3571 9.2293C13.4665 9.01029 13.5485 8.72435 13.6031 8.37149C13.6578 8.01863 13.7155 7.52584 13.7762 6.89313C13.837 6.26042 13.837 5.49994 13.7762 4.61171C13.7519 4.12501 13.6973 3.68089 13.6122 3.27936C13.5272 2.87783 13.4422 2.59798 13.3571 2.4398L13.2478 2.22079C12.9441 1.80709 12.4278 1.54549 11.6989 1.43598C11.5409 1.41164 11.5713 1.26563 11.79 0.997946C11.9844 0.766762 12.2152 0.584248 12.4824 0.450405C13.1263 0.134049 14.578 -0.0119622 16.8376 0.012373C17.8338 0.0245405 18.6538 0.10363 19.2977 0.24964C19.5406 0.310478 19.7441 0.392609 19.9081 0.496034C20.0721 0.599458 20.1966 0.745469 20.2817 0.934066C20.3667 1.12266 20.4305 1.31734 20.473 1.51811C20.5155 1.71887 20.5368 1.99569 20.5368 2.34855C20.5368 2.7014 20.5307 3.03601 20.5186 3.35237C20.5064 3.66873 20.4912 4.09763 20.473 4.63909C20.4548 5.18055 20.4457 5.68246 20.4457 6.14483C20.4457 6.27867 20.4396 6.53419 20.4275 6.91138C20.4153 7.28858 20.4123 7.5806 20.4183 7.78745C20.4244 7.9943 20.4457 8.24069 20.4821 8.52663C20.5186 8.81256 20.5884 9.04983 20.6917 9.23843C20.7949 9.42703 20.9316 9.57608 21.1017 9.68559C21.1989 9.70992 21.3021 9.73426 21.4115 9.75859C21.5208 9.78293 21.6787 9.71601 21.8853 9.55783C22.0918 9.39965 22.3226 9.18976 22.5777 8.92816C22.8328 8.66655 23.1487 8.25894 23.5253 7.70532C23.9019 7.15169 24.3149 6.49768 24.7644 5.7433C25.4933 4.47787 26.1433 3.10902 26.7142 1.63674C26.7628 1.51507 26.8236 1.4086 26.8965 1.31734C26.9693 1.22609 27.0362 1.16221 27.0969 1.12571L27.1698 1.07095L27.2609 1.02532L27.4978 0.970569L27.8623 0.961443L33.1103 0.92494C33.5841 0.864102 33.9729 0.879312 34.2766 0.970569C34.5803 1.06183 34.7686 1.16221 34.8415 1.27172L34.9508 1.45423Z" fill="white"/>
</svg>
