<svg width="80" height="80" viewBox="0 0 80 80" fill="none" xmlns="http://www.w3.org/2000/svg">
<path fill-rule="evenodd" clip-rule="evenodd" d="M37.9903 0.784871C37.6072 1.22473 37.0344 2.40804 36.7179 3.41394C34.7493 9.67114 31.2666 13.1182 25.8836 14.1364C23.1315 14.6572 20.2676 14.1195 16.157 12.3107C13.128 10.9779 12.879 10.9381 11.8356 11.6235C10.3508 12.5992 10.432 13.4383 12.4184 17.632C13.8403 20.6341 14.1067 21.6748 14.0984 24.1951C14.0766 30.7156 10.2213 35.3602 3.04428 37.5123C0.646027 38.2311 -0.519581 39.7125 0.22101 41.1002C0.797431 42.1807 2.22936 42.9785 5.53375 44.0608C8.39168 44.9967 11.2359 47.3698 12.8977 50.2041C13.9968 52.0783 14.1486 52.8099 14.1486 56.224C14.1486 59.6446 13.968 60.5101 12.6419 63.4442C11.0417 66.9845 11.0394 68.2144 12.6314 69.0685C13.3898 69.4755 14.2421 69.2473 17.2747 67.8253C20.5371 66.2954 21.4049 66.0833 24.4093 66.0805C27.238 66.0783 28.2344 66.29 30.1726 67.305C33.2831 68.935 35.5127 71.6455 37.0002 75.6065C38.5143 79.6379 38.7956 80 40.4154 80C41.9294 80 42.645 79.0558 43.7604 75.5882C45.8303 69.1504 50.3578 65.7344 56.7778 65.7651C58.8864 65.7751 60.3366 66.1491 63.2502 67.4335C66.2066 68.7366 67.2144 68.9931 67.9892 68.6392C69.5935 67.9063 69.5548 66.6013 67.8159 62.7821C65.7168 58.1718 65.4159 54.7783 66.7881 51.1945C68.3755 47.0502 70.942 44.77 76.284 42.7577C78.969 41.7463 79.6472 41.2909 79.8852 40.3385C80.3298 38.564 79.576 37.8223 75.9693 36.4859C69.9497 34.255 66.9208 31.1664 65.8947 26.2119C65.2572 23.1329 65.6293 20.7325 67.3298 16.9534C68.8174 13.6472 68.9624 12.2572 67.9277 11.2193C66.9454 10.2344 66.7534 10.2697 62.5452 12.2056C59.3853 13.6591 58.3693 13.9101 55.6473 13.9078C49.5597 13.9033 45.5672 10.8855 43.0782 4.40796C42.2883 2.35226 41.4073 0.51922 41.12 0.334499C40.2034 -0.255328 38.7094 -0.0404292 37.9903 0.784871ZM42.8784 13.1607C44.1444 14.5329 46.3757 16.2708 47.8948 17.0673C50.5001 18.434 50.8822 18.5025 55.8753 18.5025H56.3187C58.9702 18.5025 61.1196 20.652 61.1196 23.3035C61.1196 27.5571 61.2592 28.4029 62.3436 30.7225C63.921 34.0977 65.8345 36.4488 68.3974 38.1634C70.3638 39.4784 70.9557 40.221 70.0382 40.221C68.9975 40.221 64.0446 45.4745 63.0021 47.6839C61.3795 51.1232 60.7407 55.198 61.3262 58.3739C61.5889 59.7987 61.8037 61.1155 61.8037 61.3007C61.8037 61.4858 61.0343 61.4232 60.0935 61.1617C57.6935 60.4941 52.2489 60.9989 49.7111 62.1241C46.5609 63.5214 43.5155 65.9507 41.9664 68.3018C41.2139 69.4439 40.461 70.3826 40.2937 70.3881C40.1259 70.3936 39.5572 69.6977 39.0296 68.8422C37.6054 66.5318 34.654 64.0436 31.7604 62.7144C28.8232 61.3647 23.0558 60.8279 20.1472 61.6331C18.6163 62.0569 18.4376 62.0258 18.6852 61.3798C19.3081 59.752 19.4759 55.3443 18.9998 53.1185C17.972 48.3139 15.0981 43.9831 11.36 41.6059C10.4293 41.0141 10.3669 39.6784 11.2384 39.0024L11.8625 38.5182C14.7501 36.2783 16.8802 33.304 18.1202 29.7815C18.8421 27.7317 18.9875 26.4254 18.8174 23.5321C18.6989 21.5203 18.4572 19.5327 18.2802 19.1152C17.9934 18.4376 18.1703 18.4052 19.9301 18.813C22.6891 19.4527 27.3534 19.0206 30.4503 17.8382C33.4227 16.7033 37.4312 13.2942 38.7952 10.7406C39.5786 9.27426 39.7414 9.17047 40.1423 9.88101C40.3931 10.325 41.6244 11.8009 42.8784 13.1607ZM36.1447 23.8009C31.5489 24.8864 27.077 28.6014 25.0386 33.0269C23.8976 35.5028 23.7257 36.4177 23.7298 39.9924C23.7334 43.5505 23.9113 44.4933 25.0427 46.9578C26.6274 50.409 29.7799 53.5149 33.4304 55.22C35.6622 56.2629 36.6295 56.4357 40.1423 56.4193C45.1882 56.3964 48.3531 55.1258 51.6657 51.7939C54.893 48.5476 57.335 42.471 56.5972 39.5232C56.221 38.0199 54.7019 37.2421 53.3489 37.8598C52.2134 38.3788 51.9958 38.8991 51.5553 42.1519C50.8986 47.0003 46.295 51.1995 41.2345 51.5667C37.5953 51.8305 34.8459 50.9805 32.4235 48.8425C29.6873 46.4279 28.4018 43.6351 28.3858 40.0719C28.3553 33.1888 33.4117 28.3476 40.6416 28.3376C44.3523 28.3325 45.7245 27.4588 45.2156 25.425C44.7349 23.5065 40.5577 22.7584 36.1447 23.8009ZM48.8506 29.3233C47.9034 30.6795 47.9148 30.7586 49.3034 32.4129C50.7618 34.1508 52.3757 34.2578 53.4036 32.6854C54.0954 31.6264 54.0867 31.4504 53.2777 30.0563C52.1522 28.1158 49.9492 27.7514 48.8506 29.3233Z" fill="#502F0A"/>
</svg>
