<svg width="100" height="100" viewBox="0 0 100 100" fill="none" xmlns="http://www.w3.org/2000/svg">
<path fill-rule="evenodd" clip-rule="evenodd" d="M47.4878 0.981089C47.009 1.53091 46.293 3.01005 45.8974 4.26743C43.4366 12.0889 39.0832 16.3977 32.3545 17.6706C28.9143 18.3215 25.3345 17.6494 20.1962 15.3884C16.41 13.7224 16.0988 13.6727 14.7945 14.5294C12.9385 15.7491 13.0399 16.7978 15.523 22.04C17.3004 25.7927 17.6333 27.0935 17.6231 30.2438C17.5957 38.3945 12.7766 44.2002 3.80536 46.8904C0.807534 47.7889 -0.649477 49.6407 0.276263 51.3753C0.996789 52.7258 2.7867 53.7232 6.91719 55.076C10.4896 56.2459 14.0449 59.2122 16.1222 62.7552C17.4959 65.0979 17.6858 66.0124 17.6858 70.28C17.6858 74.5557 17.46 75.6376 15.8024 79.3052C13.8021 83.7306 13.7992 85.268 15.7892 86.3357C16.7372 86.8443 17.8026 86.5592 21.5934 84.7817C25.6714 82.8693 26.7562 82.6041 30.5116 82.6007C34.0475 82.5978 35.293 82.8624 37.7157 84.1313C41.6039 86.1688 44.3908 89.5569 46.2503 94.5081C48.1428 99.5473 48.4945 100 50.5193 100C52.4118 100 53.3062 98.8198 54.7005 94.4852C57.2879 86.438 62.9472 82.168 70.9722 82.2063C73.6081 82.2189 75.4208 82.6864 79.0627 84.2919C82.7583 85.9207 84.0181 86.2414 84.9865 85.799C86.9919 84.8828 86.9435 83.2517 84.7699 78.4776C82.146 72.7148 81.7698 68.4728 83.4851 63.9931C85.4694 58.8127 88.6775 55.9624 95.3549 53.4471C98.7113 52.1829 99.559 51.6136 99.8565 50.4231C100.412 48.205 99.47 47.2779 94.9616 45.6073C87.4371 42.8188 83.651 38.9581 82.3684 32.7649C81.5715 28.9161 82.0366 25.9156 84.1623 21.1918C86.0217 17.059 86.203 15.3215 84.9096 14.0242C83.6817 12.7931 83.4417 12.8371 78.1815 15.257C74.2317 17.0739 72.9616 17.3877 69.5591 17.3848C61.9497 17.3791 56.959 13.6069 53.8477 5.50995C52.8604 2.94032 51.7591 0.649025 51.4 0.418124C50.2542 -0.31916 48.3868 -0.0505365 47.4878 0.981089ZM53.5981 16.4509C55.1805 18.1661 57.9697 20.3385 59.8685 21.3341C63.1251 23.0424 63.6028 23.1282 69.8441 23.1282H70.3984C73.7127 23.1282 76.3995 25.815 76.3995 29.1293C76.3995 34.4463 76.5739 35.5037 77.9295 38.4031C79.9012 42.6222 82.2931 45.561 85.4967 47.7043C87.9547 49.348 88.6946 50.2762 87.5477 50.2762C86.2469 50.2762 80.0557 56.8432 78.7526 59.6049C76.7244 63.904 75.9258 68.9975 76.6577 72.9674C76.9861 74.7483 77.2546 76.3943 77.2546 76.6258C77.2546 76.8573 76.2929 76.779 75.1169 76.4521C72.1168 75.6176 65.3112 76.2486 62.1389 77.6552C58.2011 79.4018 54.3944 82.4384 52.458 85.3772C51.5174 86.8049 50.5763 87.9783 50.3671 87.9851C50.1573 87.992 49.4465 87.1221 48.7869 86.0528C47.0067 83.1648 43.3174 80.0545 39.7006 78.393C36.029 76.7058 28.8197 76.0349 25.184 77.0413C23.2704 77.5712 23.0469 77.5323 23.3565 76.7247C24.1351 74.69 24.3449 69.1804 23.7498 66.3981C22.4649 60.3924 18.8726 54.9788 14.2 52.0074C13.0366 51.2676 12.9586 49.598 14.048 48.753L14.8282 48.1478C18.4376 45.3478 21.1003 41.63 22.6502 37.2269C23.5526 34.6647 23.7344 33.0318 23.5218 29.4151C23.3736 26.9003 23.0715 24.4159 22.8503 23.894C22.4917 23.047 22.7129 23.0064 24.9127 23.5163C28.3614 24.3158 34.1917 23.7757 38.0629 22.2977C41.7784 20.8792 46.789 16.6178 48.494 13.4258C49.4733 11.5928 49.6768 11.4631 50.1778 12.3513C50.4914 12.9062 52.0305 14.7511 53.5981 16.4509ZM45.1809 29.7512C39.4361 31.108 33.8463 35.7517 31.2982 41.2836C29.872 44.3785 29.6571 45.5222 29.6622 49.9904C29.6668 54.4382 29.8891 55.6167 31.3034 58.6973C33.2842 63.0112 37.2249 66.8937 41.788 69.0249C44.5778 70.3286 45.7868 70.5447 50.1778 70.5241C56.4853 70.4955 60.4414 68.9072 64.5821 64.7424C68.6162 60.6845 71.6688 53.0888 70.7465 49.404C70.2762 47.5248 68.3774 46.5526 66.6861 47.3248C65.2667 47.9735 64.9948 48.6239 64.4441 52.6898C63.6233 58.7504 57.8688 63.9994 51.5431 64.4584C46.9942 64.7881 43.5574 63.7256 40.5294 61.0531C37.1092 58.0348 35.5022 54.5439 35.4823 50.0899C35.4441 41.486 41.7647 35.4345 50.802 35.422C55.4404 35.4157 57.1557 34.3235 56.5195 31.7813C55.9187 29.3831 50.6971 28.448 45.1809 29.7512ZM61.0633 36.6542C59.8793 38.3494 59.8935 38.4482 61.6293 40.5161C63.4523 42.6885 65.4696 42.8222 66.7545 40.8567C67.6192 39.533 67.6084 39.313 66.5972 37.5704C65.1903 35.1448 62.4365 34.6892 61.0633 36.6542Z" fill="white"/>
</svg>
