<svg width="69" height="70" viewBox="0 0 69 70" fill="none" xmlns="http://www.w3.org/2000/svg">
<path fill-rule="evenodd" clip-rule="evenodd" d="M0 19.5436C0 24.3592 0.793001 26.5732 2.40714 30.6137C2.81515 31.6343 3.76164 33.9404 4.28732 34.7987L10.0315 44.0141L13.3748 48.217C14.9672 49.9283 16.8385 52.1513 18.5664 53.6721L23.4306 57.8366C29.8833 62.8824 40.7001 69.0026 48.5176 69.0026C50.8058 69.0026 52.3035 68.8337 54.2067 67.5483C55.3425 66.7822 56.4962 65.6963 57.3339 64.6116L59.5313 62.3618C60.2693 61.652 60.859 61.3603 61.6507 60.034C63.7739 56.4808 60.9536 53.8128 58.3226 51.3788L53.2001 46.3944C52.5747 45.7689 52.1909 45.3046 51.4312 44.7943C47.4381 42.116 44.5666 46.2012 41.6786 49.0893C39.4633 51.3046 39.8828 51.6346 37.2851 50.3159C36.8822 50.1112 36.7991 50.0268 36.432 49.8209C32.7573 47.7681 27.9622 44.0448 25.4924 40.9495L20.7344 35.1952C20.3584 34.6887 19.9708 34.108 19.6766 33.558C16.9178 28.415 16.9331 30.5497 23.217 24.0254C25.4336 21.7231 25.7418 18.9028 23.4178 16.6095C21.7717 14.9852 16.6888 9.53903 15.3241 8.39557C13.4235 6.80446 11.4844 5.86309 9.03253 7.28026C7.81489 7.985 5.22613 10.7426 4.27837 11.6904C3.7514 12.2173 3.32421 12.6471 2.79597 13.1728C2.29331 13.6729 1.75739 14.2548 1.36984 14.8457C0.630563 15.9726 0 17.7069 0 19.5398L0 19.5436ZM34.0952 19.1395C35.8385 19.284 38.3582 20.1947 39.9353 20.98C41.0058 21.5133 42.4498 22.4547 43.3541 23.2208C46.1974 25.6293 48.3909 28.9727 49.3259 32.6128C49.4577 33.1282 49.5152 33.7908 49.7275 34.232C50.367 34.1783 54.6429 33.4518 54.9831 33.2881C54.9831 31.0204 53.0389 26.8431 51.8917 24.9245C50.5077 22.6108 48.6097 20.4952 46.5351 18.8261C45.9621 18.3644 45.5656 18.0113 44.9312 17.5995L42.3066 16.0455C40.0465 14.8713 38.1651 14.4211 35.8065 13.9108C34.5672 13.6434 34.9087 13.4746 34.4751 16.5532C34.3689 17.3053 34.1579 18.3746 34.0939 19.1369L34.0952 19.1395ZM63.6089 33.2894C64.3827 33.2894 65.5453 33.0106 66.3038 32.8852C67.1339 32.7471 68.1226 32.481 68.9987 32.481L68.326 29.1108C67.7862 27.0631 67.0201 24.9373 66.1708 23.0456C65.727 22.0582 65.3484 21.1539 64.7945 20.2433C64.5195 19.7905 64.3571 19.4196 64.0706 18.945C63.77 18.4488 63.5999 18.1827 63.284 17.7108C62.688 16.818 62.2147 16.0557 61.5688 15.2486C57.6166 10.3154 54.2553 7.22142 48.2004 3.95477C47.6888 3.6785 47.3831 3.54804 46.819 3.31398C46.2741 3.08887 45.9812 2.90213 45.4338 2.67702C44.495 2.29203 43.4552 1.89425 42.4012 1.53228L39.1359 0.619052C38.5475 0.483475 37.9732 0.376036 37.445 0.287782C36.7914 0.179065 36.2414 0 35.5763 0L34.8434 5.0573C34.869 5.51391 34.6273 5.32334 36.1711 5.60472C41.676 6.60749 46.6796 8.7844 51.0552 12.2826C51.4542 12.601 51.8136 12.807 52.1871 13.1715C52.5862 13.5616 52.819 13.6959 53.1975 14.0476C53.5659 14.3891 53.846 14.6999 54.2067 15.0606C57.6524 18.5063 59.2397 21.1859 61.3629 25.5589C62.0395 26.9531 63.5756 31.8633 63.6063 33.2881L63.6089 33.2894Z" fill="#005340"/>
</svg>
