<svg width="78" height="80" viewBox="0 0 78 80" fill="none" xmlns="http://www.w3.org/2000/svg">
<path d="M20.8585 16.4545C28.8387 13.853 33.4937 9.91916 38.71 1.36764C39.3068 0.388908 39.9501 0 40.9721 0C42.8121 0 43.2283 0.559988 44.2999 4.47593C44.7861 6.25387 45.2269 7.76822 45.2794 7.84133C45.3314 7.91444 46.6316 7.22166 48.1684 6.30161C49.7058 5.38156 52.7219 4.0542 54.872 3.35247C63.2434 0.618671 65.6242 1.61432 63.5691 6.98892C62.9998 8.47891 62.5335 9.86594 62.5335 10.0708C62.533 10.2757 63.6476 10.4438 65.0098 10.4438C70.5052 10.4438 77.3454 12.7291 77.8516 14.7343C78.3249 16.6082 77.7886 17.2686 74.4373 18.9377C69.7749 21.2602 69.8194 21.1652 72.3257 23.4618C75.5199 26.3886 76.678 28.4202 76.0657 30.0215C75.5224 31.4424 74.9071 31.6398 69.7769 32.0387C66.2805 32.3107 61.1668 33.5441 60.3564 34.3115C59.619 35.0092 66.4691 37.8678 70.7169 38.6347C75.7105 39.5364 76.2498 39.798 76.4454 41.4183C76.622 42.8824 74.0366 46.0543 71.2922 47.7407C70.3596 48.3135 70.0222 49.5058 70.5165 50.4823L71.2637 51.9581C72.1551 53.7201 73.2422 56.9055 73.6784 59.0365C75.8426 69.6062 75.5834 70.1268 68.161 70.1154C62.9067 70.1075 58.1407 69.2143 55.0861 67.6651C54.039 67.1341 52.7601 67.5731 52.2598 68.6352L51.9965 69.1944C50.9409 71.4348 48.0854 74.5988 47.1189 74.5988C45.9888 74.5988 44.5791 72.8567 44.0643 70.8241C43.3314 67.9317 41.3774 64.0615 39.2543 61.2973C37.0686 58.4511 36.8149 59.125 36.7759 67.8849C36.7584 71.7143 36.5683 75.1275 36.3522 75.4691C35.4092 76.9636 31.203 75.5442 27.8162 72.5876C26.9984 71.874 25.7173 72.2289 25.3833 73.2616L24.6755 75.4502C23.3198 79.6427 23.1982 79.8267 21.6834 79.9729C20.3893 80.0977 19.8735 79.8242 18.8235 78.4556C17.117 76.232 15.2801 72.0172 14.4957 68.5285C14.1765 67.1085 12.5845 66.3914 11.3096 67.0935L10.9923 67.2682C8.47299 68.6558 7.9687 68.7746 6.81509 68.2519C5.56093 67.684 5.50291 67.4846 5.50291 63.7477C5.50291 59.7392 6.81059 53.5023 8.21934 50.7948C8.58879 50.0846 8.12468 49.2257 7.32811 49.1455L5.62046 48.9736C1.81745 48.5907 0 47.6975 0 46.211C0 45.5973 1.73291 43.4961 4.39832 40.8762C7.85615 37.4774 9.18985 35.7428 10.6361 32.7613C11.7127 30.5422 12.8533 28.8707 13.3855 28.7325C14.7408 28.3799 16.3776 29.1423 16.7463 30.2971C17.2001 31.7184 14.7998 36.8468 11.8863 40.6827C10.5766 42.4069 9.50502 43.9173 9.50502 44.0397C9.50502 44.162 10.391 44.262 11.4736 44.262C16.5748 44.262 17.3617 45.8947 14.5192 50.58C12.4456 53.9971 11.0058 57.8832 11.0058 60.0605C11.0058 60.5968 11.582 60.9358 12.0508 60.6753L13.32 59.97C17.4517 57.6743 18.7214 58.5292 19.1646 63.9063C19.3227 65.821 19.7144 68.1211 20.0351 69.0173C20.2506 69.6199 21.0866 69.662 21.3616 69.0842L22.0136 67.7138C24.3089 62.8893 26.563 62.1791 28.7337 65.5972C31.0934 69.3132 31.3555 69.1496 31.6372 63.7874C32.0614 55.7164 34.6788 50.7287 37.7584 52.1237C39.3253 52.8334 44.1363 58.6342 46.2815 62.3994C47.37 64.3101 48.0669 65.1078 48.2375 64.6374C48.3831 64.235 48.7893 63.0161 49.1395 61.9285C49.5887 60.533 50.1685 59.8138 51.108 59.4856C52.2721 59.0788 52.7274 59.2722 54.7234 61.0188C57.4784 63.4289 61.2714 64.7194 65.9138 64.8244L67.5374 64.8613C68.4697 64.8825 69.2139 64.0894 69.1335 63.1603C68.7363 58.567 66.5662 53.3401 64.0353 50.8799C61.7066 48.6165 62.0528 46.8824 65.1579 45.2566C66.4641 44.5728 67.5337 43.881 67.5342 43.7189C67.5352 43.5572 66.5787 43.14 65.4095 42.7919C62.6171 41.9608 57.3198 39.2773 54.6539 37.3437C53.2156 36.2998 52.5277 35.43 52.5277 34.6541C52.5277 32.165 57.7775 29.0304 64.409 27.5598C66.4041 27.1177 68.0359 26.6542 68.0359 26.5293C68.0359 26.405 66.7978 25.7396 65.285 25.0513C60.8291 23.0232 61.2148 20.5276 66.4841 17.2855L67.09 16.9128C67.5376 16.6374 67.4751 15.9684 66.9844 15.7806C66.3245 15.528 63.8988 15.4584 61.593 15.6255C58.7721 15.8304 57.1772 15.7448 56.7154 15.3639C55.808 14.6154 55.8465 12.4928 56.8095 10.2021C57.2382 9.18163 57.4719 8.23024 57.3283 8.088C56.773 7.53597 49.5857 11.4156 47.1039 13.6068C45.6661 14.876 44.1763 15.9144 43.7926 15.9144C42.7001 15.9144 41.1377 13.5939 40.769 11.4241C40.5844 10.3379 40.3703 9.44918 40.2938 9.44918C40.2168 9.44918 38.5954 10.9596 36.6904 12.8061C33.061 16.3237 28.3995 19.3425 24.3879 20.7718C23.0807 21.2373 22.0116 21.75 22.0116 21.9112C22.0116 22.0723 23.1938 23.1624 24.638 24.3341C26.3265 25.7042 28.4696 26.3869 30.6395 26.2461L30.7663 26.2379C32.9679 26.0947 35.5343 25.5033 37.6779 24.645C40.9391 23.339 41.1302 23.3176 42.0552 24.1501C42.5875 24.6285 43.0227 25.6525 43.0227 26.4254C43.0227 27.5747 42.636 28.0293 40.8966 28.9249C39.7275 29.5272 37.4328 30.3901 35.7984 30.8426C34.5637 31.1846 34.2403 32.784 35.2451 33.5788L36.7989 34.8078C38.9836 36.536 42.9457 39.3907 45.6026 41.1512C50.4661 44.3734 51.4227 45.5819 50.4867 47.3205C49.3891 49.3595 47.8663 48.9885 42.4439 45.3601C39.5979 43.4558 35.8064 40.7285 34.018 39.2991C32.6351 38.1938 30.579 39.0852 30.4404 40.8501L30.4066 41.281C29.9783 46.7292 28.8798 49.4128 26.9883 49.6316C26.2008 49.7231 25.3644 49.3983 24.8066 48.7856C23.9887 47.8875 23.9631 47.5364 24.5399 45.1562C25.3033 42.0091 25.3149 35.7711 24.563 33.0428C24.1262 31.4573 22.5884 29.7222 16.5137 23.9582C8.74262 16.5848 8.01574 15.4768 9.79068 13.7118C11.1229 12.3879 12.6077 12.8181 15.0885 15.2475C16.5428 16.6713 18.6681 17.1685 20.6031 16.5378L20.8585 16.4545Z" fill="#502F0A"/>
</svg>
