<svg width="85" height="80" viewBox="0 0 85 80" fill="none" xmlns="http://www.w3.org/2000/svg">
    <path d="M80.0062 21.25H4.99375C3.66933 21.25 2.39915 21.7761 1.46264 22.7126C0.526125 23.6491 0 24.9193 0 26.2438V74.6938C0 76.0182 0.526125 77.2884 1.46264 78.2249C2.39915 79.1614 3.66933 79.6875 4.99375 79.6875H80.0062C81.3307 79.6875 82.6009 79.1614 83.5374 78.2249C84.4739 77.2884 85 76.0182 85 74.6938V26.2438C85 24.9193 84.4739 23.6491 83.5374 22.7126C82.6009 21.7761 81.3307 21.25 80.0062 21.25ZM79.6875 74.375H5.3125V26.5625H79.6875V74.375Z"
          fill="#502F0A"/>
    <path d="M17.4219 46.3516C18.9979 46.3516 20.5386 45.8842 21.8491 45.0086C23.1595 44.133 24.1809 42.8884 24.784 41.4323C25.3872 39.9762 25.545 38.374 25.2375 36.8282C24.93 35.2824 24.1711 33.8625 23.0566 32.7481C21.9422 31.6336 20.5223 30.8747 18.9765 30.5672C17.4307 30.2597 15.8285 30.4175 14.3724 31.0207C12.9163 31.6238 11.6717 32.6452 10.7961 33.9556C9.92048 35.2661 9.45312 36.8067 9.45312 38.3828C9.45312 40.4963 10.2927 42.5231 11.7871 44.0176C13.2815 45.512 15.3084 46.3516 17.4219 46.3516ZM17.4219 34.1328C18.2667 34.1117 19.0985 34.3429 19.8113 34.7968C20.524 35.2508 21.0853 35.907 21.4233 36.6814C21.7613 37.4559 21.8608 38.3136 21.709 39.1449C21.5572 39.9762 21.161 40.7434 20.5711 41.3484C19.9812 41.9535 19.2243 42.3689 18.3971 42.5417C17.5699 42.7145 16.71 42.6368 15.9272 42.3184C15.1444 42.0001 14.4743 41.4557 14.0024 40.7547C13.5306 40.0536 13.2784 39.2279 13.2781 38.3828C13.2778 37.2738 13.7109 36.2086 14.4851 35.4146C15.2593 34.6205 16.3132 34.1605 17.4219 34.1328Z"
          fill="#502F0A"/>
    <path d="M15.6734 69.0626L31.6109 53.1251L40.0578 61.572L32.5672 69.0626H37.8797L57.6953 49.247L74.3766 65.7954V60.4829L58.9703 45.1563C58.6171 44.806 58.1397 44.6094 57.6422 44.6094C57.1447 44.6094 56.6673 44.806 56.3141 45.1563L42.6078 58.8626L32.8594 49.1407C32.5061 48.7903 32.0288 48.5938 31.5312 48.5938C31.0337 48.5938 30.5564 48.7903 30.2031 49.1407L10.4141 69.0626H15.6734Z"
          fill="#502F0A"/>
    <path d="M74.75 2.65625C74.75 1.95177 74.4701 1.27614 73.972 0.777997C73.4739 0.279854 72.7982 0 72.0938 0H13.6562C12.9518 0 12.2761 0.279854 11.778 0.777997C11.2799 1.27614 11 1.95177 11 2.65625V5.3125H74.75V2.65625Z"
          fill="#502F0A"/>
    <path d="M80.0078 13.2812C80.0078 12.5768 79.728 11.9011 79.2298 11.403C78.7317 10.9049 78.056 10.625 77.3516 10.625H8.28906C7.58458 10.625 6.90895 10.9049 6.41081 11.403C5.91267 11.9011 5.63281 12.5768 5.63281 13.2812V15.9375H80.0078V13.2812Z"
          fill="#502F0A"/>
</svg>
