<svg width="216" height="63" viewBox="0 0 216 63" fill="none" xmlns="http://www.w3.org/2000/svg">
<g clip-path="url(#clip0_38_428)">
<path fill-rule="evenodd" clip-rule="evenodd" d="M153.995 40.8534C154.352 48.0264 153.836 52.9884 148.187 55.4138C145.63 56.5113 142.208 56.6993 139.259 56.0135C135.992 55.2536 134.628 53.9549 132.239 52.6574C131.416 53.4902 129.329 56.9681 128.76 58.1689C137.553 65.2558 153.379 64.8771 158.843 54.8181C161.767 49.4324 161.108 42.4435 161.108 35.5432C161.108 32.2334 161.323 15.6382 161.014 13.8536L153.752 13.8589L153.662 18.7256C152.022 17.7724 150.69 14.877 145.923 13.7477C135.788 11.3461 126.01 18.7732 126.407 31.1439C126.651 38.7272 131.006 44.2162 136.424 46.3291C142.067 48.5308 148.755 47.334 152.62 42.6765C153.058 42.1482 153.518 41.3777 153.994 40.8521L153.995 40.8534ZM141.946 19.4087C129.742 21.3602 131.177 42.5705 145.392 40.5145C150.806 39.7308 154.448 34.5291 153.56 28.1174C152.839 22.9105 148.185 18.4118 141.946 19.41V19.4087Z" fill="#3285FD"/>
<path fill-rule="evenodd" clip-rule="evenodd" d="M62.6327 13.5053C52.3636 14.8491 45.3079 23.5829 46.8196 34.0935C48.1668 43.4588 56.6666 50.7893 67.9909 49.3105C77.4796 48.0727 84.9189 39.691 83.5001 28.7435C82.3055 19.5265 73.6504 12.0649 62.6327 13.5053ZM63.4065 20.0547C49.1277 22.4272 51.7292 44.8066 66.9397 42.7717C73.004 41.9602 76.9526 36.7373 76.1656 29.612C75.5192 23.7564 70.2619 18.9162 63.4052 20.056L63.4065 20.0547Z" fill="#FE3525"/>
<path fill-rule="evenodd" clip-rule="evenodd" d="M102.501 13.5001C96.1316 14.5486 93.9363 16.1346 90.5823 19.7224C80.9436 30.0291 87.8614 51.1428 107.301 49.3688C116.905 48.4924 124.373 39.9505 123.199 28.9726C122.21 19.733 112.927 11.7816 102.5 13.5001H102.501ZM103.493 20.0164C89.2006 21.9307 90.8305 44.1883 106.218 42.8062C112.461 42.2448 116.489 36.928 115.907 30.0529C115.392 23.9788 110.363 19.0949 103.493 20.015V20.0164Z" fill="#FBBB03"/>
<path fill-rule="evenodd" clip-rule="evenodd" d="M42.8787 26.5988L35.0545 26.53L35.0571 39.2965C33.6993 39.8274 32.6747 40.5529 31.0487 41.0507C26.1524 42.5507 20.4319 42.409 16.1422 40.0511C11.1702 37.3172 7.80824 32.1778 8.26615 24.3244C8.89262 13.5927 18.2034 8.15939 28.3464 9.63158C32.5326 10.2393 33.8599 11.6254 36.541 13.3226C37.6015 12.4621 39.526 9.05171 40.6861 7.64571C39.6946 6.23972 36.7507 4.60998 34.7041 3.72429C32.3468 2.70488 29.5728 2.04027 26.7537 1.81388C0.625054 -0.289813 -9.04279 31.5463 9.90002 45.1852C14.1791 48.266 19.0807 49.6256 25.7383 49.4456C31.7403 49.2841 37.1768 47.3723 40.7073 44.3207C43.6326 41.7934 42.8707 42.6049 42.8707 36.6447C42.8707 33.2992 42.8442 29.9444 42.8774 26.6002L42.8787 26.5988Z" fill="#3285FD"/>
<path fill-rule="evenodd" clip-rule="evenodd" d="M213.493 43.6813C213.254 43.1239 209.982 39.5613 209.414 39.1919C208.085 40.0087 207.537 41.3115 204.382 42.3891C197.73 44.661 188.786 41.841 188.447 34.6628L215.971 34.6429C216.013 28.8349 216.287 25.0962 213.655 20.763C207.243 10.2101 187.74 10.692 182.389 23.7723C180.71 27.8777 180.517 33.2727 181.89 37.6946C183.182 41.853 186.087 44.9946 189.071 46.8203C197.112 51.7386 208.452 49.3503 213.491 43.6813H213.493ZM188.535 28.8468L208.456 28.8641C209.816 21.2291 198.509 16.3491 191.471 22.2683C189.94 23.5552 187.961 25.8853 188.535 28.8468Z" fill="#FE3525"/>
<path fill-rule="evenodd" clip-rule="evenodd" d="M168.468 48.8829L175.869 48.9597L175.885 0.00541772L168.527 0.00012207L168.468 48.8829Z" fill="#26B14C"/>
</g>
<defs>
<clipPath id="clip0_38_428">
<rect width="216" height="63" fill="white"/>
</clipPath>
</defs>
</svg>
