<svg width="89" height="83" viewBox="0 0 89 83" fill="none" xmlns="http://www.w3.org/2000/svg">
    <path fill-rule="evenodd" clip-rule="evenodd"
          d="M48.0463 0.421201C42.0273 2.10127 37.4841 7.07819 36.4408 13.1343C35.688 17.5052 38.0415 26.0204 41.7984 32.5186C42.7673 34.1952 43.5048 35.6176 43.4367 35.6795C43.3688 35.7418 41.892 36.1763 40.1553 36.6453L36.9974 37.498L29.3013 35.4294C25.0684 34.2921 21.3838 33.4457 21.1128 33.5491C20.4212 33.813 0 72.3322 0 73.3727C0 73.8414 0.129417 74.3046 0.287711 74.4018C0.446004 74.499 7.21677 76.4734 15.3342 78.7893L30.0931 83L44.4842 78.9197L58.8753 74.8397L73.3133 78.9356C88.3933 83.2141 88.7457 83.2733 88.9996 81.5742C89.0953 80.9349 69.451 39.2887 68.4772 38.0666C68.3029 37.8477 66.4674 37.232 64.3985 36.6979L60.6363 35.7269L62.197 33.171C66.8922 25.4818 69.1205 15.7933 67.365 10.7009C65.8746 6.37773 62.1375 2.54334 57.8291 0.916539C55.2213 -0.0682586 50.6312 -0.300708 48.0463 0.421201ZM57.4639 4.10754C60.2237 5.38636 62.4099 7.51265 63.7521 10.2232C64.7888 12.317 64.8824 12.7805 64.88 15.8002C64.8761 19.8636 64.0763 22.5133 61.0667 28.4331C59.188 32.1274 54.8278 39.0487 52.8942 41.4046L52.1845 42.2694L51.4748 41.4046C47.7875 36.9113 41.9264 26.5362 40.3369 21.6879C39.1019 17.921 39.1245 13.2883 40.3912 10.603C41.956 7.28573 44.0865 5.28397 47.6243 3.8066C50.3713 2.65957 54.6191 2.78928 57.4639 4.10754ZM49.2709 8.35977C43.5417 10.3903 42.3495 18.5454 47.2385 22.2614C52.6062 26.3414 60.1903 22.5579 60.175 15.8075C60.1628 10.2474 54.6222 6.46316 49.2709 8.35977ZM54.848 11.6902C56.3471 12.611 57.0551 13.9735 57.0551 15.9369C57.0551 18.6557 54.457 20.8778 51.6463 20.563C48.1214 20.168 46.1798 16.5699 47.8052 13.445C49.0437 11.0641 52.4486 10.2156 54.848 11.6902ZM29.0643 38.5219C32.4045 39.4098 35.1376 40.232 35.1376 40.3493C35.1376 40.8924 28.9196 79.1798 28.8146 79.2846C28.5081 79.589 3.82304 72.3295 3.90793 71.96C4.10518 71.1025 22.4498 36.9078 22.7128 36.9078C22.8655 36.9078 25.7238 37.6343 29.0643 38.5219ZM46.3687 39.6236L47.2552 40.9557L45.4263 41.7094C40.7328 43.6437 40.1108 47.6694 44.1168 50.1838C46.0233 51.3803 48.8124 52.1278 51.3711 52.1278C53.3601 52.1278 53.5792 52.1997 53.7386 52.9061C53.8349 53.3343 54.6375 57.7899 55.5219 62.8077C56.623 69.0544 57.0119 72.0033 56.7555 72.1606C56.1707 72.52 32.3544 79.2244 32.2052 79.0715C32.0124 78.8747 38.1765 40.6897 38.4443 40.4202C38.6207 40.2427 44.3193 38.4966 45.2673 38.3292C45.3856 38.3084 45.881 38.8909 46.3687 39.6236ZM66.2705 40.4368C66.3185 40.4935 70.311 48.7898 75.1429 58.873C79.9749 68.9562 84.1357 77.6104 84.389 78.1047C84.8416 78.9868 84.62 78.9387 72.605 75.5381C65.8704 73.6321 60.3347 72.06 60.3037 72.0451C60.2728 72.0299 59.4451 67.5051 58.4648 61.9903C57.124 54.4505 56.7889 51.9278 57.1142 51.8199C59.1049 51.1603 61.7597 49.3851 62.3442 48.3228C63.7643 45.7413 62.1643 42.7004 58.7514 41.4953L57.1347 40.9245L57.9881 39.6419L58.8419 38.3593L62.5125 39.3468C64.5314 39.8896 66.2225 40.3804 66.2705 40.4368ZM50.445 45.2096C51.1516 45.9706 51.9285 46.5933 52.1713 46.5933C52.4141 46.5933 53.2042 45.9502 53.9268 45.164C55.1062 43.8813 55.3601 43.7575 56.4087 43.9543C58.0532 44.2632 59.8382 45.4262 59.8382 46.1885C59.8382 47.8275 56.6995 49.0146 52.3665 49.0146C48.2345 49.0146 44.5308 47.705 44.5308 46.2439C44.5308 45.4608 47.1765 43.9329 48.6722 43.8523C48.9407 43.8378 49.7385 44.4486 50.445 45.2096Z"
          fill="#502F0A"/>
</svg>
