<svg width="98" height="100" viewBox="0 0 98 100" fill="none" xmlns="http://www.w3.org/2000/svg">
<path d="M25.9434 20.5681C35.8691 17.3162 41.6588 12.3989 48.1467 1.70956C48.889 0.486136 49.6892 0 50.9604 0C53.2489 0 53.7666 0.699986 55.0994 5.59491C55.7042 7.81733 56.2523 9.71028 56.3177 9.80166C56.3824 9.89305 57.9995 9.02708 59.911 7.87702C61.8231 6.72695 65.5745 5.06774 68.2488 4.19059C78.661 0.773339 81.6221 2.0179 79.066 8.73615C78.358 10.5986 77.778 12.3324 77.778 12.5885C77.7774 12.8447 79.1637 13.0548 80.858 13.0548C87.6931 13.0548 96.2007 15.9113 96.8304 18.4178C97.419 20.7602 96.752 21.5858 92.5837 23.6721C86.7847 26.5752 86.84 26.4565 89.9574 29.3273C93.9302 32.9857 95.3707 35.5252 94.6091 37.5269C93.9333 39.303 93.168 39.5498 86.7872 40.0484C82.4385 40.3884 76.0781 41.9301 75.0701 42.8893C74.153 43.7615 82.673 47.3348 87.9563 48.2934C94.1673 49.4205 94.838 49.7475 95.0813 51.7728C95.301 53.603 92.0854 57.5679 88.6719 59.6759C87.5106 60.3927 87.0904 61.8785 87.7043 63.0972L88.6364 64.9476C89.7452 67.1501 91.0972 71.1318 91.6398 73.7956C94.3315 87.0077 94.0092 87.6586 84.7774 87.6443C78.2422 87.6343 72.3143 86.5179 68.5151 84.5814C67.2142 83.9185 65.6229 84.4646 65.0033 85.7866L64.6722 86.493C63.3593 89.2935 59.8077 93.2485 58.6056 93.2485C57.2 93.2485 55.4466 91.0709 54.8063 88.5301C53.8948 84.9146 51.4644 80.0769 48.8237 76.6217C46.1052 73.0639 45.7897 73.9063 45.7412 84.8561C45.7194 89.6429 45.483 93.9093 45.2142 94.3364C44.0413 96.2045 38.8097 94.4303 34.5973 90.7345C33.582 89.8442 31.987 90.2852 31.5734 91.5706L30.691 94.3128C29.0048 99.5534 28.8535 99.7834 26.9695 99.9661C25.3598 100.122 24.7183 99.7803 23.4123 98.0695C21.2899 95.29 19.0051 90.0215 18.0294 85.6606C17.633 83.8879 15.6446 82.9936 14.0553 83.8732L13.672 84.0853C10.5385 85.8197 9.91132 85.9683 8.47648 85.3149C6.91658 84.605 6.84441 84.3557 6.84441 79.6846C6.84441 74.674 8.47089 66.8778 10.2231 63.4935C10.6831 62.6047 10.1023 61.5318 9.10653 61.4311L6.99062 61.217C2.26051 60.7384 0 59.6219 0 57.7637C0 56.9966 2.15536 54.3701 5.47055 51.0952C9.77133 46.8468 11.4302 44.6785 13.229 40.9516C14.568 38.1778 15.9867 36.0884 16.6487 35.9156C18.3343 35.4749 20.3702 36.4279 20.8288 37.8713C21.3931 39.648 18.4077 46.0586 14.7839 50.8534C13.155 53.0087 11.8222 54.8966 11.8222 55.0496C11.8222 55.2025 12.9241 55.3275 14.2706 55.3275C20.6154 55.3275 21.5941 57.3684 18.0587 63.225C15.4796 67.4964 13.6888 72.354 13.6888 75.0756C13.6888 75.7453 14.4089 76.1679 14.9936 75.8414L16.5672 74.9625C21.7061 72.0929 23.2853 73.1615 23.8366 79.8829C24.0332 82.2763 24.5204 85.1514 24.9193 86.2717C25.1864 87.0226 26.2284 87.0749 26.5694 86.3545L27.3802 84.6423C30.2349 78.6116 33.0386 77.7239 35.7384 81.9965C38.6734 86.6415 38.9994 86.437 39.3497 79.7343C39.8774 69.6454 43.1329 63.4109 46.9632 65.1546C48.912 66.0417 54.8959 73.2927 57.564 77.9993C58.918 80.3877 59.7847 81.3848 59.9969 80.7967C60.1779 80.2938 60.6832 78.7701 61.1187 77.4106C61.6775 75.6662 62.3986 74.7673 63.5672 74.357C65.0151 73.8485 65.5813 74.0903 68.064 76.2736C71.4905 79.2861 76.2082 80.8993 81.9824 81.0305L83.991 81.0763C85.1564 81.103 86.0869 80.1119 85.987 78.9504C85.4929 73.2088 82.7937 66.6752 79.6459 63.5998C76.7495 60.7707 77.1801 58.603 81.0422 56.5708C82.6668 55.716 83.9971 54.8513 83.9977 54.6486C83.999 54.4466 82.8093 53.925 81.3552 53.4898C77.8819 52.4511 71.2933 49.0966 67.9774 46.6796C66.1886 45.3747 65.333 44.2874 65.333 43.3177C65.333 40.2063 71.8626 36.288 80.1107 34.4497C82.5921 33.8971 84.6218 33.3177 84.6218 33.1617C84.6218 33.0062 83.0818 32.1745 81.2002 31.3141C75.6581 28.779 76.1379 25.6595 82.6917 21.6069L83.4463 21.1403C84.0041 20.7955 83.926 19.9612 83.3139 19.7258C82.4932 19.41 79.4761 19.323 76.6083 19.5318C73.0996 19.788 71.1159 19.681 70.5416 19.2048C69.4129 18.2693 69.4608 15.616 70.6586 12.7527C71.1918 11.477 71.4824 10.2878 71.3038 10.11C70.6132 9.41997 61.6737 14.2695 58.5869 17.0085C56.7986 18.595 54.9457 19.893 54.4684 19.893C53.1095 19.893 51.1663 16.9924 50.7078 14.2801C50.4781 12.9224 50.2119 11.8115 50.1167 11.8115C50.0209 11.8115 48.0042 13.6995 45.6348 16.0077C41.1206 20.4046 35.3228 24.1781 30.3332 25.9647C28.7073 26.5466 27.3776 27.1875 27.3776 27.389C27.3776 27.5904 28.8479 28.953 30.6443 30.4177C32.7438 32.1297 35.4137 32.9834 38.1171 32.8071L38.2665 32.7974C41.0049 32.6183 44.1969 31.8792 46.8631 30.8062C50.9193 29.1737 51.157 29.147 52.3075 30.1877C52.9695 30.7857 53.5109 32.0657 53.5109 33.0317C53.5109 34.4684 53.0299 35.0366 50.8664 36.1562C49.4123 36.909 46.5581 37.9876 44.5254 38.5533C42.9858 38.9818 42.5815 40.9754 43.8325 41.9698L45.7698 43.5098C48.487 45.67 53.415 49.2383 56.7196 51.439C62.7688 55.4667 63.9586 56.9773 62.7944 59.1506C61.4292 61.6994 59.5352 61.2357 52.791 56.7001C49.2511 54.3198 44.5353 50.9106 42.3109 49.1239C40.594 47.7448 38.0339 48.8515 37.8624 51.0471L37.8191 51.6012C37.2865 58.4115 35.9201 61.7659 33.5675 62.0395C32.5881 62.1539 31.5478 61.7479 30.854 60.982C29.8367 59.8593 29.8049 59.4204 30.5223 56.4452C31.4718 52.5113 31.4861 44.7139 30.5509 41.3035C30.0077 39.3217 28.0951 37.1527 20.5395 29.9477C10.8739 20.731 9.96983 19.346 12.1775 17.1397C13.8344 15.4849 15.6812 16.0226 18.7668 19.0594C20.5744 20.838 23.2235 21.4592 25.6334 20.6697L25.9434 20.5681Z" fill="white"/>
</svg>
