<?xml version="1.0" standalone="no"?>
<!DOCTYPE svg PUBLIC "-//W3C//DTD SVG 20010904//EN"
 "http://www.w3.org/TR/2001/REC-SVG-20010904/DTD/svg10.dtd">
<svg version="1.0" xmlns="http://www.w3.org/2000/svg"
 width="1360.000000pt" height="1360.000000pt" viewBox="0 0 1360.000000 1360.000000"
 preserveAspectRatio="xMidYMid meet">
<metadata>
Created by potrace 1.14, written by Peter Selinger 2001-2017
</metadata>
<g transform="translate(0.000000,1360.000000) scale(0.100000,-0.100000)"
fill="#000000" stroke="none">
<path d="M6785 13527 c-94 -147 -195 -303 -202 -312 -4 -5 -35 -53 -68 -105
-32 -52 -63 -96 -67 -98 -4 -2 -8 -8 -8 -13 0 -6 -18 -37 -40 -69 -22 -32 -40
-64 -40 -69 0 -6 -4 -11 -8 -11 -5 0 -14 -10 -21 -22 -18 -35 -31 -56 -92
-148 -30 -47 -84 -130 -120 -185 -35 -55 -67 -101 -71 -103 -5 -2 -8 -8 -8
-12 0 -5 -59 -100 -131 -212 -72 -112 -147 -228 -167 -258 -19 -30 -57 -88
-84 -128 -26 -41 -48 -77 -48 -81 0 -4 -9 -16 -20 -26 -11 -10 -17 -21 -15
-25 3 -5 2 -10 -3 -12 -4 -1 -28 -34 -53 -73 -25 -38 -68 -104 -94 -145 -27
-41 -48 -78 -47 -82 1 -5 -1 -8 -6 -8 -4 0 -18 -20 -32 -45 -14 -25 -27 -45
-30 -45 -3 0 -16 -20 -30 -45 -14 -25 -28 -45 -32 -45 -5 0 -8 -4 -8 -10 0 -5
-34 -62 -76 -127 -42 -65 -99 -152 -125 -193 -27 -41 -53 -80 -59 -87 -5 -7
-10 -14 -10 -17 0 -5 -42 -71 -58 -91 -4 -5 -28 -43 -52 -82 -25 -40 -48 -73
-52 -73 -5 0 -8 -4 -8 -10 0 -9 -88 -150 -221 -350 -38 -58 -72 -112 -76 -120
-4 -8 -17 -29 -31 -47 -13 -18 -22 -36 -19 -40 3 -4 498 -8 1101 -8 743 0
1096 -3 1097 -10 0 -5 2 -2208 3 -4895 1 -2823 6 -4893 11 -4905 5 -11 21 -33
37 -50 28 -30 28 -30 142 -30 129 0 152 10 187 75 18 34 19 185 19 4925 l0
4891 1084 -1 c939 0 1083 2 1078 14 -3 8 -24 42 -46 76 -23 34 -75 114 -116
179 -112 175 -268 415 -396 611 -21 33 -41 65 -44 70 -6 12 -87 136 -151 233
-27 40 -49 74 -49 77 0 8 -64 100 -72 103 -4 2 -8 8 -8 13 0 5 -29 53 -63 107
-131 200 -142 217 -147 227 -3 6 -31 49 -63 97 -31 48 -57 91 -56 94 0 4 -3
10 -8 13 -5 3 -26 33 -48 66 -21 33 -56 86 -77 118 -21 32 -38 63 -38 68 0 5
-4 9 -10 9 -5 0 -10 4 -10 10 0 10 -60 101 -73 111 -5 3 -8 9 -8 13 1 3 -21
40 -49 82 -27 41 -50 79 -50 84 0 5 -4 10 -8 12 -4 2 -19 21 -32 43 -13 22
-54 86 -92 143 -37 56 -68 107 -68 112 0 6 -4 10 -10 10 -5 0 -10 7 -10 15 0
8 -4 15 -10 15 -5 0 -10 4 -10 10 0 5 -35 62 -77 127 -43 65 -80 122 -83 128
-5 9 -107 167 -171 263 -16 24 -29 45 -29 48 0 3 -5 10 -10 17 -11 12 -71 104
-141 215 -22 34 -43 62 -47 62 -4 0 -25 -28 -47 -63z"/>
<path d="M4088 9236 c-46 -63 -90 -124 -98 -136 -8 -12 -29 -41 -46 -64 -17
-22 -39 -56 -50 -74 l-19 -33 90 -85 c193 -183 400 -381 440 -419 37 -35 281
-266 385 -365 40 -38 334 -317 410 -390 107 -102 375 -357 405 -385 17 -16
105 -100 196 -186 235 -224 273 -259 279 -259 3 0 6 565 6 1255 l0 1255 -957
0 -957 0 -84 -114z"/>
<path d="M7514 8095 c0 -690 3 -1255 6 -1255 4 0 31 24 62 53 30 28 99 94 154
146 101 95 335 318 449 426 34 33 129 123 210 200 82 77 172 163 200 190 44
42 231 220 390 370 93 88 361 344 420 400 171 163 307 290 315 293 11 4 -9 52
-22 52 -4 0 -8 4 -8 10 0 9 -34 57 -191 273 l-71 97 -957 0 -957 0 0 -1255z"/>
<path d="M3574 8468 c-21 -35 -42 -64 -46 -66 -4 -2 -8 -8 -8 -13 0 -6 -29
-58 -63 -117 -85 -143 -260 -467 -336 -622 -33 -69 -65 -130 -71 -137 -5 -7
-10 -17 -10 -23 0 -5 -17 -46 -38 -89 -37 -75 -38 -80 -23 -105 9 -14 19 -26
22 -26 4 0 38 -30 77 -67 38 -38 136 -131 217 -208 82 -77 176 -167 211 -200
34 -33 95 -91 136 -129 62 -59 275 -261 438 -416 125 -120 377 -359 410 -390
20 -19 109 -103 196 -186 87 -84 175 -166 194 -184 31 -28 266 -252 400 -380
26 -25 113 -108 194 -185 82 -77 169 -160 195 -185 26 -25 114 -108 195 -185
82 -77 163 -155 181 -172 18 -18 35 -33 37 -33 2 0 4 414 4 920 l-1 921 -80
75 c-44 42 -123 117 -176 167 -52 51 -164 157 -248 237 -85 80 -182 172 -216
205 -85 81 -359 341 -405 385 -20 19 -101 96 -180 170 -78 74 -175 167 -215
205 -40 39 -132 126 -205 195 -73 69 -156 148 -185 175 -29 28 -116 111 -195
185 -78 74 -190 181 -248 237 -59 57 -110 103 -114 103 -4 0 -24 -28 -44 -62z"/>
<path d="M9924 8478 c-31 -29 -76 -71 -99 -93 -23 -22 -113 -107 -200 -190
-87 -82 -177 -168 -200 -190 -134 -127 -362 -344 -390 -370 -17 -16 -110 -104
-205 -195 -233 -223 -279 -266 -421 -400 -67 -63 -147 -140 -179 -170 -31 -30
-126 -120 -210 -200 -84 -80 -198 -188 -254 -241 -56 -53 -135 -128 -176 -168
l-75 -71 -1 -920 c0 -506 2 -920 5 -920 3 0 19 14 35 30 16 17 33 30 38 30 5
0 6 5 3 10 -3 6 0 13 8 16 8 3 46 35 84 72 80 76 335 319 467 443 48 46 114
109 146 139 271 258 368 351 405 385 231 219 352 334 431 410 52 50 94 90 94
89 0 -1 33 30 74 69 89 86 192 184 391 372 81 77 173 165 204 195 32 30 122
116 201 190 78 74 169 160 200 190 32 30 121 115 198 188 123 117 140 137 133
156 -5 11 -34 73 -65 136 -31 63 -56 120 -56 127 0 6 -3 13 -7 15 -7 3 -87
156 -88 168 0 3 -5 12 -10 20 -5 8 -24 42 -41 75 -35 68 -71 134 -167 305 -17
30 -35 58 -41 62 -6 4 -7 8 -3 8 5 0 -1 13 -12 29 -12 16 -21 32 -21 35 0 3
-13 25 -30 49 -16 25 -30 47 -30 50 0 4 -13 26 -30 50 -16 25 -30 50 -30 56 0
21 -19 11 -76 -41z"/>
<path d="M2731 6763 c-18 -49 -39 -103 -47 -121 -8 -18 -14 -38 -14 -45 0 -7
-7 -25 -15 -41 -8 -15 -17 -38 -19 -50 -3 -11 -21 -68 -41 -126 -20 -58 -38
-109 -39 -115 -2 -5 -9 -30 -16 -55 -8 -25 -14 -48 -16 -52 -1 -5 -2 -9 -4
-10 -1 -2 -3 -10 -5 -18 -2 -8 -13 -46 -24 -85 -12 -38 -23 -79 -26 -90 -2
-11 -22 -92 -45 -180 -35 -138 -44 -178 -54 -240 -1 -5 -5 -16 -9 -22 -5 -7
-6 -13 -4 -13 2 0 1 -18 -3 -41 l-8 -41 76 -71 c41 -40 96 -92 122 -117 26
-25 116 -110 200 -190 84 -80 179 -170 210 -200 32 -30 120 -114 196 -187 77
-72 162 -153 190 -180 49 -46 296 -280 415 -393 110 -104 321 -305 378 -360
32 -30 122 -116 200 -190 79 -74 169 -160 200 -190 32 -30 105 -99 162 -154
260 -246 396 -375 449 -426 31 -30 116 -111 189 -180 73 -69 175 -165 227
-215 51 -49 144 -137 205 -195 61 -58 149 -141 194 -185 82 -79 122 -115 128
-115 2 0 3 412 2 916 l0 916 -46 47 c-26 25 -106 102 -179 171 -72 69 -158
150 -189 180 -32 30 -122 116 -200 190 -160 152 -212 202 -363 345 -57 55
-169 161 -247 235 -79 74 -171 162 -206 195 -34 33 -131 125 -215 205 -84 80
-174 165 -200 190 -40 38 -145 137 -395 375 -29 28 -124 118 -211 201 -88 83
-178 168 -200 190 -47 44 -319 302 -399 379 -203 194 -258 245 -264 245 -4 0
-22 -39 -40 -87z"/>
<path d="M10757 6788 c-35 -35 -122 -117 -192 -183 -70 -66 -151 -142 -179
-170 -83 -79 -382 -364 -485 -461 -52 -49 -115 -109 -141 -134 -26 -25 -118
-112 -205 -195 -87 -82 -191 -181 -231 -220 -41 -38 -127 -120 -191 -182 -65
-61 -149 -141 -187 -177 -38 -36 -73 -66 -78 -66 -4 0 -8 -7 -8 -15 0 -8 -3
-15 -7 -15 -5 0 -46 -36 -93 -81 -47 -44 -148 -140 -224 -212 -77 -73 -165
-157 -197 -187 -74 -71 -328 -313 -401 -381 -91 -87 -348 -331 -387 -369 l-36
-35 -1 -917 c0 -505 2 -918 5 -918 3 0 49 41 101 91 89 86 318 303 435 414
265 251 376 358 422 402 29 28 53 50 53 49 0 -2 40 36 88 83 48 47 144 139
212 203 69 64 159 150 201 190 42 40 141 134 219 208 78 74 175 167 215 205
41 39 126 120 190 180 64 61 146 139 183 173 36 35 129 124 207 197 77 73 165
157 196 187 30 29 124 118 208 198 84 80 183 174 220 208 36 35 116 110 176
167 61 57 151 143 201 192 51 48 119 114 153 145 33 32 59 63 56 70 -2 7 -6
27 -9 43 -13 78 -49 242 -67 305 -6 19 -12 44 -14 55 -2 11 -4 20 -5 20 -1 0
-3 11 -6 25 -7 41 -65 244 -75 262 -5 10 -9 24 -9 31 0 17 -77 256 -90 279 -6
10 -10 25 -10 33 0 8 -4 23 -10 33 -5 9 -20 49 -33 87 -51 146 -90 245 -98
245 -4 0 -36 -28 -72 -62z"/>
<path d="M11294 4816 c-23 -23 -101 -97 -173 -166 -72 -69 -166 -159 -210
-200 -43 -41 -147 -140 -231 -220 -85 -80 -187 -178 -229 -217 -41 -40 -76
-73 -77 -73 -1 0 -44 -40 -95 -90 -50 -49 -93 -90 -94 -90 -1 0 -35 -33 -77
-72 -41 -40 -144 -138 -228 -218 -84 -80 -176 -167 -205 -195 -29 -27 -121
-115 -206 -195 -84 -80 -176 -167 -205 -195 -29 -27 -114 -108 -190 -180 -75
-71 -158 -150 -184 -175 -26 -25 -120 -115 -210 -200 -90 -85 -180 -171 -200
-190 -20 -19 -105 -100 -189 -180 -84 -80 -177 -167 -206 -195 -29 -27 -123
-117 -210 -200 -87 -82 -203 -194 -259 -247 l-101 -97 -1 -540 c-1 -411 2
-541 11 -541 51 0 1012 459 1091 521 6 5 14 6 17 2 4 -3 7 -1 7 6 0 7 5 9 10
6 6 -3 10 -2 10 4 0 6 11 13 25 17 14 3 25 9 25 13 0 4 16 13 35 21 19 8 35
17 35 21 0 4 9 11 20 14 11 4 49 24 85 46 36 21 69 39 74 39 5 0 11 4 13 8 2
4 50 36 108 72 58 35 133 83 167 107 34 24 66 43 72 43 5 0 11 4 13 8 2 5 32
28 68 52 36 24 70 48 75 52 6 5 51 38 100 75 85 62 132 98 165 126 8 6 40 32
71 57 31 25 63 52 71 60 9 8 30 26 48 40 17 14 51 44 75 67 24 24 46 43 49 43
7 0 244 239 326 329 96 107 87 96 147 171 29 36 62 75 73 87 11 12 20 27 20
32 0 5 4 11 8 13 10 4 72 90 149 208 30 47 66 101 78 120 23 34 47 78 104 185
14 28 29 52 33 53 5 2 6 8 2 13 -3 5 0 9 7 9 7 0 10 3 6 6 -3 3 3 21 14 40 10
19 19 41 19 49 0 8 4 15 9 15 5 0 15 20 22 45 7 25 17 45 21 45 4 0 8 5 8 12
0 6 12 41 26 77 15 36 27 70 29 76 1 5 5 17 8 25 13 35 49 143 51 154 1 6 5
17 9 24 5 6 6 12 2 12 -3 0 -1 9 5 19 5 11 13 37 16 58 3 21 9 43 12 48 4 6 7
15 8 20 3 14 32 166 38 191 7 33 16 95 22 144 3 25 7 59 9 75 15 117 20 230
20 435 -1 203 -9 400 -17 405 -2 1 -22 -17 -44 -39z"/>
<path d="M2260 4848 c-23 -208 -20 -650 5 -838 2 -14 6 -46 9 -73 2 -26 7 -60
10 -75 3 -15 8 -39 10 -54 4 -24 34 -173 41 -203 1 -5 5 -17 8 -25 4 -8 9 -26
11 -40 3 -14 5 -25 6 -25 1 0 4 -13 6 -30 3 -16 9 -32 15 -33 5 -2 7 -7 4 -12
-3 -4 11 -55 30 -112 47 -135 44 -127 46 -136 1 -4 9 -23 20 -43 10 -20 15
-39 12 -43 -4 -3 -1 -6 5 -6 7 0 12 -7 12 -15 0 -8 4 -23 9 -33 6 -9 37 -74
71 -143 81 -168 214 -396 282 -484 4 -5 42 -57 85 -115 42 -58 81 -110 87
-116 6 -6 20 -23 31 -38 24 -32 35 -45 140 -162 137 -150 331 -339 473 -459
20 -16 43 -37 52 -45 9 -8 32 -27 52 -42 20 -15 42 -33 50 -40 7 -7 36 -30 63
-50 80 -60 108 -82 121 -96 7 -6 15 -12 18 -12 4 0 39 -24 79 -53 163 -120
545 -367 567 -367 5 0 10 -4 10 -10 0 -5 4 -10 10 -10 5 0 39 -18 75 -40 36
-22 67 -40 68 -40 2 0 52 -27 111 -60 59 -33 112 -60 117 -60 5 0 9 -5 9 -12
0 -6 3 -8 7 -5 3 4 11 3 17 -2 9 -8 342 -179 349 -180 1 0 54 -24 117 -54 63
-30 138 -65 165 -77 28 -12 75 -33 105 -47 53 -24 99 -44 110 -48 16 -5 69
-28 94 -41 16 -8 30 -14 31 -14 0 0 1 246 0 546 l0 546 -101 96 c-55 53 -167
160 -248 237 -82 77 -179 169 -216 205 -37 36 -134 128 -215 205 -194 184
-197 187 -370 350 -81 77 -185 176 -231 220 -46 44 -142 136 -215 205 -73 69
-158 150 -189 180 -32 30 -117 111 -190 180 -73 69 -156 148 -185 175 -29 28
-123 118 -210 200 -87 83 -179 170 -205 195 -26 25 -109 104 -184 175 -76 72
-168 159 -205 195 -38 36 -135 128 -217 205 -81 77 -173 165 -204 195 -32 30
-117 111 -190 180 -73 69 -157 149 -186 178 -47 46 -63 58 -64 50z"/>
</g>
</svg>
