<svg width="77" height="77" viewBox="0 0 77 77" fill="none" xmlns="http://www.w3.org/2000/svg">
<path d="M42.262 0V7.78868C59.2054 9.87081 71.2085 25.2554 69.1244 42.1823C67.349 56.2173 56.3107 67.3605 42.262 69.0185V76.7301C63.4895 74.6094 78.9276 55.7932 76.8049 34.5864C75.0681 16.2714 60.5176 1.81222 42.262 0ZM34.5429 0.115673C27.0168 0.848272 19.838 3.74011 13.9715 8.5984L19.4907 14.305C23.8134 10.8348 29.0237 8.5984 34.5429 7.82724V0.115673ZM8.52959 14.0351C3.70383 19.8856 0.734092 27.0409 0 34.5864H7.71908C8.4524 29.1112 10.6137 23.9059 14.0487 19.5488L8.52959 14.0351ZM51.9108 24.9469L33.0763 43.7631L24.894 35.5889L20.8029 39.676L33.0763 51.9374L56.0019 29.0341L51.9108 24.9469ZM0.0385954 42.2979C0.810504 49.8553 3.78235 56.9885 8.56818 62.8493L14.0487 57.3355C10.6405 52.9769 8.46766 47.7832 7.75768 42.2979H0.0385954ZM19.4907 63.0035L13.9715 68.2859C19.8179 73.1546 26.9754 76.1866 34.5429 77V69.2884C29.0523 68.5791 23.8535 66.4084 19.4907 63.0035Z" fill="#502F0A"/>
</svg>
