<svg width="173" height="161" viewBox="0 0 173 161" fill="none" xmlns="http://www.w3.org/2000/svg">
<path fill-rule="evenodd" clip-rule="evenodd" d="M15.2348 0.387576C11.7281 1.09174 9.37856 2.91754 7.8131 6.15437C6.45957 8.95271 6.42368 9.93813 6.59499 39.742L6.77104 70.4472L8.5552 71.7803C10.1511 72.9724 10.5452 73.0151 12.2793 72.1835L14.2192 71.253L14.5577 40.764C14.7439 23.9949 15.1427 9.89408 15.4441 9.4278C16.2275 8.21602 162.852 8.18281 164.062 9.39392C164.677 10.0093 164.875 20.7893 164.875 53.7615C164.875 96.1284 164.839 97.3347 163.565 98.0172C162.836 98.4076 157.929 98.7186 152.498 98.7186C143.905 98.7186 142.606 98.8664 141.62 99.9582C139.953 101.802 140.2 104.591 142.144 105.865C143.517 106.766 145.631 106.908 154.961 106.728C167.338 106.489 168.237 106.201 171.477 101.436L173 99.1958V53.3108V7.42579L171.474 5.15947C170.635 3.91312 168.883 2.26692 167.581 1.50108C165.234 0.121227 164.552 0.108347 91.409 0.0100759C50.8166 -0.0441425 16.5383 0.125972 15.2348 0.387576ZM48.7427 17.894C35.2311 22.7242 27.5852 34.9728 29.4804 48.7524C31.5828 64.0365 46.7398 75.131 61.7397 72.3645C84.2656 68.2107 93.0726 41.008 77.0781 24.9878C71.7297 19.6303 65.9777 17.1593 58.2309 16.891C53.6666 16.733 51.2852 16.9852 48.7427 17.894ZM63.1203 25.8695C67.252 27.0976 72.8868 31.8986 74.9554 35.9521C76.9278 39.8192 77.3496 46.7151 75.8837 51.1332C75.2587 53.0173 73.5335 55.9383 72.0506 57.6238C64.0994 66.6654 50.3311 66.6654 42.3799 57.6238C38.7865 53.5385 37.3186 48.9896 37.7316 43.2235C38.6518 30.3954 50.6819 22.1718 63.1203 25.8695ZM21.3999 78.7697C13.0695 81.0394 5.93684 86.9139 2.17824 94.6021L0 99.0575V113.29V127.522L2.12475 132.011C3.29343 134.48 5.42631 137.81 6.86448 139.412C9.90061 142.792 16.4421 147.226 19.3306 147.861C20.9929 148.227 21.3288 148.637 21.3288 150.302C21.3288 153.469 23.0032 156.662 25.774 158.778L28.3314 160.731L57.0731 160.921C84.726 161.105 85.9211 161.06 88.6119 159.745C90.1503 158.994 92.1531 157.279 93.0632 155.934C94.5819 153.688 94.7403 152.698 95.0085 143.77L95.301 134.051L97.8963 137.338C103.48 144.408 110.056 147.67 119.528 148.068C125.914 148.336 126.105 148.297 138.512 144.205C149.559 140.563 151.34 139.77 153.526 137.525C158.413 132.505 159.456 126.099 156.389 119.938C154.351 115.845 151.014 113.321 146.159 112.2C142.828 111.431 142.234 111.535 132.403 114.592C124.363 117.092 121.921 117.614 121.175 116.995C120.65 116.56 116.939 109.799 112.925 101.971C108.911 94.1433 104.474 86.4145 103.065 84.7954C101.652 83.1715 98.7664 80.9987 96.6322 79.9496L92.7632 78.0479L58.908 77.911C30.9274 77.7978 24.4191 77.9469 21.3999 78.7697ZM93.5507 87.6893C96.8861 89.4744 98.354 91.7855 107.392 109.476C116.52 127.343 117.689 127.977 132.653 123.189C137.436 121.658 142.359 120.406 143.595 120.406C148.507 120.406 151.405 126.024 148.712 130.328C147.522 132.23 146.174 132.858 135.983 136.258C123.483 140.428 119.539 140.912 113.85 138.972C108.162 137.031 103.911 132.337 98.8863 122.446C96.4494 117.65 93.9773 113.246 93.3922 112.66C91.9263 111.194 89.3079 111.326 87.6849 112.951C86.3964 114.241 86.3307 115.21 86.3307 132.92C86.3307 150.629 86.2671 151.568 85.0212 152.236C84.1829 152.684 74.3189 152.937 57.6466 152.937C34.8546 152.937 31.4488 152.803 30.5177 151.872C28.8169 150.17 29.2299 149.761 33.0521 149.366C35.0313 149.162 38.9551 148.099 41.7726 147.004C46.7716 145.061 46.9328 145.043 48.5003 146.239C50.8559 148.037 53.3917 148.397 55.9599 147.298C58.0901 146.387 74.6947 132.462 78.0362 128.784C78.8745 127.862 79.5597 126.267 79.5597 125.239C79.5597 123.137 70.0105 100.514 68.3462 98.6732C66.9263 97.1029 64.4528 96.5309 62.5095 97.3239C61.6462 97.677 56.9783 101.642 52.137 106.137L43.3346 114.309L40.6865 111.427C39.23 109.842 35.6075 106.029 32.6357 102.954C27.8676 98.0192 26.9521 97.3632 24.8328 97.3632C21.1392 97.3632 19.2961 99.4926 19.3036 103.75C19.3151 110.005 21.3159 124.5 22.3959 126.15C23.5734 127.949 27.2284 129.894 29.4303 129.894C30.2354 129.894 34.1044 128.522 38.0275 126.844C41.9506 125.167 45.7634 123.795 46.5001 123.795C47.2368 123.795 48.7305 124.686 49.8193 125.776C52.2602 128.219 52.4342 131.166 50.2749 133.496C48.6357 135.265 39.293 139.441 33.9865 140.776C24.9018 143.063 14.1609 137.763 9.76587 128.825C8.21395 125.669 8.12524 124.829 8.12524 113.29C8.12524 101.926 8.2302 100.895 9.65279 98.2293C11.6164 94.552 14.7405 91.002 17.5377 89.2718C22.7053 86.0749 24.9953 85.8967 58.908 86.0431C90.3832 86.1793 90.763 86.1969 93.5507 87.6893ZM67.2364 115.831L70.7946 124.133L67.2215 127.366C65.2559 129.143 62.8095 131.223 61.7857 131.986L59.9237 133.375L59.9088 129.771C59.8905 125.327 58.1456 121.31 55.1298 118.77L52.852 116.851L57.9113 112.214C60.6942 109.663 63.1298 107.565 63.3241 107.552C63.5184 107.539 65.2789 111.265 67.2364 115.831ZM35.5479 118.416C35.5479 118.652 34.2702 119.347 32.7082 119.961C29.4635 121.238 28.8047 120.786 28.7871 117.271C28.7816 116.106 28.586 114.124 28.3524 112.866L27.9271 110.579L31.7379 114.283C33.8335 116.321 35.5479 118.18 35.5479 118.416Z" fill="white"/>
</svg>
