<svg width="166" height="161" viewBox="0 0 166 161" fill="none" xmlns="http://www.w3.org/2000/svg">
<path d="M21.0426 154.842H28.0278V131.701H20.7443C20.7443 134.052 20.6924 136.293 20.7572 138.521C20.8286 140.768 20.4329 142.977 17.8192 143.067C14.8357 143.171 14.693 140.723 14.719 138.436C14.7449 136.286 14.719 134.13 14.719 131.811C13.7656 131.558 12.9613 131.306 12.1377 131.144C5.4184 129.855 0.495708 124.428 0.0352186 117.802C-0.431756 111.015 3.78399 104.564 10.367 102.763C12.6954 102.129 13.1624 101.177 13.1429 99.0264C13.0586 86.2935 13.1494 73.554 13.0846 60.8211C13.0457 53.4378 14.7579 46.6956 19.9011 41.1776C21.2112 39.7722 20.634 38.8136 19.953 37.5054C15.0822 28.1402 15.4519 18.937 21.6588 10.3944C27.7294 2.03311 36.3685 -1.3088 46.4214 0.459305C56.7662 2.2857 63.5633 8.704 66.4559 18.8722C69.2772 28.8073 65.3404 39.7398 56.7403 45.6853C54.7621 47.0518 54.3989 48.2047 55.1188 50.3938C56.7143 55.2512 58.0309 60.1993 59.3475 64.7394C61.9354 61.3003 64.0627 57.4791 67.098 54.6165C80.4717 41.9742 102.231 47.6347 108.231 65.0438C108.789 66.6565 109.885 68.295 111.175 69.409C116.649 74.1369 122.143 78.8648 127.902 83.23C134.265 88.0486 136.943 93.7545 133.35 101.921C139.401 101.921 145.07 101.844 150.738 101.941C158.093 102.07 163.587 106.215 165.455 112.854C167.731 120.976 162.659 129.492 154.358 130.988C151.88 131.435 151.231 132.342 151.277 134.719C151.419 141.947 151.355 149.181 151.316 156.409C151.296 160.327 150.68 160.923 146.763 160.956C142.981 160.988 139.2 160.936 135.413 160.956C133.201 160.968 132.202 159.874 131.644 157.769C131.32 156.558 130.36 155.107 129.284 154.576C114.496 147.277 99.6501 140.081 84.7588 133.003C83.5394 132.426 81.5807 132.368 80.3744 132.938C65.7684 139.874 51.2533 146.998 36.6798 154.006C35.0454 154.79 34.1763 155.625 34.2606 157.601C34.3514 159.757 33.0413 160.949 30.7842 160.949C26.5685 160.943 22.3398 161.124 18.15 160.839C17.002 160.761 15.0563 159.343 15.0303 158.488C14.959 156.305 15.0303 153.184 16.3858 152.096C18.7467 150.198 20.3032 152.601 21.0491 154.822L21.0426 154.842ZM131.567 131.565C130.289 131.565 129.329 131.578 128.363 131.565C125.885 131.532 122.694 131.915 122.778 128.391C122.869 124.9 126.106 125.419 128.538 125.399C136.314 125.347 144.097 125.457 151.873 125.27C156.186 125.166 159.254 122.09 159.916 117.796C160.487 114.091 158.236 110.024 154.565 108.774C152.775 108.165 150.751 108.022 148.838 108.016C104.968 107.977 61.0922 107.984 17.2225 107.99C10.1011 107.99 5.94375 111.287 6.00212 116.805C6.06698 122.251 10.0687 125.38 17.0539 125.38C46.5511 125.386 76.0549 125.38 105.552 125.38C106.415 125.38 107.284 125.354 108.146 125.386C110.202 125.464 112.226 125.762 112.265 128.411C112.304 131.047 110.345 131.506 108.25 131.532C105.228 131.578 102.199 131.532 99.1766 131.565C98.554 131.571 97.9314 131.772 96.6731 131.992C108.626 137.782 119.931 143.261 131.567 148.903V131.552V131.565ZM25.3102 44.3446C20.8416 48.9301 19.3239 52.7448 19.3044 59.4869C19.272 72.6538 19.2915 85.8142 19.3044 98.9811C19.3044 99.9008 19.4471 100.827 19.5314 101.792H34.8313C31.4847 94.4604 33.3591 88.6898 39.4362 83.9619C40.0718 83.4697 40.3572 81.8829 40.0978 81.0086C38.859 76.7794 37.3738 72.6214 35.9793 68.444C35.2918 66.3844 34.8054 64.15 37.3867 63.2368C39.9681 62.3301 40.9669 64.2601 41.6609 66.4104C42.9645 70.4388 44.3784 74.4348 45.8442 78.7418C48.6849 76.4167 51.2274 74.4284 53.6466 72.2976C54.1654 71.8377 54.6194 70.7626 54.4573 70.1473C52.6413 63.4182 50.6955 56.7279 48.7239 49.785C39.9616 51.7474 32.2435 49.9728 25.3167 44.3576L25.3102 44.3446ZM41.9722 44.4677C52.6153 44.4936 61.1117 36.1064 61.2284 25.4589C61.3516 14.779 52.7061 6.0486 42.0176 6.04212C31.4912 6.03564 22.7873 14.6171 22.703 25.0833C22.6122 35.7437 31.2577 44.4418 41.9722 44.4612V44.4677ZM84.1037 53.8782C73.48 53.8911 64.9058 62.356 64.854 72.8934C64.8021 83.6186 73.3827 92.2195 84.1297 92.2195C94.909 92.2195 103.412 83.651 103.315 72.8675C103.224 62.2006 94.7923 53.8717 84.0972 53.8782H84.1037ZM87.2299 101.928C98.7291 101.928 109.826 101.928 120.93 101.928C125.236 101.928 127.409 100.613 128.577 97.3749C129.699 94.2597 128.778 91.8309 125.379 89.0395C120.722 85.2054 116.066 81.3713 111.389 77.5566C110.78 77.0579 110.06 76.7016 109.606 76.4102C108.289 80.0436 107.07 83.4243 105.766 87.0188C107.414 87.0188 108.912 87.0318 110.41 87.0188C112.459 86.9994 114.172 87.5629 114.243 89.9463C114.314 92.3426 112.654 93.0032 110.579 93.0032C108.101 93.0032 105.617 92.9643 103.139 93.0291C101.771 93.068 100.273 92.9838 99.0664 93.4954C95.1554 95.1534 91.3548 97.064 87.2234 99.007V101.934L87.2299 101.928ZM81.01 98.4241C78.5454 97.634 75.9187 97.4267 74.1351 96.0925C69.4913 92.6276 64.3286 92.8542 59.0687 92.9967C58.5303 93.0097 57.9855 92.9838 57.4472 92.9838C55.482 92.9838 53.9125 92.2713 53.8995 90.1146C53.8865 87.8155 55.5015 87.0188 57.6029 87.0124C59.2438 87.0124 60.8847 87.0124 62.4802 87.0124C61.0792 83.1588 59.8469 79.7651 58.5368 76.1576C53.2509 80.5163 47.9261 84.888 42.6143 89.2856C39.5206 91.8504 38.4569 94.7907 39.7411 97.7635C41.1031 100.911 43.6585 101.999 47.044 101.967C57.4148 101.863 67.792 101.934 78.1627 101.921C79.0967 101.921 80.0242 101.811 80.997 101.753V98.4241H81.01ZM67.6753 132.297C67.5909 132.122 67.5066 131.953 67.4223 131.779H34.4876V148.397C45.7599 142.925 56.7143 137.607 67.6688 132.29L67.6753 132.297ZM145.167 131.746H137.987V154.79H145.167V131.746Z" fill="white"/>
</svg>
