<svg width="210" height="61" viewBox="0 0 210 61" fill="none" xmlns="http://www.w3.org/2000/svg">
<g clip-path="url(#clip0_38_419)">
<path d="M200.215 53.1161C204.335 53.1161 207.253 52.3679 209.428 50.7566V43.4481C207.196 45.0019 204.507 45.9802 200.73 45.9802C194.379 45.9802 191.747 41.0311 191.747 33.2047C191.747 24.9755 194.951 20.7745 200.787 20.7745C204.221 20.7745 207.597 21.983 209.37 23.134V15.5377C207.482 14.5019 204.221 13.7538 199.757 13.7538C188.37 13.7538 182.477 21.983 182.477 33.4925C182.534 46.0953 188.313 53.1161 200.215 53.1161ZM144.539 49.7783V42.4698C141.793 44.3689 137.101 46.0377 132.809 46.0377C126.286 46.0377 123.826 42.9302 123.425 36.6H144.94V31.8811C144.94 18.7028 139.161 13.7538 130.291 13.7538C119.42 13.7538 114.27 22.0981 114.27 33.55C114.27 46.7283 120.736 53.1161 132.065 53.1161C137.73 53.1161 141.907 51.5623 144.539 49.7783ZM62.8855 14.4444V29.4066H50.9836V14.4444H42.0571V52.3679H50.9836V36.5425H62.8855V52.3679H71.8119V14.4444H62.8855ZM112.038 45.2321H108.09V14.4444H82.1116V17.667C82.1116 26.9321 81.5394 38.9019 78.3923 45.2321H75.5312V61H83.771V52.3679H103.741V61H111.981V45.2321H112.038ZM172.978 52.3679H183.106L168.801 31.9387L181.39 14.4444H172.406L159.817 31.9387V14.4444H150.891V52.3679H159.817V33.7227L172.978 52.3679ZM130.063 20.7745C134.469 20.7745 135.842 24.4576 135.842 29.234V29.9821H123.425C123.654 23.9396 125.828 20.7745 130.063 20.7745ZM99.1634 45.2321H86.5748C89.0353 39.5349 89.722 29.1764 89.722 22.616V21.4651H99.1634V45.2321Z" fill="black"/>
<path d="M34.6185 52.3679H25.5204V7.0783H21.4578C14.0191 7.0783 10.1281 10.8189 10.1281 16.4009C10.1281 22.7311 12.8174 25.666 18.3678 29.4066L22.9455 32.5142L9.78474 52.3679H0L11.8447 34.6434C5.03542 29.7519 1.20163 24.9755 1.20163 16.9189C1.20163 6.84811 8.18256 0 21.4005 0H34.5613L34.6185 52.3679Z" fill="#FC3F1D"/>
</g>
<defs>
<clipPath id="clip0_38_419">
<rect width="210" height="61" fill="white"/>
</clipPath>
</defs>
</svg>
