<svg width="96" height="55" viewBox="0 0 96 55" fill="none" xmlns="http://www.w3.org/2000/svg">
<path fill-rule="evenodd" clip-rule="evenodd" d="M44.4679 30.3917C47.3506 32.3133 50.4641 36.8022 54.0269 36.8022C57.6926 36.8022 59.0216 34.9086 62.0821 32.2047L64.2098 30.3948C65.2424 31.084 66.2345 31.9563 67.1704 32.8224L79.0255 42.9427C79.3874 43.2469 79.3718 43.1755 79.7337 43.4797L84.9593 47.9966C85.6956 48.5864 87.4676 50.0144 87.8981 50.6539H20.7827L39.2143 34.8775C39.5356 34.6074 39.6417 34.446 39.963 34.1728L44.4711 30.3886L44.4679 30.3917ZM67.7413 27.4984L75.7841 20.613C76.1054 20.3429 76.2115 20.1815 76.5328 19.9083C76.8947 19.6041 76.8791 19.6755 77.241 19.3712C77.5623 19.1011 77.6684 18.9397 77.9897 18.6665L81.0128 16.093C81.5931 15.6274 81.93 15.2828 82.4666 14.8513L91.4328 7.23006C91.4546 8.16447 91.6418 8.05272 91.6418 9.08958V45.8918C91.6418 46.9318 91.4546 46.8169 91.4328 47.7513C90.8712 47.3757 90.5468 46.9442 89.979 46.5096L74.4426 33.2291C74.0526 32.8845 74.0089 32.9187 73.6252 32.5958C73.3382 32.3537 73.2571 32.2295 72.9888 31.9905L71.535 30.7487C70.6958 30.0037 68.2187 28.1286 67.7476 27.4891L67.7413 27.4984ZM20.7827 4.3399H87.8981C87.2336 5.32398 77.2722 13.5257 75.6874 14.932L67.3794 21.9665C64.5093 24.6207 60.1853 28.0076 57.0905 30.7518C54.0144 33.4837 53.5308 32.2668 50.6388 29.8329C50.1802 29.448 50.071 29.4449 49.6093 28.9979C48.9292 28.3397 48.3396 27.8679 47.6345 27.2408C44.3899 24.363 38.2659 19.5575 35.1711 16.6922C34.5097 16.0806 33.8826 15.5311 33.1869 14.9444L24.8852 7.90371C23.9337 7.02207 21.3256 5.14703 20.7827 4.33679V4.3399ZM12.8866 7.85404C12.8866 10.0737 12.2814 13.8486 14.9644 13.8486C18.0561 13.8486 17.2512 9.36586 17.2512 7.43805C18.1278 7.67088 25.0256 13.6747 26.1331 14.7271L35.7732 22.9164C36.107 23.1834 36.2068 23.3324 36.525 23.6149L39.4327 26.0953C40.1252 26.7068 40.3873 26.682 40.9364 27.4953L37.4516 30.6463C37.0616 30.9909 37.018 30.9567 36.6342 31.2796C36.3472 31.5217 36.2661 31.6459 35.9978 31.8849C35.6078 32.2295 35.5641 32.1954 35.1804 32.5182L18.9639 46.3606C18.4055 46.879 18.0498 47.3353 17.248 47.5495C17.248 46.3047 17.3479 44.6004 17.248 43.4145C16.9829 40.2543 12.8835 40.6982 12.8835 43.2096C12.8835 46.9131 12.4717 49.5643 15.214 52.4699C16.1156 53.4261 18.6145 54.9969 20.3647 54.9969H88.104C90.7433 54.9969 92.4155 53.5472 93.7695 52.1595C95.1079 50.7874 95.997 48.546 95.997 45.9011V9.09889C95.997 4.09776 92.3406 0 88.1009 0H20.5706C16.7333 0 12.8835 4.04809 12.8835 7.85714L12.8866 7.85404Z" fill="#005340"/>
<path fill-rule="evenodd" clip-rule="evenodd" d="M0.00311976 32.8712C0.00311976 33.7497 1.0108 34.9387 2.08088 34.9387H21.6137C24.2998 34.9387 24.1563 30.5957 21.4047 30.5957H2.28678C0.923449 30.5957 0 31.8809 0 32.8712H0.00311976Z" fill="#005340"/>
<path fill-rule="evenodd" clip-rule="evenodd" d="M6.44453 21.9134C6.44453 23.5121 7.33054 24.3938 8.93721 24.3938H21.4038C24.0524 24.3938 24.5953 20.0508 21.1947 20.0508H8.51917C7.57388 20.0508 6.44141 21.0318 6.44141 21.9103L6.44453 21.9134Z" fill="#005340"/>
</svg>
