<svg width="172" height="161" viewBox="0 0 172 161" fill="none" xmlns="http://www.w3.org/2000/svg">
<path fill-rule="evenodd" clip-rule="evenodd" d="M92.8535 0.817028C81.2213 4.07596 72.4413 13.73 70.4249 25.4774C68.97 33.9559 73.5183 50.4733 80.7789 63.0783C82.6514 66.3305 84.0768 69.0896 83.945 69.2097C83.8139 69.3305 80.9598 70.1732 77.6035 71.0831L71.5006 72.737L56.6272 68.7246C48.4468 66.5184 41.326 64.8765 40.8023 65.0771C39.4657 65.5891 0 140.307 0 142.325C0 143.235 0.25011 144.133 0.556025 144.322C0.861939 144.51 13.947 148.34 29.6347 152.832L58.1574 161L85.9694 153.085L113.781 145.171L141.684 153.116C170.827 161.415 171.509 161.53 171.999 158.234C172.184 156.994 134.22 76.2107 132.338 73.8401C132.001 73.4154 128.454 72.221 124.455 71.1851L117.185 69.3016L120.201 64.3438C129.275 49.4286 133.581 30.6352 130.189 20.7571C127.308 12.3712 120.086 4.93347 111.76 1.77787C106.72 -0.132405 97.849 -0.583301 92.8535 0.817028ZM111.054 7.96763C116.387 10.4482 120.612 14.5727 123.206 19.8305C125.21 23.8919 125.391 24.791 125.386 30.6487C125.379 38.5306 123.833 43.6703 118.016 55.1534C114.386 62.3194 105.959 75.745 102.223 80.315L100.851 81.9925L99.4794 80.315C92.3533 71.599 81.0264 51.4738 77.9545 42.0694C75.5676 34.7624 75.6113 25.776 78.0593 20.5672C81.0835 14.1326 85.2009 10.2496 92.0379 7.38388C97.3467 5.15892 105.556 5.41054 111.054 7.96763ZM95.2201 16.2159C84.148 20.1546 81.8439 35.9735 91.2923 43.1818C101.666 51.096 116.323 43.7569 116.293 30.6628C116.27 19.8775 105.562 12.537 95.2201 16.2159ZM105.998 22.6761C108.896 24.4623 110.264 27.1052 110.264 30.9137C110.264 36.1876 105.243 40.4979 99.8109 39.8873C92.9987 39.1211 89.2464 32.1416 92.3876 26.08C94.7811 21.4616 101.361 19.8157 105.998 22.6761ZM56.1693 74.7231C62.6244 76.4455 67.9063 78.0404 67.9063 78.2679C67.9063 79.3213 55.8896 153.59 55.6865 153.793C55.0942 154.383 7.38834 140.302 7.55239 139.585C7.93361 137.922 43.3861 71.5923 43.8944 71.5923C44.1895 71.5923 49.7135 73.0014 56.1693 74.7231ZM89.6115 76.8602L91.3246 79.4441L87.7901 80.9062C78.7196 84.6583 77.5174 92.4671 85.2594 97.3444C88.9438 99.6653 94.334 101.115 99.2791 101.115C103.123 101.115 103.546 101.255 103.854 102.625C104.041 103.456 105.592 112.099 107.301 121.832C109.429 133.949 110.18 139.669 109.685 139.974C108.555 140.671 62.5276 153.676 62.2392 153.38C61.8667 152.998 73.7792 78.9281 74.2969 78.4054C74.6378 78.0612 85.6507 74.6741 87.4828 74.3494C87.7114 74.3091 88.6689 75.439 89.6115 76.8602ZM128.073 78.4376C128.166 78.5477 135.882 94.6404 145.22 114.199C154.558 133.758 162.599 150.546 163.089 151.504C163.964 153.215 163.535 153.122 140.315 146.526C127.3 142.829 116.602 139.779 116.542 139.75C116.482 139.721 114.883 130.944 112.988 120.246C110.397 105.621 109.749 100.727 110.378 100.518C114.225 99.2386 119.356 95.7951 120.485 93.7346C123.23 88.7271 120.138 82.8285 113.542 80.4908L110.418 79.3837L112.067 76.8957L113.717 74.4078L120.811 76.3234C124.712 77.3762 127.981 78.3283 128.073 78.4376ZM97.4893 87.6958C98.8548 89.1719 100.356 90.3797 100.825 90.3797C101.295 90.3797 102.822 89.1323 104.218 87.6072C106.497 85.1192 106.988 84.879 109.015 85.2608C112.193 85.86 115.642 88.1158 115.642 89.5946C115.642 92.7737 109.577 95.0765 101.203 95.0765C93.2172 95.0765 86.0595 92.5362 86.0595 89.702C86.0595 88.1829 91.1727 85.2192 94.063 85.0629C94.5821 85.0347 96.1238 86.2196 97.4893 87.6958Z" fill="white"/>
</svg>
