<svg width="214" height="200" viewBox="0 0 214 200" fill="none" xmlns="http://www.w3.org/2000/svg">
<path fill-rule="evenodd" clip-rule="evenodd" d="M115.346 1.01494C100.896 5.06331 89.9891 17.0559 87.4844 31.649C85.677 42.1813 91.3271 62.6998 100.346 78.3582C102.673 82.3982 104.443 85.8256 104.279 85.9748C104.117 86.1248 100.571 87.1717 96.4018 88.3019L88.8207 90.3565L70.3443 85.3721C60.1823 82.6316 51.3367 80.5919 50.6861 80.8412C49.0257 81.4771 0 174.294 0 176.802C0 177.931 0.310696 179.047 0.690714 179.281C1.07073 179.516 17.3255 184.273 36.8133 189.854L72.2452 200L106.794 190.168L141.343 180.337L176.005 190.206C212.208 200.516 213.054 200.658 213.664 196.564C213.893 195.024 166.733 94.6716 164.395 91.7268C163.977 91.1992 159.57 89.7156 154.603 88.4286L145.571 86.089L149.318 79.9302C160.59 61.402 165.939 38.0562 161.725 25.7852C158.147 15.368 149.175 6.12853 138.832 2.20853C132.571 -0.164478 121.552 -0.724598 115.346 1.01494ZM137.955 9.89768C144.581 12.9792 149.829 18.1028 153.051 24.6342C155.54 29.6794 155.765 30.7963 155.759 38.0729C155.75 47.8641 153.83 54.2488 146.604 68.5135C142.094 77.4154 131.627 94.0932 126.985 99.7702L125.281 101.854L123.577 99.7702C114.725 88.9429 100.654 63.9426 96.8378 52.2601C93.8728 43.1831 93.9271 32.0199 96.9681 25.5494C100.725 17.556 105.84 12.7324 114.333 9.17252C120.928 6.4086 131.125 6.72117 137.955 9.89768ZM118.286 20.144C104.532 25.0367 101.669 44.6876 113.407 53.642C126.293 63.4733 144.5 54.3563 144.464 38.0904C144.434 24.6925 131.133 15.5739 118.286 20.144ZM131.675 28.1691C135.274 30.3879 136.974 33.6711 136.974 38.4021C136.974 44.9535 130.736 50.308 123.989 49.5495C115.526 48.5976 110.865 39.9274 114.767 32.3975C117.74 26.6604 125.915 24.6158 131.675 28.1691ZM69.7755 92.8237C77.7943 94.9634 84.3557 96.9446 84.3557 97.2272C84.3557 98.5358 69.4281 190.795 69.1758 191.047C68.44 191.781 9.17807 174.288 9.38186 173.398C9.85542 171.331 53.8958 88.9346 54.5272 88.9346C54.8938 88.9346 61.7559 90.685 69.7755 92.8237ZM111.319 95.4785L113.447 98.6883L109.056 100.505C97.7883 105.166 96.2949 114.866 105.912 120.925C110.489 123.808 117.185 125.609 123.328 125.609C128.103 125.609 128.629 125.782 129.012 127.484C129.243 128.516 131.17 139.253 133.293 151.344C135.936 166.396 136.87 173.502 136.254 173.881C134.85 174.747 77.674 190.902 77.3157 190.534C76.853 190.06 91.6512 98.0474 92.2943 97.3981C92.7178 96.9705 106.398 92.7629 108.674 92.3595C108.958 92.3095 110.148 93.7131 111.319 95.4785ZM159.097 97.4381C159.213 97.5748 168.797 117.566 180.398 141.863C191.998 166.159 201.987 187.013 202.595 188.204C203.681 190.33 203.149 190.214 174.305 182.02C158.137 177.427 144.847 173.639 144.773 173.603C144.698 173.566 142.711 162.663 140.358 149.374C137.139 131.206 136.335 125.127 137.116 124.867C141.895 123.278 148.268 119 149.671 116.44C153.08 110.22 149.239 102.893 141.046 99.9886L137.165 98.6133L139.214 95.5227L141.263 92.432L150.075 94.8117C154.922 96.1194 158.982 97.3022 159.097 97.4381ZM121.105 108.939C122.801 110.773 124.666 112.273 125.249 112.273C125.832 112.273 127.729 110.723 129.463 108.829C132.295 105.738 132.904 105.44 135.422 105.914C139.37 106.658 143.655 109.461 143.655 111.298C143.655 115.247 136.12 118.107 125.718 118.107C115.798 118.107 106.906 114.952 106.906 111.431C106.906 109.544 113.258 105.862 116.848 105.668C117.493 105.633 119.408 107.105 121.105 108.939Z" fill="#005340"/>
</svg>
