<svg width="12" height="21" viewBox="0 0 12 21" fill="none" xmlns="http://www.w3.org/2000/svg">
<path fill-rule="evenodd" clip-rule="evenodd" d="M5.55353 0.0159248C3.91643 0.142019 2.80629 0.912597 2.06854 1.7182C1.28161 2.57284 0.621151 3.92486 0.740596 5.56409C0.937329 8.28913 3.3192 10.5728 6.29127 10.3557C9.03851 10.1525 11.322 7.80577 11.1112 4.82153C10.9215 2.10349 8.53262 -0.215249 5.55353 0.0159248ZM7.78082 14.5098C7.84406 14.4678 8.01268 14.4397 8.16023 14.4047C9.09471 14.1735 11.0972 13.431 11.5328 12.5763C12.2003 11.2664 10.6124 9.92836 9.42495 10.811C8.50452 11.4975 7.02902 11.8898 5.75728 11.8688C4.66823 11.8548 3.53701 11.5606 2.729 11.1122C2.23717 10.839 1.98423 10.5378 1.41511 10.5378C0.831936 10.5378 0.417393 10.8671 0.206608 11.2033C-0.0533602 11.6236 -0.0814664 12.2471 0.19958 12.6814C0.782753 13.5851 3.05923 14.3487 4.02182 14.5238C3.95858 14.6219 3.62133 14.9441 3.48783 15.0982C3.31218 15.2874 3.1295 15.4625 2.95384 15.6517C2.60253 16.0299 1.0357 17.5851 0.853015 17.8863C0.501706 18.4818 0.64223 19.0842 0.993539 19.5396C1.26756 19.8898 1.9772 20.177 2.60253 19.9179C2.89763 19.7988 3.05923 19.6306 3.22083 19.4485C3.27002 19.3925 3.30515 19.3434 3.36136 19.2944C3.66348 19.0072 4.47149 18.1245 4.7947 17.7672L5.58866 16.9266C5.70107 16.8285 5.77133 16.7235 5.85565 16.6604C5.98212 16.7235 6.04536 16.8355 6.15075 16.9476C6.24209 17.0457 6.34046 17.1228 6.43882 17.2138L7.85108 18.5728C7.94945 18.6639 8.02674 18.762 8.1251 18.8531C8.4202 19.1263 8.9823 19.7427 9.32658 19.8898C9.95191 20.163 10.6756 19.9108 10.9707 19.5396C11.3712 19.0352 11.4555 18.3907 11.1042 17.8513C10.9285 17.5781 10.2821 16.9897 10.0151 16.7235C9.26334 15.9879 8.5256 15.2524 7.78082 14.5098ZM5.75026 3.05621C6.98686 2.95113 7.9635 3.88983 8.06187 4.99666C8.17428 6.23659 7.23278 7.23134 6.11562 7.32941C4.86496 7.43449 3.87427 6.50279 3.78293 5.38195C3.68456 4.121 4.61904 3.14727 5.75026 3.05621Z" fill="white"/>
</svg>
