<svg width="200" height="200" viewBox="0 0 200 200" fill="none" xmlns="http://www.w3.org/2000/svg">
    <path d="M0 82.8017V78.1057C0.986299 74.1662 2.70841 70.6755 6.02216 68.1292C14.8484 61.3565 23.6729 54.5733 32.4957 47.7797C34.6196 46.1517 36.9523 46.3448 38.3717 48.1814C39.7911 50.0181 39.3528 52.2827 37.2341 53.9628C34.6248 56.0499 31.9843 58.0223 29.3541 60.0468C23.2119 64.7428 17.0489 69.4389 10.9432 74.2132C7.8643 76.6186 7.04499 80.1667 8.52705 83.8558C9.07835 85.3445 10.1344 86.5927 11.5113 87.3831C12.8882 88.1735 14.4988 88.4559 16.0626 88.1813C17.9085 87.8917 19.6534 87.1476 21.1402 86.0159C46.2099 66.8456 71.2431 47.6249 96.2398 28.3537C99.5535 25.8074 100.498 25.8074 103.775 28.3276L165.51 75.8098C170.155 79.3841 174.763 82.9948 179.454 86.5064C183.212 89.3188 187.892 88.7083 190.57 85.1915C193.247 81.6747 192.563 77.0413 188.91 74.1193C188.388 73.7123 187.866 73.3105 187.345 72.914L105.805 10.2322C101.547 6.96059 98.4263 6.98146 94.1785 10.2322C84.8947 17.391 75.6214 24.5238 66.2751 31.62C65.2526 32.383 64.0349 32.8407 62.763 32.9402C61.1453 33.0184 59.9398 31.8966 59.4702 30.3312C58.8752 28.3433 59.705 26.8405 61.3227 25.6352C69.975 19.0242 78.6117 12.4341 87.1857 5.73961C90.3846 3.24549 93.5992 0.876595 97.654 0H102.351C106.473 0.887031 109.724 3.32376 112.97 5.84397C122.311 13.0968 131.71 20.2765 141.088 27.4771C141.61 27.8893 142.168 28.2859 142.972 28.8859C142.972 20.7513 143.045 13.0237 142.93 5.30132C142.893 2.8959 143.593 1.12705 145.706 0H171.491C173.604 1.15314 174.277 2.91155 174.267 5.31175C174.183 20.5426 174.267 35.7734 174.189 51.0043C174.147 51.6334 174.276 52.2621 174.56 52.8247C174.845 53.3873 175.275 53.8633 175.806 54.2028C182.069 58.951 188.399 63.668 194.499 68.6406C197.134 70.8763 198.948 73.9269 199.654 77.3095C200.36 80.6921 199.917 84.2134 198.395 87.316C196.874 90.4186 194.361 92.9253 191.255 94.4391C188.148 95.953 184.626 96.3876 181.244 95.6741C178.849 95.1523 176.61 93.8896 174.298 92.9661V145.817C174.419 145.91 174.55 145.987 174.69 146.047C183.598 148.729 189.218 154.542 191.53 163.579C191.831 164.347 192.337 165.018 192.991 165.52C198.893 170.873 201.268 177.406 199.347 185.233C197.124 194.244 189.432 199.979 179.757 199.984C142.184 199.984 104.622 199.984 67.0735 199.984C51.3188 199.984 35.5694 200.02 19.8147 199.984C10.0456 199.932 2.33789 193.581 0.354859 184.043C0.262294 183.745 0.143547 183.455 0 183.177V177.709C0.126115 177.566 0.225148 177.402 0.292237 177.224C1.1174 172.429 3.69062 168.111 7.51466 165.103C8.04796 164.563 8.41092 163.879 8.55836 163.135C9.58646 159 11.713 155.219 14.7131 152.193C17.7132 149.167 21.4754 147.007 25.602 145.943V92.5643L24.1095 93.5609C16.6992 98.5857 3.13111 96.4307 0.407044 84.0905C0.313111 83.6523 0.135681 83.2296 0 82.8017ZM166.319 145.28C166.35 144.957 166.403 144.701 166.403 144.44C166.403 125.504 166.403 106.564 166.35 87.623C166.29 87.1713 166.141 86.736 165.911 86.342C165.682 85.948 165.377 85.6032 165.015 85.3272C143.9 69.0232 122.772 52.7383 101.631 36.4726C100.305 35.4291 99.5431 35.5908 98.3324 36.5352C77.2635 52.7905 56.1668 69.0093 35.0423 85.1915C34.5462 85.5311 34.1484 85.9954 33.8891 86.5377C33.6298 87.0801 33.5182 87.6812 33.5655 88.2805C33.6072 106.633 33.6159 124.986 33.5916 143.339V145.191C33.8068 145.323 34.0361 145.429 34.2752 145.51C39.544 146.217 44.421 148.678 48.1199 152.496C48.6616 152.92 49.3377 153.135 50.0247 153.102C56.2869 153.002 61.3958 155.319 65.6228 159.885C66.2998 160.511 67.1843 160.866 68.1068 160.881C89.3948 160.934 110.681 160.934 131.966 160.881C132.951 160.819 133.88 160.398 134.575 159.697C138.75 155.303 143.786 153.06 149.87 153.096C150.737 153.08 151.569 152.756 152.219 152.183C154.918 149.529 158.214 147.561 161.831 146.444C163.287 145.958 164.811 145.65 166.319 145.28ZM40.8244 192.162C47.9842 192.162 55.144 192.188 62.3038 192.162C64.1457 192.206 65.9442 191.6 67.3827 190.449C68.8212 189.298 69.8075 187.676 70.1681 185.87C70.5198 184.13 70.2536 182.321 69.4154 180.757C68.5771 179.192 67.2193 177.968 65.5758 177.297C63.3945 176.337 62.4447 174.902 62.4447 172.481C62.4422 170.784 62.0651 169.109 61.3404 167.575C60.6156 166.041 59.5611 164.686 58.2521 163.606C56.9431 162.526 55.4119 161.749 53.7678 161.33C52.1237 160.91 50.4072 160.858 48.7409 161.179C46.6013 161.581 45.0044 161.048 43.6111 159.306C39.3789 154.041 33.8368 151.938 27.3033 153.676C20.7697 155.413 16.9758 159.937 15.9165 166.626C15.8191 167.431 15.5445 168.204 15.1122 168.89C14.6799 169.575 14.1009 170.157 13.4168 170.592C8.64185 173.806 6.78406 178.893 8.34962 183.955C9.91517 189.016 14.4344 192.141 20.1174 192.157C27.0267 192.178 33.9203 192.162 40.8244 192.162ZM159.112 192.162C166.079 192.162 173.041 192.162 179.986 192.162C185.596 192.162 190.147 188.875 191.665 183.814C193.184 178.752 191.279 173.707 186.614 170.607C185.924 170.183 185.337 169.609 184.897 168.928C184.458 168.247 184.176 167.477 184.073 166.673C183.029 159.979 179.261 155.429 172.738 153.676C166.116 151.901 160.553 154.051 156.284 159.415C155.753 160.158 155.015 160.727 154.161 161.05C153.308 161.373 152.378 161.436 151.488 161.231C143.859 159.932 137.57 165.118 137.513 172.799C137.513 174.886 136.699 176.217 134.805 177.088C130.88 178.888 129.002 182.358 129.852 185.995C130.76 189.877 133.824 192.157 138.202 192.162C145.184 192.173 152.146 192.162 159.112 192.162ZM166.277 46.8196V7.96241H150.784C150.784 16.7023 150.784 25.2856 150.784 33.8741C150.777 34.4327 150.989 34.9719 151.373 35.3769C156.253 39.1702 161.158 42.901 166.277 46.8196ZM70.1838 168.786L69.6619 169.23C70.2315 170.052 70.8429 170.844 71.4936 171.604C72.6469 172.83 74.0507 173.848 75.0265 175.194C75.8354 176.3 76.6704 176.566 77.9332 176.561C92.5659 176.523 107.197 176.523 121.826 176.561C122.483 176.608 123.139 176.476 123.727 176.18C124.315 175.885 124.812 175.436 125.166 174.881C126.105 173.597 127.52 172.674 128.626 171.489C129.312 170.627 129.938 169.719 130.499 168.771L70.1838 168.786ZM121.529 184.44H78.4812C77.7819 187.075 77.1192 189.553 76.4564 192.053H123.548C122.87 189.522 122.218 187.044 121.529 184.45V184.44Z"
          fill="#005340"/>
    <path d="M49.2106 43.7306C48.4364 43.7293 47.6803 43.4972 47.0387 43.0641C46.3971 42.6309 45.8993 42.0164 45.6087 41.2989C45.3182 40.5815 45.2482 39.7937 45.4076 39.0363C45.5671 38.2789 45.9488 37.5862 46.5039 37.0467C47.0591 36.5072 47.7624 36.1455 48.5242 36.0077C49.286 35.87 50.0715 35.9624 50.7805 36.2732C51.4895 36.584 52.0896 37.0992 52.5044 37.7527C52.9191 38.4063 53.1295 39.1687 53.1088 39.9424C53.0712 40.954 52.6451 41.9122 51.9191 42.6178C51.193 43.3233 50.223 43.7219 49.2106 43.7306Z"
          fill="#005340"/>
    <path d="M100.049 89.0892C102.737 85.3637 105.925 82.5826 110.194 81.2625C121.315 77.8187 132.863 85.4367 134.799 97.3856C135.963 104.581 134.199 111.041 129.67 116.551C126.194 120.674 122.449 124.563 118.46 128.192C113.508 132.794 108.274 137.093 103.139 141.502C101.015 143.329 99.2404 143.532 97.3983 141.888C89.5705 135.006 81.7428 128.181 74.1394 121.069C69.9646 117.172 66.8805 112.423 65.4923 106.725C62.7317 95.3871 69.0148 83.8244 79.5823 81.1164C86.763 79.2797 92.9469 81.1633 97.9932 86.6368C98.6299 87.3517 99.23 88.1187 100.049 89.0892ZM100.164 134.056C106.979 127.863 113.654 121.962 120.12 115.836C122.071 113.989 123.637 111.662 125.077 109.355C126.142 107.672 126.855 105.792 127.176 103.827C127.497 101.862 127.419 99.8519 126.946 97.9178C125.829 92.9504 122.249 89.2249 117.474 88.437C112.412 87.6021 108.79 89.971 106.176 94.0618C105.25 95.6218 104.466 97.2616 103.833 98.9614C103.097 100.767 101.928 101.941 99.9136 101.904C97.9984 101.868 96.8869 100.715 96.1772 98.9875C95.5145 97.229 94.6991 95.5319 93.7401 93.9157C91.2405 90.0232 87.7388 87.7117 82.9482 88.3744C78.0063 89.0579 74.917 92.1104 73.4088 96.7699C71.4467 102.823 73.3671 108.061 77.1557 112.736C83.7206 120.835 92.1902 126.866 100.164 134.056Z"
          fill="#005340"/>
</svg>
