<svg width="80" height="76" viewBox="0 0 80 76" fill="none" xmlns="http://www.w3.org/2000/svg">
<path d="M5.04198 26.3606V26.3079C5.0419 21.1111 6.57579 16.0306 9.45011 11.7075C12.3244 7.38443 16.4104 4.01239 21.1925 2.01684C25.9747 0.0212878 31.2387 -0.508367 36.3205 0.494696C41.4023 1.49776 46.0742 3.9886 49.7467 7.65296C52.6363 6.2219 55.8639 5.62021 59.0729 5.91437C62.2819 6.20853 65.3474 7.38709 67.9307 9.31984C70.514 11.2526 72.5145 13.8643 73.7113 16.8664C74.908 19.8685 75.2544 23.1441 74.7122 26.3313C75.5094 26.4056 76.2829 26.6439 76.9842 27.0314C77.6855 27.419 78.2998 27.9474 78.7885 28.5837C79.2773 29.2201 79.6301 29.9507 79.8249 30.7299C80.0197 31.5092 80.0524 32.3204 79.9208 33.1128C77.2874 49.0084 70.7736 59.0696 60.3913 63.3022V67.2308C60.3913 69.5565 59.4705 71.787 57.8316 73.4316C56.1926 75.0761 53.9697 76 51.6519 76H28.3469C26.0291 76 23.8062 75.0761 22.1673 73.4316C20.5283 71.787 19.6076 69.5565 19.6076 67.2308V63.3022C9.22522 59.0696 2.71148 49.0084 0.0780173 33.1128C-0.0490779 32.3414 -0.0206589 31.5522 0.161592 30.792C0.343843 30.0318 0.676223 29.316 1.13906 28.687C1.6019 28.0579 2.18579 27.5284 2.85618 27.1299C3.52656 26.7313 4.26983 26.4717 5.04198 26.3664V26.3606ZM10.8682 26.3079H16.6945C16.6945 22.4317 18.229 18.7143 20.9606 15.9734C23.6922 13.2325 27.397 11.6926 31.2601 11.6926C35.1231 11.6926 38.8279 13.2325 41.5595 15.9734C44.2911 18.7143 45.8257 22.4317 45.8257 26.3079H51.6519C51.6519 20.8812 49.5035 15.6768 45.6793 11.8395C41.8551 8.00226 36.6683 5.84651 31.2601 5.84651C25.8518 5.84651 20.6651 8.00226 16.8409 11.8395C13.0166 15.6768 10.8682 20.8812 10.8682 26.3079ZM22.5207 26.3079H39.9994C39.9994 23.9822 39.0787 21.7517 37.4397 20.1072C35.8008 18.4627 33.5779 17.5388 31.2601 17.5388C28.9422 17.5388 26.7194 18.4627 25.0804 20.1072C23.4415 21.7517 22.5207 23.9822 22.5207 26.3079ZM62.5237 26.3079H68.7636C69.2034 24.5803 69.2444 22.7746 68.8835 21.0286C68.5225 19.2826 67.7691 17.6423 66.6807 16.2327C65.5923 14.8231 64.1975 13.6815 62.6028 12.8947C61.008 12.1079 59.2553 11.6968 57.4782 11.6926C56.0799 11.6926 54.7515 11.9382 53.5163 12.3883C54.5476 14.0486 55.3982 15.8375 56.0507 17.7141C57.1604 17.438 58.3265 17.4948 59.4043 17.8777C60.4821 18.2605 61.4241 18.9525 62.1134 19.8677C62.8028 20.783 63.2092 21.8812 63.2821 23.026C63.355 24.1709 63.0913 25.3121 62.5237 26.3079ZM54.565 64.3078H25.4338V67.2308C25.4338 68.0061 25.7407 68.7495 26.2871 69.2977C26.8334 69.8459 27.5743 70.1539 28.3469 70.1539H51.6519C52.4245 70.1539 53.1655 69.8459 53.7118 69.2977C54.2581 68.7495 54.565 68.0061 54.565 67.2308V64.3078ZM23.383 58.4616H56.6159C65.8563 55.4801 71.7058 47.05 74.1762 32.1541H5.82269C8.29302 47.05 14.1426 55.4801 23.383 58.4616Z" fill="#502F0A"/>
</svg>
