<svg width="377" height="513" viewBox="0 0 377 513" fill="none" xmlns="http://www.w3.org/2000/svg">
<path fill-rule="evenodd" clip-rule="evenodd" d="M170.024 388.039C163.969 388.039 139.955 370.403 135.021 363.036C139.987 360.407 141.989 360.28 145.752 355.768C149.51 351.265 149.615 349.045 152.021 344.034C174.5 349.272 164.377 350.035 193.025 350.035C208.582 350.035 212.522 346.716 224.03 344.034C231.429 359.454 226.195 348.827 233.031 359.036L170.024 388.039ZM369.713 512.056H366.517C363.562 511.398 360.929 508.606 360.998 501.107C361.047 495.755 361.047 490.407 361.047 485.055C361.047 449.666 365.623 424.114 345.8 404.29C339.236 397.726 335.25 395.075 325.431 391.657L277.672 375.406C273.196 373.88 270.132 372.909 265.656 371.415C262.892 370.494 255.842 367.711 253.636 367.43C250.245 366.994 244.952 370.657 241.888 371.901L187.351 397.372C170.174 405.329 155.893 409.851 151.081 425.112C148.752 432.493 150.019 476.694 150.019 488.056C150.019 498.678 152.507 512.06 142.016 512.06C137.177 512.06 134.013 508.896 134.013 504.057V435.049C134.013 419.688 143.278 400.645 153.015 398.044C151.412 395.856 146.519 393.472 143.605 391.452L126.25 376.804C124.816 375.247 120.649 369.041 119.01 369.041C113.781 369.041 97.7293 377.044 91.0064 377.044C86.7303 377.044 84.0066 373.063 84.0066 371.043C84.0066 362.668 88.6959 362.278 95.8818 359.913L127.426 349.449C132.569 347.72 137.018 344.192 137.018 338.037C137.018 336.249 133.445 334.805 132.093 333.965C121.548 327.41 115.896 320.942 108.265 312.784C93.9616 297.486 84.0112 268.72 84.0112 247.026C63.7835 247.026 49.3119 231.433 48.3041 212.817C47.3871 195.926 62.1811 178.581 81.0152 177.015C79.6352 160.459 86.0176 145.488 86.0176 129.01C80.3615 126.019 75.9764 121.715 72.1451 116.881C67.9416 111.584 65.6311 108.17 62.7077 101.315C44.2595 58.0365 86.7031 8.80648 139.024 20.9994C142.12 16.3737 152.003 9.39206 157.663 6.63663C170.791 0.245129 178.395 0.00453942 192.363 0H193.034C207.819 0 230.022 10.5224 237.04 21.0039C269.26 13.4957 301.835 31.0996 312.371 55.6896C319.943 73.3616 319.289 89.5946 311.059 106.027C308.908 110.326 307.873 112.101 304.822 115.792C301.586 119.705 301.154 120.998 297.014 123.985C291.712 127.812 292.584 128.366 293.714 135.316C295.939 148.975 298.045 164.477 298.045 178.027C305.517 179.766 313.279 184.655 317.07 190.007C335.545 216.099 318.472 244.838 292.044 247.035C292.044 270.032 282.148 296.678 267.299 313.302C258.983 322.612 259.759 322.222 248.615 330.62C242.814 334.991 239.041 335.667 239.041 339.045C239.041 342.295 242.7 346.762 245.043 348.046L321.21 373.894C329.308 376.904 334.841 378.288 342.073 382.033C359.1 390.853 376.064 413.369 376.064 435.053V505.065C376.064 507.925 375.569 508.701 374.094 510.095C373.367 510.78 371.67 511.697 369.727 512.065L369.713 512.056ZM100.013 192.013L140.441 184.432C174.995 179.589 200.72 180.215 235.033 184.01L276.038 191.01V250.018C276.038 263.808 271.83 274.481 267.626 284.613C265.86 288.866 262.365 294.277 259.764 297.754C237.239 327.86 200.638 342.467 163.651 331.4C127.68 320.642 100.008 287.531 99.9809 250.054C99.9672 230.712 100.017 211.36 100.017 192.013H100.013ZM292.039 231.02V193.016C301.014 193.216 309.039 201.745 309.039 211.02V213.021C309.039 222.295 301.009 230.825 292.039 231.025V231.02ZM64.006 212.018C64.006 200.883 72.3222 193.016 84.0066 193.016V231.02C72.3176 231.02 64.006 223.153 64.006 212.018ZM74.0063 79.9982C74.0063 50.61 102.981 31.4446 130.74 35.2668C155.239 38.6395 146.242 27.0096 168.871 18.8431C187.987 11.9432 205.191 14.912 221.047 26.9732C229.136 33.1242 228.079 37.9178 244.452 35.4166C285.117 29.2066 319.239 70.4654 292.915 105.882C283.21 118.937 277.036 113.372 277.036 132.006L250.317 126.722C245.256 125.887 228.029 120.653 228.029 132.006C228.029 141.575 239.014 140.286 251.284 142.756L280.037 149.006C280.037 169.965 290.541 179.121 270.645 174.405C250.903 169.724 226.145 166.061 203.993 166.043C197.833 166.038 196.226 165.003 190.048 164.963L109.214 174.209C87.502 179.412 99.014 170.514 99.014 148.008L125.438 142.429C143.841 139.106 164.745 137.009 184.024 137.009C193.747 137.009 209.027 139.478 209.027 130.009C209.027 119.273 196.38 121.007 188.023 121.007C171.935 121.007 157.427 122.405 143.015 124.008L102.01 131.008C102.01 111.983 74.0063 113.032 74.0063 80.0028V79.9982Z" fill="#67A65F"/>
<path fill-rule="evenodd" clip-rule="evenodd" d="M150.018 289.025C155.556 289.025 160.418 286.923 164.054 285.057C167.631 283.219 171.835 279.025 176.025 279.025C181.336 279.025 182.716 283.024 188.027 283.024C193.338 283.024 194.718 279.025 200.029 279.025C206.235 279.025 212.812 289.025 226.031 289.025C221.619 295.049 211.591 296.025 204.028 296.025C197.546 296.025 194.945 290.024 188.027 290.024C178.331 290.024 184.209 296.025 166.024 296.025C160.691 296.025 152.206 292.007 150.023 289.025H150.018ZM145.016 274.022C138.279 274.022 132.764 271.771 129.573 272.556C125.737 273.496 122.015 277.953 122.015 282.021C122.015 286.733 126.568 290.069 129.264 292.774C161.399 325.041 185.703 307.024 188.027 307.024C189.911 307.024 215.086 324.773 246.29 293.278C249.073 290.468 254.035 286.828 254.035 282.021C254.035 277.953 250.312 273.496 246.476 272.556C243.281 271.771 237.77 274.022 231.033 274.022C214.024 274.022 211.441 258.965 193.987 263.981C183.955 266.863 192.094 266.863 182.062 263.981C164.608 258.965 162.025 274.022 145.016 274.022Z" fill="#67A65F"/>
<path fill-rule="evenodd" clip-rule="evenodd" d="M0 435.044V505.056C0 509.196 2.85076 511.547 6.0692 512.056H8.74746C11.4575 511.629 13.9496 509.899 14.7667 506.822C16.3419 500.893 12.606 440.564 17.0864 426.134C20.7542 414.331 27.1003 405.184 36.5787 398.62C42.1077 394.789 45.6121 393.327 52.1216 391.162C58.0773 389.183 66.0077 388.352 66.0077 381.043C66.0077 362.3 30.1554 382.392 19.2517 393.295C13.7272 398.82 10.2409 403.069 6.50045 410.545C3.54529 416.451 0 426.769 0 435.049L0 435.044Z" fill="#67A65F"/>
<path fill-rule="evenodd" clip-rule="evenodd" d="M67.0107 460.048V504.053C67.0107 508.379 70.0204 511.307 73.4295 512.056H76.834C80.1433 511.298 83.0122 508.211 83.0122 502.055V462.049C83.0122 447.514 67.0107 450.079 67.0107 460.048Z" fill="#67A65F"/>
<path fill-rule="evenodd" clip-rule="evenodd" d="M293.038 462.049V502.055C293.038 508.211 295.907 511.298 299.216 512.056H302.621C306.03 511.307 309.04 508.379 309.04 504.053V460.048C309.04 450.079 293.038 447.514 293.038 462.049Z" fill="#67A65F"/>
<path fill-rule="evenodd" clip-rule="evenodd" d="M114.016 205.014C114.016 210.398 118.233 213.852 122.541 213.389C130.449 212.54 126.967 210.012 143.019 210.012C149.183 210.012 146.963 212.014 156.02 212.014C163.06 212.014 169.665 194.01 141.017 194.01C132.02 194.01 114.012 197.074 114.012 205.014H114.016Z" fill="#67A65F"/>
<path fill-rule="evenodd" clip-rule="evenodd" d="M214.029 203.012C214.029 217.411 224.951 210.012 238.034 210.012C244.452 210.012 262.038 218.859 262.038 206.012C262.038 199.471 257.258 198.541 252.188 196.861C236.835 191.772 214.034 194.378 214.034 203.012H214.029Z" fill="#67A65F"/>
<path fill-rule="evenodd" clip-rule="evenodd" d="M130.018 231.016C130.018 237.848 128.097 254.017 138.021 254.017C148.584 254.017 146.024 239.654 146.024 230.012C146.024 218.986 130.022 219.286 130.022 231.011L130.018 231.016Z" fill="#67A65F"/>
<path fill-rule="evenodd" clip-rule="evenodd" d="M230.031 230.017C230.031 239.659 227.466 254.021 238.034 254.021C249.36 254.021 248.951 222.019 239.032 222.019C233.671 222.019 230.031 224.375 230.031 230.022V230.017Z" fill="#67A65F"/>
<path fill-rule="evenodd" clip-rule="evenodd" d="M168.022 455.05C168.022 459.87 167.613 467.052 176.025 467.052C187.864 467.052 185.862 446.048 176.025 446.048C171.336 446.048 168.022 450.202 168.022 455.05Z" fill="#67A65F"/>
<path fill-rule="evenodd" clip-rule="evenodd" d="M198.028 455.05C198.028 459.87 197.619 467.052 206.031 467.052C217.869 467.052 215.868 446.048 206.031 446.048C201.341 446.048 198.028 450.202 198.028 455.05Z" fill="#67A65F"/>
<path fill-rule="evenodd" clip-rule="evenodd" d="M168.022 500.053C168.022 504.874 167.613 512.056 176.025 512.056C187.864 512.056 185.862 491.052 176.025 491.052C171.336 491.052 168.022 495.205 168.022 500.053Z" fill="#67A65F"/>
<path fill-rule="evenodd" clip-rule="evenodd" d="M198.028 500.053C198.028 504.874 197.619 512.056 206.031 512.056C217.869 512.056 215.868 491.052 206.031 491.052C201.341 491.052 198.028 495.205 198.028 500.053Z" fill="#67A65F"/>
</svg>
