<svg width="100" height="100" viewBox="0 0 100 100" fill="none" xmlns="http://www.w3.org/2000/svg">
    <path d="M70.8359 16.666C73.0461 16.666 75.1657 17.544 76.7285 19.1068C78.2913 20.6696 79.1693 22.7892 79.1693 24.9993V33.4785C82.8239 33.9992 86.145 35.8865 88.4628 38.7597C90.7805 41.6329 91.9224 45.2782 91.6581 48.9603C91.3938 52.6423 89.7429 56.0871 87.0385 58.5998C84.3341 61.1124 80.7774 62.506 77.0859 62.4993H73.8026C70.5127 67.7599 65.9049 72.069 60.4359 74.9993H70.8359C71.941 74.9993 73.0008 75.4383 73.7822 76.2197C74.5636 77.0011 75.0026 78.0609 75.0026 79.166C75.0026 80.2711 74.5636 81.3309 73.7822 82.1123C73.0008 82.8937 71.941 83.3327 70.8359 83.3327H16.6693C15.5642 83.3327 14.5044 82.8937 13.723 82.1123C12.9416 81.3309 12.5026 80.2711 12.5026 79.166C12.5026 78.0609 12.9416 77.0011 13.723 76.2197C14.5044 75.4383 15.5642 74.9993 16.6693 74.9993H27.0693C21.4082 71.9767 16.6749 67.4726 13.3753 61.9684C10.0757 56.4642 8.33387 50.1668 8.33594 43.7493V24.9993C8.33594 22.7892 9.21391 20.6696 10.7767 19.1068C12.3395 17.544 14.4591 16.666 16.6693 16.666H70.8359ZM70.8359 24.9993H16.6693V43.7493L16.6859 44.7202C16.9321 51.7343 19.8916 58.379 24.9407 63.254C29.9898 68.129 36.7341 70.8535 43.7526 70.8535C50.7711 70.8535 57.5154 68.129 62.5645 63.254C67.6136 58.379 70.5731 51.7343 70.8193 44.7202L70.8359 43.7493V24.9993ZM79.1693 42.0202V43.7493C79.1693 47.366 78.6276 50.8577 77.6193 54.1452C78.9932 54.0286 80.29 53.461 81.3077 52.5306C82.3254 51.6003 83.007 50.3596 83.2461 49.0016C83.4853 47.6437 83.2687 46.2447 82.63 45.0227C81.9914 43.8007 80.9665 42.8241 79.7151 42.2452L79.1693 42.0202Z"
          fill="#502F0A"/>
</svg>
