<svg width="78" height="100" viewBox="0 0 78 100" fill="none" xmlns="http://www.w3.org/2000/svg">
<path fill-rule="evenodd" clip-rule="evenodd" d="M45.7611 0.734401C42.8913 1.97912 40.2579 5.46183 38.9152 9.78765C38.2417 11.9583 37.691 14.1075 37.691 14.5645C37.691 16.3884 36.6811 15.1347 34.3985 10.477C31.1438 3.83576 28.8055 1.98925 23.6495 1.98925C20.3576 1.98925 19.5255 2.24069 16.8832 4.03597C13.0184 6.66066 10.7508 10.0838 10.7586 13.2805C10.767 16.6875 13.1292 21.3274 16.2085 23.983L17.2115 24.8482C17.641 25.2186 17.2934 25.9175 16.7389 25.7986C6.66276 23.6404 -0.00717777 28.0425 5.79683e-06 36.8461C0.00838662 46.0471 5.89472 50.6476 14.973 48.5466C17.0963 48.0551 19.3633 47.4497 20.0104 47.2012C20.8306 46.8866 20.3522 47.8227 18.4336 50.2883C16.9191 52.2349 15.4153 54.3639 15.0909 55.0193C14.0139 57.1989 13.6871 60.6339 14.3312 63.0143C15.6578 67.9169 23.7201 72.6515 29.0486 71.6564C31.4664 71.2048 34.8894 68.5223 36.5913 65.7445L36.7447 65.4942C37.0132 65.056 37.6881 65.246 37.6886 65.76C37.6982 73.4678 35.0438 84.5612 31.3886 92.0903C29.2048 96.5895 28.8079 97.8801 29.3191 98.8305C29.998 100.092 32.262 100.389 34.031 99.446C34.6092 99.1379 35.5832 97.7788 36.1968 96.4256C37.1001 94.432 37.5461 94.0274 38.5488 94.2949C39.2295 94.4766 42.0041 94.9372 44.7153 95.3186C56.6628 97.0006 67.2939 92.309 73.6711 82.5395C76.7792 77.7781 78.1542 73.5482 77.2419 71.5552C76.8228 70.6399 75.8872 70.0736 74.882 70.1268L69.8404 70.3932C60.5868 70.8818 50.5633 73.9272 44.8279 77.9926C43.8275 78.7011 42.8895 79.1611 42.7422 79.0145C42.595 78.8679 42.7452 77.3271 43.0757 75.5908C43.4067 73.8545 43.6773 70.8616 43.6773 68.9406C43.6773 67.019 43.9 65.4466 44.1718 65.4466C44.4435 65.4466 45.2924 66.1103 46.0574 66.9213C46.8231 67.7322 48.6136 68.8381 50.0371 69.3791C53.2476 70.6 56.9004 69.8623 60.77 67.2126C67.9254 62.3118 67.8482 53.5601 60.597 47.6106C59.914 47.0503 60.3629 45.9439 61.2432 46.018L62.9771 46.1639C66.6072 46.4689 68.1703 46.3331 70.2852 45.5293C75.1048 43.6971 77.6825 38.9297 76.9941 33.1227C76.0003 24.7445 69.7518 21.0193 60.6521 23.3794C58.6287 23.9038 56.8041 24.3334 56.5969 24.3334C56.3904 24.3334 57.3428 22.9254 58.7149 21.2052C60.087 19.485 61.5746 17.2142 62.0211 16.1596C63.0759 13.6702 63.0598 9.21325 61.9888 7.17308C59.1094 1.68715 50.9914 -1.53397 45.7611 0.734401ZM55.6325 9.16082C57.0603 10.5706 57.0812 10.7046 56.2312 13.0046C55.7469 14.3155 53.4769 17.6462 51.1871 20.4062L48.7533 23.3396C47.7406 24.5602 46.0199 24.921 44.6022 24.21C43.2702 23.5421 42.128 22.9534 42.064 22.9028C41.9993 22.8515 42.7303 19.9033 43.6881 16.3503C45.5767 9.34197 46.6255 7.25948 48.6507 6.49382C50.2832 5.87653 53.5834 7.13733 55.6325 9.16082ZM26.8558 9.67146C27.9153 10.794 32.9019 21.9268 32.9019 23.1697C32.9019 23.4039 31.9555 24.3143 30.7989 25.1926C29.581 26.1173 27.8763 26.0402 26.7468 25.0093L23.3466 21.9059C17.422 16.4974 16.2648 14.4614 17.6267 11.8409C18.6114 9.94554 22.8228 7.6307 24.4948 8.06626C25.1114 8.22654 26.1733 8.9493 26.8558 9.67146ZM42.3501 30.0302C45.2906 32.0799 46.2604 36.23 44.4938 39.2056C42.5261 42.5221 38.6835 43.6542 35.303 41.9143C32.8115 40.6321 31.7047 38.7385 31.7047 35.7599C31.7047 33.5886 32.0453 32.8128 33.74 31.126C35.4347 29.4391 36.2142 29.1001 38.3956 29.1001C39.8371 29.1001 41.6168 29.5184 42.3501 30.0302ZM69.4184 30.2918C70.3169 31.1862 70.6157 32.2777 70.6157 34.6683C70.6157 40.3455 68.4516 41.0492 57.2961 39.0001L54.2009 38.4313C52.6127 38.1395 51.4595 36.755 51.4595 35.1402C51.4595 33.4956 52.5628 32.0555 54.1508 31.6275L57.2961 30.7798C64.6042 28.8099 67.8003 28.6812 69.4184 30.2918ZM19.1334 32.5983L22.0465 33.1251C23.6942 33.4231 24.9531 34.7635 25.1473 36.4266C25.4041 38.6306 25.2766 39.2837 24.5486 39.4964C12.2163 43.0977 9.58947 43.4343 7.79298 41.6462C5.27873 39.1437 5.63671 33.6428 8.40538 32.2372C10.2851 31.2827 12.2133 31.3476 19.1334 32.5983ZM53.5661 49.7538C60.6922 56.2449 61.4877 59.1175 57.0004 62.1527C52.4843 65.207 50.3059 63.8503 46.8967 55.8582C43.3456 47.5343 43.4342 48.3745 45.9299 46.6864C47.1488 45.8624 48.2377 45.1879 48.3496 45.1879C48.4621 45.1879 50.8094 47.2424 53.5661 49.7538ZM32.7523 47.5993C33.822 48.0551 34.696 48.8386 34.6942 49.3403C34.6918 49.842 33.9136 53.019 32.9648 56.3999C30.4547 65.3429 28.3655 67.0035 23.237 64.1345C20.7629 62.751 19.9524 61.0689 20.5731 58.6075C20.9898 56.9546 29.7651 46.1788 30.4009 46.5393C30.6241 46.6662 31.6825 47.1428 32.7523 47.5993ZM69.4184 77.274C69.4184 78.1815 66.087 82.3804 63.7464 84.4236C62.4887 85.5205 60.2204 86.9511 58.7047 87.6018C55.5212 88.9693 48.7423 89.6372 44.5076 89.0002C43.3474 88.8256 42.9185 87.3763 43.7968 86.5984L44.1305 86.3029C47.5732 83.2545 55.0004 79.4924 60.4527 78.0355C65.155 76.7795 69.4184 76.4172 69.4184 77.274Z" fill="white"/>
</svg>
