<svg width="57" height="85" viewBox="0 0 57 85" fill="none" xmlns="http://www.w3.org/2000/svg">
<path d="M28.7026 0L43.6385 23.1465H30.0562V84.0852C30.0562 84.5903 29.6771 84.9999 29.2105 84.9999H28.4296C27.9625 84.9999 27.5829 84.5903 27.5829 84.0852V23.1465H13.7663L28.7026 0V0ZM32.9639 77.3604V84.1803C45.5285 78.8921 57 70.769 57 57.2983C57 56.4342 56.9598 55.5441 56.8743 54.641L32.9639 77.3609V77.3604ZM32.9639 61.8404V73.3674L56.368 51.1315C55.8144 48.2257 54.9068 45.1818 53.7021 42.1319L32.9639 61.8399V61.8404ZM32.9639 46.3144V57.8479L52.4984 39.292C51.3198 36.6932 49.9446 34.1209 48.4046 31.6465L32.9634 46.3144H32.9639ZM32.9639 26.5534V42.3224L46.7986 29.1782C46.1927 28.2871 45.5617 27.4105 44.9101 26.5529H32.9639V26.5534ZM24.0356 77.3604V84.1803C11.472 78.8921 0 70.769 0 57.2983C0 56.4342 0.0392188 55.5441 0.124696 54.641L24.0351 77.3609L24.0356 77.3604ZM24.0356 61.8404V73.3674L0.632026 51.1315C1.18461 48.2257 2.09318 45.1818 3.2974 42.1319L24.0351 61.8399L24.0356 61.8404ZM24.0356 46.3144V57.8479L4.50212 39.292C5.67969 36.6932 7.05586 34.1209 8.59545 31.6465L24.0356 46.3144ZM24.0356 26.5534V42.3224L10.2009 29.1782C10.8068 28.2871 11.4388 27.4105 12.0905 26.5529H24.0356V26.5534Z" fill="#131F12"/>
</svg>
