<svg width="218" height="190" viewBox="0 0 218 190" fill="none" xmlns="http://www.w3.org/2000/svg">
<path fill-rule="evenodd" clip-rule="evenodd" d="M77.0288 141.713V118.307C78.8204 118.158 101.808 108.649 105.481 107.181C109.395 105.617 112.355 103.838 116.607 103.838C125.91 103.838 133.29 119.383 118.433 125.24L77.0288 141.714V141.713ZM77.0288 111.498V89.7935L140.864 64.259V156.183C138.726 156.681 135.182 158.371 132.901 159.285L77.0288 181.717V148.948C84.1126 145.549 121.173 131.817 124.361 129.891C141.148 119.756 132.181 97.0283 116.181 97.0283C112.7 97.0283 108.555 98.7985 105.844 99.8851C102.48 101.234 99.2902 102.508 96.1182 103.776L77.0278 111.498H77.0288ZM27.6628 94.9C27.6628 88.9814 31.9816 84.2605 38.7276 84.2605C43.0934 84.2605 65.4783 89.8241 70.2205 90.219V112.349C67.4505 111.019 37.7227 106.507 33.461 104.423C30.3022 102.879 27.6638 99.4188 27.6638 94.9H27.6628ZM77.0288 82.5587V33.6181L132.718 11.4271C135.12 10.467 138.62 9.27125 140.864 8.08365V57.0243C138.662 58.1894 135.6 59.2158 133.022 60.2463C130.207 61.3727 127.786 62.3399 125.118 63.4071L77.0278 82.5577L77.0288 82.5587ZM178.316 27.6597C182.414 27.6597 184.111 27.576 187.378 30.9389C193.468 37.2054 188.638 44.0821 185.369 49.6089C184.266 51.474 183.507 52.8585 182.386 54.7113C181.399 56.3417 180.476 58.62 179.167 59.578L172.28 47.3133C171.39 45.8441 170.483 44.5126 169.796 42.9873C166.166 34.9353 172.341 27.6587 178.316 27.6587V27.6597ZM162.144 37.0228C162.144 44.4463 163.192 44.8156 166.804 51.0883C168.873 54.6817 170.831 58.0139 172.784 61.7053C164.569 59.7913 155.89 58.5128 147.675 56.5988V7.23274L211.51 19.9995V168.524L147.698 155.635L147.674 63.4071L178.866 69.7134C182.137 70.0236 183.83 65.6711 185.975 61.7053C191.245 51.9606 197.966 44.8381 196.555 35.3811C194.55 21.938 177.733 15.8622 167.342 25.6242C165.032 27.7944 162.142 32.6672 162.142 37.0228H162.144ZM36.6004 20.8514C34.1517 20.8514 31.3888 26.2895 37.1105 27.575L70.2205 34.0436V83.4096C65.213 82.9923 43.3995 77.4512 38.3022 77.4512C31.348 77.4512 26.2844 81.4027 23.149 86.5551C18.9598 93.4389 20.9197 103.915 28.8687 109.44C33.3488 112.554 55.0592 115.997 62.1695 117.42C63.4306 117.672 63.9744 117.783 65.3609 118.058C70.8633 119.151 70.2889 118.343 70.2572 121.674L70.2205 142.564L52.3698 139.041C53.5043 137.431 55.751 136.496 55.751 134.053C55.751 132.232 54.4389 130.648 52.7717 130.648C49.9813 130.648 47.5734 134.817 45.537 136.181C43.8443 135.048 40.7692 130.648 38.7276 130.648C34.6751 130.648 32.8641 135.511 40.8549 140.862C38.2512 144.75 35.323 144.168 35.323 148.948C35.323 150.151 37.0983 151.502 38.3022 151.502C41.0926 151.502 43.5005 147.333 45.537 145.969C47.2296 147.102 50.3047 151.502 52.3463 151.502C55.1051 151.502 56.5457 148.938 55.3255 146.395C57.7497 146.961 60.0851 147.39 62.7378 147.921C65.1355 148.4 68.0351 149.193 70.2205 149.375V182.569L6.40836 169.68L6.38387 21.2768C7.91224 22.0104 22.1012 24.6815 25.109 24.6815C26.8098 24.6815 30.8929 19.4924 23.3092 17.9691C20.8983 17.4845 18.7884 17.0764 16.5621 16.6305L2.97921 14.0421C1.77528 14.0421 0 15.3929 0 16.5958V173.207C0 175.793 5.05139 176.218 7.55413 176.718L63.9427 187.996C77.0819 190.624 71.5958 190.956 89.9782 183.604L139.224 163.906C140.624 163.347 141.728 162.837 143.172 162.288C145.052 161.573 145.848 162.06 147.778 162.46L214.915 175.762C216.119 175.762 217.894 174.411 217.894 173.208V16.5968C217.894 14.0115 212.843 13.586 210.34 13.0861C203.555 11.7301 146.463 0 144.27 0C142.407 0 95.9284 18.9955 92.9574 20.1841L73.818 27.8229C72.3835 28.1096 48.2999 22.9807 44.2239 22.1655C41.9966 21.7196 38.9399 20.8534 36.5993 20.8534L36.6004 20.8514Z" fill="white"/>
<path fill-rule="evenodd" clip-rule="evenodd" d="M164.697 105.966L169.643 119.745C170.108 121.117 170.595 123.254 171.08 124.266C167.332 124.182 162.912 122.221 159.164 122.137L163.366 110.167C163.931 108.612 164.541 107.831 164.696 105.966H164.697ZM151.504 124.691C151.504 128.155 159.536 129.155 162.143 129.372C162.143 139.789 160.721 143.842 165.973 143.842C169.754 143.842 168.527 135.262 168.527 130.648C170.813 131.181 179.167 134.08 179.167 128.947C179.167 126.911 172.893 107.814 171.767 104.428C171.188 102.689 170.795 101.038 170.286 99.5249C169.28 96.5314 168.578 91.4963 165.548 91.4963C162.164 91.4963 161.664 95.3458 160.711 98.1506C159.438 101.898 151.504 122.846 151.504 124.691Z" fill="white"/>
<path fill-rule="evenodd" clip-rule="evenodd" d="M193.21 84.2617L194.753 88.6774C195.358 90.4721 195.684 91.8229 196.24 93.5737C197.139 96.405 198.468 99.98 199.169 102.987C196.446 102.987 190.303 101.47 187.679 100.859C187.921 97.9558 192.237 88.4438 193.211 84.2617H193.21ZM179.591 103.412C179.591 107.127 188.067 108.045 190.231 108.093C190.231 112.037 189.5 120.508 191.182 122.037C192.142 122.911 196.681 124.991 196.632 117.9C196.613 115.057 196.614 112.215 196.614 109.371C197.09 109.599 207.253 113.172 207.253 108.094C207.253 105.392 202.971 92.431 201.668 88.5703C200.681 85.6492 199.624 82.2691 198.688 79.2093C196.579 72.3193 197.192 70.644 192.785 70.644C190.428 70.644 189.286 75.9883 188.583 77.9329C187.568 80.7417 186.511 83.5271 185.496 86.3359L179.591 103.413V103.412Z" fill="white"/>
<path fill-rule="evenodd" clip-rule="evenodd" d="M177.464 38.7245C177.464 37.5747 177.667 37.5512 177.889 36.5972C182.713 35.4729 181.985 40.0019 179.166 40.0019C178.343 40.0019 177.464 39.2428 177.464 38.7255V38.7245ZM179.166 46.8102C186.415 46.8102 190.878 38.751 186.061 32.6794C181.436 26.8505 170.556 30.1746 170.804 38.2491C170.94 42.6363 174.37 46.8102 179.165 46.8102H179.166Z" fill="white"/>
</svg>
