<svg width="45" height="71" viewBox="0 0 45 71" fill="none" xmlns="http://www.w3.org/2000/svg">
    <path d="M6.42857 71C4.66071 71 3.14786 70.3685 1.89 69.1056C0.629999 67.8405 0 66.3205 0 64.5455V6.45455C0 4.67955 0.629999 3.1595 1.89 1.89441C3.14786 0.63147 4.66071 0 6.42857 0H38.5714C40.3393 0 41.8532 0.63147 43.1132 1.89441C44.3711 3.1595 45 4.67955 45 6.45455V64.5455C45 66.3205 44.3711 67.8405 43.1132 69.1056C41.8532 70.3685 40.3393 71 38.5714 71H6.42857ZM6.42857 54.8636V64.5455H38.5714V54.8636H6.42857ZM22.5 62.9318C23.4107 62.9318 24.1746 62.622 24.7918 62.0024C25.4068 61.3849 25.7143 60.6189 25.7143 59.7045C25.7143 58.7902 25.4068 58.0242 24.7918 57.4067C24.1746 56.7871 23.4107 56.4773 22.5 56.4773C21.5893 56.4773 20.8264 56.7871 20.2114 57.4067C19.5943 58.0242 19.2857 58.7902 19.2857 59.7045C19.2857 60.6189 19.5943 61.3849 20.2114 62.0024C20.8264 62.622 21.5893 62.9318 22.5 62.9318ZM6.42857 48.4091H38.5714V16.1364H6.42857V48.4091ZM6.42857 9.68182H38.5714V6.45455H6.42857V9.68182Z"
          fill="#502F0A"/>
</svg>
