<svg width="69" height="69" viewBox="0 0 69 69" fill="none" xmlns="http://www.w3.org/2000/svg">
<path fill-rule="evenodd" clip-rule="evenodd" d="M0 19.541C0 24.3565 0.793001 26.5705 2.40714 30.611C2.81515 31.6317 3.76164 33.9378 4.28732 34.796L10.0315 44.0114L13.3748 48.2143C14.9672 49.9257 16.8385 52.1486 18.5664 53.6694L23.4306 57.834C29.8833 62.8797 40.7001 68.9999 48.5176 68.9999C50.8058 68.9999 52.3035 68.8311 54.2067 67.5456C55.3425 66.7795 56.4962 65.6936 57.3339 64.609L59.5313 62.3592C60.2693 61.6493 60.859 61.3577 61.6507 60.0313C63.7739 56.4782 60.9536 53.8101 58.3226 51.3761L53.2001 46.3917C52.5747 45.7663 52.1909 45.302 51.4312 44.7916C47.4381 42.1134 44.5666 46.1986 41.6786 49.0866C39.4633 51.3019 39.8828 51.6319 37.2851 50.3132C36.8822 50.1086 36.7991 50.0242 36.432 49.8182C32.7573 47.7654 27.9622 44.0421 25.4924 40.9469L20.7344 35.1925C20.3584 34.686 19.9708 34.1053 19.6766 33.5553C16.9178 28.4123 16.9331 30.5471 23.217 24.0227C25.4336 21.7204 25.7418 18.9002 23.4178 16.6069C21.7717 14.9825 16.6888 9.53638 15.3241 8.39292C13.4235 6.8018 11.4844 5.86043 9.03253 7.2776C7.81489 7.98235 5.22613 10.7399 4.27837 11.6877C3.7514 12.2147 3.32421 12.6444 2.79597 13.1701C2.29331 13.6702 1.75739 14.2522 1.36984 14.8431C0.630563 15.9699 0 17.7043 0 19.5371L0 19.541ZM34.0952 19.1368C35.8385 19.2813 38.3582 20.192 39.9353 20.9773C41.0058 21.5107 42.4498 22.4521 43.3541 23.2182C46.1974 25.6266 48.3909 28.97 49.3259 32.6101C49.4577 33.1256 49.5152 33.7881 49.7275 34.2294C50.367 34.1757 54.6429 33.4492 54.9831 33.2855C54.9831 31.0177 53.0389 26.8404 51.8917 24.9219C50.5077 22.6081 48.6097 20.4926 46.5351 18.8234C45.9621 18.3617 45.5656 18.0087 44.9312 17.5968L42.3066 16.0428C40.0465 14.8687 38.1651 14.4184 35.8065 13.9081C34.5672 13.6408 34.9087 13.472 34.4751 16.5506C34.3689 17.3027 34.1579 18.3719 34.0939 19.1342L34.0952 19.1368ZM63.6089 33.2867C64.3827 33.2867 65.5453 33.0079 66.3038 32.8826C67.1339 32.7444 68.1226 32.4784 68.9987 32.4784L68.326 29.1081C67.7862 27.0604 67.0201 24.9347 66.1708 23.043C65.727 22.0556 65.3484 21.1513 64.7945 20.2406C64.5195 19.7878 64.3571 19.4169 64.0706 18.9424C63.77 18.4461 63.5999 18.1801 63.284 17.7081C62.688 16.8154 62.2147 16.053 61.5688 15.246C57.6166 10.3127 54.2553 7.21877 48.2004 3.95212C47.6888 3.67584 47.3831 3.54538 46.819 3.31132C46.2741 3.08621 45.9812 2.89947 45.4338 2.67436C44.495 2.28937 43.4552 1.89159 42.4012 1.52963L39.1359 0.616397C38.5475 0.48082 37.9732 0.373381 37.445 0.285127C36.7914 0.17641 36.2414 -0.00265503 35.5763 -0.00265503L34.8434 5.05464C34.869 5.51126 34.6273 5.32068 36.1711 5.60207C41.676 6.60483 46.6796 8.78174 51.0552 12.2799C51.4542 12.5984 51.8136 12.8043 52.1871 13.1688C52.5862 13.5589 52.819 13.6932 53.1975 14.045C53.5659 14.3865 53.846 14.6973 54.2067 15.058C57.6524 18.5037 59.2397 21.1833 61.3629 25.5563C62.0395 26.9504 63.5756 31.8606 63.6063 33.2855L63.6089 33.2867Z" fill="#FA5F29"/>
</svg>
