<svg width="225" height="168" viewBox="0 0 225 168" fill="none" xmlns="http://www.w3.org/2000/svg">
<g clip-path="url(#clip0_38_399)">
<path fill-rule="evenodd" clip-rule="evenodd" d="M21.8843 37.0696L20.8533 37.7913C18.7345 39.0908 16.7351 40.4187 15.0218 42.1255C14.6163 42.529 13.8714 43.0177 13.3635 43.4667C12.0577 44.6184 11.6503 45.3591 10.5416 46.418C10.2421 46.704 10.1417 46.884 9.94649 47.2212C9.42721 48.1172 9.63189 47.8103 9.16757 48.0452C7.74806 48.7972 4.42389 55.3061 3.44597 57.4921C2.94943 58.6021 2.32591 60.1649 2.02078 61.2542C1.63037 62.6503 1.31956 63.7774 0.982214 65.2057C0.0895768 68.9848 -0.749995 75.6319 1.13952 78.6192C5.94384 86.2154 17.6353 83.9309 17.55 72.9856C17.533 70.8753 18.1281 68.3199 18.725 66.3783C18.9468 65.6603 19.3069 65.1223 19.3182 64.4101C20.2943 61.4209 22.6064 58.5605 24.1017 56.7836C25.1175 55.5788 26.177 55.0105 27.4221 53.9062C27.9603 53.4288 30.3369 51.8433 31.1291 51.6273C31.9554 51.4568 32.8329 50.9397 33.5512 50.6669C44.9356 46.3233 52.6756 50.9435 54.2884 51.0249C55.9562 51.6482 57.6922 52.6787 58.9638 53.5368C62.0966 55.6565 63.935 57.763 66.1561 60.7465C66.8536 61.6823 68.1669 64.2566 68.491 65.6073C68.5422 67.7763 71.656 74.3211 66.2983 81.6028C65.9268 82.1067 65.2256 82.8208 65.0417 83.3683C64.0202 85.0845 62.3695 86.4238 60.8325 87.7138C59.7807 88.5965 60.3701 88.4412 58.6113 89.879C57.7471 90.5855 57.0592 91.1595 56.2556 91.9191L47.5036 100.927C45.652 101.908 39.4471 111.027 38.1868 113.565C36.61 116.744 34.8797 121.144 34.7281 124.874C34.6011 127.989 34.4457 128.436 35.7193 130.866C37.7073 134.658 42.9324 136.24 45.9173 134.852C46.6204 134.3 47.4316 134.433 49.2358 132.794C49.5618 132.499 50.1512 131.866 50.4374 131.413C50.7956 130.845 51.1367 130.091 51.4968 129.614C52.7628 127.369 50.9358 124.814 56.4584 117.464C71.5555 97.3766 92.8746 91.1235 85.0361 62.817C83.7019 58.0016 82.0852 55.0693 79.6575 51.0325C78.6625 49.3788 73.0717 42.3528 71.4608 41.8451C70.9282 41.5477 71.0647 41.6027 70.5757 41.1651L68.2522 39.4697C67.8713 39.1799 68.1518 39.428 67.8694 39.0719C67.2174 37.8614 60.0612 34.6184 58.2096 33.9592C55.5544 33.012 52.1355 32.0686 49.2661 31.7239C43.446 31.0249 37.8002 31.237 32.3724 32.7279C30.3919 33.2715 23.0196 35.6868 21.8919 37.0772L21.8843 37.0696ZM68.4929 151.048C100.656 151.603 134.275 151.749 166.344 150.286C174.703 149.906 193.386 149.246 200.728 145.945C211.148 141.262 218.168 129.915 209.183 119.968C199.17 108.883 178.562 105.38 164.411 102.717C156.688 101.262 136.62 97.0792 140.351 85.4615C144.792 71.633 188.199 57.6986 202.057 56.2172C204.253 55.9823 203.679 56.0145 205.66 56.31C203.478 57.1871 204.831 56.6965 202.309 57.4561C190.094 61.131 150.995 75.3345 145.97 86.581C143.241 92.692 162.212 95.5922 165.546 96.1036C180.865 98.4545 197.3 100.769 210.223 110.031C229.162 123.603 223.592 145.31 204.676 154.386C195.695 158.695 177.116 159.747 166.922 160.44C134.683 162.633 100.776 163.168 68.3924 163.213C65.0323 163.185 62.3297 160.44 62.3581 157.079C62.3866 153.721 65.1327 151.019 68.4948 151.048H68.4929ZM204.511 0H206.7C209.545 0.168593 212.376 1.00209 215.344 2.5592C220.575 5.30215 225 11.5571 225 18.4221C225 24.7472 219.248 35.2113 216.18 40.1403L212.774 45.611C211.647 47.439 209.698 50.2047 208.48 51.9759C208.218 52.3566 205.648 55.7399 205.538 56.1433H205.313C205.218 55.8024 205.159 55.844 204.93 55.5277C203.063 52.9609 201.166 50.3335 199.451 47.6777C198.962 46.92 198.469 46.2513 197.994 45.4708C195.958 42.1331 194.603 40.163 192.602 36.5506C191.381 34.3456 190.003 31.8129 188.986 29.5284C187.701 26.6453 185.849 22.3414 185.849 18.4221C185.849 12.3717 189.23 6.56755 194.131 3.42111C195.067 2.82062 196.102 2.15193 197.148 1.73897C199.699 0.731201 202.125 0.140178 204.511 0V0ZM200.304 13.4609C198.772 14.9593 198.069 16.5107 198.069 18.7517C198.069 20.7407 199.1 22.5327 200.131 23.5519C201.877 25.2738 203.526 25.6602 205.989 25.6602C208.588 25.6602 211.222 23.6542 212.166 21.4473C215.346 14.0159 205.806 8.07162 200.302 13.459L200.304 13.4609ZM33.3218 149.15C32.1468 150.141 31.0798 154.281 31.4361 156.687C31.6958 158.445 31.7413 159.146 32.3875 160.525C34.6276 165.301 39.3163 168.379 44.4921 167.964C45.5989 167.875 47.7178 167.479 48.3981 166.975C49.3552 166.098 50.1 166.486 52.3363 164.23C54.2429 162.31 54.3699 161.071 55.0825 160.29C56.1192 158.744 56.2158 155.189 55.7989 153.088C55.363 150.894 54.0894 148.614 52.8405 147.265C49.7532 143.939 44.2325 142.287 40.2791 143.825L37.3567 145.088C37.3188 145.111 37.2695 145.141 37.2316 145.162L36.2765 145.789C36.2423 145.814 36.1969 145.852 36.1627 145.876C35.7477 146.178 35.7989 146.051 35.3649 146.464C35.0692 146.746 34.8494 146.968 34.5651 147.263L33.3237 149.148L33.3218 149.15Z" fill="#FA5F29"/>
</g>
<defs>
<clipPath id="clip0_38_399">
<rect width="225" height="168" fill="white"/>
</clipPath>
</defs>
</svg>
