<svg width="78" height="77" viewBox="0 0 78 77" fill="none" xmlns="http://www.w3.org/2000/svg">
    <path fill-rule="evenodd" clip-rule="evenodd"
          d="M0.178001 40.7193C1.05987 44.1084 2.6125 44.9759 7.79794 44.9759C9.96989 44.9759 11.7505 45.1129 11.755 45.2799C11.7596 45.447 10.7937 46.4288 9.609 47.4613C7.60659 49.2065 7.48848 49.4109 7.9288 50.3631C8.1897 50.927 9.20161 51.9255 10.1777 52.5826C15.1903 55.9567 19.2058 55.1637 23.0514 50.0412C25.6188 46.6214 27.3447 45.4437 30.2927 45.1C31.3997 44.9707 32.3474 45.8882 32.254 46.9987L32.2441 47.1164C32.0034 49.9743 30.9915 51.4573 27.4813 54.0972C23.7613 56.8947 23.1358 57.834 22.9362 60.9251C22.7559 63.7158 23.4296 65.5474 25.5493 68.0287C27.1241 69.8724 28.1582 69.6872 30.303 67.1774C30.9542 66.4156 32.2017 66.8427 32.2494 67.8437L32.3223 69.375C32.5083 73.2757 32.6277 73.7995 33.5569 74.7785C35.0642 76.3668 36.558 77.0016 38.783 77C41.1418 76.9984 43.0895 75.9545 44.2582 74.0662C44.9273 72.9854 45.0783 72.0076 45.089 68.6911C45.0938 67.2177 46.9035 66.5134 47.9239 67.5763C49.4761 69.193 50.9111 70.5154 51.1131 70.5154C52.1164 70.5154 53.3192 69.0592 54.2904 66.6699C55.4842 63.732 55.6648 61.0569 54.8056 59.0315C54.0962 57.3589 50.3103 53.3123 47.3495 51.062C45.0829 49.3391 45.0791 49.333 45.0791 47.1001C45.0791 45.8983 46.1101 44.9553 47.3072 45.0622L47.5758 45.0862C50.779 45.3724 52.7439 46.6323 54.9274 49.8004C56.8681 52.615 58.2463 53.6804 60.8272 54.3602C62.3247 54.7551 63.0605 54.749 64.4778 54.3306C66.5423 53.7213 69.5731 51.771 70.1735 50.6655C70.759 49.5876 70.3743 48.8778 68.2929 47.1978C67.2946 46.3919 66.4777 45.5621 66.4777 45.3541C66.4777 45.1449 68.339 44.9759 70.6414 44.9759L72.5619 44.9759C73.9991 44.9759 75.3786 44.4106 76.4025 43.4022C77.9387 41.8885 78 41.7247 78 39.1253C78 34.0276 76.0227 32.4336 69.6797 32.4178C65.4082 32.4072 65.3559 32.1806 68.9764 29.3786C72.6314 26.5498 72.3211 25.3478 67.4159 23.3281C64.3761 22.0763 62.3758 22.0102 59.9787 23.0817C57.9545 23.9869 53.9093 27.6439 51.7975 30.478C50.8922 31.693 49.4661 32.4088 47.9509 32.4088L47.719 32.4088L47.6129 32.4088C46.2168 32.4088 45.088 31.2713 45.0989 29.8752C45.1113 28.2846 45.889 26.7974 47.1882 25.8797L47.4145 25.7199C50.1827 23.7647 53.4641 20.3052 54.5632 18.1829C55.741 15.9087 55.6155 13.0657 54.2019 10.0022C53.5608 8.61374 52.73 7.22893 52.3555 6.9253C51.3514 6.11209 49.7988 6.66949 48.844 8.18605C48.3873 8.91129 47.3536 10.1331 46.5466 10.9014C45.9936 11.4278 45.0791 11.0358 45.0791 10.2723L45.0791 8.26024C45.0791 3.57841 44.4384 1.9151 42.1731 0.71839C40.3834 -0.226976 37.0917 -0.241564 35.2029 0.687994C33.0153 1.7643 32.3269 3.52166 32.305 8.08552L32.3004 9.05926C32.2954 10.0811 31.0377 10.5643 30.35 9.80842C28.5126 7.78959 27.3788 7.27718 26.3283 7.99026C26.0871 8.15404 25.2596 9.19993 24.4896 10.3143C23.3625 11.9452 23.0584 12.8213 22.93 14.8069C22.7049 18.2904 23.7143 20.0781 27.3974 22.7168C30.9586 25.2687 32.3223 27.3727 32.3223 30.3162C32.3223 31.472 31.3854 32.4089 30.2297 32.4089L30.094 32.4089C27.9105 32.4089 27.8369 32.3699 26.427 30.478C24.3152 27.6439 20.27 23.9869 18.2458 23.0817C15.8487 22.0102 13.8484 22.0763 10.8086 23.3281C5.82598 25.3794 5.63505 26.3799 9.57279 29.803C10.5766 30.6757 10.0074 32.3265 8.67908 32.3952L8.02963 32.4287C3.31824 32.672 1.89976 33.2306 0.832301 35.2644C0.0751215 36.7072 -0.221576 39.1813 0.178001 40.7193ZM10.8551 36.8681C16.4899 36.6869 17.2273 36.5811 17.7479 35.8786C18.0688 35.4456 18.331 34.9251 18.331 34.7212C18.331 33.8415 16.101 30.0604 14.8056 28.7433C14.0286 27.9536 13.3928 27.1781 13.3928 27.0204C13.3928 26.8627 14.1187 26.7334 15.0056 26.7334C16.3763 26.7334 16.9738 27.0529 18.9857 28.8617C20.2877 30.0321 22.3469 32.3124 23.5617 33.9291C24.9525 35.7795 27.1325 36.8681 29.4473 36.8681L30.408 36.8681C36.0675 36.8681 36.4917 36.6472 36.7514 33.5606C37.2711 27.3889 35.3568 23.2349 30.2713 19.498C27.3002 17.3146 26.6603 16.2578 27.1492 14.3403C27.2712 13.8614 27.8544 13.6784 28.2281 14.0016L28.8512 14.5405C30.8343 16.2557 33.4075 17.4816 34.7103 17.332C36.4592 17.1314 36.8362 15.8057 36.8428 9.83558C36.8485 4.78849 36.8963 4.47674 37.7016 4.225C38.1707 4.07825 39.004 4.06973 39.5534 4.20554C40.5501 4.45202 40.5525 4.46581 40.5587 10.0188C40.5653 16.0121 40.9443 17.5189 42.501 17.7394C43.8685 17.9332 46.8589 16.4625 48.9408 14.5717C50.7786 12.9028 50.8098 12.8922 51.0518 13.842C51.5987 15.9886 49.1025 19.194 43.952 22.9592C42.1685 24.2634 40.8735 25.5286 40.7245 26.1128C40.5879 26.6495 40.5398 29.0303 40.6171 31.4035C40.799 36.963 40.6805 36.8681 47.4297 36.8681L50.1657 36.8681C51.6291 36.8681 52.9987 36.148 53.8283 34.9425C54.5566 33.8832 56.5562 31.6029 58.2714 29.8752C61.1779 26.947 61.5071 26.7334 63.1107 26.7334C64.0572 26.7334 64.8317 26.8052 64.8317 26.8931C64.8317 26.9811 64.2662 27.6492 63.5753 28.3781C62.098 29.9356 60.4655 32.5978 60.1092 34.0304C59.9569 34.6409 60.096 35.3662 60.4581 35.8547C61.0013 36.5872 61.6676 36.6849 67.3694 36.8681L72.3296 37.0275C73.1015 37.0523 73.7352 37.646 73.81 38.4147C74.038 40.7546 73.6018 40.922 67.2797 40.922C62.6634 40.922 61.477 41.0416 60.9515 41.5589C59.7232 42.7694 60.3898 44.8713 63.0153 48.0658C64.521 49.8977 64.4675 50.246 62.6786 50.246C60.896 50.246 60.1606 49.7039 58.1211 46.8889C54.8319 42.3474 51.9275 40.922 45.966 40.922C42.6776 40.922 41.7784 41.0517 41.3229 41.5913C40.6134 42.4321 40.3085 49.5823 40.9159 51.1431C41.1509 51.7479 42.1377 52.735 43.1084 53.3366C45.5528 54.8512 50.2522 59.3879 50.8502 60.81C51.1226 61.457 51.2238 62.4623 51.0757 63.0441C50.9534 63.5236 50.3647 63.7005 49.9984 63.3679L49.0124 62.4725C46.7676 60.4342 44.115 59.0786 42.6911 59.2419C40.9274 59.4446 40.5653 60.7561 40.5587 66.9682L40.5545 70.7387C40.5534 71.7351 39.7453 72.5423 38.7489 72.5423C36.4922 72.5423 36.4506 72.4155 36.4432 65.5587C36.4374 60.5866 36.402 60.3766 35.4659 59.7722C34.5778 59.199 34.335 59.2123 32.6458 59.9254C31.6289 60.3547 30.1068 61.3033 29.2627 62.0334C27.6097 63.4633 26.992 63.252 26.9789 61.2523C26.9727 60.2842 27.6665 59.5399 32.0989 55.7617C35.5605 52.8104 36.4374 50.8135 36.4374 45.8811C36.4374 43.3211 36.2609 41.721 35.9436 41.4085C35.3004 40.7749 28.8043 40.7627 26.9311 41.3919C24.6028 42.1734 22.2798 43.9758 20.3914 46.4653C19.4062 47.7642 18.2413 49.1461 17.8026 49.5365C17.0466 50.2095 14.6294 50.5184 14.1118 50.0084C13.9792 49.8779 14.5726 48.8571 15.4306 47.7407C16.2882 46.6238 17.2289 44.9986 17.5203 44.1286C17.9915 42.7219 17.9676 42.4568 17.3038 41.7344C16.6265 40.997 16.0384 40.922 10.9423 40.922C4.67788 40.922 4.22974 40.755 4.42356 38.4913C4.49303 37.6812 5.15764 37.0512 5.97032 37.025L10.8551 36.8681Z"
          fill="#502F0A"/>
</svg>
