<svg width="47" height="67" viewBox="0 0 47 67" fill="none" xmlns="http://www.w3.org/2000/svg">
<path fill-rule="evenodd" clip-rule="evenodd" d="M32.5481 43.1925H31.7884C30.1001 43.1925 28.1284 41.1798 28.1284 39.3755C28.1284 38.3528 28.0621 37.6428 28.5565 36.7048C29.8649 34.2101 32.7532 33.5652 34.8696 35.4998C37.6914 38.0727 35.7137 43.1925 32.5421 43.1925H32.5481ZM13.1206 2.58595V3.1331H33.5551C33.5551 1.17247 32.6808 0 30.7815 0H15.8942C15.1284 0 14.4109 0.260549 13.9768 0.651372C13.5607 1.02265 13.1206 1.79127 13.1206 2.58595ZM13.1206 56.956H33.5551C33.5189 56.5065 33.0908 55.5555 32.922 55.1843C32.7532 54.813 32.325 53.862 32.2889 53.4125H14.3747C14.3385 53.862 13.9104 54.813 13.7416 55.1843C13.5728 55.5555 13.1447 56.5065 13.1085 56.956H13.1206ZM39.8621 66.7657H46.6757C46.5309 66.1013 44.2035 62.2973 43.5764 61.2616L38.2281 52.188H33.8144L38.3125 63.1375C38.5899 63.7759 38.7889 64.2839 39.0361 64.9418C39.2411 65.4825 39.6089 66.3553 39.8682 66.7722L39.8621 66.7657ZM0 66.7657H6.81352C7.02456 66.427 12.6864 53.0282 12.8673 52.188H8.45359L5.80054 56.6824C5.13125 57.7702 0.150742 66.0817 0 66.7657ZM9.71379 64.8571H36.9619L35.4303 61.1964C35.3097 60.8773 35.1047 60.0891 34.6887 60.0891H11.9809C11.589 60.0891 11.4202 60.7209 11.2755 61.0987L9.70776 64.8571H9.71379ZM9.08068 23.0195L11.8543 24.5177C14.6461 26.0028 19.0236 27.1036 22.4545 27.1036V11.2948C22.4545 10.9821 22.364 10.8844 22.0746 10.8844H9.46055C8.84552 10.8844 9.08068 12.2784 9.08068 13.6072V23.0065V23.0195ZM24.2151 11.3013V27.1101C28.1163 27.1101 33.0546 25.7748 36.3287 23.71C36.6543 23.508 37.5829 23.2214 37.5829 22.7524V11.3078C37.5829 10.9952 37.4925 10.8975 37.203 10.8975H24.589C24.2996 10.8975 24.2091 10.9952 24.2091 11.3078L24.2151 11.3013ZM10.4675 39.1019C10.4675 37.6689 10.6363 36.5876 11.7277 35.5584C13.41 33.9691 15.4842 33.9886 17.2328 35.4737C19.8858 37.734 18.4086 43.186 14.7606 43.186C13.4763 43.186 12.5779 42.9515 11.6312 41.9288C11.0584 41.31 10.4675 40.3004 10.4675 39.0954V39.1019ZM7.31399 23.8402V9.66637C7.31399 9.22343 7.86269 8.84564 8.32094 8.84564H38.3427C38.8009 8.84564 39.3496 9.22343 39.3496 9.66637V23.8402C39.3496 24.8368 33.7541 27.1948 32.9943 27.4684C26.1085 29.9306 18.698 29.7807 11.993 26.8235L8.68875 25.0778C8.30888 24.8433 7.30796 24.3874 7.30796 23.8467L7.31399 23.8402ZM3.7806 9.80315V45.0945C3.7806 45.4853 5.66789 47.3352 6.01761 47.7195C6.37939 48.1104 8.08578 50.1361 8.44756 50.1361H38.216C38.5899 50.1361 39.1868 49.2893 39.4461 49.0093L41.7796 46.4884C42.0449 46.2018 42.883 45.4984 42.883 45.0945V10.0702C42.883 7.47776 41.0681 5.16538 38.7225 5.16538H7.94107C5.72818 5.16538 3.7806 7.42564 3.7806 9.79664V9.80315Z" fill="#E7B96E"/>
</svg>
