<svg width="229" height="40" viewBox="0 0 229 40" fill="none" xmlns="http://www.w3.org/2000/svg">
<g clip-path="url(#clip0_14_257)">
<path d="M69.5435 24.8183C69.5435 27.8545 66.7195 30.0576 62.7382 30.0576H53.4145V11.2109H62.4234C66.3029 11.2109 69.025 13.303 69.025 16.2373C69.025 18.2275 67.9787 19.4864 66.4047 20.2177C68.0806 20.8472 69.5435 22.5226 69.5435 24.8275V24.8183ZM57.4977 14.6637V18.7459H62.3123C63.7752 18.7459 64.7196 17.9035 64.7196 16.7557C64.7196 15.6079 63.6733 14.6637 62.3123 14.6637H57.4977ZM62.7382 26.6048C64.3122 26.6048 65.4603 25.6606 65.4603 24.2999C65.4603 22.9392 64.414 21.995 62.7382 21.995H57.4977V26.6048H62.7382Z" fill="black"/>
<path d="M84.941 29.9465L78.4413 22.5133H77.395V29.9465H73.21V11.2017H77.395V18.4311H78.4413L84.728 11.2017H89.6538L81.793 20.2084L90.3852 29.9465H84.941Z" fill="black"/>
<path d="M90.3853 20.625C90.3853 14.9692 94.5703 10.887 100.44 10.887C106.301 10.887 110.496 14.9692 110.496 20.625C110.496 26.2808 106.311 30.3631 100.44 30.3631C94.5795 30.3631 90.3853 26.2808 90.3853 20.625ZM106.098 20.625C106.098 17.0612 103.792 14.6544 100.44 14.6544C97.0887 14.6544 94.7832 17.0612 94.7832 20.625C94.7832 24.1888 97.0887 26.5956 100.44 26.5956C103.792 26.5956 106.098 24.1888 106.098 20.625Z" fill="black"/>
<path d="M126.523 11.2017H130.708V29.9465H126.523V22.4115H118.143V29.9465H113.949V11.2017H118.143V18.6348H126.523V11.2017Z" fill="black"/>
<path d="M139.717 29.9465V14.9784H133.226V11.2017H150.29V14.9784H143.8V29.9465H139.717Z" fill="black"/>
<path d="M168.308 19.4772V29.9465H165.271L164.429 27.0121C163.484 28.5858 161.493 30.3631 158.457 30.3631C154.688 30.3631 151.966 27.8545 151.966 24.3925C151.966 20.9398 154.688 18.533 160.244 18.533H164.327C164.114 16.1263 162.864 14.4508 160.558 14.4508C158.669 14.4508 157.42 15.4968 156.79 16.6539L153.022 16.0244C153.966 12.7753 157.207 10.8962 160.771 10.8962C165.382 10.8962 168.308 14.0343 168.308 19.4865V19.4772ZM164.225 21.7821H160.345C157.207 21.7821 156.16 22.8281 156.16 24.1889C156.16 25.7625 157.42 26.8085 159.512 26.8085C162.234 26.8085 164.225 24.8183 164.225 21.7821Z" fill="black"/>
<path d="M184.437 29.9465L177.946 22.5133H176.9V29.9465H172.706V11.2017H176.9V18.4311H177.946L184.224 11.2017H189.15L181.298 20.2084L189.881 29.9465H184.437Z" fill="black"/>
<path d="M197.427 29.9465V14.9784H190.927V11.2017H208.001V14.9784H201.51V29.9465H197.427Z" fill="black"/>
<path d="M228.944 21.7821H213.862C214.278 24.7165 216.371 26.5956 219.519 26.5956C221.723 26.5956 223.398 25.6514 224.334 24.2907L228.213 24.9201C226.852 28.4839 223.185 30.3631 219.204 30.3631C213.547 30.3631 209.464 26.2808 209.464 20.625C209.464 14.9692 213.547 10.887 219.204 10.887C224.861 10.887 228.944 14.9692 228.944 20.4121C229.046 20.9397 228.944 21.3563 228.944 21.7728V21.7821ZM214.177 18.533H224.546C223.815 16.2281 221.926 14.5526 219.306 14.5526C216.797 14.4508 214.806 16.1263 214.177 18.533Z" fill="black"/>
<path d="M0 19.1995C0 10.1464 0 5.61991 2.8147 2.81513C5.6294 0.00109863 10.157 0.00109863 19.2029 0.00109863H20.8047C29.8599 0.00109863 34.3875 0.00109863 37.1929 2.81513C40.0076 5.62917 40.0076 10.1557 40.0076 19.1995V20.8009C40.0076 29.8539 40.0076 34.3805 37.1929 37.1852C34.3782 39.9993 29.8506 39.9993 20.8047 39.9993H19.2029C10.1477 39.9993 5.62014 39.9993 2.8147 37.1852C0 34.3712 0 29.8447 0 20.8009V19.1995H0Z" fill="#0077FF"/>
<path d="M21.2862 28.8172C12.1662 28.8172 6.96268 22.5689 6.74973 12.1644H11.3144C11.4625 19.8011 14.8327 23.0317 17.4993 23.6982V12.1644H21.8047V18.7459C24.4342 18.4589 27.2026 15.4598 28.1377 12.1644H32.4431C31.7302 16.2281 28.7211 19.2272 26.5915 20.4676C28.7211 21.4673 32.1468 24.087 33.4431 28.8172H28.7118C27.6933 25.6514 25.1656 23.1983 21.8139 22.8651V28.8172H21.2954H21.2862Z" fill="white"/>
</g>
<defs>
<clipPath id="clip0_14_257">
<rect width="229" height="40" fill="white"/>
</clipPath>
</defs>
</svg>
