<svg width="200" height="180" viewBox="0 0 200 180" fill="none" xmlns="http://www.w3.org/2000/svg">
<path fill-rule="evenodd" clip-rule="evenodd" d="M92.9335 170.792C97.5024 170.792 103.927 167.971 107.816 171.399C108.975 172.421 108.538 171.793 108.879 173.069C105.578 173.069 94.7159 175.259 94.2732 175.148C92.8225 174.779 93.669 175.226 93.2934 173.653C93.0891 172.798 92.9646 171.916 92.9344 170.792H92.9335ZM29.6711 163.979C41.8253 166.805 37.9393 168.101 40.541 173.526L34.531 170.424C32.6708 169.3 30.5342 168.12 28.6953 167.148L29.6702 163.98L29.6711 163.979ZM123.002 160.313C127.346 159.951 133.553 157.706 136.213 161.68C132.263 161.768 127.687 163.502 123.457 163.502C123.422 161.949 123.182 161.717 123.002 160.313ZM67.4207 156.213L68.3567 154.404C69.3131 154.619 73.7498 155.967 74.5096 156.413C75.8679 157.213 76.835 160.301 76.9877 162.135C75.1547 161.165 68.3985 157.547 67.4207 156.213ZM76.0771 153.48C73.8889 153.298 71.8447 152.158 69.6994 151.658C70.6986 149.769 79.7616 131.674 81.0887 130.701C81.0887 136.354 84.4435 140.296 82.4061 143.376C81.1559 145.265 76.5451 151.729 76.0771 153.48ZM63.776 158.035L78.8539 166.736C84.2956 169.214 78.3547 157.753 78.3547 155.758C78.3547 154.725 82.9072 147.767 84.2771 146.191L87.4664 161.225C88.0599 163.727 88.4958 165.996 89.1107 168.692C89.639 171.009 90.469 174.023 90.6558 176.259H44.642C43.7108 174.319 43.1319 171.446 42.4275 169.36C40.7472 164.385 40.1654 166.623 46.4692 157.129C47.7515 155.198 48.85 153.308 50.2014 151.295C52.8936 147.284 64.1574 130.242 64.6877 127.968H78.8111C77.087 130.543 63.9298 156.194 63.777 158.036L63.776 158.035ZM104.323 109.288H105.234C106.053 112.803 109.686 114.556 112.068 124.778H97.9442C99.3228 122.172 104.106 111.884 104.322 109.288H104.323ZM71.5207 112.021C74.4464 112.803 78.4413 122.111 79.7208 124.778H66.5091L71.5207 112.021ZM73.3431 108.377C73.7157 106.776 79.0825 92.2005 80.6324 91.0651L90.9632 112.625C91.7854 114.337 92.0821 115.791 92.3516 117.615L97.5131 151.633C97.9772 155.077 98.6009 159.452 99.1818 162.729C99.9572 167.106 100.147 166.683 98.4024 167.128C96.9089 167.509 93.9054 167.603 92.0228 167.603L85.0749 135.827C82.8284 125.285 83.2672 122.769 77.5365 114.208C76.1033 112.067 74.6575 110.34 73.344 108.378L73.3431 108.377ZM32.3409 115.211C31.1101 115.211 31.0848 114.994 30.0632 114.755C30.0632 109.343 33.886 107.128 39.1749 107.011C37.7038 110.077 36.7202 115.211 32.3409 115.211ZM13.6622 107.011C15.8688 107.011 18.8218 107.785 20.1382 108.736C22.0091 110.086 22.7739 111.66 22.7739 114.755C16.475 116.223 16.5879 112.54 13.6622 107.011ZM109.334 97.4437C110.126 95.9444 111.184 93.3544 111.611 91.5214C115.45 94.3332 116.933 101.736 119.967 107.767C122.706 113.211 125.958 139.655 127.233 148.337C127.543 150.451 128.415 154.298 128.468 156.669C125.548 156.669 124.704 157.125 122.09 157.125L115.622 126.692C113.184 116.279 112.813 117.119 107.166 107.333C106.39 105.989 106.055 105.722 106.541 104.286C107.289 102.074 108.488 99.6737 109.334 97.4437ZM23.2292 100.633C23.2292 99.2145 23.8548 98.4361 24.4347 97.2822C25.1819 95.7955 25.2501 95.1106 26.4186 94.2544C28.7332 95.9502 31.8622 103.821 26.4186 103.821C24.8745 103.821 23.2292 102.176 23.2292 100.632V100.633ZM96.5772 121.134C95.1362 120.078 96.0926 121.872 95.3483 116.896C94.4114 110.634 90.6548 106.305 90.6548 103.821C90.6548 101.532 91.0644 101.781 91.1101 99.7214C91.9401 99.6523 93.7527 99.2865 94.4678 98.9781C95.9837 98.3242 96.079 97.9896 96.1218 96.0767C95.5604 91.8405 95.4816 91.03 92.9325 89.699V88.332H109.334C106.981 98.4284 98.8257 111.482 96.5772 121.134ZM87.0101 97.9L87.3896 97.3688C87.4878 97.4223 88.1825 98.5412 88.3762 99.267C87.0724 98.3116 87.8186 98.2668 87.0092 97.9H87.0101ZM86.0994 95.6224L86.2357 95.7576C86.2269 95.7488 86.0547 95.6671 86.0994 95.6224ZM83.8218 90.6107C85.1489 91.5836 85.6655 93.3048 86.0994 95.1661C85.6889 94.6932 86.0878 95.2818 85.5176 94.3809L83.8218 90.6097V90.6107ZM119.357 93.8L119.736 93.2688L121.719 95.5435C119.221 94.9783 120.406 94.2758 119.357 93.801V93.8ZM117.99 90.1553C118.867 89.126 119.236 90.9833 119.357 92.433C119.198 92.1392 119.043 91.8366 118.876 91.5476C118.833 91.4727 118.762 91.3355 118.714 91.2538C118.097 90.2157 118.724 90.9999 117.99 90.1553ZM111.156 76.032L117.61 89.3196L113.489 83.7222C111.841 81.5749 111.435 79.3799 111.157 76.032H111.156ZM38.7186 163.503C36.7581 163.047 33.0541 162.005 31.4293 161.226C31.9167 159.135 49.9416 126.287 52.7058 120.088C53.6787 117.907 54.3345 112.285 54.7393 109.366L58.308 87.4223H77.8975L69.8258 108.053C68.4287 111.571 67.2349 114.617 65.7287 118.079L61.1977 128.127C58.1144 134.307 48.7478 147.416 44.3763 154.585C42.4577 157.733 40.323 160.469 38.7167 163.504L38.7186 163.503ZM90.1995 70.565V86.966L89.1234 85.3081C86.7825 80.8773 85.4174 79.4256 88.9628 72.5177L90.1995 70.565ZM43.275 97.9C40.9603 96.3501 41.6959 95.9434 43.3392 91.5856C44.3365 88.9411 44.9261 78.0392 45.1051 74.2174C45.5001 65.78 50.6178 60.7119 51.9313 55.0756C55.9642 57.2092 55.576 57.1382 55.576 60.5426C55.576 61.5389 51.6599 66.7198 50.8669 68.1345C48.6398 72.1061 45.7151 84.5755 44.858 89.915C44.8404 90.022 44.6838 90.9921 44.6595 91.0835C43.6291 94.9374 43.275 89.8012 43.275 97.9ZM70.6101 58.2649C72.8829 58.2649 73.7663 57.8096 76.5324 57.8096C76.6861 59.6611 77.1911 61.6673 77.4694 63.7056C78.3392 70.0785 77.949 68.9255 80.4826 74.3604C81.3232 76.1623 81.7173 77.3065 82.6066 79.0705C84.0387 81.9115 88.5318 89.8547 89.4026 92.7755C90.1907 95.421 90.9292 94.2203 92.4781 96.533C87.5151 96.4221 90.2578 93.0693 86.0021 87.975L76.4555 75.1982C75.0525 73.3359 74.8959 72.3065 74.0776 69.8314L70.6101 58.2649ZM55.576 46.8755V53.7095C54.3793 52.9078 54.3004 52.6587 52.842 51.8872C53.236 50.1943 54.3676 47.7609 55.576 46.8755ZM84.7334 75.5776C83.8315 74.917 82.9763 73.5918 82.7165 72.1265C82.4149 70.4287 87.9403 59.3215 89.1399 56.7481L92.5433 49.2174C93.1144 47.8134 93.9356 46.6245 94.3014 45.0532C102.481 45.7342 94.7441 54.5648 91.1121 61.9096C89.6167 64.9335 85.0136 72.218 84.7344 75.5766L84.7334 75.5776ZM65.5993 41.4095C65.5993 38.8224 73.2847 35.8987 74.7422 41.3783L76.9887 54.6212C75.2403 54.6212 69.8297 55.0327 68.7887 55.5319C68.1076 52.6091 65.5993 43.6346 65.5993 41.4085V41.4095ZM96.5791 41.8648C99.4269 40.4988 109.791 48.4994 109.791 54.1658C109.791 55.6584 107.967 58.799 107.433 60.4647C106.042 64.8138 109.258 81.6829 109.335 85.1456H93.3898V65.0999C93.3898 63.1861 96.2532 58.9537 97.1872 57.0526C97.9724 55.454 98.4842 54.5443 99.2868 53.2299C103.862 45.7333 99.2596 45.5241 96.5791 41.8658V41.8648ZM99.3121 36.3978C101.073 37.3299 100.679 36.498 100.679 39.1308C98.8091 38.6317 99.3121 38.7913 99.3121 36.3978ZM62.41 40.4978C62.41 43.5412 64.0465 49.3274 64.7791 52.2511C67.2553 62.1256 66.6375 56.3949 68.059 59.9053C69.9193 64.5005 69.8385 71.5389 75.036 78.44C77.4519 81.6479 77.8994 81.4931 77.8994 84.233H58.7653C58.7653 75.094 57.8809 46.0942 59.8511 39.305C60.6996 36.3803 61.5091 35.6895 62.8653 33.6628C65.0915 33.8487 66.8953 34.5891 68.7877 35.0298L67.0345 36.0106C65.2637 36.7977 62.41 38.6181 62.41 40.4968V40.4978ZM65.5993 28.1968C72.0199 32.4963 72.3604 30.4083 72.4334 33.6638C70.2754 32.5216 68.2857 31.5564 65.5993 30.9308V28.1978V28.1968ZM80.6334 30.9298C83.1981 32.648 85.6947 33.3408 87.483 29.124C88.0424 27.8047 88.8334 24.6552 88.8334 22.7298H89.2888C89.2888 27.9107 92.697 32.3065 96.1228 34.1191V38.6745C91.0829 39.8489 84.3569 59.3877 82.0831 64.7253L81.0887 66.4649C81.0887 57.47 82.7729 46.4494 78.2818 39.6591C75.7044 35.7615 75.6217 38.8613 75.6217 32.2968C79.4688 31.4007 79.822 27.4554 80.1771 23.1851L80.4758 23.7981C82.5958 29.3682 80.6334 28.8983 80.6334 30.9298ZM105.234 35.9415C103.869 35.6233 100.468 33.658 99.6994 32.8212C98.9852 32.0438 97.9539 25.8082 97.9461 25.4638C101.531 26.2995 98.2438 24.09 107.052 24.5939C109.206 24.7175 107.885 24.9569 109.791 24.5531C109.031 27.8134 108.85 33.5218 105.235 35.9425L105.234 35.9415ZM65.144 22.7298L65.5993 16.3521C65.6626 16.4513 65.7005 16.5155 65.7229 16.6838C65.7453 16.8502 65.8183 16.9436 65.8513 17.0108C66.7406 18.7971 65.6937 18.6307 67.4207 18.6307C69.7684 18.6307 69.243 13.8574 69.243 11.3414C71.1179 10.0863 71.9946 9.1026 75.3512 11.1555C77.9549 12.7483 76.9877 17.1431 76.9877 23.1861C76.9877 25.6194 76.5285 27.1713 76.0771 29.1084C71.0479 29.1084 65.143 24.9267 65.143 22.7307L65.144 22.7298ZM109.335 21.8181L103.413 21.3628C101.908 21.3628 101.181 21.6654 100.555 21.6819C99.9154 21.6984 94.7568 19.4188 94.7568 25.4628C94.7568 27.7658 95.4904 27.8825 95.6675 30.0182C93.022 28.2464 89.9553 20.0775 94.1701 15.3091C98.1105 10.851 102.057 12.1771 106.895 13.7796C113.714 16.0378 110.992 19.3429 109.335 21.8181ZM84.2791 27.7405C84.2791 23.7776 82.912 23.0265 82.912 15.8958C82.912 12.1917 86.2337 9.97339 90.6568 9.97339C92.3117 9.97339 92.2543 10.5134 93.8461 10.885V11.7957C89.9591 12.1188 88.5347 14.9549 87.4042 18.1102C86.8525 19.6484 86.3942 21.0641 85.9126 22.9964C84.6653 27.9973 85.8436 26.5953 84.2791 27.7414V27.7405ZM62.411 22.7288C59.7363 20.9376 56.4886 15.7002 56.4886 12.7064C56.4886 6.894 62.0053 3.13938 68.3333 3.13938C73.202 3.13938 68.3907 5.03664 76.5334 3.13938C78.8004 6.52525 78.6564 5.81694 77.9004 9.06174C73.5766 6.77335 69.2178 5.24874 66.5227 10.4394C65.287 12.8183 66.3553 11.247 64.4668 12.4836C61.9459 14.1337 61.8223 20.202 62.411 22.7288ZM53.7546 11.3394C53.7546 15.384 54.8142 18.4342 56.9401 21.3657C58.7196 23.8204 59.858 25.1193 62.411 26.8288V30.9288C58.4783 31.9786 49.1993 49.9111 49.1993 51.8853C49.1993 53.9382 50.2987 51.4591 48.0969 56.7043L43.7342 66.0096C40.7433 72.5848 42.6922 83.7806 40.5118 90.5776C40.0379 92.0555 38.7215 94.4159 38.7215 96.0767C38.7215 99.6261 46.4662 105.476 46.4662 97.8991C47.6591 98.3924 49.1175 98.1695 49.0864 96.1769C49.0115 91.3852 45.8601 95.491 49.3919 83.0577C50.719 78.3865 52.5326 69.1513 55.5779 66.9203C55.5779 82.9497 56.0907 82.5274 53.4297 98.4848C53.0035 101.043 50.5332 124.779 46.0109 124.779H27.7875V117.034C38.5386 122.193 39.5583 111.157 42.4732 108.029C43.2137 107.236 44.1886 106.828 44.1886 105.645C44.1886 103.01 37.0199 103.996 34.8949 104.551C31.4118 105.462 29.7315 107.509 27.7885 109.745V106.555C30.0963 106.018 32.8002 103.228 32.8002 100.633C32.8002 97.6033 28.7196 90.7819 26.4225 89.2437C24.9163 90.2517 23.6116 92.3338 22.6289 94.1055C22.0247 95.1943 20.0448 99.0384 20.0448 100.178C20.0448 103.543 22.1658 105.882 25.0564 106.555V109.745C21.5198 105.676 16.7173 102.734 10.8688 104.201C8.97256 104.677 10.144 104.193 8.65635 105.189C8.96186 106.501 9.37731 106.863 10.2033 107.742C11.764 109.406 12.0082 111.101 13.056 113.09C13.7381 114.385 14.7801 115.861 15.8523 116.671C18.6466 118.783 22.2281 118.531 25.0574 117.033V124.778C23.131 124.778 14.1234 123.665 14.1234 126.6C14.1234 128.793 18.417 127.971 20.5011 127.967H45.1022C43.4131 131.159 41.9274 134.318 40.2423 137.686C38.4978 141.175 25.0564 166.344 25.0564 167.602C25.0564 169.313 29.9455 171.385 31.4371 172.156C32.7408 172.829 33.4764 173.352 34.9231 174.137L37.481 175.679C38.3849 176.299 37.7466 175.805 38.2682 176.259L4.07764 176.236C1.13933 176.215 1.75812 175.992 0 177.169C0.384316 178.819 0.709282 179.447 2.734 179.447H198.178C199.562 179.447 199.725 178.657 200 177.625C198.442 175.298 194.708 176.258 189.978 176.258L108.429 175.802C111.359 175.802 111.673 175.618 113.44 174.435C112.861 171.951 111.413 170.578 109.669 169.095C107.824 167.525 106.261 166.691 102.962 166.691C102.294 163.823 101.989 160.428 101.461 157.257C100.292 150.222 97.5686 134.327 97.0393 127.966H112.529C113.264 129.501 114.335 135.496 114.769 137.571L121.185 166.691C124.019 167.291 136.646 164.813 140.319 163.957C140.319 159.544 135.942 156.212 131.663 156.212C130.107 149.533 129.544 142.036 128.407 135.322C128.03 133.091 127.563 130.666 127.563 127.966H144.419C146.978 127.966 145.814 124.777 143.052 124.777H126.651C126.651 121.447 125.695 118.034 125.263 114.776C124.81 111.359 123.895 108.639 122.55 106.098C120.185 100.241 120.158 99.9179 118.905 97.8981C120.312 98.5733 125.739 99.2738 125.739 96.5311C125.739 94.4704 125.11 95.1563 125.191 93.8672C125.296 92.219 126.141 93.3077 125.324 91.5146C124.338 89.3507 122.496 90.5202 120.895 88.1627C120.064 86.9388 119.109 84.6329 118.452 83.3165C118.036 82.4817 117.644 81.8035 117.176 80.9473C114.452 75.9532 113.102 73.0314 112.208 66.7811C111.939 64.9033 111.166 61.3696 111.183 60.0658C111.244 55.6087 117.281 52.7103 106.258 43.118C104.73 41.788 103.613 41.9592 103.415 39.5832C106.146 38.2727 105.979 39.9121 108.549 36.9728C111.574 33.514 112.068 29.3332 112.711 24.7331C112.901 23.368 113.102 22.3552 113.429 21.3511C114.781 17.1917 114.541 13.6638 110.041 11.5447C101.621 7.57993 98.3518 10.42 95.5653 8.72023C88.9249 4.67178 81.8856 7.7969 80.6363 13.1588H79.7247C79.7247 9.87513 80.3269 11.2791 81.1393 8.61613C81.9916 5.82181 80.5721 2.05454 78.0794 0.646675C75.3007 -0.922696 75.5225 0.857806 73.347 0.857806C71.0741 0.857806 61.8379 -2.83649 55.5001 6.24504C54.5164 7.65485 53.7566 9.09287 53.7566 11.3355L53.7546 11.3394Z" fill="white"/>
</svg>
