<svg width="20" height="20" viewBox="0 0 20 20" fill="none" xmlns="http://www.w3.org/2000/svg">
<path fill-rule="evenodd" clip-rule="evenodd" d="M1.0352 9.5637C1.0352 10.1451 1.07736 10.8176 1.1687 11.343C1.26706 11.9315 1.53406 12.8702 1.80105 13.4236C1.92753 13.6828 2.03995 13.956 2.1875 14.2082C2.44044 14.6215 2.34207 14.4254 2.16641 15.0138L1.68161 16.4779C1.53406 16.8562 1.41461 17.2555 1.28814 17.6478L0.740101 19.245C0.719022 19.301 0.711996 19.343 0.690918 19.3921C0.789284 19.3921 2.23668 18.9227 2.43341 18.8527L4.1759 18.2993C4.4991 18.2082 5.03309 17.998 5.34225 17.921C5.67248 17.8369 5.70058 17.7318 5.89029 17.8439C5.98163 17.9 6.05189 17.914 6.14323 17.963C6.26267 18.0331 6.4032 18.0891 6.52967 18.1451L6.79666 18.2642C6.84585 18.2852 6.89503 18.2993 6.94421 18.3133C7.14797 18.3763 7.30957 18.4604 7.52036 18.5164C8.0403 18.6495 8.19487 18.7056 8.75697 18.7966C9.572 18.9297 10.4995 18.9437 11.3356 18.8457C11.5112 18.8246 11.6728 18.7966 11.8274 18.7686C12.0031 18.7406 12.1506 18.7126 12.3192 18.6705C12.9094 18.5234 13.4786 18.3483 14.0266 18.0891C14.1601 18.0261 14.2795 17.963 14.406 17.9C14.4692 17.8719 14.5255 17.8439 14.5887 17.8089L15.1297 17.4937C15.3335 17.3746 15.5232 17.2204 15.7199 17.0873C15.8534 16.9893 16.008 16.8842 16.1274 16.7721C16.1836 16.7161 16.2188 16.7021 16.275 16.646C16.3312 16.59 16.3733 16.569 16.4295 16.5129L17.3921 15.4831C17.4202 15.4481 17.4273 15.4411 17.4554 15.4131L17.6451 15.1609C17.8348 14.9157 18.0456 14.5655 18.2001 14.2923L18.8325 12.9402C19.0925 12.2607 19.24 11.5812 19.3384 10.8597C19.5 9.67579 19.3805 8.44286 19.0644 7.30101C19.0222 7.1539 18.9871 7.00679 18.9379 6.86668C18.8465 6.59348 18.7271 6.32027 18.6147 6.06108C18.5866 5.99803 18.5725 5.92798 18.5374 5.86493C18.5093 5.80188 18.4742 5.73183 18.439 5.66878L17.8067 4.60398C17.617 4.33078 17.4273 4.05057 17.1954 3.81239C17.1392 3.75635 17.1181 3.71432 17.0689 3.65127C16.9916 3.5532 16.8792 3.45512 16.7879 3.36405C16.6474 3.22395 16.5209 3.06983 16.3593 2.95074C16.296 2.90171 16.2679 2.85968 16.2047 2.81064L15.734 2.43936C15.6707 2.39733 15.6215 2.34829 15.5653 2.31327C15.3405 2.16616 15.1157 1.99803 14.8768 1.87194L14.5114 1.66878C14.392 1.61274 14.2655 1.52868 14.139 1.47964C14.0055 1.4236 13.879 1.36055 13.7526 1.30451L12.4738 0.884194C12.3122 0.842163 12.1717 0.828152 12.0031 0.786121C11.3496 0.632005 10.6681 0.625 9.97952 0.625C9.17151 0.625 8.27919 0.765105 7.5836 1.00328L7.155 1.13638C7.00745 1.18542 6.89503 1.23446 6.74748 1.2905C6.48049 1.38857 6.24159 1.52167 5.98865 1.64777C5.80597 1.73884 5.61627 1.83691 5.44764 1.94899C5.16659 2.13113 4.69584 2.42535 4.47802 2.63551L3.56463 3.4271L2.93227 4.17666C2.75661 4.37281 2.61609 4.60398 2.46854 4.82815C2.35612 4.98927 2.23668 5.1644 2.15236 5.35355L1.96266 5.72482C1.81511 6.04707 1.66756 6.37631 1.54108 6.71257C1.51298 6.78262 1.49893 6.85267 1.47785 6.92272C1.31625 7.39208 1.14762 8.03656 1.10546 8.51992C1.08439 8.85617 1.0352 9.19243 1.0352 9.5637ZM2.58096 9.75985C2.58096 9.30451 2.63014 8.8982 2.7004 8.47789C2.78472 7.9525 2.92524 7.47614 3.11495 6.98577L3.25547 6.64251C3.31168 6.53043 3.34681 6.43236 3.40302 6.32728C3.45923 6.21519 3.50842 6.13813 3.56463 6.01905C3.67002 5.81589 3.81054 5.62675 3.93701 5.4306C4.06348 5.23446 4.204 5.06633 4.35155 4.8912C4.56936 4.625 4.79421 4.39383 5.04715 4.16265C5.54601 3.70031 6.12215 3.30801 6.7264 2.99978C8.11056 2.29926 9.56498 2.02605 11.1459 2.21519C11.8836 2.30626 12.3544 2.46038 13.0289 2.69155C13.1062 2.71957 13.1272 2.73358 13.1905 2.7616C13.4575 2.8947 13.7315 2.99978 13.9915 3.1539C14.3849 3.39208 14.7433 3.65127 15.1016 3.93148L15.7129 4.51292C15.8253 4.63901 15.9447 4.74409 16.0501 4.87719C16.1204 4.96826 16.1836 5.04532 16.2609 5.13638C16.3031 5.18542 16.3242 5.22045 16.3593 5.26948C16.5279 5.48665 16.809 5.90696 16.9144 6.13113C17.1532 6.63551 17.2165 6.74059 17.4132 7.287C17.8699 8.55495 17.9613 10.1381 17.631 11.4481C17.4273 12.2607 17.4202 12.1977 17.1532 12.8772C17.0689 13.0944 16.9565 13.2975 16.8371 13.4937C16.7176 13.6898 16.6052 13.893 16.4647 14.0821C16.3944 14.1732 16.3382 14.2642 16.2679 14.3553L16.0501 14.6285C15.8885 14.8036 15.6496 15.0979 15.474 15.238L15.1016 15.5672C14.94 15.7213 14.7362 15.8404 14.5536 15.9805C14.2233 16.2257 13.7034 16.5269 13.338 16.674C13.2186 16.7231 13.1272 16.7581 13.0078 16.8141C12.6284 16.9823 11.9539 17.1644 11.5323 17.2345C11.2583 17.2765 10.9562 17.3255 10.6681 17.3255L10.1973 17.3465C9.305 17.3465 8.53213 17.2064 7.70304 16.9332C7.4501 16.8492 7.08474 16.7231 6.87395 16.597L6.1362 16.1837C6.08702 16.1556 6.01676 16.0926 5.96055 16.0996L5.30009 16.3168C5.01904 16.4078 4.70286 16.4919 4.42884 16.597C4.07051 16.7301 3.68407 16.8282 3.31871 16.9542C3.24142 16.9823 3.17116 17.0103 3.09387 17.0243C3.1009 16.9332 3.16413 16.7581 3.19224 16.674L3.36789 16.1486C3.47329 15.8194 3.63488 15.4271 3.72622 15.1049C3.78946 14.8947 4.00727 14.3763 4.00727 14.2152L3.5857 13.5427C3.5576 13.5007 3.55057 13.4726 3.52246 13.4236C3.45923 13.2975 3.38194 13.1924 3.32573 13.0523L2.82687 11.7003C2.66527 11.1049 2.58096 10.4183 2.58096 9.75985Z" fill="white"/>
<path fill-rule="evenodd" clip-rule="evenodd" d="M5.62305 7.46031C5.62305 7.85961 5.6652 8.23089 5.7987 8.56714C5.84788 8.69323 5.89707 8.86136 5.95328 8.97344C6.20622 9.47782 6.2554 9.5759 6.57158 10.0523L7.02828 10.7248C7.07044 10.7808 7.10557 10.8158 7.14773 10.8789C7.19691 10.9489 7.22501 10.9769 7.2742 11.04C7.32338 11.103 7.34446 11.1381 7.39364 11.1941L7.7871 11.6565C7.95573 11.8736 8.57404 12.434 8.79887 12.6162C8.86211 12.6652 8.90427 12.7002 8.96048 12.7423C9.02371 12.7913 9.04479 12.8193 9.11506 12.8614C9.17829 12.9034 9.22045 12.9384 9.28368 12.9804C9.48041 13.1276 9.77552 13.2817 9.99333 13.4008C10.1198 13.4778 10.2392 13.5128 10.3798 13.5829L11.1737 13.9192C11.3283 13.9682 11.4337 14.0242 11.5812 14.0733C12.3892 14.3535 12.4384 14.3605 13.2113 14.2554C13.3027 14.2414 13.3589 14.2204 13.4432 14.1924C13.8437 14.0593 14.0966 13.9051 14.4268 13.6389C14.5463 13.5409 14.6868 13.3868 14.75 13.2466C14.8273 13.0715 14.9679 12.5461 14.9679 12.329C14.9679 12.1048 14.9608 12.0137 14.6376 11.8806C14.5041 11.8246 14.0264 11.5374 13.9069 11.4813C13.675 11.3762 12.8811 10.9139 12.6843 10.9139C12.4946 10.9139 12.3822 11.103 12.2206 11.2922C12.1714 11.3482 12.1433 11.4043 12.0942 11.4603C12.045 11.5093 12.0028 11.5444 11.9607 11.6004C11.9044 11.6705 11.8834 11.6915 11.8201 11.7545C11.7499 11.8316 11.6585 11.9577 11.5461 12.0487C11.4267 12.1468 11.244 12.1048 11.1245 12.0277L10.0355 11.4183C9.62094 11.1171 9.48744 10.998 9.12208 10.6337C8.86914 10.3815 8.55296 9.9822 8.37028 9.68798C8.30002 9.5759 7.97681 9.07152 7.97681 8.95243C7.97681 8.79131 8.20868 8.63019 8.30002 8.5181L8.53891 8.2449C9.03074 7.68448 8.75672 7.50935 8.55296 6.89989C8.43351 6.54262 8.25083 6.10129 8.13841 5.77905C8.01897 5.42178 7.92763 5.29569 7.59037 5.29569C7.32338 5.29569 6.8456 5.12756 6.48726 5.56188C6.44511 5.61793 6.42403 5.61092 6.37485 5.65996C6.26945 5.76504 6.15001 5.93316 6.06569 6.05225C5.78465 6.44455 5.62305 6.96294 5.62305 7.46031Z" fill="white"/>
</svg>
