<svg width="60" height="47" viewBox="0 0 60 47" fill="none" xmlns="http://www.w3.org/2000/svg">
<path fill-rule="evenodd" clip-rule="evenodd" d="M0 14.7007C0 15.9133 0.0468641 16.69 0.84464 17.7215C0.989029 17.9082 1.15863 18.1499 1.35366 18.2997C1.85838 18.6872 1.94694 18.818 2.5971 19.1098C4.29891 19.8734 6.2603 19.3493 7.4441 18.1586C9.91868 15.6694 12.7691 13.7041 15.9047 12.1236L18.2627 11.0994C18.8392 10.8942 19.309 10.7115 19.9085 10.5104C21.6168 9.93741 24.5304 9.29705 26.3387 9.14928L29.5342 8.96245L32.6774 9.142C33.0333 9.16607 33.4007 9.20897 33.7128 9.25416C35.0562 9.44868 36.2727 9.67169 37.4596 9.9768C38.6745 10.2891 39.7575 10.6656 40.8381 11.0677C42.8053 11.7997 44.9965 12.9258 46.748 14.0967C47.1962 14.3963 47.6347 14.684 48.0682 15.0112C49.3767 15.9987 50.5265 16.9372 51.6855 18.0981C52.9734 19.3881 54.8024 19.8334 56.5081 19.1458C57.1592 18.8834 57.3213 18.6904 57.8012 18.325C58.4736 17.8131 59.1899 16.4633 59.1899 15.4859C59.1899 14.2228 59.108 13.3219 58.2102 12.2982C57.2754 11.2324 55.2604 9.53947 54.2789 8.74009C53.3715 8.00101 52.0824 7.14023 51.0973 6.48598L49.8538 5.73634C49.6899 5.6401 49.546 5.54459 49.4029 5.46246C48.2996 4.82959 46.9022 4.14303 45.7418 3.62728C45.1114 3.34706 44.4734 3.07566 43.8111 2.84013C38.8011 1.05861 35.1282 0.265625 29.1722 0.265625C22.9714 0.265625 16.7754 1.90587 11.5964 4.49348L9.41108 5.69044C9.25977 5.78204 9.13554 5.83753 8.98694 5.93068C7.49755 6.86432 4.59747 8.81036 3.45748 9.94408L1.3428 11.8761C0.663288 12.5556 0 13.6629 0 14.7007L0 14.7007ZM20.8977 37.9539C20.8977 40.8706 22.2986 43.4029 24.5121 45.0299C25.8858 46.0397 27.4996 46.5769 29.1374 46.6512H29.9232C32.0457 46.5564 34.1508 45.689 35.7707 44.0692C35.9563 43.8836 36.108 43.7578 36.2739 43.5457C37.5182 41.9543 38.2923 40.239 38.2923 38.0143C38.2923 36.4294 37.9159 35.0603 37.2465 33.8658C37.088 33.583 37.0093 33.4318 36.8427 33.1825C36.3511 32.4466 35.7879 31.8003 35.1006 31.2404C33.8556 30.2261 31.8699 29.317 30.1386 29.317C28.3825 29.317 27.3682 29.368 25.7495 30.1826C22.8029 31.6655 20.8977 34.5857 20.8977 37.9539ZM8.39531 25.7535C8.39531 29.8511 12.7219 31.3074 15.2557 29.4733C15.6879 29.1604 15.9132 28.8625 16.3164 28.5408C16.5173 28.3806 16.6414 28.2002 16.842 28.0396C17.0455 27.8768 17.2033 27.7468 17.4085 27.5794C20.5703 24.9992 24.9352 23.2772 29.1722 23.2772C32.9279 23.2772 36.1822 24.0353 39.3539 25.8998C41.1221 26.9392 41.5039 27.338 42.8075 28.4861C42.9276 28.5919 42.9582 28.5926 43.0783 28.6984C43.3462 28.9343 43.5205 29.1985 43.8596 29.4271C46.8445 31.4392 50.7946 29.5922 50.7946 25.7535C50.7946 24.6512 50.2243 23.5172 49.6631 22.9592C49.3265 22.6246 49.0379 22.3207 48.697 21.9925L47.0965 20.6335C46.223 19.9177 44.6 18.8011 43.6073 18.2642C43.3944 18.1491 43.1605 18.0233 42.9456 17.8991C39.6009 15.9655 34.3538 14.5799 30.5613 14.5799C27.2247 14.5799 25.073 14.6868 21.8246 15.6276C19.6685 16.2521 19.3141 16.5215 17.5673 17.229C16.9866 17.4642 15.5315 18.2899 15.0129 18.6004C14.5906 18.8532 14.1866 19.0927 13.7962 19.3768C13.1983 19.8121 11.5823 20.9794 11.0366 21.5095C9.87519 22.6377 8.39531 23.6342 8.39531 25.7535H8.39531Z" fill="#D6A350"/>
</svg>
