<svg width="147" height="157" viewBox="0 0 147 157" fill="none" xmlns="http://www.w3.org/2000/svg">
<path fill-rule="evenodd" clip-rule="evenodd" d="M59.6662 138.783L64.4611 133.841C65.3113 134.435 65.8416 135.052 66.7053 135.7C67.5985 136.371 68.0976 136.732 69.0996 137.262C69.0996 142.908 70.2608 142.487 73.3598 148.216C73.9739 149.352 74.56 150.381 75.1856 151.564C73.0501 152.589 72.4576 151.977 70.6265 150.037C70.348 149.741 70.0299 149.416 69.7339 149.103C69.6909 149.058 69.6277 148.994 69.585 148.948L68.87 148.142C68.1104 147.348 67.6938 147.254 66.8825 146.477C66.0572 145.687 65.9183 145.287 65.2172 144.491C63.7215 142.793 60.7897 140.461 59.6662 138.783V138.783ZM5.50044 127.524C7.40282 126.518 9.13384 125.457 10.978 124.481C12.5697 127.49 13.0489 128.389 15.8467 130.263C15.1292 133.261 16.1068 135.815 18.1731 137.066C19.9976 138.17 21.6233 139.032 23.454 140.001C23.3836 140.848 23.2982 141.278 22.7739 141.755C21.2342 143.156 18.0407 141.72 14.9242 140.923C11.6805 140.094 10.1872 136.525 8.03933 132.593C7.51747 131.638 7.18816 131.124 6.71708 130.264C6.18992 129.3 5.67273 128.869 5.50044 127.524ZM72.2174 133.381C69.9719 132.8 69.3451 131.547 67.8823 130.567C68.2948 129.951 68.3768 129.976 68.8631 129.418C69.3451 128.865 69.3414 128.768 69.7978 128.223C72.4769 125.023 72.0912 126.36 75.7941 120.83L80.2902 125.159L72.217 133.381L72.2174 133.381ZM19.4985 126.611C17.1752 126.611 15.5675 122.993 14.9338 122.047L19.4262 118.627C19.953 118.14 20.273 117.77 20.7933 117.255C22.6689 115.398 24.0323 113.147 26.1932 111.7C27.7077 114.562 29.5475 117.358 31.062 120.221C29.526 121.033 20.3693 126.611 19.4985 126.611V126.611ZM78.4591 116.643C78.78 115.508 79.2365 114.902 79.7502 114.135L85.606 119.842L83.7765 121.813L78.4591 116.643V116.643ZM30.1491 108.658C31.4848 108.346 31.4206 107.867 32.888 107.745C33.227 109.2 34.4711 110.738 35.2179 112.109C35.8687 113.304 37.3433 115.259 37.4524 116.57C36.7448 116.944 35.7575 117.589 35.0178 117.787C34.7293 116.706 33.1641 114.352 32.5229 113.283C32.063 112.516 31.773 111.915 31.3069 111.152C31.0445 110.722 30.8909 110.505 30.6432 109.989C30.3781 109.437 30.317 109.034 30.1491 108.658V108.658ZM41.7126 113.831C40.8957 112.611 37.5542 107.142 37.4524 105.919C39.1722 105.919 43.1966 105.532 44.6805 104.322C46.4415 102.887 47.3394 100.939 48.4074 98.9201C49.5427 99.2232 53.7781 103.633 54.4934 104.702C53.8952 105.103 51.2367 107.852 48.6286 109.792C47.3693 110.729 43.1523 113.496 41.7126 113.831V113.831ZM86.445 103.18C87.2921 101.915 87.8679 100.768 88.7044 99.3538C89.5628 97.9022 90.2576 96.6893 91.0093 95.2683C91.9294 95.4826 95.5413 97.6056 96.2641 98.23C97.6374 99.4161 98.9214 101.366 98.9214 103.789C98.9214 107.334 96.5859 109.015 94.7371 110.864C93.2588 112.342 90.3548 115.582 88.8795 116.57L82.7225 110.25C83.5151 109.696 83.6946 109.366 84.4404 108.783C85.9007 107.643 88.529 106.292 86.445 103.18V103.18ZM51.0715 94.4296C51.685 93.3366 53.7983 89.387 54.4931 88.8779C56.1699 92.3727 57.5326 95.763 60.8835 98.0069L57.9128 101.122L51.0712 94.4296H51.0715ZM77.9245 81.8787C76.8393 81.589 76.1505 80.7194 75.0061 80.8409C73.8016 80.969 70.2474 83.1489 75.5049 86.124C76.8247 86.8711 78.0687 87.5242 79.3907 88.3243C81.9414 89.8683 84.6616 91.2317 87.0535 92.8334C86.5198 93.6304 86.2958 94.0949 85.8362 94.9636C84.4647 94.238 82.7122 93.6575 81.0987 93.0064C75.6719 90.8164 70.3168 90.5731 70.3168 82.1828C70.3168 79.1492 73.0685 76.2189 73.6642 73.6623C74.7407 73.9131 78.8916 76.5377 80.359 77.3141C80.092 78.3136 78.5003 80.7905 77.9245 81.8784V81.8787ZM67.5782 64.2292C66.4171 63.9588 66.3049 63.5868 65.1437 63.3164L68.182 56.6172C68.75 55.4648 69.2286 54.6064 69.7507 53.3172C70.1925 52.2264 70.9558 51.102 71.2297 49.9271H71.8382C71.8382 54.2235 72.3591 51.8214 70.2293 57.1428C69.6454 58.6018 67.6826 62.9702 67.5779 64.2292H67.5782ZM73.9686 44.754C73.9686 43.7838 74.8033 42.4338 75.1859 41.711C79.7237 41.711 83.0976 38.3879 83.0976 34.7121C84.2167 34.9729 86.1503 36.3135 87.2641 36.936L95.3774 41.6035C100.836 44.5262 97.6019 47.5683 94.6764 52.681L83.0976 73.0541C81.0538 72.884 73.5415 67.4358 71.5341 66.9681C71.8391 65.6593 72.3351 64.6614 72.8386 63.4039C73.3789 62.0549 73.7914 61.022 74.3163 59.7085C75.9165 55.7043 77.8563 52.2719 75.8975 47.6939C75.5834 46.9601 73.9683 44.8649 73.9683 44.754H73.9686ZM92.8354 18.584C92.8354 17.8858 92.7871 16.7582 94.0527 16.7582H111.398V27.713C111.398 34.7358 101.896 31.5554 99.0002 29.4602C98.1736 28.8623 97.0866 27.674 96.0778 27.5142C94.3134 27.2344 90.1762 30.1194 97.7047 34.103C97.5072 34.8427 96.862 35.83 96.4875 36.5375C95.4696 36.3005 95.2157 36.0609 94.4137 35.568L90.5317 33.364C89.6223 32.8175 89.3886 32.5374 88.2714 32.2773C88.7209 30.3469 91.5518 27.2643 92.2272 24.3656C93.8311 24.7391 96.7919 25.0868 96.7919 22.5398C96.7919 18.9775 92.836 20.9129 92.836 18.584H92.8354ZM101.964 5.49911C106.073 5.49911 110.026 8.61408 110.789 11.8895H93.1398C94.0393 10.1893 94.7128 8.59663 96.3507 7.49309C97.6063 6.64689 100.069 5.49911 101.964 5.49911ZM87.9663 16.4538C87.9663 22.3217 88.5832 21.8267 85.9303 26.5898C85.4013 27.5394 84.5769 28.557 84.3149 29.5387C81.4853 28.8794 79.0209 25.5828 76.0988 25.5828C74.278 25.5828 73.9686 26.7621 73.9686 28.3214C73.9686 30.3992 78.5333 30.3051 78.5333 34.1033C78.5333 35.8474 76.7371 37.132 75.2236 37.0541C73.3695 36.9585 68.0453 33.6915 66.4847 32.4583C64.9449 31.2417 64.4088 30.1475 61.7966 30.1475C58.782 30.1475 57.8925 32.305 56.5833 34.0635C54.8554 36.3846 51.5716 38.7325 49.2259 40.704C46.8484 42.7021 42.9296 44.8805 42.9296 48.4058C42.9296 51.7317 43.9169 50.9786 41.4861 53.3527C38.2281 56.5353 38.2403 58.1295 34.9337 54.8803C31.1265 51.1391 35.7952 48.3893 39.9626 44.2218L57.9165 26.2679C63.4065 20.778 61.5483 22.9383 66.094 24.6662C66.9143 24.9781 67.3031 25.0423 68.1004 24.6123C68.8522 24.207 69.404 23.4085 69.404 22.5401C69.404 20.544 67.9306 20.3542 66.6071 19.5551C61.4826 16.4598 59.1686 18.321 55.482 22.0077L34.0286 43.461C32.2328 45.2568 30.1245 46.7271 29.22 49.3031C27.3491 54.632 32.3758 61.4909 37.4521 61.4909C40.954 61.4909 45.8766 56.3608 47.3092 53.3941C48.0719 51.8148 47.7983 49.9567 47.7983 47.7973C48.8651 47.5125 57.2921 40.1572 58.8331 38.7481C59.9986 37.6822 61.0614 36.1004 61.796 34.7121C63.1575 35.6237 64.2882 36.9039 65.7609 37.7461C66.5856 38.2178 67.2695 38.505 68.1272 39.0313C68.9581 39.541 69.6006 39.9516 70.6209 40.1893L67.5823 46.8885C66.5177 49.0488 65.5107 51.2204 64.4293 53.4733C63.8333 54.7148 63.5348 55.5962 62.912 56.825C62.2811 58.0697 61.9858 58.8916 61.3916 60.1737C59.2995 64.6878 55.081 72.322 53.9547 77.081C53.6117 78.531 53.6699 79.8723 53.163 81.1581L42.394 99.9061C41.4384 101.081 36.3697 101.456 34.6468 101.897C24.9402 104.384 22.0947 109.3 17.2945 114.062C15.4392 115.902 14.0558 116.963 11.8936 118.398C10.9443 119.028 9.8741 119.666 8.84752 120.221C3.86694 122.91 0.935791 123.986 0.935791 128.437C0.935791 130.65 4.06073 135.217 5.25431 137.203C7.14952 140.356 7.92312 142.854 11.2718 144.575C12.9716 145.448 19.8412 147.32 21.7267 147.103C25.0729 146.717 28.3224 143.769 28.3224 140.305C28.3224 135.181 20.4107 134.241 20.4107 132.393C20.4107 131.437 22.1383 130.801 22.9387 130.357L34.9128 123.464C39.9389 120.726 45.1282 117.849 49.868 114.684L53.841 111.658C57.347 108.828 61.7244 103.136 64.8384 101.05C66.6953 101.483 68.2032 102.572 70.3159 102.572C72.5504 102.572 72.7149 99.0783 70.5085 98.1187C65.0789 95.7577 62.4475 94.4504 59.7622 89.0854C57.4264 84.4192 57.9246 78.6644 60.0694 74.067C61.0237 72.021 62.4896 69.823 63.0127 67.5769C64.9845 68.0362 68.0122 70.0934 69.7074 71.2284C68.6958 75.0166 65.4472 77.491 65.4472 82.7919C65.4472 87.6884 68.3528 92.005 71.2201 94.0601C72.6323 95.0723 81.475 98.4711 83.4011 98.9201C83.0194 99.641 82.6954 100.161 82.4882 101.05L80.0624 100.694C77.6805 100.377 76.8758 105.3 80.6622 105.615C78.852 108.318 77.4325 108.324 74.3761 113.935C72.9047 116.636 70.5552 120.691 68.5721 122.738L57.7632 133.838C55.8546 135.746 54.7962 136.482 54.7962 139.392C54.7962 141.744 61.147 147.112 62.9363 148.901C64.4813 150.446 65.8036 151.769 67.3486 153.314C69.6043 155.57 70.5586 156.737 74.2715 156.737C75.9635 156.737 77.3687 155.86 78.3133 154.997C80.984 152.558 79.7322 149.617 78.1722 147.054C77.2064 145.468 74.5628 141.432 73.9337 139.695C73.4225 138.284 74.8429 137.447 75.8688 136.425C79.6901 132.618 100.395 112.57 101.956 109.867C104.471 105.513 103.897 99.2139 100.372 95.6415C98.3487 93.5909 97.0645 93.1556 94.601 91.6748L85.3589 86.3103C81.2208 83.8076 81.3769 84.7772 88.0234 73.7209L93.1469 64.8467C93.3685 64.4828 93.1641 64.7657 93.5037 64.2903C93.7336 63.9681 93.8682 63.8307 94.0511 63.6204C96.762 75.2562 98.9553 73.3582 117.483 73.3582C122.237 73.3582 122.124 69.2512 119.541 68.5611C117.217 67.9399 106.708 68.5107 103.163 68.5066C101.082 68.5044 100.252 68.1614 99.7056 66.4868C99.4386 65.6693 97.3985 57.9874 97.3985 57.8388C97.3985 57.1079 101.184 50.5652 102.267 49.3183C102.331 52.2055 104.022 54.6771 104.094 57.8376C104.136 59.6801 104.2 60.9413 105.077 62.0274C107.792 65.3873 110.235 63.908 113.579 63.6528C116.712 63.4139 121.027 64.4545 124.177 64.5333C127.447 64.6149 131.624 66.2005 133.231 62.3278L133.512 61.6966C134.503 60.2945 138.78 60.8818 140.305 60.8818C143.679 60.8818 142.702 66.7772 140.682 67.9536C137.856 69.5996 127.22 66.426 127.22 70.6196C127.22 74.4717 134.06 73.3582 136.653 73.3582C141.488 73.3582 147 71.2455 147 65.7506C147 61.2498 147.193 56.0128 139.392 56.0128C136.821 56.0128 133.765 55.9053 131.677 57.1226C131.046 57.4902 131.347 57.2821 130.772 57.7398L128.741 60.2734C127.548 59.701 115.3 59.0561 112.918 59.0561C107.819 59.0561 109.713 61.3186 108.745 56.2296C108.113 52.9094 106.475 45.9977 104.885 43.3526C103.978 41.8431 102.183 39.7416 100.441 39.2762C100.643 38.5194 101.559 36.9965 101.963 36.2332C103.816 36.2746 105.201 36.8416 107.44 36.8416C111.479 36.8416 114.786 33.9248 115.675 30.7746C116.341 28.4155 115.961 20.0773 115.961 16.7576C117.083 16.1635 118.091 16.0825 118.091 14.3231C118.091 12.7304 117.154 12.0135 115.656 11.8886C115.197 6.37179 108.772 0.933838 103.18 0.933838C97.6564 0.933838 93.7975 2.52653 90.523 6.83944C89.588 8.07103 89.1528 9.57991 88.5518 10.9545C87.852 12.555 87.3921 11.6745 86.4497 12.8232C85.3561 14.1561 86.0147 16.2912 87.9648 16.4535L87.9663 16.4538Z" fill="white"/>
</svg>
